G75*
%MOIN*%
%OFA0B0*%
%FSLAX24Y24*%
%IPPOS*%
%LPD*%
%AMOC8*
5,1,8,0,0,1.08239X$1,22.5*
%
%ADD10C,0.0000*%
%ADD11R,0.0472X0.0472*%
%ADD12C,0.0669*%
%ADD13OC8,0.0630*%
%ADD14C,0.0413*%
%ADD15OC8,0.0531*%
%ADD16R,0.0531X0.0531*%
%ADD17R,0.0709X0.0709*%
%ADD18R,0.1000X0.1000*%
%ADD19C,0.0591*%
%ADD20R,0.0591X0.0591*%
%ADD21C,0.0709*%
%ADD22C,0.0433*%
%ADD23C,0.0472*%
%ADD24R,0.0860X0.0860*%
%ADD25C,0.0394*%
%ADD26C,0.0380*%
%ADD27C,0.0728*%
%ADD28R,0.1800X0.0450*%
%ADD29R,0.0500X0.0500*%
%ADD30C,0.0400*%
%ADD31C,0.0270*%
%ADD32C,0.0047*%
%ADD33C,0.0236*%
%ADD34C,0.0120*%
%ADD35C,0.0376*%
%ADD36R,0.0376X0.0376*%
%ADD37C,0.0160*%
%ADD38R,0.0295X0.0295*%
%ADD39R,0.0354X0.0354*%
D10*
X004227Y002440D02*
X043597Y002440D01*
X043597Y026062D01*
X004227Y026062D01*
X004227Y002440D01*
X004975Y003818D02*
X004977Y003868D01*
X004983Y003918D01*
X004993Y003967D01*
X005007Y004015D01*
X005024Y004062D01*
X005045Y004107D01*
X005070Y004151D01*
X005098Y004192D01*
X005130Y004231D01*
X005164Y004268D01*
X005201Y004302D01*
X005241Y004332D01*
X005283Y004359D01*
X005327Y004383D01*
X005373Y004404D01*
X005420Y004420D01*
X005468Y004433D01*
X005518Y004442D01*
X005567Y004447D01*
X005618Y004448D01*
X005668Y004445D01*
X005717Y004438D01*
X005766Y004427D01*
X005814Y004412D01*
X005860Y004394D01*
X005905Y004372D01*
X005948Y004346D01*
X005989Y004317D01*
X006028Y004285D01*
X006064Y004250D01*
X006096Y004212D01*
X006126Y004172D01*
X006153Y004129D01*
X006176Y004085D01*
X006195Y004039D01*
X006211Y003991D01*
X006223Y003942D01*
X006231Y003893D01*
X006235Y003843D01*
X006235Y003793D01*
X006231Y003743D01*
X006223Y003694D01*
X006211Y003645D01*
X006195Y003597D01*
X006176Y003551D01*
X006153Y003507D01*
X006126Y003464D01*
X006096Y003424D01*
X006064Y003386D01*
X006028Y003351D01*
X005989Y003319D01*
X005948Y003290D01*
X005905Y003264D01*
X005860Y003242D01*
X005814Y003224D01*
X005766Y003209D01*
X005717Y003198D01*
X005668Y003191D01*
X005618Y003188D01*
X005567Y003189D01*
X005518Y003194D01*
X005468Y003203D01*
X005420Y003216D01*
X005373Y003232D01*
X005327Y003253D01*
X005283Y003277D01*
X005241Y003304D01*
X005201Y003334D01*
X005164Y003368D01*
X005130Y003405D01*
X005098Y003444D01*
X005070Y003485D01*
X005045Y003529D01*
X005024Y003574D01*
X005007Y003621D01*
X004993Y003669D01*
X004983Y003718D01*
X004977Y003768D01*
X004975Y003818D01*
X007317Y003739D02*
X007319Y003787D01*
X007325Y003835D01*
X007335Y003882D01*
X007348Y003928D01*
X007366Y003973D01*
X007386Y004017D01*
X007411Y004059D01*
X007439Y004098D01*
X007469Y004135D01*
X007503Y004169D01*
X007540Y004201D01*
X007578Y004230D01*
X007619Y004255D01*
X007662Y004277D01*
X007707Y004295D01*
X007753Y004309D01*
X007800Y004320D01*
X007848Y004327D01*
X007896Y004330D01*
X007944Y004329D01*
X007992Y004324D01*
X008040Y004315D01*
X008086Y004303D01*
X008131Y004286D01*
X008175Y004266D01*
X008217Y004243D01*
X008257Y004216D01*
X008295Y004186D01*
X008330Y004153D01*
X008362Y004117D01*
X008392Y004079D01*
X008418Y004038D01*
X008440Y003995D01*
X008460Y003951D01*
X008475Y003906D01*
X008487Y003859D01*
X008495Y003811D01*
X008499Y003763D01*
X008499Y003715D01*
X008495Y003667D01*
X008487Y003619D01*
X008475Y003572D01*
X008460Y003527D01*
X008440Y003483D01*
X008418Y003440D01*
X008392Y003399D01*
X008362Y003361D01*
X008330Y003325D01*
X008295Y003292D01*
X008257Y003262D01*
X008217Y003235D01*
X008175Y003212D01*
X008131Y003192D01*
X008086Y003175D01*
X008040Y003163D01*
X007992Y003154D01*
X007944Y003149D01*
X007896Y003148D01*
X007848Y003151D01*
X007800Y003158D01*
X007753Y003169D01*
X007707Y003183D01*
X007662Y003201D01*
X007619Y003223D01*
X007578Y003248D01*
X007540Y003277D01*
X007503Y003309D01*
X007469Y003343D01*
X007439Y003380D01*
X007411Y003419D01*
X007386Y003461D01*
X007366Y003505D01*
X007348Y003550D01*
X007335Y003596D01*
X007325Y003643D01*
X007319Y003691D01*
X007317Y003739D01*
X005113Y008542D02*
X005115Y008576D01*
X005121Y008610D01*
X005131Y008643D01*
X005144Y008674D01*
X005162Y008704D01*
X005182Y008732D01*
X005206Y008757D01*
X005232Y008779D01*
X005260Y008797D01*
X005291Y008813D01*
X005323Y008825D01*
X005357Y008833D01*
X005391Y008837D01*
X005425Y008837D01*
X005459Y008833D01*
X005493Y008825D01*
X005525Y008813D01*
X005555Y008797D01*
X005584Y008779D01*
X005610Y008757D01*
X005634Y008732D01*
X005654Y008704D01*
X005672Y008674D01*
X005685Y008643D01*
X005695Y008610D01*
X005701Y008576D01*
X005703Y008542D01*
X005701Y008508D01*
X005695Y008474D01*
X005685Y008441D01*
X005672Y008410D01*
X005654Y008380D01*
X005634Y008352D01*
X005610Y008327D01*
X005584Y008305D01*
X005556Y008287D01*
X005525Y008271D01*
X005493Y008259D01*
X005459Y008251D01*
X005425Y008247D01*
X005391Y008247D01*
X005357Y008251D01*
X005323Y008259D01*
X005291Y008271D01*
X005260Y008287D01*
X005232Y008305D01*
X005206Y008327D01*
X005182Y008352D01*
X005162Y008380D01*
X005144Y008410D01*
X005131Y008441D01*
X005121Y008474D01*
X005115Y008508D01*
X005113Y008542D01*
X005113Y012086D02*
X005115Y012120D01*
X005121Y012154D01*
X005131Y012187D01*
X005144Y012218D01*
X005162Y012248D01*
X005182Y012276D01*
X005206Y012301D01*
X005232Y012323D01*
X005260Y012341D01*
X005291Y012357D01*
X005323Y012369D01*
X005357Y012377D01*
X005391Y012381D01*
X005425Y012381D01*
X005459Y012377D01*
X005493Y012369D01*
X005525Y012357D01*
X005555Y012341D01*
X005584Y012323D01*
X005610Y012301D01*
X005634Y012276D01*
X005654Y012248D01*
X005672Y012218D01*
X005685Y012187D01*
X005695Y012154D01*
X005701Y012120D01*
X005703Y012086D01*
X005701Y012052D01*
X005695Y012018D01*
X005685Y011985D01*
X005672Y011954D01*
X005654Y011924D01*
X005634Y011896D01*
X005610Y011871D01*
X005584Y011849D01*
X005556Y011831D01*
X005525Y011815D01*
X005493Y011803D01*
X005459Y011795D01*
X005425Y011791D01*
X005391Y011791D01*
X005357Y011795D01*
X005323Y011803D01*
X005291Y011815D01*
X005260Y011831D01*
X005232Y011849D01*
X005206Y011871D01*
X005182Y011896D01*
X005162Y011924D01*
X005144Y011954D01*
X005131Y011985D01*
X005121Y012018D01*
X005115Y012052D01*
X005113Y012086D01*
X006601Y017007D02*
X006603Y017057D01*
X006609Y017107D01*
X006619Y017156D01*
X006633Y017204D01*
X006650Y017251D01*
X006671Y017296D01*
X006696Y017340D01*
X006724Y017381D01*
X006756Y017420D01*
X006790Y017457D01*
X006827Y017491D01*
X006867Y017521D01*
X006909Y017548D01*
X006953Y017572D01*
X006999Y017593D01*
X007046Y017609D01*
X007094Y017622D01*
X007144Y017631D01*
X007193Y017636D01*
X007244Y017637D01*
X007294Y017634D01*
X007343Y017627D01*
X007392Y017616D01*
X007440Y017601D01*
X007486Y017583D01*
X007531Y017561D01*
X007574Y017535D01*
X007615Y017506D01*
X007654Y017474D01*
X007690Y017439D01*
X007722Y017401D01*
X007752Y017361D01*
X007779Y017318D01*
X007802Y017274D01*
X007821Y017228D01*
X007837Y017180D01*
X007849Y017131D01*
X007857Y017082D01*
X007861Y017032D01*
X007861Y016982D01*
X007857Y016932D01*
X007849Y016883D01*
X007837Y016834D01*
X007821Y016786D01*
X007802Y016740D01*
X007779Y016696D01*
X007752Y016653D01*
X007722Y016613D01*
X007690Y016575D01*
X007654Y016540D01*
X007615Y016508D01*
X007574Y016479D01*
X007531Y016453D01*
X007486Y016431D01*
X007440Y016413D01*
X007392Y016398D01*
X007343Y016387D01*
X007294Y016380D01*
X007244Y016377D01*
X007193Y016378D01*
X007144Y016383D01*
X007094Y016392D01*
X007046Y016405D01*
X006999Y016421D01*
X006953Y016442D01*
X006909Y016466D01*
X006867Y016493D01*
X006827Y016523D01*
X006790Y016557D01*
X006756Y016594D01*
X006724Y016633D01*
X006696Y016674D01*
X006671Y016718D01*
X006650Y016763D01*
X006633Y016810D01*
X006619Y016858D01*
X006609Y016907D01*
X006603Y016957D01*
X006601Y017007D01*
X008715Y017007D02*
X008717Y017057D01*
X008723Y017107D01*
X008733Y017156D01*
X008747Y017204D01*
X008764Y017251D01*
X008785Y017296D01*
X008810Y017340D01*
X008838Y017381D01*
X008870Y017420D01*
X008904Y017457D01*
X008941Y017491D01*
X008981Y017521D01*
X009023Y017548D01*
X009067Y017572D01*
X009113Y017593D01*
X009160Y017609D01*
X009208Y017622D01*
X009258Y017631D01*
X009307Y017636D01*
X009358Y017637D01*
X009408Y017634D01*
X009457Y017627D01*
X009506Y017616D01*
X009554Y017601D01*
X009600Y017583D01*
X009645Y017561D01*
X009688Y017535D01*
X009729Y017506D01*
X009768Y017474D01*
X009804Y017439D01*
X009836Y017401D01*
X009866Y017361D01*
X009893Y017318D01*
X009916Y017274D01*
X009935Y017228D01*
X009951Y017180D01*
X009963Y017131D01*
X009971Y017082D01*
X009975Y017032D01*
X009975Y016982D01*
X009971Y016932D01*
X009963Y016883D01*
X009951Y016834D01*
X009935Y016786D01*
X009916Y016740D01*
X009893Y016696D01*
X009866Y016653D01*
X009836Y016613D01*
X009804Y016575D01*
X009768Y016540D01*
X009729Y016508D01*
X009688Y016479D01*
X009645Y016453D01*
X009600Y016431D01*
X009554Y016413D01*
X009506Y016398D01*
X009457Y016387D01*
X009408Y016380D01*
X009358Y016377D01*
X009307Y016378D01*
X009258Y016383D01*
X009208Y016392D01*
X009160Y016405D01*
X009113Y016421D01*
X009067Y016442D01*
X009023Y016466D01*
X008981Y016493D01*
X008941Y016523D01*
X008904Y016557D01*
X008870Y016594D01*
X008838Y016633D01*
X008810Y016674D01*
X008785Y016718D01*
X008764Y016763D01*
X008747Y016810D01*
X008733Y016858D01*
X008723Y016907D01*
X008717Y016957D01*
X008715Y017007D01*
X008715Y024094D02*
X008717Y024144D01*
X008723Y024194D01*
X008733Y024243D01*
X008747Y024291D01*
X008764Y024338D01*
X008785Y024383D01*
X008810Y024427D01*
X008838Y024468D01*
X008870Y024507D01*
X008904Y024544D01*
X008941Y024578D01*
X008981Y024608D01*
X009023Y024635D01*
X009067Y024659D01*
X009113Y024680D01*
X009160Y024696D01*
X009208Y024709D01*
X009258Y024718D01*
X009307Y024723D01*
X009358Y024724D01*
X009408Y024721D01*
X009457Y024714D01*
X009506Y024703D01*
X009554Y024688D01*
X009600Y024670D01*
X009645Y024648D01*
X009688Y024622D01*
X009729Y024593D01*
X009768Y024561D01*
X009804Y024526D01*
X009836Y024488D01*
X009866Y024448D01*
X009893Y024405D01*
X009916Y024361D01*
X009935Y024315D01*
X009951Y024267D01*
X009963Y024218D01*
X009971Y024169D01*
X009975Y024119D01*
X009975Y024069D01*
X009971Y024019D01*
X009963Y023970D01*
X009951Y023921D01*
X009935Y023873D01*
X009916Y023827D01*
X009893Y023783D01*
X009866Y023740D01*
X009836Y023700D01*
X009804Y023662D01*
X009768Y023627D01*
X009729Y023595D01*
X009688Y023566D01*
X009645Y023540D01*
X009600Y023518D01*
X009554Y023500D01*
X009506Y023485D01*
X009457Y023474D01*
X009408Y023467D01*
X009358Y023464D01*
X009307Y023465D01*
X009258Y023470D01*
X009208Y023479D01*
X009160Y023492D01*
X009113Y023508D01*
X009067Y023529D01*
X009023Y023553D01*
X008981Y023580D01*
X008941Y023610D01*
X008904Y023644D01*
X008870Y023681D01*
X008838Y023720D01*
X008810Y023761D01*
X008785Y023805D01*
X008764Y023850D01*
X008747Y023897D01*
X008733Y023945D01*
X008723Y023994D01*
X008717Y024044D01*
X008715Y024094D01*
X006601Y024094D02*
X006603Y024144D01*
X006609Y024194D01*
X006619Y024243D01*
X006633Y024291D01*
X006650Y024338D01*
X006671Y024383D01*
X006696Y024427D01*
X006724Y024468D01*
X006756Y024507D01*
X006790Y024544D01*
X006827Y024578D01*
X006867Y024608D01*
X006909Y024635D01*
X006953Y024659D01*
X006999Y024680D01*
X007046Y024696D01*
X007094Y024709D01*
X007144Y024718D01*
X007193Y024723D01*
X007244Y024724D01*
X007294Y024721D01*
X007343Y024714D01*
X007392Y024703D01*
X007440Y024688D01*
X007486Y024670D01*
X007531Y024648D01*
X007574Y024622D01*
X007615Y024593D01*
X007654Y024561D01*
X007690Y024526D01*
X007722Y024488D01*
X007752Y024448D01*
X007779Y024405D01*
X007802Y024361D01*
X007821Y024315D01*
X007837Y024267D01*
X007849Y024218D01*
X007857Y024169D01*
X007861Y024119D01*
X007861Y024069D01*
X007857Y024019D01*
X007849Y023970D01*
X007837Y023921D01*
X007821Y023873D01*
X007802Y023827D01*
X007779Y023783D01*
X007752Y023740D01*
X007722Y023700D01*
X007690Y023662D01*
X007654Y023627D01*
X007615Y023595D01*
X007574Y023566D01*
X007531Y023540D01*
X007486Y023518D01*
X007440Y023500D01*
X007392Y023485D01*
X007343Y023474D01*
X007294Y023467D01*
X007244Y023464D01*
X007193Y023465D01*
X007144Y023470D01*
X007094Y023479D01*
X007046Y023492D01*
X006999Y023508D01*
X006953Y023529D01*
X006909Y023553D01*
X006867Y023580D01*
X006827Y023610D01*
X006790Y023644D01*
X006756Y023681D01*
X006724Y023720D01*
X006696Y023761D01*
X006671Y023805D01*
X006650Y023850D01*
X006633Y023897D01*
X006619Y023945D01*
X006609Y023994D01*
X006603Y024044D01*
X006601Y024094D01*
X004975Y024684D02*
X004977Y024734D01*
X004983Y024784D01*
X004993Y024833D01*
X005007Y024881D01*
X005024Y024928D01*
X005045Y024973D01*
X005070Y025017D01*
X005098Y025058D01*
X005130Y025097D01*
X005164Y025134D01*
X005201Y025168D01*
X005241Y025198D01*
X005283Y025225D01*
X005327Y025249D01*
X005373Y025270D01*
X005420Y025286D01*
X005468Y025299D01*
X005518Y025308D01*
X005567Y025313D01*
X005618Y025314D01*
X005668Y025311D01*
X005717Y025304D01*
X005766Y025293D01*
X005814Y025278D01*
X005860Y025260D01*
X005905Y025238D01*
X005948Y025212D01*
X005989Y025183D01*
X006028Y025151D01*
X006064Y025116D01*
X006096Y025078D01*
X006126Y025038D01*
X006153Y024995D01*
X006176Y024951D01*
X006195Y024905D01*
X006211Y024857D01*
X006223Y024808D01*
X006231Y024759D01*
X006235Y024709D01*
X006235Y024659D01*
X006231Y024609D01*
X006223Y024560D01*
X006211Y024511D01*
X006195Y024463D01*
X006176Y024417D01*
X006153Y024373D01*
X006126Y024330D01*
X006096Y024290D01*
X006064Y024252D01*
X006028Y024217D01*
X005989Y024185D01*
X005948Y024156D01*
X005905Y024130D01*
X005860Y024108D01*
X005814Y024090D01*
X005766Y024075D01*
X005717Y024064D01*
X005668Y024057D01*
X005618Y024054D01*
X005567Y024055D01*
X005518Y024060D01*
X005468Y024069D01*
X005420Y024082D01*
X005373Y024098D01*
X005327Y024119D01*
X005283Y024143D01*
X005241Y024170D01*
X005201Y024200D01*
X005164Y024234D01*
X005130Y024271D01*
X005098Y024310D01*
X005070Y024351D01*
X005045Y024395D01*
X005024Y024440D01*
X005007Y024487D01*
X004993Y024535D01*
X004983Y024584D01*
X004977Y024634D01*
X004975Y024684D01*
X030368Y020141D02*
X030370Y020182D01*
X030376Y020223D01*
X030386Y020263D01*
X030399Y020302D01*
X030416Y020339D01*
X030437Y020375D01*
X030461Y020409D01*
X030488Y020440D01*
X030517Y020468D01*
X030550Y020494D01*
X030584Y020516D01*
X030621Y020535D01*
X030659Y020550D01*
X030699Y020562D01*
X030739Y020570D01*
X030780Y020574D01*
X030822Y020574D01*
X030863Y020570D01*
X030903Y020562D01*
X030943Y020550D01*
X030981Y020535D01*
X031017Y020516D01*
X031052Y020494D01*
X031085Y020468D01*
X031114Y020440D01*
X031141Y020409D01*
X031165Y020375D01*
X031186Y020339D01*
X031203Y020302D01*
X031216Y020263D01*
X031226Y020223D01*
X031232Y020182D01*
X031234Y020141D01*
X031232Y020100D01*
X031226Y020059D01*
X031216Y020019D01*
X031203Y019980D01*
X031186Y019943D01*
X031165Y019907D01*
X031141Y019873D01*
X031114Y019842D01*
X031085Y019814D01*
X031052Y019788D01*
X031018Y019766D01*
X030981Y019747D01*
X030943Y019732D01*
X030903Y019720D01*
X030863Y019712D01*
X030822Y019708D01*
X030780Y019708D01*
X030739Y019712D01*
X030699Y019720D01*
X030659Y019732D01*
X030621Y019747D01*
X030585Y019766D01*
X030550Y019788D01*
X030517Y019814D01*
X030488Y019842D01*
X030461Y019873D01*
X030437Y019907D01*
X030416Y019943D01*
X030399Y019980D01*
X030386Y020019D01*
X030376Y020059D01*
X030370Y020100D01*
X030368Y020141D01*
X030364Y018810D02*
X030366Y018851D01*
X030372Y018892D01*
X030382Y018932D01*
X030395Y018971D01*
X030412Y019008D01*
X030433Y019044D01*
X030457Y019078D01*
X030484Y019109D01*
X030513Y019137D01*
X030546Y019163D01*
X030580Y019185D01*
X030617Y019204D01*
X030655Y019219D01*
X030695Y019231D01*
X030735Y019239D01*
X030776Y019243D01*
X030818Y019243D01*
X030859Y019239D01*
X030899Y019231D01*
X030939Y019219D01*
X030977Y019204D01*
X031013Y019185D01*
X031048Y019163D01*
X031081Y019137D01*
X031110Y019109D01*
X031137Y019078D01*
X031161Y019044D01*
X031182Y019008D01*
X031199Y018971D01*
X031212Y018932D01*
X031222Y018892D01*
X031228Y018851D01*
X031230Y018810D01*
X031228Y018769D01*
X031222Y018728D01*
X031212Y018688D01*
X031199Y018649D01*
X031182Y018612D01*
X031161Y018576D01*
X031137Y018542D01*
X031110Y018511D01*
X031081Y018483D01*
X031048Y018457D01*
X031014Y018435D01*
X030977Y018416D01*
X030939Y018401D01*
X030899Y018389D01*
X030859Y018381D01*
X030818Y018377D01*
X030776Y018377D01*
X030735Y018381D01*
X030695Y018389D01*
X030655Y018401D01*
X030617Y018416D01*
X030581Y018435D01*
X030546Y018457D01*
X030513Y018483D01*
X030484Y018511D01*
X030457Y018542D01*
X030433Y018576D01*
X030412Y018612D01*
X030395Y018649D01*
X030382Y018688D01*
X030372Y018728D01*
X030366Y018769D01*
X030364Y018810D01*
X039793Y018810D02*
X039795Y018849D01*
X039801Y018888D01*
X039811Y018926D01*
X039824Y018963D01*
X039841Y018998D01*
X039861Y019032D01*
X039885Y019063D01*
X039912Y019092D01*
X039941Y019118D01*
X039973Y019141D01*
X040007Y019161D01*
X040043Y019177D01*
X040080Y019189D01*
X040119Y019198D01*
X040158Y019203D01*
X040197Y019204D01*
X040236Y019201D01*
X040275Y019194D01*
X040312Y019183D01*
X040349Y019169D01*
X040384Y019151D01*
X040417Y019130D01*
X040448Y019105D01*
X040476Y019078D01*
X040501Y019048D01*
X040523Y019015D01*
X040542Y018981D01*
X040557Y018945D01*
X040569Y018907D01*
X040577Y018869D01*
X040581Y018830D01*
X040581Y018790D01*
X040577Y018751D01*
X040569Y018713D01*
X040557Y018675D01*
X040542Y018639D01*
X040523Y018605D01*
X040501Y018572D01*
X040476Y018542D01*
X040448Y018515D01*
X040417Y018490D01*
X040384Y018469D01*
X040349Y018451D01*
X040312Y018437D01*
X040275Y018426D01*
X040236Y018419D01*
X040197Y018416D01*
X040158Y018417D01*
X040119Y018422D01*
X040080Y018431D01*
X040043Y018443D01*
X040007Y018459D01*
X039973Y018479D01*
X039941Y018502D01*
X039912Y018528D01*
X039885Y018557D01*
X039861Y018588D01*
X039841Y018622D01*
X039824Y018657D01*
X039811Y018694D01*
X039801Y018732D01*
X039795Y018771D01*
X039793Y018810D01*
X041817Y020141D02*
X041819Y020180D01*
X041825Y020219D01*
X041835Y020257D01*
X041848Y020294D01*
X041865Y020329D01*
X041885Y020363D01*
X041909Y020394D01*
X041936Y020423D01*
X041965Y020449D01*
X041997Y020472D01*
X042031Y020492D01*
X042067Y020508D01*
X042104Y020520D01*
X042143Y020529D01*
X042182Y020534D01*
X042221Y020535D01*
X042260Y020532D01*
X042299Y020525D01*
X042336Y020514D01*
X042373Y020500D01*
X042408Y020482D01*
X042441Y020461D01*
X042472Y020436D01*
X042500Y020409D01*
X042525Y020379D01*
X042547Y020346D01*
X042566Y020312D01*
X042581Y020276D01*
X042593Y020238D01*
X042601Y020200D01*
X042605Y020161D01*
X042605Y020121D01*
X042601Y020082D01*
X042593Y020044D01*
X042581Y020006D01*
X042566Y019970D01*
X042547Y019936D01*
X042525Y019903D01*
X042500Y019873D01*
X042472Y019846D01*
X042441Y019821D01*
X042408Y019800D01*
X042373Y019782D01*
X042336Y019768D01*
X042299Y019757D01*
X042260Y019750D01*
X042221Y019747D01*
X042182Y019748D01*
X042143Y019753D01*
X042104Y019762D01*
X042067Y019774D01*
X042031Y019790D01*
X041997Y019810D01*
X041965Y019833D01*
X041936Y019859D01*
X041909Y019888D01*
X041885Y019919D01*
X041865Y019953D01*
X041848Y019988D01*
X041835Y020025D01*
X041825Y020063D01*
X041819Y020102D01*
X041817Y020141D01*
X041589Y024684D02*
X041591Y024734D01*
X041597Y024784D01*
X041607Y024833D01*
X041621Y024881D01*
X041638Y024928D01*
X041659Y024973D01*
X041684Y025017D01*
X041712Y025058D01*
X041744Y025097D01*
X041778Y025134D01*
X041815Y025168D01*
X041855Y025198D01*
X041897Y025225D01*
X041941Y025249D01*
X041987Y025270D01*
X042034Y025286D01*
X042082Y025299D01*
X042132Y025308D01*
X042181Y025313D01*
X042232Y025314D01*
X042282Y025311D01*
X042331Y025304D01*
X042380Y025293D01*
X042428Y025278D01*
X042474Y025260D01*
X042519Y025238D01*
X042562Y025212D01*
X042603Y025183D01*
X042642Y025151D01*
X042678Y025116D01*
X042710Y025078D01*
X042740Y025038D01*
X042767Y024995D01*
X042790Y024951D01*
X042809Y024905D01*
X042825Y024857D01*
X042837Y024808D01*
X042845Y024759D01*
X042849Y024709D01*
X042849Y024659D01*
X042845Y024609D01*
X042837Y024560D01*
X042825Y024511D01*
X042809Y024463D01*
X042790Y024417D01*
X042767Y024373D01*
X042740Y024330D01*
X042710Y024290D01*
X042678Y024252D01*
X042642Y024217D01*
X042603Y024185D01*
X042562Y024156D01*
X042519Y024130D01*
X042474Y024108D01*
X042428Y024090D01*
X042380Y024075D01*
X042331Y024064D01*
X042282Y024057D01*
X042232Y024054D01*
X042181Y024055D01*
X042132Y024060D01*
X042082Y024069D01*
X042034Y024082D01*
X041987Y024098D01*
X041941Y024119D01*
X041897Y024143D01*
X041855Y024170D01*
X041815Y024200D01*
X041778Y024234D01*
X041744Y024271D01*
X041712Y024310D01*
X041684Y024351D01*
X041659Y024395D01*
X041638Y024440D01*
X041621Y024487D01*
X041607Y024535D01*
X041597Y024584D01*
X041591Y024634D01*
X041589Y024684D01*
X039754Y009692D02*
X039756Y009733D01*
X039762Y009774D01*
X039772Y009814D01*
X039785Y009853D01*
X039802Y009890D01*
X039823Y009926D01*
X039847Y009960D01*
X039874Y009991D01*
X039903Y010019D01*
X039936Y010045D01*
X039970Y010067D01*
X040007Y010086D01*
X040045Y010101D01*
X040085Y010113D01*
X040125Y010121D01*
X040166Y010125D01*
X040208Y010125D01*
X040249Y010121D01*
X040289Y010113D01*
X040329Y010101D01*
X040367Y010086D01*
X040403Y010067D01*
X040438Y010045D01*
X040471Y010019D01*
X040500Y009991D01*
X040527Y009960D01*
X040551Y009926D01*
X040572Y009890D01*
X040589Y009853D01*
X040602Y009814D01*
X040612Y009774D01*
X040618Y009733D01*
X040620Y009692D01*
X040618Y009651D01*
X040612Y009610D01*
X040602Y009570D01*
X040589Y009531D01*
X040572Y009494D01*
X040551Y009458D01*
X040527Y009424D01*
X040500Y009393D01*
X040471Y009365D01*
X040438Y009339D01*
X040404Y009317D01*
X040367Y009298D01*
X040329Y009283D01*
X040289Y009271D01*
X040249Y009263D01*
X040208Y009259D01*
X040166Y009259D01*
X040125Y009263D01*
X040085Y009271D01*
X040045Y009283D01*
X040007Y009298D01*
X039971Y009317D01*
X039936Y009339D01*
X039903Y009365D01*
X039874Y009393D01*
X039847Y009424D01*
X039823Y009458D01*
X039802Y009494D01*
X039785Y009531D01*
X039772Y009570D01*
X039762Y009610D01*
X039756Y009651D01*
X039754Y009692D01*
X041817Y008361D02*
X041819Y008400D01*
X041825Y008439D01*
X041835Y008477D01*
X041848Y008514D01*
X041865Y008549D01*
X041885Y008583D01*
X041909Y008614D01*
X041936Y008643D01*
X041965Y008669D01*
X041997Y008692D01*
X042031Y008712D01*
X042067Y008728D01*
X042104Y008740D01*
X042143Y008749D01*
X042182Y008754D01*
X042221Y008755D01*
X042260Y008752D01*
X042299Y008745D01*
X042336Y008734D01*
X042373Y008720D01*
X042408Y008702D01*
X042441Y008681D01*
X042472Y008656D01*
X042500Y008629D01*
X042525Y008599D01*
X042547Y008566D01*
X042566Y008532D01*
X042581Y008496D01*
X042593Y008458D01*
X042601Y008420D01*
X042605Y008381D01*
X042605Y008341D01*
X042601Y008302D01*
X042593Y008264D01*
X042581Y008226D01*
X042566Y008190D01*
X042547Y008156D01*
X042525Y008123D01*
X042500Y008093D01*
X042472Y008066D01*
X042441Y008041D01*
X042408Y008020D01*
X042373Y008002D01*
X042336Y007988D01*
X042299Y007977D01*
X042260Y007970D01*
X042221Y007967D01*
X042182Y007968D01*
X042143Y007973D01*
X042104Y007982D01*
X042067Y007994D01*
X042031Y008010D01*
X041997Y008030D01*
X041965Y008053D01*
X041936Y008079D01*
X041909Y008108D01*
X041885Y008139D01*
X041865Y008173D01*
X041848Y008208D01*
X041835Y008245D01*
X041825Y008283D01*
X041819Y008322D01*
X041817Y008361D01*
X041589Y003818D02*
X041591Y003868D01*
X041597Y003918D01*
X041607Y003967D01*
X041621Y004015D01*
X041638Y004062D01*
X041659Y004107D01*
X041684Y004151D01*
X041712Y004192D01*
X041744Y004231D01*
X041778Y004268D01*
X041815Y004302D01*
X041855Y004332D01*
X041897Y004359D01*
X041941Y004383D01*
X041987Y004404D01*
X042034Y004420D01*
X042082Y004433D01*
X042132Y004442D01*
X042181Y004447D01*
X042232Y004448D01*
X042282Y004445D01*
X042331Y004438D01*
X042380Y004427D01*
X042428Y004412D01*
X042474Y004394D01*
X042519Y004372D01*
X042562Y004346D01*
X042603Y004317D01*
X042642Y004285D01*
X042678Y004250D01*
X042710Y004212D01*
X042740Y004172D01*
X042767Y004129D01*
X042790Y004085D01*
X042809Y004039D01*
X042825Y003991D01*
X042837Y003942D01*
X042845Y003893D01*
X042849Y003843D01*
X042849Y003793D01*
X042845Y003743D01*
X042837Y003694D01*
X042825Y003645D01*
X042809Y003597D01*
X042790Y003551D01*
X042767Y003507D01*
X042740Y003464D01*
X042710Y003424D01*
X042678Y003386D01*
X042642Y003351D01*
X042603Y003319D01*
X042562Y003290D01*
X042519Y003264D01*
X042474Y003242D01*
X042428Y003224D01*
X042380Y003209D01*
X042331Y003198D01*
X042282Y003191D01*
X042232Y003188D01*
X042181Y003189D01*
X042132Y003194D01*
X042082Y003203D01*
X042034Y003216D01*
X041987Y003232D01*
X041941Y003253D01*
X041897Y003277D01*
X041855Y003304D01*
X041815Y003334D01*
X041778Y003368D01*
X041744Y003405D01*
X041712Y003444D01*
X041684Y003485D01*
X041659Y003529D01*
X041638Y003574D01*
X041621Y003621D01*
X041607Y003669D01*
X041597Y003718D01*
X041591Y003768D01*
X041589Y003818D01*
X030400Y008361D02*
X030402Y008400D01*
X030408Y008439D01*
X030418Y008477D01*
X030431Y008514D01*
X030448Y008549D01*
X030468Y008583D01*
X030492Y008614D01*
X030519Y008643D01*
X030548Y008669D01*
X030580Y008692D01*
X030614Y008712D01*
X030650Y008728D01*
X030687Y008740D01*
X030726Y008749D01*
X030765Y008754D01*
X030804Y008755D01*
X030843Y008752D01*
X030882Y008745D01*
X030919Y008734D01*
X030956Y008720D01*
X030991Y008702D01*
X031024Y008681D01*
X031055Y008656D01*
X031083Y008629D01*
X031108Y008599D01*
X031130Y008566D01*
X031149Y008532D01*
X031164Y008496D01*
X031176Y008458D01*
X031184Y008420D01*
X031188Y008381D01*
X031188Y008341D01*
X031184Y008302D01*
X031176Y008264D01*
X031164Y008226D01*
X031149Y008190D01*
X031130Y008156D01*
X031108Y008123D01*
X031083Y008093D01*
X031055Y008066D01*
X031024Y008041D01*
X030991Y008020D01*
X030956Y008002D01*
X030919Y007988D01*
X030882Y007977D01*
X030843Y007970D01*
X030804Y007967D01*
X030765Y007968D01*
X030726Y007973D01*
X030687Y007982D01*
X030650Y007994D01*
X030614Y008010D01*
X030580Y008030D01*
X030548Y008053D01*
X030519Y008079D01*
X030492Y008108D01*
X030468Y008139D01*
X030448Y008173D01*
X030431Y008208D01*
X030418Y008245D01*
X030408Y008283D01*
X030402Y008322D01*
X030400Y008361D01*
X028242Y009046D02*
X028244Y009087D01*
X028250Y009128D01*
X028260Y009168D01*
X028273Y009207D01*
X028290Y009244D01*
X028311Y009280D01*
X028335Y009314D01*
X028362Y009345D01*
X028391Y009373D01*
X028424Y009399D01*
X028458Y009421D01*
X028495Y009440D01*
X028533Y009455D01*
X028573Y009467D01*
X028613Y009475D01*
X028654Y009479D01*
X028696Y009479D01*
X028737Y009475D01*
X028777Y009467D01*
X028817Y009455D01*
X028855Y009440D01*
X028891Y009421D01*
X028926Y009399D01*
X028959Y009373D01*
X028988Y009345D01*
X029015Y009314D01*
X029039Y009280D01*
X029060Y009244D01*
X029077Y009207D01*
X029090Y009168D01*
X029100Y009128D01*
X029106Y009087D01*
X029108Y009046D01*
X029106Y009005D01*
X029100Y008964D01*
X029090Y008924D01*
X029077Y008885D01*
X029060Y008848D01*
X029039Y008812D01*
X029015Y008778D01*
X028988Y008747D01*
X028959Y008719D01*
X028926Y008693D01*
X028892Y008671D01*
X028855Y008652D01*
X028817Y008637D01*
X028777Y008625D01*
X028737Y008617D01*
X028696Y008613D01*
X028654Y008613D01*
X028613Y008617D01*
X028573Y008625D01*
X028533Y008637D01*
X028495Y008652D01*
X028459Y008671D01*
X028424Y008693D01*
X028391Y008719D01*
X028362Y008747D01*
X028335Y008778D01*
X028311Y008812D01*
X028290Y008848D01*
X028273Y008885D01*
X028260Y008924D01*
X028250Y008964D01*
X028244Y009005D01*
X028242Y009046D01*
X030403Y009692D02*
X030405Y009731D01*
X030411Y009770D01*
X030421Y009808D01*
X030434Y009845D01*
X030451Y009880D01*
X030471Y009914D01*
X030495Y009945D01*
X030522Y009974D01*
X030551Y010000D01*
X030583Y010023D01*
X030617Y010043D01*
X030653Y010059D01*
X030690Y010071D01*
X030729Y010080D01*
X030768Y010085D01*
X030807Y010086D01*
X030846Y010083D01*
X030885Y010076D01*
X030922Y010065D01*
X030959Y010051D01*
X030994Y010033D01*
X031027Y010012D01*
X031058Y009987D01*
X031086Y009960D01*
X031111Y009930D01*
X031133Y009897D01*
X031152Y009863D01*
X031167Y009827D01*
X031179Y009789D01*
X031187Y009751D01*
X031191Y009712D01*
X031191Y009672D01*
X031187Y009633D01*
X031179Y009595D01*
X031167Y009557D01*
X031152Y009521D01*
X031133Y009487D01*
X031111Y009454D01*
X031086Y009424D01*
X031058Y009397D01*
X031027Y009372D01*
X030994Y009351D01*
X030959Y009333D01*
X030922Y009319D01*
X030885Y009308D01*
X030846Y009301D01*
X030807Y009298D01*
X030768Y009299D01*
X030729Y009304D01*
X030690Y009313D01*
X030653Y009325D01*
X030617Y009341D01*
X030583Y009361D01*
X030551Y009384D01*
X030522Y009410D01*
X030495Y009439D01*
X030471Y009470D01*
X030451Y009504D01*
X030434Y009539D01*
X030421Y009576D01*
X030411Y009614D01*
X030405Y009653D01*
X030403Y009692D01*
X022337Y009086D02*
X022339Y009127D01*
X022345Y009168D01*
X022355Y009208D01*
X022368Y009247D01*
X022385Y009284D01*
X022406Y009320D01*
X022430Y009354D01*
X022457Y009385D01*
X022486Y009413D01*
X022519Y009439D01*
X022553Y009461D01*
X022590Y009480D01*
X022628Y009495D01*
X022668Y009507D01*
X022708Y009515D01*
X022749Y009519D01*
X022791Y009519D01*
X022832Y009515D01*
X022872Y009507D01*
X022912Y009495D01*
X022950Y009480D01*
X022986Y009461D01*
X023021Y009439D01*
X023054Y009413D01*
X023083Y009385D01*
X023110Y009354D01*
X023134Y009320D01*
X023155Y009284D01*
X023172Y009247D01*
X023185Y009208D01*
X023195Y009168D01*
X023201Y009127D01*
X023203Y009086D01*
X023201Y009045D01*
X023195Y009004D01*
X023185Y008964D01*
X023172Y008925D01*
X023155Y008888D01*
X023134Y008852D01*
X023110Y008818D01*
X023083Y008787D01*
X023054Y008759D01*
X023021Y008733D01*
X022987Y008711D01*
X022950Y008692D01*
X022912Y008677D01*
X022872Y008665D01*
X022832Y008657D01*
X022791Y008653D01*
X022749Y008653D01*
X022708Y008657D01*
X022668Y008665D01*
X022628Y008677D01*
X022590Y008692D01*
X022554Y008711D01*
X022519Y008733D01*
X022486Y008759D01*
X022457Y008787D01*
X022430Y008818D01*
X022406Y008852D01*
X022385Y008888D01*
X022368Y008925D01*
X022355Y008964D01*
X022345Y009004D01*
X022339Y009045D01*
X022337Y009086D01*
X023794Y003830D02*
X023796Y003855D01*
X023802Y003879D01*
X023811Y003901D01*
X023824Y003922D01*
X023840Y003941D01*
X023859Y003957D01*
X023880Y003970D01*
X023902Y003979D01*
X023926Y003985D01*
X023951Y003987D01*
X023976Y003985D01*
X024000Y003979D01*
X024022Y003970D01*
X024043Y003957D01*
X024062Y003941D01*
X024078Y003922D01*
X024091Y003901D01*
X024100Y003879D01*
X024106Y003855D01*
X024108Y003830D01*
X024106Y003805D01*
X024100Y003781D01*
X024091Y003759D01*
X024078Y003738D01*
X024062Y003719D01*
X024043Y003703D01*
X024022Y003690D01*
X024000Y003681D01*
X023976Y003675D01*
X023951Y003673D01*
X023926Y003675D01*
X023902Y003681D01*
X023880Y003690D01*
X023859Y003703D01*
X023840Y003719D01*
X023824Y003738D01*
X023811Y003759D01*
X023802Y003781D01*
X023796Y003805D01*
X023794Y003830D01*
X026944Y003830D02*
X026946Y003855D01*
X026952Y003879D01*
X026961Y003901D01*
X026974Y003922D01*
X026990Y003941D01*
X027009Y003957D01*
X027030Y003970D01*
X027052Y003979D01*
X027076Y003985D01*
X027101Y003987D01*
X027126Y003985D01*
X027150Y003979D01*
X027172Y003970D01*
X027193Y003957D01*
X027212Y003941D01*
X027228Y003922D01*
X027241Y003901D01*
X027250Y003879D01*
X027256Y003855D01*
X027258Y003830D01*
X027256Y003805D01*
X027250Y003781D01*
X027241Y003759D01*
X027228Y003738D01*
X027212Y003719D01*
X027193Y003703D01*
X027172Y003690D01*
X027150Y003681D01*
X027126Y003675D01*
X027101Y003673D01*
X027076Y003675D01*
X027052Y003681D01*
X027030Y003690D01*
X027009Y003703D01*
X026990Y003719D01*
X026974Y003738D01*
X026961Y003759D01*
X026952Y003781D01*
X026946Y003805D01*
X026944Y003830D01*
D11*
X017912Y006743D03*
X017912Y008633D03*
X023223Y010440D03*
X024223Y010440D03*
X025223Y010440D03*
X026223Y010440D03*
X027223Y010440D03*
X028223Y010440D03*
X030605Y012743D03*
X030605Y013743D03*
X030605Y014743D03*
X030605Y015743D03*
X029120Y016050D03*
X028120Y016050D03*
X027120Y016050D03*
X026120Y016050D03*
X025120Y016050D03*
X024120Y016050D03*
X023120Y016050D03*
X022120Y016050D03*
X021120Y016050D03*
X020120Y016050D03*
X019120Y016050D03*
X018120Y016050D03*
X017120Y016050D03*
X016120Y016050D03*
X015120Y016050D03*
X014120Y016050D03*
X013120Y016050D03*
X012120Y016050D03*
X011120Y016050D03*
X011120Y025050D03*
X012120Y025050D03*
X013120Y025050D03*
X014120Y025050D03*
X015120Y025050D03*
X016120Y025050D03*
X017120Y025050D03*
X018120Y025050D03*
X019120Y025050D03*
X020120Y025050D03*
X021120Y025050D03*
X022120Y025050D03*
X023120Y025050D03*
X024120Y025050D03*
X025120Y025050D03*
X026120Y025050D03*
X027120Y025050D03*
X028120Y025050D03*
X029120Y025050D03*
X011258Y004282D03*
X011258Y003282D03*
D12*
X017912Y009700D03*
X017912Y012700D03*
X023510Y011952D03*
X023510Y014952D03*
X032179Y022401D03*
X035707Y022408D03*
X039254Y022405D03*
X039254Y025003D03*
X035707Y025007D03*
X032179Y024999D03*
X032179Y006101D03*
X032179Y003503D03*
D13*
X021183Y008613D03*
X020034Y007609D03*
X019034Y007609D03*
X021183Y009613D03*
X015628Y006893D03*
X014628Y006893D03*
X030364Y023101D03*
X030364Y024101D03*
D14*
X033963Y025219D03*
X037510Y025255D03*
X037510Y022105D03*
X036510Y020586D03*
X036510Y019420D03*
X036510Y018247D03*
X036510Y017105D03*
X036345Y016015D03*
X037490Y016015D03*
X033360Y017105D03*
X033360Y018247D03*
X033360Y019420D03*
X033360Y020586D03*
X033963Y022070D03*
X028219Y015070D03*
X026939Y015070D03*
X025093Y014960D03*
X025093Y014487D03*
X025093Y014015D03*
X025093Y013542D03*
X026939Y011920D03*
X028219Y011920D03*
X033360Y011869D03*
X033364Y010743D03*
X033360Y009613D03*
X033360Y008483D03*
X036510Y008483D03*
X037490Y008601D03*
X036510Y009613D03*
X036514Y010743D03*
X037490Y011751D03*
X036510Y011869D03*
X036345Y012865D03*
X037490Y012865D03*
X030112Y006377D03*
X030112Y003227D03*
X016703Y008739D03*
X015561Y008739D03*
X014400Y008739D03*
X014400Y011889D03*
X015561Y011889D03*
X016703Y011889D03*
X018794Y013542D03*
X018794Y014015D03*
X018794Y014487D03*
X018794Y014960D03*
X021943Y014960D03*
X021943Y014487D03*
X021943Y014015D03*
X021943Y013542D03*
D15*
X020368Y013751D03*
X020368Y014751D03*
D16*
X024593Y012389D03*
X025593Y012389D03*
X031786Y012653D03*
X031786Y013653D03*
X031786Y014940D03*
X031786Y015940D03*
X031786Y016940D03*
X038585Y016251D03*
X039581Y016255D03*
X039581Y015255D03*
X038585Y015251D03*
X038585Y014251D03*
X039581Y014255D03*
X039581Y013255D03*
X038585Y013251D03*
X038585Y012251D03*
X039581Y012255D03*
X039494Y007393D03*
X038494Y007393D03*
X037494Y007393D03*
X036494Y007393D03*
X035494Y007393D03*
X034494Y007393D03*
X034490Y006393D03*
X035490Y006393D03*
X036490Y006393D03*
X037490Y006393D03*
X038490Y006393D03*
X040494Y007393D03*
X031786Y011653D03*
X015274Y004223D03*
X014274Y004223D03*
X013274Y004223D03*
X013274Y003007D03*
X014274Y003007D03*
X015274Y003007D03*
X008207Y004818D03*
X007207Y004818D03*
X014404Y012790D03*
X014404Y013790D03*
X008207Y015822D03*
X007207Y015822D03*
D17*
X017734Y003814D03*
X018916Y003814D03*
X020097Y003814D03*
D18*
X021357Y003814D03*
X016475Y003814D03*
D19*
X014920Y005814D03*
X013920Y005814D03*
X012920Y005814D03*
X011920Y005814D03*
X010920Y005814D03*
X009920Y005814D03*
X008920Y005814D03*
X006920Y005814D03*
X005920Y005814D03*
X005920Y014814D03*
X006920Y014814D03*
X008920Y014814D03*
X009920Y014814D03*
X010920Y014814D03*
X011920Y014814D03*
X012920Y014814D03*
X013920Y014814D03*
X014920Y014814D03*
D20*
X007920Y014814D03*
X007920Y005814D03*
D21*
X031294Y005727D02*
X031294Y006436D01*
X033065Y006436D02*
X033065Y005727D01*
X033065Y003877D02*
X033065Y003168D01*
X031294Y003168D02*
X031294Y003877D01*
X031294Y022066D02*
X031294Y022775D01*
X033065Y022775D02*
X033065Y022066D01*
X034837Y022066D02*
X034837Y022775D01*
X036609Y022775D02*
X036609Y022066D01*
X038380Y022066D02*
X038380Y022775D01*
X040152Y022775D02*
X040152Y022066D01*
X040152Y024625D02*
X040152Y025334D01*
X038380Y025334D02*
X038380Y024625D01*
X036609Y024625D02*
X036609Y025334D01*
X034837Y025334D02*
X034837Y024625D01*
X033065Y024625D02*
X033065Y025334D01*
X031294Y025334D02*
X031294Y024625D01*
D22*
X021479Y006519D03*
X021164Y006019D03*
X021479Y005519D03*
D23*
X019553Y005625D03*
X019534Y006412D03*
X019553Y008719D03*
X019534Y009507D03*
D24*
X020175Y010609D03*
X020136Y012578D03*
D25*
X013234Y012991D02*
X013234Y013463D01*
X013234Y007597D02*
X013234Y007125D01*
D26*
X012447Y007126D02*
X012447Y007596D01*
X011660Y007596D02*
X011660Y007126D01*
X010872Y007126D02*
X010872Y007596D01*
X010085Y007596D02*
X010085Y007126D01*
X009297Y007126D02*
X009297Y007596D01*
X008510Y007596D02*
X008510Y007126D01*
X007723Y007126D02*
X007723Y007596D01*
X007723Y013032D02*
X007723Y013502D01*
X008510Y013502D02*
X008510Y013032D01*
X009297Y013032D02*
X009297Y013502D01*
X010085Y013502D02*
X010085Y013032D01*
X010872Y013032D02*
X010872Y013502D01*
X011660Y013462D02*
X011660Y012992D01*
X012447Y012992D02*
X012447Y013462D01*
D27*
X005711Y011318D03*
X004707Y010314D03*
X005711Y009310D03*
D28*
X005207Y009314D03*
X005207Y011314D03*
D29*
X004557Y011786D03*
X004557Y012286D03*
X004557Y008842D03*
X004557Y008345D03*
D30*
X004557Y008842D01*
X005030Y009314D01*
X005207Y009314D01*
X005707Y009314D01*
X005711Y009310D01*
X008494Y008113D02*
X009132Y008113D01*
X009132Y012285D01*
X009297Y012450D01*
X009297Y013267D01*
X008510Y013267D01*
X009297Y013267D02*
X010085Y013267D01*
X010085Y013075D01*
X010581Y012578D01*
X011368Y012578D01*
X011368Y011747D01*
X011746Y011369D01*
X012931Y011369D01*
X015561Y008739D01*
X015561Y008739D01*
X015561Y007535D01*
X015628Y007468D01*
X015628Y006893D01*
X016203Y006893D01*
X016610Y007299D01*
X017635Y007299D01*
X019055Y008719D01*
X019553Y008719D01*
X019034Y009180D02*
X019034Y009603D01*
X017699Y010937D01*
X015355Y010937D01*
X014404Y011889D01*
X014404Y012265D01*
X014404Y012790D01*
X014404Y011889D02*
X014400Y011889D01*
X016199Y010477D02*
X015336Y009615D01*
X016199Y010477D02*
X017470Y010477D01*
X017912Y009700D02*
X017912Y008633D01*
X019534Y009507D02*
X019640Y009613D01*
X021183Y009613D01*
X020865Y010609D02*
X020175Y010609D01*
X020865Y010609D02*
X022557Y010609D01*
X022726Y010440D01*
X023223Y010440D01*
X023569Y009133D02*
X023561Y008338D01*
X022416Y008345D01*
X021030Y006998D01*
X019418Y006998D01*
X017975Y005556D01*
X016816Y005556D01*
X016794Y005578D01*
X017797Y006035D02*
X017912Y006149D01*
X017912Y006743D01*
X016222Y006433D02*
X016222Y006325D01*
X015132Y005235D01*
X012707Y005235D01*
X011754Y004282D01*
X011258Y004282D01*
X012748Y004597D02*
X012748Y003828D01*
X013044Y003533D01*
X013274Y003533D01*
X013274Y003007D01*
X014274Y003007D02*
X014274Y003533D01*
X014583Y003533D01*
X015274Y004223D01*
X015274Y003007D02*
X021918Y003007D01*
X022117Y003206D01*
X022117Y005881D01*
X021479Y006519D01*
X021164Y006019D02*
X020938Y006244D01*
X019534Y006244D01*
X019534Y006412D01*
X019534Y006244D02*
X019450Y006244D01*
X018916Y005710D01*
X018916Y004749D01*
X012900Y004749D01*
X012748Y004597D01*
X013920Y005814D02*
X014423Y006318D01*
X014628Y006318D01*
X014628Y006893D01*
X013920Y005814D02*
X013207Y006526D01*
X012286Y006526D01*
X011660Y007152D01*
X011660Y007361D01*
X011660Y007548D01*
X011095Y008113D01*
X010872Y007558D02*
X010317Y008113D01*
X009132Y008113D01*
X010872Y007558D02*
X010872Y007361D01*
X005711Y011318D02*
X005707Y011314D01*
X005207Y011314D01*
X005030Y011314D01*
X004557Y011786D01*
X004557Y012286D01*
X011368Y012578D02*
X011660Y012870D01*
X011660Y013227D01*
X014920Y014814D02*
X015306Y014427D01*
X017946Y014427D01*
X018006Y014487D01*
X018794Y014487D01*
X019193Y014487D01*
X019843Y013837D01*
X019843Y013751D01*
X020368Y013751D01*
X019358Y013639D02*
X018983Y014015D01*
X018794Y014015D01*
X019358Y013639D02*
X019358Y012121D01*
X019591Y011888D01*
X023446Y011888D01*
X023510Y011952D01*
X023295Y012578D02*
X023635Y012918D01*
X025972Y012918D01*
X026130Y012760D01*
X026130Y012050D01*
X027243Y010936D01*
X027571Y010936D01*
X027726Y010781D01*
X027726Y010440D01*
X028223Y010440D01*
X028719Y010440D01*
X028719Y010519D01*
X029852Y011653D01*
X031786Y011653D01*
X032311Y011653D01*
X032661Y011303D01*
X035954Y011303D01*
X036510Y011859D01*
X036510Y011869D01*
X036510Y011859D02*
X036599Y011771D01*
X037455Y011771D01*
X037490Y011751D01*
X037571Y011721D01*
X039047Y011721D01*
X039581Y012255D01*
X038585Y012251D02*
X038585Y012259D01*
X039581Y013255D01*
X038585Y012259D02*
X037428Y012259D01*
X036918Y012769D01*
X036918Y012981D01*
X036246Y013653D01*
X031786Y013653D01*
X031260Y013653D01*
X031260Y013550D01*
X030953Y013243D01*
X030244Y013243D01*
X028527Y014960D01*
X029120Y015554D01*
X029120Y016050D01*
X028417Y015070D02*
X028219Y015070D01*
X028417Y015070D02*
X028527Y014960D01*
X031786Y014940D02*
X032311Y014940D01*
X033315Y015944D01*
X036156Y015944D01*
X036345Y016015D01*
X036510Y016015D01*
X036510Y017105D01*
X036510Y016015D02*
X037490Y016015D01*
X037823Y016015D01*
X038059Y016251D01*
X038585Y016251D01*
X031786Y012653D02*
X031191Y012653D01*
X031101Y012743D01*
X030605Y012743D01*
X035954Y011303D02*
X036514Y010743D01*
X036510Y010550D01*
X036510Y009613D01*
X036510Y008483D02*
X037012Y007981D01*
X037898Y007981D01*
X038479Y007401D01*
X038494Y007393D01*
X038490Y006393D02*
X037211Y005113D01*
X033065Y005113D01*
X033065Y006082D01*
X023577Y009133D02*
X023569Y009133D01*
X023295Y012578D02*
X020136Y012578D01*
X021943Y014015D02*
X022573Y014015D01*
X023510Y014952D01*
X024447Y014015D01*
X025093Y014015D01*
X025093Y014487D02*
X024816Y014487D01*
X023755Y015548D01*
X023215Y015548D01*
X023171Y015503D01*
X023120Y015554D01*
X023120Y016050D01*
X023171Y015503D02*
X022155Y014487D01*
X021943Y014487D01*
X014049Y017903D02*
X014049Y021625D01*
X011120Y024554D01*
X011120Y025050D01*
X033065Y024979D02*
X033065Y024011D01*
X036124Y024011D01*
X036609Y024495D01*
X036609Y024979D01*
X036609Y024495D02*
X037106Y023998D01*
X038654Y023998D01*
X039254Y024598D01*
X039254Y025003D01*
X018916Y004749D02*
X018916Y003814D01*
D31*
X016794Y005578D03*
X017797Y006035D03*
X016222Y006433D03*
X013228Y008060D03*
X012332Y008048D03*
X011095Y008113D03*
X008494Y008113D03*
X007053Y007456D03*
X009530Y011529D03*
X009695Y012631D03*
X011763Y011911D03*
X010649Y013888D03*
X009009Y013885D03*
X015274Y015298D03*
X015482Y014845D03*
X017430Y014825D03*
X020420Y013212D03*
X023782Y014104D03*
X028276Y011024D03*
X030021Y011242D03*
X027176Y008385D03*
X025707Y009919D03*
X023577Y009133D03*
X023774Y007448D03*
X019034Y009180D03*
X017470Y010477D03*
X015336Y009615D03*
X017109Y017226D03*
X019275Y017226D03*
X014049Y017903D03*
X025202Y017223D03*
X025065Y022374D03*
X024930Y024252D03*
X034949Y014769D03*
D32*
X016420Y014791D02*
X015690Y014791D01*
X015690Y014759D02*
X015690Y014865D01*
X016127Y015302D01*
X016420Y015302D01*
X016420Y013443D01*
X016401Y013462D01*
X016323Y013540D01*
X015795Y013540D01*
X014896Y014439D01*
X014896Y014790D01*
X014943Y014790D01*
X014943Y014395D01*
X014952Y014395D01*
X015018Y014405D01*
X015080Y014426D01*
X015139Y014456D01*
X015192Y014494D01*
X015239Y014541D01*
X015278Y014594D01*
X015308Y014653D01*
X015325Y014707D01*
X015395Y014637D01*
X015568Y014637D01*
X015690Y014759D01*
X015677Y014745D02*
X016420Y014745D01*
X016420Y014699D02*
X015631Y014699D01*
X015585Y014654D02*
X016420Y014654D01*
X016420Y014608D02*
X015285Y014608D01*
X015308Y014654D02*
X015379Y014654D01*
X015333Y014699D02*
X015323Y014699D01*
X015254Y014562D02*
X016420Y014562D01*
X016420Y014516D02*
X015214Y014516D01*
X015160Y014471D02*
X016420Y014471D01*
X016420Y014425D02*
X015078Y014425D01*
X015002Y014333D02*
X016420Y014333D01*
X016420Y014288D02*
X015047Y014288D01*
X015093Y014242D02*
X016420Y014242D01*
X016420Y014196D02*
X015139Y014196D01*
X015185Y014151D02*
X016420Y014151D01*
X016420Y014105D02*
X015230Y014105D01*
X015276Y014059D02*
X016420Y014059D01*
X016420Y014013D02*
X015322Y014013D01*
X015368Y013968D02*
X016420Y013968D01*
X016420Y013922D02*
X015413Y013922D01*
X015459Y013876D02*
X016420Y013876D01*
X016420Y013830D02*
X015505Y013830D01*
X015551Y013785D02*
X016420Y013785D01*
X016420Y013739D02*
X015596Y013739D01*
X015642Y013693D02*
X016420Y013693D01*
X016420Y013647D02*
X015688Y013647D01*
X015733Y013602D02*
X016420Y013602D01*
X016420Y013556D02*
X015779Y013556D01*
X016352Y013510D02*
X016420Y013510D01*
X016420Y013464D02*
X016398Y013464D01*
X016420Y014379D02*
X014956Y014379D01*
X014943Y014425D02*
X014910Y014425D01*
X014896Y014471D02*
X014943Y014471D01*
X014943Y014516D02*
X014896Y014516D01*
X014896Y014562D02*
X014943Y014562D01*
X014943Y014608D02*
X014896Y014608D01*
X014896Y014654D02*
X014943Y014654D01*
X014943Y014699D02*
X014896Y014699D01*
X014896Y014745D02*
X014943Y014745D01*
X014943Y014838D02*
X014896Y014838D01*
X014896Y015233D01*
X014887Y015233D01*
X014841Y015226D01*
X014918Y015302D01*
X015065Y015302D01*
X015065Y015212D01*
X015072Y015205D01*
X015018Y015223D01*
X014952Y015233D01*
X014943Y015233D01*
X014943Y014838D01*
X014943Y014882D02*
X014896Y014882D01*
X014896Y014928D02*
X014943Y014928D01*
X014943Y014974D02*
X014896Y014974D01*
X014896Y015020D02*
X014943Y015020D01*
X014943Y015065D02*
X014896Y015065D01*
X014896Y015111D02*
X014943Y015111D01*
X014943Y015157D02*
X014896Y015157D01*
X014896Y015203D02*
X014943Y015203D01*
X014864Y015248D02*
X015065Y015248D01*
X015065Y015294D02*
X014909Y015294D01*
X015708Y014882D02*
X016420Y014882D01*
X016420Y014837D02*
X015690Y014837D01*
X015753Y014928D02*
X016420Y014928D01*
X016420Y014974D02*
X015799Y014974D01*
X015845Y015020D02*
X016420Y015020D01*
X016420Y015065D02*
X015891Y015065D01*
X015936Y015111D02*
X016420Y015111D01*
X016420Y015157D02*
X015982Y015157D01*
X016028Y015203D02*
X016420Y015203D01*
X016420Y015248D02*
X016074Y015248D01*
X016119Y015294D02*
X016420Y015294D01*
X014173Y013130D02*
X013585Y013718D01*
X013585Y012643D01*
X013571Y012629D01*
X012817Y012629D01*
X012043Y011855D01*
X011965Y011777D01*
X011925Y011777D01*
X011850Y011702D01*
X011677Y011702D01*
X011555Y011824D01*
X011555Y011997D01*
X011677Y012119D01*
X011850Y012119D01*
X011889Y012080D01*
X012439Y012629D01*
X009903Y012629D01*
X009903Y012611D01*
X013361Y009153D01*
X013361Y008222D01*
X013436Y008147D01*
X013436Y007991D01*
X013575Y007991D01*
X013589Y007977D01*
X013589Y006777D01*
X013575Y006763D01*
X013352Y006763D01*
X013362Y006758D01*
X013439Y006681D01*
X013920Y006201D01*
X014268Y006550D01*
X014355Y006585D01*
X014355Y006617D01*
X014240Y006732D01*
X014240Y007054D01*
X014467Y007281D01*
X014789Y007281D01*
X015017Y007054D01*
X015017Y006732D01*
X014902Y006617D01*
X014902Y006263D01*
X014889Y006233D01*
X014896Y006233D01*
X014896Y005838D01*
X014943Y005838D01*
X014943Y006233D01*
X014952Y006233D01*
X015018Y006223D01*
X015080Y006202D01*
X015139Y006172D01*
X015192Y006133D01*
X015239Y006087D01*
X015278Y006034D01*
X015308Y005975D01*
X015328Y005912D01*
X015338Y005847D01*
X015338Y005838D01*
X014943Y005838D01*
X014943Y005790D01*
X015300Y005790D01*
X015948Y006438D01*
X015948Y006487D01*
X015990Y006588D01*
X016067Y006665D01*
X016167Y006706D01*
X016276Y006706D01*
X016377Y006665D01*
X016420Y006622D01*
X016420Y010204D01*
X016312Y010204D01*
X015491Y009383D01*
X015391Y009341D01*
X015282Y009341D01*
X015181Y009383D01*
X015104Y009460D01*
X015063Y009560D01*
X015063Y009669D01*
X015104Y009770D01*
X015998Y010664D01*
X015301Y010664D01*
X015200Y010705D01*
X014264Y011642D01*
X014241Y011651D01*
X014162Y011730D01*
X014120Y011833D01*
X014120Y011945D01*
X014130Y011970D01*
X014130Y012451D01*
X014108Y012451D01*
X014064Y012494D01*
X014064Y013087D01*
X014108Y013130D01*
X014173Y013130D01*
X014158Y013144D02*
X013585Y013144D01*
X013585Y013098D02*
X014076Y013098D01*
X014064Y013053D02*
X013585Y013053D01*
X013585Y013007D02*
X014064Y013007D01*
X014064Y012961D02*
X013585Y012961D01*
X013585Y012915D02*
X014064Y012915D01*
X014064Y012870D02*
X013585Y012870D01*
X013585Y012824D02*
X014064Y012824D01*
X014064Y012778D02*
X013585Y012778D01*
X013585Y012732D02*
X014064Y012732D01*
X014064Y012687D02*
X013585Y012687D01*
X013583Y012641D02*
X014064Y012641D01*
X014064Y012595D02*
X012783Y012595D01*
X012737Y012549D02*
X014064Y012549D01*
X014064Y012504D02*
X012692Y012504D01*
X012646Y012458D02*
X014101Y012458D01*
X014130Y012412D02*
X012600Y012412D01*
X012554Y012366D02*
X014130Y012366D01*
X014130Y012321D02*
X012509Y012321D01*
X012463Y012275D02*
X014130Y012275D01*
X014130Y012229D02*
X012417Y012229D01*
X012371Y012184D02*
X014130Y012184D01*
X014130Y012138D02*
X012326Y012138D01*
X012280Y012092D02*
X014130Y012092D01*
X014130Y012046D02*
X012234Y012046D01*
X012188Y012001D02*
X014130Y012001D01*
X014124Y011955D02*
X012143Y011955D01*
X012097Y011909D02*
X014120Y011909D01*
X014120Y011863D02*
X012051Y011863D01*
X012005Y011818D02*
X014126Y011818D01*
X014145Y011772D02*
X011919Y011772D01*
X011873Y011726D02*
X014166Y011726D01*
X014212Y011680D02*
X010834Y011680D01*
X010789Y011726D02*
X011653Y011726D01*
X011607Y011772D02*
X010743Y011772D01*
X010697Y011818D02*
X011561Y011818D01*
X011555Y011863D02*
X010651Y011863D01*
X010606Y011909D02*
X011555Y011909D01*
X011555Y011955D02*
X010560Y011955D01*
X010514Y012001D02*
X011558Y012001D01*
X011604Y012046D02*
X010468Y012046D01*
X010423Y012092D02*
X011649Y012092D01*
X011877Y012092D02*
X011902Y012092D01*
X011948Y012138D02*
X010377Y012138D01*
X010331Y012184D02*
X011993Y012184D01*
X012039Y012229D02*
X010285Y012229D01*
X010240Y012275D02*
X012085Y012275D01*
X012131Y012321D02*
X010194Y012321D01*
X010148Y012366D02*
X012176Y012366D01*
X012222Y012412D02*
X010102Y012412D01*
X010057Y012458D02*
X012268Y012458D01*
X012314Y012504D02*
X010011Y012504D01*
X009965Y012549D02*
X012359Y012549D01*
X012405Y012595D02*
X009919Y012595D01*
X009725Y012412D02*
X006742Y012412D01*
X006742Y012366D02*
X009770Y012366D01*
X009816Y012321D02*
X006742Y012321D01*
X006742Y012275D02*
X009862Y012275D01*
X009907Y012229D02*
X006742Y012229D01*
X006742Y012184D02*
X009953Y012184D01*
X009999Y012138D02*
X006742Y012138D01*
X006742Y012092D02*
X010045Y012092D01*
X010090Y012046D02*
X006742Y012046D01*
X006742Y012001D02*
X010136Y012001D01*
X010182Y011955D02*
X006742Y011955D01*
X006742Y011909D02*
X010228Y011909D01*
X010273Y011863D02*
X006742Y011863D01*
X006742Y011818D02*
X010319Y011818D01*
X010365Y011772D02*
X006742Y011772D01*
X006742Y011726D02*
X009432Y011726D01*
X009444Y011738D02*
X009321Y011616D01*
X009321Y011443D01*
X009396Y011368D01*
X009396Y010795D01*
X009475Y010717D01*
X012124Y008068D01*
X012124Y007991D01*
X011604Y007991D01*
X011250Y008345D01*
X011149Y008387D01*
X011040Y008387D01*
X010940Y008345D01*
X010863Y008268D01*
X010821Y008168D01*
X010821Y008059D01*
X010849Y007991D01*
X007418Y007991D01*
X007404Y007977D01*
X007404Y006777D01*
X007418Y006763D01*
X008132Y006763D01*
X008495Y006400D01*
X008573Y006322D01*
X009208Y006322D01*
X009578Y005952D01*
X009551Y005887D01*
X009551Y005741D01*
X009607Y005605D01*
X009711Y005501D01*
X009846Y005445D01*
X009993Y005445D01*
X010128Y005501D01*
X010232Y005605D01*
X010288Y005741D01*
X010288Y005887D01*
X010232Y006023D01*
X010144Y006111D01*
X010433Y006111D01*
X010582Y005963D01*
X010551Y005887D01*
X010551Y005741D01*
X010607Y005605D01*
X010711Y005501D01*
X010846Y005445D01*
X010993Y005445D01*
X011128Y005501D01*
X011232Y005605D01*
X011286Y005735D01*
X011286Y005671D01*
X011364Y005593D01*
X011364Y005593D01*
X011548Y005410D01*
X011456Y005318D01*
X006605Y005318D01*
X006257Y005665D01*
X006288Y005741D01*
X006288Y005887D01*
X006232Y006023D01*
X006128Y006127D01*
X005993Y006183D01*
X005846Y006183D01*
X005711Y006127D01*
X005607Y006023D01*
X005551Y005887D01*
X005551Y005741D01*
X005607Y005605D01*
X005711Y005501D01*
X005846Y005445D01*
X005993Y005445D01*
X006068Y005476D01*
X006227Y005318D01*
X004330Y005318D01*
X004330Y007972D01*
X004534Y007972D01*
X004534Y008322D01*
X004581Y008322D01*
X004581Y008369D01*
X004931Y008369D01*
X004931Y008575D01*
X004931Y008818D01*
X004581Y008818D01*
X004581Y008865D01*
X004931Y008865D01*
X004931Y008965D01*
X005183Y008965D01*
X005183Y009034D01*
X005231Y009034D01*
X005231Y008965D01*
X005366Y008965D01*
X005390Y008941D01*
X005328Y008941D01*
X005182Y008880D01*
X005070Y008768D01*
X005009Y008622D01*
X005009Y008463D01*
X005070Y008316D01*
X005182Y008204D01*
X005328Y008143D01*
X005487Y008143D01*
X005634Y008204D01*
X005746Y008316D01*
X005807Y008463D01*
X005807Y008622D01*
X005746Y008768D01*
X005687Y008827D01*
X005687Y008965D01*
X005734Y008965D01*
X005734Y008822D01*
X005749Y008822D01*
X005825Y008834D01*
X005898Y008858D01*
X005966Y008893D01*
X006029Y008938D01*
X006056Y008965D01*
X006123Y008965D01*
X006155Y008974D01*
X006183Y008990D01*
X006206Y009013D01*
X006218Y009034D01*
X006236Y009034D01*
X006250Y009048D01*
X006250Y011068D01*
X006236Y011082D01*
X006231Y011082D01*
X006231Y011290D01*
X006199Y011290D01*
X006199Y011294D01*
X005734Y011294D01*
X005734Y011338D01*
X006231Y011338D01*
X006231Y011555D01*
X006222Y011587D01*
X006206Y011615D01*
X006183Y011638D01*
X006155Y011654D01*
X006123Y011663D01*
X006056Y011663D01*
X006029Y011690D01*
X005966Y011735D01*
X005898Y011770D01*
X005825Y011794D01*
X005749Y011806D01*
X005734Y011806D01*
X005734Y011663D01*
X005687Y011663D01*
X005687Y011801D01*
X005746Y011860D01*
X005807Y012006D01*
X005807Y012165D01*
X005746Y012312D01*
X005634Y012424D01*
X005487Y012485D01*
X005328Y012485D01*
X005182Y012424D01*
X005070Y012312D01*
X005009Y012165D01*
X005009Y012006D01*
X005070Y011860D01*
X005182Y011747D01*
X005328Y011687D01*
X005390Y011687D01*
X005366Y011663D01*
X005231Y011663D01*
X005231Y011404D01*
X005223Y011356D01*
X005223Y011341D01*
X005231Y011341D01*
X005231Y011338D01*
X005687Y011338D01*
X005687Y011294D01*
X005231Y011294D01*
X005231Y011338D01*
X005183Y011338D01*
X005183Y011663D01*
X004931Y011663D01*
X004931Y011763D01*
X004581Y011763D01*
X004581Y011810D01*
X004931Y011810D01*
X004931Y012053D01*
X004931Y012263D01*
X004581Y012263D01*
X004581Y012310D01*
X004931Y012310D01*
X004931Y012553D01*
X004923Y012584D01*
X004906Y012612D01*
X004883Y012635D01*
X004855Y012652D01*
X004824Y012660D01*
X004581Y012660D01*
X004581Y012310D01*
X004534Y012310D01*
X004534Y012660D01*
X004330Y012660D01*
X004330Y015302D01*
X006219Y015302D01*
X006068Y015152D01*
X005993Y015183D01*
X005846Y015183D01*
X005711Y015127D01*
X005607Y015023D01*
X005551Y014887D01*
X005551Y014741D01*
X005607Y014605D01*
X005711Y014501D01*
X005846Y014445D01*
X005993Y014445D01*
X006128Y014501D01*
X006232Y014605D01*
X006288Y014741D01*
X006288Y014887D01*
X006257Y014963D01*
X006597Y015302D01*
X007385Y015302D01*
X007371Y015288D01*
X007371Y014387D01*
X007900Y013857D01*
X007414Y013857D01*
X007400Y013843D01*
X007400Y013412D01*
X007116Y013412D01*
X007115Y013413D01*
X007098Y013413D01*
X007096Y013415D01*
X007079Y013414D01*
X007077Y013416D01*
X007061Y013415D01*
X007059Y013416D01*
X007042Y013415D01*
X007040Y013416D01*
X007024Y013414D01*
X007021Y013416D01*
X007005Y013413D01*
X007003Y013414D01*
X006993Y013412D01*
X006990Y013412D01*
X006989Y013412D01*
X006989Y013412D01*
X006986Y013412D01*
X006984Y013413D01*
X006980Y013411D01*
X006974Y013411D01*
X006972Y013410D01*
X006969Y013409D01*
X006968Y013409D01*
X006966Y013410D01*
X006960Y013409D01*
X006955Y013408D01*
X006953Y013407D01*
X006951Y013406D01*
X006949Y013406D01*
X006947Y013407D01*
X006942Y013406D01*
X006937Y013405D01*
X006935Y013404D01*
X006934Y013403D01*
X006930Y013403D01*
X006929Y013404D01*
X006924Y013402D01*
X006919Y013402D01*
X006917Y013400D01*
X006914Y013399D01*
X006913Y013399D01*
X006910Y013400D01*
X006905Y013397D01*
X006900Y013397D01*
X006899Y013395D01*
X006897Y013394D01*
X006894Y013394D01*
X006893Y013395D01*
X006888Y013393D01*
X006882Y013392D01*
X006881Y013390D01*
X006879Y013389D01*
X006877Y013389D01*
X006875Y013390D01*
X006870Y013387D01*
X006864Y013386D01*
X006863Y013384D01*
X006862Y013384D01*
X006859Y013383D01*
X006857Y013384D01*
X006852Y013382D01*
X006847Y013380D01*
X006846Y013379D01*
X006843Y013377D01*
X006841Y013377D01*
X006839Y013378D01*
X006835Y013375D01*
X006829Y013374D01*
X006828Y013372D01*
X006827Y013371D01*
X006824Y013370D01*
X006822Y013371D01*
X006817Y013368D01*
X006812Y013367D01*
X006811Y013365D01*
X006809Y013363D01*
X006807Y013363D01*
X006804Y013363D01*
X006799Y013360D01*
X006795Y013359D01*
X006794Y013357D01*
X006791Y013355D01*
X006790Y013355D01*
X006788Y013355D01*
X006784Y013352D01*
X006778Y013350D01*
X006777Y013348D01*
X006776Y013348D01*
X006773Y013347D01*
X006771Y013347D01*
X006767Y013344D01*
X006762Y013342D01*
X006761Y013340D01*
X006760Y013339D01*
X006756Y013338D01*
X006754Y013338D01*
X006750Y013335D01*
X006746Y013333D01*
X006745Y013331D01*
X006742Y013329D01*
X006741Y013328D01*
X006739Y013329D01*
X006735Y013325D01*
X006729Y013323D01*
X006729Y013321D01*
X006728Y013320D01*
X006725Y013318D01*
X006723Y013318D01*
X006718Y013315D01*
X006714Y013313D01*
X006713Y013311D01*
X006711Y013309D01*
X006710Y013308D01*
X006707Y013308D01*
X006704Y013305D01*
X006699Y013302D01*
X006698Y013300D01*
X006696Y013298D01*
X006694Y013297D01*
X006692Y013297D01*
X006688Y013293D01*
X006683Y013290D01*
X006683Y013289D01*
X006682Y013287D01*
X006679Y013286D01*
X006677Y013286D01*
X006674Y013282D01*
X006669Y013279D01*
X006669Y013277D01*
X006667Y013276D01*
X006665Y013274D01*
X006663Y013274D01*
X006660Y013271D01*
X006655Y013267D01*
X006654Y013265D01*
X006652Y013263D01*
X006651Y013262D01*
X006649Y013262D01*
X006644Y013257D01*
X006641Y013254D01*
X006640Y013252D01*
X006639Y013251D01*
X006637Y013249D01*
X006635Y013249D01*
X006632Y013246D01*
X006628Y013242D01*
X006627Y013240D01*
X006626Y013238D01*
X006624Y013236D01*
X006621Y013236D01*
X006618Y013231D01*
X006614Y013228D01*
X006614Y013226D01*
X006612Y013224D01*
X006611Y013223D01*
X006609Y013223D01*
X006606Y013219D01*
X006602Y013215D01*
X006602Y013212D01*
X006601Y013211D01*
X006598Y013209D01*
X006596Y013209D01*
X006593Y013204D01*
X006589Y013200D01*
X006589Y013199D01*
X006588Y013196D01*
X006586Y013195D01*
X006584Y013194D01*
X006581Y013190D01*
X004330Y013190D01*
X004330Y013236D02*
X006621Y013236D01*
X006581Y013190D02*
X006578Y013186D01*
X006578Y013184D01*
X006576Y013182D01*
X006575Y013180D01*
X006573Y013180D01*
X006570Y013176D01*
X006566Y013171D01*
X006566Y013169D01*
X006565Y013167D01*
X006564Y013165D01*
X006561Y013165D01*
X006559Y013160D01*
X006555Y013156D01*
X006555Y013154D01*
X006555Y013152D01*
X006553Y013150D01*
X006551Y013149D01*
X006548Y013145D01*
X006545Y013141D01*
X006545Y013139D01*
X006543Y013136D01*
X006543Y013135D01*
X006541Y013134D01*
X006538Y013129D01*
X006535Y013124D01*
X006535Y013122D01*
X006535Y013122D01*
X006532Y013118D01*
X006531Y013118D01*
X006529Y013113D01*
X006526Y013109D01*
X006526Y013107D01*
X006524Y013104D01*
X006524Y013103D01*
X006522Y013102D01*
X006519Y013096D01*
X006517Y013092D01*
X006517Y013090D01*
X006516Y013087D01*
X006515Y013086D01*
X006513Y013085D01*
X006511Y013080D01*
X006508Y013075D01*
X006509Y013073D01*
X006508Y013072D01*
X006506Y013069D01*
X006505Y013068D01*
X006503Y013064D01*
X006500Y013059D01*
X006501Y013057D01*
X006500Y013055D01*
X006499Y013052D01*
X006497Y013051D01*
X006495Y013046D01*
X006493Y013042D01*
X006493Y013040D01*
X006493Y013037D01*
X006492Y013035D01*
X006490Y013034D01*
X006488Y013029D01*
X006486Y013024D01*
X006487Y013022D01*
X006486Y013020D01*
X006485Y013018D01*
X006483Y013016D01*
X006482Y013012D01*
X006480Y013007D01*
X004330Y013007D01*
X004330Y013053D02*
X006499Y013053D01*
X006480Y013007D02*
X006480Y013005D01*
X006479Y013001D01*
X006479Y013000D01*
X006477Y012999D01*
X006476Y012993D01*
X006474Y012989D01*
X006475Y012987D01*
X006474Y012985D01*
X006473Y012982D01*
X006471Y012981D01*
X006471Y012976D01*
X006469Y012971D01*
X006469Y012969D01*
X006469Y012967D01*
X006468Y012965D01*
X006467Y012963D01*
X006466Y012958D01*
X006464Y012953D01*
X006465Y012951D01*
X006465Y012949D01*
X006464Y012946D01*
X006462Y012945D01*
X006461Y012939D01*
X006460Y012935D01*
X006461Y012933D01*
X006460Y012930D01*
X006460Y012928D01*
X006458Y012927D01*
X006458Y012921D01*
X006456Y012916D01*
X006457Y012914D01*
X006457Y012912D01*
X006456Y012910D01*
X006455Y012909D01*
X006455Y012904D01*
X006453Y012898D01*
X006454Y012897D01*
X006440Y012884D01*
X006440Y012878D01*
X006435Y012874D01*
X006435Y012816D01*
X006431Y012758D01*
X006435Y012753D01*
X006435Y010985D01*
X006370Y010985D01*
X006327Y010942D01*
X006327Y010505D01*
X006370Y010462D01*
X006807Y010462D01*
X006851Y010505D01*
X006851Y010942D01*
X006807Y010985D01*
X006742Y010985D01*
X006742Y012740D01*
X006753Y012749D01*
X006754Y012751D01*
X006755Y012753D01*
X006758Y012815D01*
X006760Y012845D01*
X006760Y012846D01*
X006762Y012855D01*
X006763Y012864D01*
X006765Y012873D01*
X006767Y012882D01*
X006769Y012891D01*
X006772Y012899D01*
X006775Y012908D01*
X006778Y012917D01*
X006782Y012925D01*
X006785Y012933D01*
X006789Y012942D01*
X006793Y012950D01*
X006798Y012957D01*
X006802Y012965D01*
X006807Y012973D01*
X006812Y012981D01*
X006818Y012988D01*
X006823Y012995D01*
X006829Y013002D01*
X006835Y013009D01*
X006841Y013015D01*
X006848Y013022D01*
X006855Y013028D01*
X006861Y013034D01*
X006868Y013040D01*
X006876Y013046D01*
X006883Y013051D01*
X006890Y013056D01*
X006898Y013061D01*
X006906Y013066D01*
X006914Y013070D01*
X006922Y013074D01*
X006930Y013078D01*
X006938Y013082D01*
X006947Y013085D01*
X006955Y013088D01*
X006964Y013091D01*
X006973Y013094D01*
X006981Y013096D01*
X006990Y013098D01*
X006999Y013100D01*
X007008Y013102D01*
X007017Y013103D01*
X007026Y013104D01*
X007035Y013105D01*
X007044Y013105D01*
X007054Y013105D01*
X007400Y013105D01*
X007400Y012643D01*
X007414Y012629D01*
X009486Y012629D01*
X009486Y012544D01*
X009608Y012422D01*
X009714Y012422D01*
X013094Y009043D01*
X013094Y008222D01*
X013019Y008147D01*
X013019Y007991D01*
X012578Y007991D01*
X012541Y008029D01*
X012541Y008135D01*
X012419Y008257D01*
X012313Y008257D01*
X009664Y010906D01*
X009664Y011368D01*
X009739Y011443D01*
X009739Y011616D01*
X009617Y011738D01*
X009444Y011738D01*
X009386Y011680D02*
X006742Y011680D01*
X006742Y011635D02*
X009340Y011635D01*
X009321Y011589D02*
X006742Y011589D01*
X006742Y011543D02*
X009321Y011543D01*
X009321Y011497D02*
X006742Y011497D01*
X006742Y011452D02*
X009321Y011452D01*
X009359Y011406D02*
X006742Y011406D01*
X006742Y011360D02*
X009396Y011360D01*
X009396Y011314D02*
X006742Y011314D01*
X006742Y011269D02*
X009396Y011269D01*
X009396Y011223D02*
X006742Y011223D01*
X006742Y011177D02*
X009396Y011177D01*
X009396Y011131D02*
X006742Y011131D01*
X006742Y011086D02*
X009396Y011086D01*
X009396Y011040D02*
X006742Y011040D01*
X006742Y010994D02*
X009396Y010994D01*
X009396Y010948D02*
X006844Y010948D01*
X006851Y010903D02*
X009396Y010903D01*
X009396Y010857D02*
X006851Y010857D01*
X006851Y010811D02*
X009396Y010811D01*
X009426Y010765D02*
X006851Y010765D01*
X006851Y010720D02*
X009472Y010720D01*
X009518Y010674D02*
X006851Y010674D01*
X006851Y010628D02*
X009563Y010628D01*
X009609Y010582D02*
X006851Y010582D01*
X006851Y010537D02*
X009655Y010537D01*
X009701Y010491D02*
X006837Y010491D01*
X006341Y010491D02*
X006250Y010491D01*
X006250Y010537D02*
X006327Y010537D01*
X006327Y010582D02*
X006250Y010582D01*
X006250Y010628D02*
X006327Y010628D01*
X006327Y010674D02*
X006250Y010674D01*
X006250Y010720D02*
X006327Y010720D01*
X006327Y010765D02*
X006250Y010765D01*
X006250Y010811D02*
X006327Y010811D01*
X006327Y010857D02*
X006250Y010857D01*
X006250Y010903D02*
X006327Y010903D01*
X006333Y010948D02*
X006250Y010948D01*
X006250Y010994D02*
X006435Y010994D01*
X006435Y011040D02*
X006250Y011040D01*
X006231Y011086D02*
X006435Y011086D01*
X006435Y011131D02*
X006231Y011131D01*
X006231Y011177D02*
X006435Y011177D01*
X006435Y011223D02*
X006231Y011223D01*
X006231Y011269D02*
X006435Y011269D01*
X006435Y011314D02*
X005734Y011314D01*
X005687Y011314D02*
X005231Y011314D01*
X005224Y011360D02*
X005183Y011360D01*
X005183Y011338D02*
X005183Y011290D01*
X004330Y011290D01*
X004330Y011338D01*
X005183Y011338D01*
X005183Y011314D02*
X004330Y011314D01*
X004581Y011772D02*
X005157Y011772D01*
X005112Y011818D02*
X004931Y011818D01*
X004931Y011863D02*
X005068Y011863D01*
X005049Y011909D02*
X004931Y011909D01*
X004931Y011955D02*
X005030Y011955D01*
X005011Y012001D02*
X004931Y012001D01*
X004931Y012046D02*
X005009Y012046D01*
X005009Y012092D02*
X004931Y012092D01*
X004931Y012053D02*
X004931Y012053D01*
X004931Y012138D02*
X005009Y012138D01*
X005016Y012184D02*
X004931Y012184D01*
X004931Y012229D02*
X005035Y012229D01*
X005054Y012275D02*
X004581Y012275D01*
X004581Y012263D02*
X004581Y011810D01*
X004534Y011810D01*
X004534Y011913D01*
X004534Y012263D01*
X004581Y012263D01*
X004581Y012229D02*
X004534Y012229D01*
X004534Y012184D02*
X004581Y012184D01*
X004581Y012138D02*
X004534Y012138D01*
X004534Y012092D02*
X004581Y012092D01*
X004581Y012046D02*
X004534Y012046D01*
X004534Y012001D02*
X004581Y012001D01*
X004581Y011955D02*
X004534Y011955D01*
X004534Y011909D02*
X004581Y011909D01*
X004581Y011863D02*
X004534Y011863D01*
X004534Y011818D02*
X004581Y011818D01*
X004931Y011726D02*
X005233Y011726D01*
X005231Y011635D02*
X005183Y011635D01*
X005183Y011589D02*
X005231Y011589D01*
X005231Y011543D02*
X005183Y011543D01*
X005183Y011497D02*
X005231Y011497D01*
X005231Y011452D02*
X005183Y011452D01*
X005183Y011406D02*
X005231Y011406D01*
X005383Y011680D02*
X004931Y011680D01*
X005687Y011680D02*
X005734Y011680D01*
X005734Y011726D02*
X005687Y011726D01*
X005687Y011772D02*
X005734Y011772D01*
X005704Y011818D02*
X006435Y011818D01*
X006435Y011863D02*
X005747Y011863D01*
X005766Y011909D02*
X006435Y011909D01*
X006435Y011955D02*
X005785Y011955D01*
X005804Y012001D02*
X006435Y012001D01*
X006435Y012046D02*
X005807Y012046D01*
X005807Y012092D02*
X006435Y012092D01*
X006435Y012138D02*
X005807Y012138D01*
X005799Y012184D02*
X006435Y012184D01*
X006435Y012229D02*
X005780Y012229D01*
X005761Y012275D02*
X006435Y012275D01*
X006435Y012321D02*
X005737Y012321D01*
X005691Y012366D02*
X006435Y012366D01*
X006435Y012412D02*
X005645Y012412D01*
X005551Y012458D02*
X006435Y012458D01*
X006435Y012504D02*
X004931Y012504D01*
X004931Y012549D02*
X006435Y012549D01*
X006435Y012595D02*
X004916Y012595D01*
X004874Y012641D02*
X006435Y012641D01*
X006435Y012687D02*
X004330Y012687D01*
X004330Y012732D02*
X006435Y012732D01*
X006433Y012778D02*
X004330Y012778D01*
X004330Y012824D02*
X006435Y012824D01*
X006435Y012870D02*
X004330Y012870D01*
X004330Y012915D02*
X006457Y012915D01*
X006466Y012961D02*
X004330Y012961D01*
X004330Y013098D02*
X006520Y013098D01*
X006548Y013144D02*
X004330Y013144D01*
X004330Y013281D02*
X006672Y013281D01*
X006737Y013327D02*
X004330Y013327D01*
X004330Y013373D02*
X006829Y013373D01*
X006990Y013098D02*
X007400Y013098D01*
X007400Y013053D02*
X006885Y013053D01*
X006833Y013007D02*
X007400Y013007D01*
X007400Y012961D02*
X006800Y012961D01*
X006778Y012915D02*
X007400Y012915D01*
X007400Y012870D02*
X006764Y012870D01*
X006759Y012824D02*
X007400Y012824D01*
X007400Y012778D02*
X006756Y012778D01*
X006742Y012732D02*
X007400Y012732D01*
X007400Y012687D02*
X006742Y012687D01*
X006742Y012641D02*
X007402Y012641D01*
X006742Y012595D02*
X009486Y012595D01*
X009486Y012549D02*
X006742Y012549D01*
X006742Y012504D02*
X009527Y012504D01*
X009573Y012458D02*
X006742Y012458D01*
X006435Y011772D02*
X005892Y011772D01*
X005979Y011726D02*
X006435Y011726D01*
X006435Y011680D02*
X006038Y011680D01*
X006186Y011635D02*
X006435Y011635D01*
X006435Y011589D02*
X006221Y011589D01*
X006231Y011543D02*
X006435Y011543D01*
X006435Y011497D02*
X006231Y011497D01*
X006231Y011452D02*
X006435Y011452D01*
X006435Y011406D02*
X006231Y011406D01*
X006231Y011360D02*
X006435Y011360D01*
X006250Y010445D02*
X009746Y010445D01*
X009792Y010399D02*
X006250Y010399D01*
X006250Y010354D02*
X009838Y010354D01*
X009884Y010308D02*
X006250Y010308D01*
X006250Y010262D02*
X009929Y010262D01*
X009975Y010216D02*
X006250Y010216D01*
X006250Y010171D02*
X010021Y010171D01*
X010067Y010125D02*
X006731Y010125D01*
X006737Y010122D02*
X006641Y010162D01*
X006537Y010162D01*
X006441Y010122D01*
X006367Y010049D01*
X006327Y009953D01*
X006327Y009849D01*
X006367Y009752D01*
X006436Y009683D01*
X006443Y007974D01*
X006442Y007974D01*
X006442Y007957D01*
X006441Y007955D01*
X006441Y007939D01*
X006439Y007936D01*
X006441Y007920D01*
X006439Y007918D01*
X006441Y007902D01*
X006439Y007900D01*
X006441Y007883D01*
X006440Y007881D01*
X006443Y007865D01*
X006441Y007863D01*
X006443Y007852D01*
X006443Y007848D01*
X006444Y007848D01*
X006444Y007846D01*
X006443Y007844D01*
X006444Y007838D01*
X004330Y007838D01*
X004330Y007884D02*
X006441Y007884D01*
X006440Y007929D02*
X004330Y007929D01*
X004330Y007792D02*
X006452Y007792D01*
X006452Y007793D02*
X006453Y007791D01*
X006452Y007789D01*
X006453Y007783D01*
X006454Y007778D01*
X006456Y007777D01*
X006456Y007775D01*
X006456Y007773D01*
X006456Y007771D01*
X006457Y007766D01*
X006458Y007760D01*
X006460Y007759D01*
X006461Y007757D01*
X006461Y007755D01*
X006460Y007753D01*
X006462Y007748D01*
X006463Y007742D01*
X006465Y007741D01*
X006465Y007740D01*
X006466Y007737D01*
X006465Y007735D01*
X006467Y007730D01*
X006468Y007724D01*
X006470Y007723D01*
X006471Y007721D01*
X006472Y007719D01*
X006471Y007717D01*
X006473Y007712D01*
X006475Y007706D01*
X006476Y007705D01*
X006477Y007703D01*
X006478Y007702D01*
X006477Y007700D01*
X006479Y007695D01*
X006481Y007689D01*
X006483Y007688D01*
X006484Y007687D01*
X006484Y007685D01*
X006484Y007683D01*
X006486Y007678D01*
X006488Y007672D01*
X006490Y007671D01*
X006491Y007669D01*
X006492Y007668D01*
X006491Y007665D01*
X006494Y007660D01*
X006496Y007655D01*
X004330Y007655D01*
X004330Y007701D02*
X006477Y007701D01*
X006462Y007746D02*
X004330Y007746D01*
X004330Y007609D02*
X006520Y007609D01*
X006519Y007610D02*
X006521Y007606D01*
X006523Y007605D01*
X006525Y007602D01*
X006525Y007599D01*
X006529Y007594D01*
X006531Y007590D01*
X006533Y007589D01*
X006534Y007588D01*
X006535Y007586D01*
X006534Y007584D01*
X006538Y007579D01*
X006541Y007574D01*
X006543Y007573D01*
X006544Y007572D01*
X006545Y007570D01*
X006545Y007568D01*
X006548Y007565D01*
X006551Y007559D01*
X006553Y007558D01*
X006554Y007557D01*
X006555Y007555D01*
X006555Y007553D01*
X006560Y007548D01*
X006562Y007544D01*
X006564Y007543D01*
X006566Y007541D01*
X006566Y007540D01*
X006566Y007538D01*
X006571Y007534D01*
X006573Y007529D01*
X006576Y007529D01*
X006576Y007528D01*
X006578Y007526D01*
X006578Y007524D01*
X006581Y007520D01*
X006585Y007515D01*
X006587Y007514D01*
X006589Y007513D01*
X006590Y007512D01*
X006590Y007510D01*
X006594Y007505D01*
X006598Y007501D01*
X006600Y007500D01*
X006601Y007499D01*
X006602Y007498D01*
X006602Y007495D01*
X006607Y007491D01*
X006610Y007487D01*
X006612Y007487D01*
X006614Y007485D01*
X006615Y007484D01*
X006615Y007482D01*
X006619Y007478D01*
X006623Y007474D01*
X006625Y007474D01*
X006626Y007473D01*
X006628Y007471D01*
X006628Y007469D01*
X006632Y007466D01*
X006636Y007461D01*
X006639Y007461D01*
X006640Y007460D01*
X006641Y007459D01*
X006642Y007457D01*
X006646Y007453D01*
X006650Y007449D01*
X006653Y007449D01*
X006654Y007448D01*
X006655Y007446D01*
X006656Y007444D01*
X006661Y007440D01*
X006665Y007437D01*
X006667Y007437D01*
X006669Y007435D01*
X006669Y007435D01*
X006670Y007432D01*
X006675Y007430D01*
X006679Y007425D01*
X006681Y007425D01*
X006682Y007425D01*
X006684Y007423D01*
X006685Y007421D01*
X006689Y007419D01*
X006694Y007414D01*
X006696Y007414D01*
X006698Y007413D01*
X006699Y007412D01*
X006700Y007410D01*
X006706Y007407D01*
X006709Y007404D01*
X006711Y007404D01*
X006713Y007403D01*
X006714Y007402D01*
X006715Y007400D01*
X006720Y007397D01*
X006725Y007393D01*
X006727Y007394D01*
X006729Y007393D01*
X006730Y007392D01*
X006731Y007390D01*
X006735Y007388D01*
X006740Y007384D01*
X006743Y007384D01*
X006743Y007384D01*
X006746Y007382D01*
X006747Y007380D01*
X006751Y007378D01*
X006756Y007375D01*
X006759Y007375D01*
X006761Y007374D01*
X006762Y007373D01*
X006763Y007371D01*
X006769Y007369D01*
X006773Y007366D01*
X006775Y007366D01*
X006777Y007366D01*
X006778Y007365D01*
X006779Y007363D01*
X006785Y007361D01*
X006790Y007358D01*
X006792Y007358D01*
X006793Y007358D01*
X006795Y007357D01*
X006796Y007355D01*
X006801Y007353D01*
X006806Y007350D01*
X006809Y007351D01*
X006810Y007350D01*
X006812Y007349D01*
X006813Y007347D01*
X006819Y007345D01*
X006824Y007343D01*
X006826Y007343D01*
X006828Y007343D01*
X006829Y007342D01*
X006830Y007340D01*
X006836Y007339D01*
X006841Y007336D01*
X006843Y007337D01*
X006844Y007336D01*
X006846Y007335D01*
X006847Y007334D01*
X006853Y007332D01*
X006858Y007330D01*
X006860Y007331D01*
X006862Y007330D01*
X006864Y007329D01*
X006865Y007328D01*
X006871Y007326D01*
X006876Y007324D01*
X006878Y007325D01*
X006881Y007324D01*
X006882Y007324D02*
X006883Y007322D01*
X006889Y007321D01*
X006894Y007319D01*
X006895Y007319D01*
X006967Y007247D01*
X007140Y007247D01*
X007262Y007369D01*
X007262Y007542D01*
X007140Y007664D01*
X006967Y007664D01*
X006936Y007633D01*
X006929Y007636D01*
X006921Y007640D01*
X006912Y007644D01*
X006904Y007648D01*
X006897Y007653D01*
X006889Y007658D01*
X006881Y007663D01*
X006874Y007668D01*
X006867Y007674D01*
X006859Y007680D01*
X006852Y007686D01*
X006846Y007692D01*
X006839Y007698D01*
X006833Y007705D01*
X006827Y007711D01*
X006821Y007718D01*
X006815Y007726D01*
X006809Y007733D01*
X006804Y007740D01*
X006799Y007748D01*
X006794Y007756D01*
X006789Y007763D01*
X006785Y007771D01*
X006781Y007780D01*
X006777Y007788D01*
X006773Y007796D01*
X006770Y007805D01*
X006767Y007814D01*
X006764Y007822D01*
X006761Y007831D01*
X006759Y007840D01*
X006757Y007849D01*
X006755Y007858D01*
X006754Y007867D01*
X006753Y007876D01*
X006752Y007885D01*
X006751Y007894D01*
X006750Y007903D01*
X006750Y007914D01*
X006743Y009685D01*
X006811Y009752D01*
X006851Y009849D01*
X006851Y009953D01*
X006811Y010049D01*
X006737Y010122D01*
X006780Y010079D02*
X010112Y010079D01*
X010158Y010034D02*
X006817Y010034D01*
X006836Y009988D02*
X010204Y009988D01*
X010250Y009942D02*
X006851Y009942D01*
X006851Y009896D02*
X010295Y009896D01*
X010341Y009851D02*
X006851Y009851D01*
X006832Y009805D02*
X010387Y009805D01*
X010433Y009759D02*
X006813Y009759D01*
X006772Y009713D02*
X010478Y009713D01*
X010524Y009668D02*
X006743Y009668D01*
X006744Y009622D02*
X010570Y009622D01*
X010616Y009576D02*
X006744Y009576D01*
X006744Y009530D02*
X010661Y009530D01*
X010707Y009485D02*
X006744Y009485D01*
X006744Y009439D02*
X010753Y009439D01*
X010799Y009393D02*
X006744Y009393D01*
X006745Y009347D02*
X010844Y009347D01*
X010890Y009302D02*
X006745Y009302D01*
X006745Y009256D02*
X010936Y009256D01*
X010982Y009210D02*
X006745Y009210D01*
X006745Y009164D02*
X011027Y009164D01*
X011073Y009119D02*
X006746Y009119D01*
X006746Y009073D02*
X011119Y009073D01*
X011165Y009027D02*
X006746Y009027D01*
X006746Y008981D02*
X011210Y008981D01*
X011256Y008936D02*
X006746Y008936D01*
X006746Y008890D02*
X011302Y008890D01*
X011347Y008844D02*
X006747Y008844D01*
X006747Y008798D02*
X011393Y008798D01*
X011439Y008753D02*
X006747Y008753D01*
X006747Y008707D02*
X011485Y008707D01*
X011530Y008661D02*
X006747Y008661D01*
X006748Y008615D02*
X011576Y008615D01*
X011622Y008570D02*
X006748Y008570D01*
X006748Y008524D02*
X011668Y008524D01*
X011713Y008478D02*
X006748Y008478D01*
X006748Y008432D02*
X011759Y008432D01*
X011805Y008387D02*
X011150Y008387D01*
X011039Y008387D02*
X006748Y008387D01*
X006749Y008341D02*
X010935Y008341D01*
X010889Y008295D02*
X006749Y008295D01*
X006749Y008249D02*
X010855Y008249D01*
X010836Y008204D02*
X006749Y008204D01*
X006749Y008158D02*
X010821Y008158D01*
X010821Y008112D02*
X006750Y008112D01*
X006750Y008067D02*
X010821Y008067D01*
X010837Y008021D02*
X006750Y008021D01*
X006750Y007975D02*
X007404Y007975D01*
X007404Y007929D02*
X006750Y007929D01*
X006752Y007884D02*
X007404Y007884D01*
X007404Y007838D02*
X006760Y007838D01*
X006775Y007792D02*
X007404Y007792D01*
X007404Y007746D02*
X006800Y007746D01*
X006837Y007701D02*
X007404Y007701D01*
X007404Y007655D02*
X007149Y007655D01*
X007195Y007609D02*
X007404Y007609D01*
X007404Y007563D02*
X007241Y007563D01*
X007262Y007518D02*
X007404Y007518D01*
X007404Y007472D02*
X007262Y007472D01*
X007262Y007426D02*
X007404Y007426D01*
X007404Y007380D02*
X007262Y007380D01*
X007227Y007335D02*
X007404Y007335D01*
X007404Y007289D02*
X007182Y007289D01*
X007404Y007243D02*
X004330Y007243D01*
X004330Y007197D02*
X007404Y007197D01*
X007404Y007152D02*
X004330Y007152D01*
X004330Y007106D02*
X007404Y007106D01*
X007404Y007060D02*
X004330Y007060D01*
X004330Y007014D02*
X007404Y007014D01*
X007404Y006969D02*
X004330Y006969D01*
X004330Y006923D02*
X007404Y006923D01*
X007404Y006877D02*
X004330Y006877D01*
X004330Y006831D02*
X007404Y006831D01*
X007404Y006786D02*
X004330Y006786D01*
X004330Y006740D02*
X008155Y006740D01*
X008201Y006694D02*
X004330Y006694D01*
X004330Y006648D02*
X008246Y006648D01*
X008292Y006603D02*
X004330Y006603D01*
X004330Y006557D02*
X008338Y006557D01*
X008384Y006511D02*
X004330Y006511D01*
X004330Y006465D02*
X008429Y006465D01*
X008475Y006420D02*
X004330Y006420D01*
X004330Y006374D02*
X008521Y006374D01*
X008567Y006328D02*
X004330Y006328D01*
X004330Y006282D02*
X009248Y006282D01*
X009293Y006237D02*
X004330Y006237D01*
X004330Y006191D02*
X009339Y006191D01*
X009385Y006145D02*
X009084Y006145D01*
X009128Y006127D02*
X008993Y006183D01*
X008846Y006183D01*
X008711Y006127D01*
X008607Y006023D01*
X008551Y005887D01*
X008551Y005741D01*
X008607Y005605D01*
X008711Y005501D01*
X008846Y005445D01*
X008993Y005445D01*
X009128Y005501D01*
X009232Y005605D01*
X009288Y005741D01*
X009288Y005887D01*
X009232Y006023D01*
X009128Y006127D01*
X009156Y006100D02*
X009431Y006100D01*
X009476Y006054D02*
X009201Y006054D01*
X009238Y006008D02*
X009522Y006008D01*
X009568Y005962D02*
X009257Y005962D01*
X009276Y005917D02*
X009563Y005917D01*
X009551Y005871D02*
X009288Y005871D01*
X009288Y005825D02*
X009551Y005825D01*
X009551Y005779D02*
X009288Y005779D01*
X009286Y005734D02*
X009554Y005734D01*
X009572Y005688D02*
X009267Y005688D01*
X009248Y005642D02*
X009591Y005642D01*
X009615Y005596D02*
X009224Y005596D01*
X009178Y005551D02*
X009661Y005551D01*
X009707Y005505D02*
X009132Y005505D01*
X009027Y005459D02*
X009812Y005459D01*
X010027Y005459D02*
X010812Y005459D01*
X010707Y005505D02*
X010132Y005505D01*
X010178Y005551D02*
X010661Y005551D01*
X010615Y005596D02*
X010224Y005596D01*
X010248Y005642D02*
X010591Y005642D01*
X010572Y005688D02*
X010267Y005688D01*
X010286Y005734D02*
X010554Y005734D01*
X010551Y005779D02*
X010288Y005779D01*
X010288Y005825D02*
X010551Y005825D01*
X010551Y005871D02*
X010288Y005871D01*
X010276Y005917D02*
X010563Y005917D01*
X010582Y005962D02*
X010257Y005962D01*
X010238Y006008D02*
X010537Y006008D01*
X010491Y006054D02*
X010201Y006054D01*
X010156Y006100D02*
X010445Y006100D01*
X011132Y005505D02*
X011452Y005505D01*
X011407Y005551D02*
X011178Y005551D01*
X011224Y005596D02*
X011361Y005596D01*
X011315Y005642D02*
X011248Y005642D01*
X011267Y005688D02*
X011286Y005688D01*
X011286Y005734D02*
X011286Y005734D01*
X011498Y005459D02*
X011027Y005459D01*
X011460Y005322D02*
X006601Y005322D01*
X006555Y005368D02*
X011506Y005368D01*
X011544Y005413D02*
X006509Y005413D01*
X006463Y005459D02*
X006812Y005459D01*
X006846Y005445D02*
X006993Y005445D01*
X007128Y005501D01*
X007232Y005605D01*
X007288Y005741D01*
X007288Y005887D01*
X007232Y006023D01*
X007128Y006127D01*
X006993Y006183D01*
X006846Y006183D01*
X006711Y006127D01*
X006607Y006023D01*
X006551Y005887D01*
X006551Y005741D01*
X006607Y005605D01*
X006711Y005501D01*
X006846Y005445D01*
X006707Y005505D02*
X006418Y005505D01*
X006372Y005551D02*
X006661Y005551D01*
X006615Y005596D02*
X006326Y005596D01*
X006280Y005642D02*
X006591Y005642D01*
X006572Y005688D02*
X006267Y005688D01*
X006286Y005734D02*
X006554Y005734D01*
X006551Y005779D02*
X006288Y005779D01*
X006288Y005825D02*
X006551Y005825D01*
X006551Y005871D02*
X006288Y005871D01*
X006276Y005917D02*
X006563Y005917D01*
X006582Y005962D02*
X006257Y005962D01*
X006238Y006008D02*
X006601Y006008D01*
X006638Y006054D02*
X006201Y006054D01*
X006156Y006100D02*
X006683Y006100D01*
X006755Y006145D02*
X006084Y006145D01*
X005755Y006145D02*
X004330Y006145D01*
X004330Y006100D02*
X005683Y006100D01*
X005638Y006054D02*
X004330Y006054D01*
X004330Y006008D02*
X005601Y006008D01*
X005582Y005962D02*
X004330Y005962D01*
X004330Y005917D02*
X005563Y005917D01*
X005551Y005871D02*
X004330Y005871D01*
X004330Y005825D02*
X005551Y005825D01*
X005551Y005779D02*
X004330Y005779D01*
X004330Y005734D02*
X005554Y005734D01*
X005572Y005688D02*
X004330Y005688D01*
X004330Y005642D02*
X005591Y005642D01*
X005615Y005596D02*
X004330Y005596D01*
X004330Y005551D02*
X005661Y005551D01*
X005707Y005505D02*
X004330Y005505D01*
X004330Y005459D02*
X005812Y005459D01*
X006027Y005459D02*
X006085Y005459D01*
X006131Y005413D02*
X004330Y005413D01*
X004330Y005368D02*
X006177Y005368D01*
X006223Y005322D02*
X004330Y005322D01*
X004330Y007289D02*
X006925Y007289D01*
X006882Y007324D02*
X006881Y007324D01*
X006847Y007335D02*
X004330Y007335D01*
X004330Y007380D02*
X006747Y007380D01*
X006678Y007426D02*
X004330Y007426D01*
X004330Y007472D02*
X006627Y007472D01*
X006583Y007518D02*
X004330Y007518D01*
X004330Y007563D02*
X006548Y007563D01*
X006525Y007602D02*
X006525Y007602D01*
X006519Y007610D02*
X006516Y007615D01*
X006516Y007618D01*
X006515Y007620D01*
X006514Y007621D01*
X006512Y007622D01*
X006510Y007628D01*
X006507Y007632D01*
X006507Y007634D01*
X006507Y007636D01*
X006506Y007637D01*
X006504Y007638D01*
X006502Y007644D01*
X006499Y007649D01*
X006499Y007651D01*
X006499Y007652D01*
X006498Y007654D01*
X006496Y007655D01*
X006452Y007793D02*
X006452Y007794D01*
X006450Y007796D01*
X006450Y007801D01*
X006448Y007807D01*
X006449Y007809D01*
X006449Y007811D01*
X006449Y007813D01*
X006447Y007814D01*
X006447Y007820D01*
X006445Y007826D01*
X006446Y007828D01*
X006446Y007829D01*
X006446Y007831D01*
X006444Y007833D01*
X006444Y007838D01*
X006443Y007975D02*
X004835Y007975D01*
X004824Y007972D02*
X004855Y007980D01*
X004883Y007997D01*
X004906Y008020D01*
X004923Y008048D01*
X004931Y008079D01*
X004931Y008322D01*
X004581Y008322D01*
X004581Y007972D01*
X004824Y007972D01*
X004907Y008021D02*
X006443Y008021D01*
X006442Y008067D02*
X004928Y008067D01*
X004931Y008112D02*
X006442Y008112D01*
X006442Y008158D02*
X005522Y008158D01*
X005633Y008204D02*
X006442Y008204D01*
X006442Y008249D02*
X005679Y008249D01*
X005725Y008295D02*
X006442Y008295D01*
X006441Y008341D02*
X005756Y008341D01*
X005775Y008387D02*
X006441Y008387D01*
X006441Y008432D02*
X005794Y008432D01*
X005807Y008478D02*
X006441Y008478D01*
X006441Y008524D02*
X005807Y008524D01*
X005807Y008570D02*
X006440Y008570D01*
X006440Y008615D02*
X005807Y008615D01*
X005790Y008661D02*
X006440Y008661D01*
X006440Y008707D02*
X005771Y008707D01*
X005752Y008753D02*
X006440Y008753D01*
X006440Y008798D02*
X005716Y008798D01*
X005734Y008844D02*
X005687Y008844D01*
X005687Y008890D02*
X005734Y008890D01*
X005734Y008936D02*
X005687Y008936D01*
X005855Y008844D02*
X006439Y008844D01*
X006439Y008890D02*
X005961Y008890D01*
X006025Y008936D02*
X006439Y008936D01*
X006439Y008981D02*
X006168Y008981D01*
X006214Y009027D02*
X006439Y009027D01*
X006438Y009073D02*
X006250Y009073D01*
X006250Y009119D02*
X006438Y009119D01*
X006438Y009164D02*
X006250Y009164D01*
X006250Y009210D02*
X006438Y009210D01*
X006438Y009256D02*
X006250Y009256D01*
X006250Y009302D02*
X006438Y009302D01*
X006437Y009347D02*
X006250Y009347D01*
X006250Y009393D02*
X006437Y009393D01*
X006437Y009439D02*
X006250Y009439D01*
X006250Y009485D02*
X006437Y009485D01*
X006437Y009530D02*
X006250Y009530D01*
X006250Y009576D02*
X006436Y009576D01*
X006436Y009622D02*
X006250Y009622D01*
X006250Y009668D02*
X006436Y009668D01*
X006406Y009713D02*
X006250Y009713D01*
X006250Y009759D02*
X006364Y009759D01*
X006345Y009805D02*
X006250Y009805D01*
X006250Y009851D02*
X006327Y009851D01*
X006327Y009896D02*
X006250Y009896D01*
X006250Y009942D02*
X006327Y009942D01*
X006342Y009988D02*
X006250Y009988D01*
X006250Y010034D02*
X006361Y010034D01*
X006397Y010079D02*
X006250Y010079D01*
X006250Y010125D02*
X006447Y010125D01*
X005231Y009027D02*
X005183Y009027D01*
X005183Y008981D02*
X005231Y008981D01*
X005205Y008890D02*
X004931Y008890D01*
X004931Y008936D02*
X005315Y008936D01*
X005145Y008844D02*
X004581Y008844D01*
X004581Y008818D02*
X004581Y008369D01*
X004534Y008369D01*
X004534Y008468D01*
X004534Y008818D01*
X004581Y008818D01*
X004581Y008798D02*
X004534Y008798D01*
X004534Y008753D02*
X004581Y008753D01*
X004581Y008707D02*
X004534Y008707D01*
X004534Y008661D02*
X004581Y008661D01*
X004581Y008615D02*
X004534Y008615D01*
X004534Y008570D02*
X004581Y008570D01*
X004581Y008524D02*
X004534Y008524D01*
X004534Y008478D02*
X004581Y008478D01*
X004581Y008432D02*
X004534Y008432D01*
X004534Y008387D02*
X004581Y008387D01*
X004581Y008341D02*
X005059Y008341D01*
X005040Y008387D02*
X004931Y008387D01*
X004931Y008432D02*
X005021Y008432D01*
X005009Y008478D02*
X004931Y008478D01*
X004931Y008524D02*
X005009Y008524D01*
X005009Y008570D02*
X004931Y008570D01*
X004931Y008615D02*
X005009Y008615D01*
X005025Y008661D02*
X004931Y008661D01*
X004931Y008707D02*
X005044Y008707D01*
X005063Y008753D02*
X004931Y008753D01*
X004931Y008798D02*
X005100Y008798D01*
X005091Y008295D02*
X004931Y008295D01*
X004931Y008249D02*
X005136Y008249D01*
X005183Y008204D02*
X004931Y008204D01*
X004931Y008158D02*
X005293Y008158D01*
X004581Y008158D02*
X004534Y008158D01*
X004534Y008112D02*
X004581Y008112D01*
X004581Y008067D02*
X004534Y008067D01*
X004534Y008021D02*
X004581Y008021D01*
X004581Y007975D02*
X004534Y007975D01*
X004534Y008204D02*
X004581Y008204D01*
X004581Y008249D02*
X004534Y008249D01*
X004534Y008295D02*
X004581Y008295D01*
X006894Y007655D02*
X006957Y007655D01*
X007084Y006145D02*
X007556Y006145D01*
X007551Y006140D02*
X007551Y005488D01*
X007594Y005445D01*
X008245Y005445D01*
X008288Y005488D01*
X008288Y006140D01*
X008245Y006183D01*
X007594Y006183D01*
X007551Y006140D01*
X007551Y006100D02*
X007156Y006100D01*
X007201Y006054D02*
X007551Y006054D01*
X007551Y006008D02*
X007238Y006008D01*
X007257Y005962D02*
X007551Y005962D01*
X007551Y005917D02*
X007276Y005917D01*
X007288Y005871D02*
X007551Y005871D01*
X007551Y005825D02*
X007288Y005825D01*
X007288Y005779D02*
X007551Y005779D01*
X007551Y005734D02*
X007286Y005734D01*
X007267Y005688D02*
X007551Y005688D01*
X007551Y005642D02*
X007248Y005642D01*
X007224Y005596D02*
X007551Y005596D01*
X007551Y005551D02*
X007178Y005551D01*
X007132Y005505D02*
X007551Y005505D01*
X007580Y005459D02*
X007027Y005459D01*
X008259Y005459D02*
X008812Y005459D01*
X008707Y005505D02*
X008288Y005505D01*
X008288Y005551D02*
X008661Y005551D01*
X008615Y005596D02*
X008288Y005596D01*
X008288Y005642D02*
X008591Y005642D01*
X008572Y005688D02*
X008288Y005688D01*
X008288Y005734D02*
X008554Y005734D01*
X008551Y005779D02*
X008288Y005779D01*
X008288Y005825D02*
X008551Y005825D01*
X008551Y005871D02*
X008288Y005871D01*
X008288Y005917D02*
X008563Y005917D01*
X008582Y005962D02*
X008288Y005962D01*
X008288Y006008D02*
X008601Y006008D01*
X008638Y006054D02*
X008288Y006054D01*
X008288Y006100D02*
X008683Y006100D01*
X008755Y006145D02*
X008283Y006145D01*
X011254Y008341D02*
X011851Y008341D01*
X011896Y008295D02*
X011300Y008295D01*
X011345Y008249D02*
X011942Y008249D01*
X011988Y008204D02*
X011391Y008204D01*
X011437Y008158D02*
X012034Y008158D01*
X012079Y008112D02*
X011483Y008112D01*
X011528Y008067D02*
X012124Y008067D01*
X012124Y008021D02*
X011574Y008021D01*
X012229Y008341D02*
X013094Y008341D01*
X013094Y008387D02*
X012183Y008387D01*
X012137Y008432D02*
X013094Y008432D01*
X013094Y008478D02*
X012091Y008478D01*
X012046Y008524D02*
X013094Y008524D01*
X013094Y008570D02*
X012000Y008570D01*
X011954Y008615D02*
X013094Y008615D01*
X013094Y008661D02*
X011908Y008661D01*
X011863Y008707D02*
X013094Y008707D01*
X013094Y008753D02*
X011817Y008753D01*
X011771Y008798D02*
X013094Y008798D01*
X013094Y008844D02*
X011725Y008844D01*
X011680Y008890D02*
X013094Y008890D01*
X013094Y008936D02*
X011634Y008936D01*
X011588Y008981D02*
X013094Y008981D01*
X013094Y009027D02*
X011542Y009027D01*
X011497Y009073D02*
X013064Y009073D01*
X013018Y009119D02*
X011451Y009119D01*
X011405Y009164D02*
X012972Y009164D01*
X012927Y009210D02*
X011359Y009210D01*
X011314Y009256D02*
X012881Y009256D01*
X012835Y009302D02*
X011268Y009302D01*
X011222Y009347D02*
X012789Y009347D01*
X012744Y009393D02*
X011176Y009393D01*
X011131Y009439D02*
X012698Y009439D01*
X012652Y009485D02*
X011085Y009485D01*
X011039Y009530D02*
X012606Y009530D01*
X012561Y009576D02*
X010994Y009576D01*
X010948Y009622D02*
X012515Y009622D01*
X012469Y009668D02*
X010902Y009668D01*
X010856Y009713D02*
X012423Y009713D01*
X012378Y009759D02*
X010811Y009759D01*
X010765Y009805D02*
X012332Y009805D01*
X012286Y009851D02*
X010719Y009851D01*
X010673Y009896D02*
X012240Y009896D01*
X012195Y009942D02*
X010628Y009942D01*
X010582Y009988D02*
X012149Y009988D01*
X012103Y010034D02*
X010536Y010034D01*
X010490Y010079D02*
X012057Y010079D01*
X012012Y010125D02*
X010445Y010125D01*
X010399Y010171D02*
X011966Y010171D01*
X011920Y010216D02*
X010353Y010216D01*
X010307Y010262D02*
X011874Y010262D01*
X011829Y010308D02*
X010262Y010308D01*
X010216Y010354D02*
X011783Y010354D01*
X011737Y010399D02*
X010170Y010399D01*
X010124Y010445D02*
X011692Y010445D01*
X011646Y010491D02*
X010079Y010491D01*
X010033Y010537D02*
X011600Y010537D01*
X011554Y010582D02*
X009987Y010582D01*
X009941Y010628D02*
X011509Y010628D01*
X011463Y010674D02*
X009896Y010674D01*
X009850Y010720D02*
X011417Y010720D01*
X011371Y010765D02*
X009804Y010765D01*
X009758Y010811D02*
X011326Y010811D01*
X011280Y010857D02*
X009713Y010857D01*
X009667Y010903D02*
X011234Y010903D01*
X011188Y010948D02*
X009664Y010948D01*
X009664Y010994D02*
X011143Y010994D01*
X011097Y011040D02*
X009664Y011040D01*
X009664Y011086D02*
X011051Y011086D01*
X011005Y011131D02*
X009664Y011131D01*
X009664Y011177D02*
X010960Y011177D01*
X010914Y011223D02*
X009664Y011223D01*
X009664Y011269D02*
X010868Y011269D01*
X010822Y011314D02*
X009664Y011314D01*
X009664Y011360D02*
X010777Y011360D01*
X010731Y011406D02*
X009702Y011406D01*
X009739Y011452D02*
X010685Y011452D01*
X010639Y011497D02*
X009739Y011497D01*
X009739Y011543D02*
X010594Y011543D01*
X010548Y011589D02*
X009739Y011589D01*
X009720Y011635D02*
X010502Y011635D01*
X010456Y011680D02*
X009674Y011680D01*
X009629Y011726D02*
X010411Y011726D01*
X010880Y011635D02*
X014271Y011635D01*
X014317Y011589D02*
X010926Y011589D01*
X010972Y011543D02*
X014363Y011543D01*
X014408Y011497D02*
X011017Y011497D01*
X011063Y011452D02*
X014454Y011452D01*
X014500Y011406D02*
X011109Y011406D01*
X011155Y011360D02*
X014545Y011360D01*
X014591Y011314D02*
X011200Y011314D01*
X011246Y011269D02*
X014637Y011269D01*
X014683Y011223D02*
X011292Y011223D01*
X011338Y011177D02*
X014728Y011177D01*
X014774Y011131D02*
X011383Y011131D01*
X011429Y011086D02*
X014820Y011086D01*
X014866Y011040D02*
X011475Y011040D01*
X011521Y010994D02*
X014911Y010994D01*
X014957Y010948D02*
X011566Y010948D01*
X011612Y010903D02*
X015003Y010903D01*
X015049Y010857D02*
X011658Y010857D01*
X011704Y010811D02*
X015094Y010811D01*
X015140Y010765D02*
X011749Y010765D01*
X011795Y010720D02*
X015186Y010720D01*
X015276Y010674D02*
X011841Y010674D01*
X011886Y010628D02*
X015963Y010628D01*
X015917Y010582D02*
X011932Y010582D01*
X011978Y010537D02*
X015872Y010537D01*
X015826Y010491D02*
X012024Y010491D01*
X012069Y010445D02*
X015780Y010445D01*
X015734Y010399D02*
X012115Y010399D01*
X012161Y010354D02*
X015689Y010354D01*
X015643Y010308D02*
X012207Y010308D01*
X012252Y010262D02*
X015597Y010262D01*
X015551Y010216D02*
X012298Y010216D01*
X012344Y010171D02*
X015506Y010171D01*
X015460Y010125D02*
X012390Y010125D01*
X012435Y010079D02*
X015414Y010079D01*
X015368Y010034D02*
X012481Y010034D01*
X012527Y009988D02*
X015323Y009988D01*
X015277Y009942D02*
X012573Y009942D01*
X012618Y009896D02*
X015231Y009896D01*
X015185Y009851D02*
X012664Y009851D01*
X012710Y009805D02*
X015140Y009805D01*
X015100Y009759D02*
X012756Y009759D01*
X012801Y009713D02*
X015081Y009713D01*
X015063Y009668D02*
X012847Y009668D01*
X012893Y009622D02*
X015063Y009622D01*
X015063Y009576D02*
X012939Y009576D01*
X012984Y009530D02*
X015075Y009530D01*
X015094Y009485D02*
X013030Y009485D01*
X013076Y009439D02*
X015125Y009439D01*
X015171Y009393D02*
X013122Y009393D01*
X013167Y009347D02*
X015267Y009347D01*
X015406Y009347D02*
X016420Y009347D01*
X016420Y009302D02*
X013213Y009302D01*
X013259Y009256D02*
X016420Y009256D01*
X016420Y009210D02*
X013305Y009210D01*
X013350Y009164D02*
X016420Y009164D01*
X016420Y009119D02*
X013361Y009119D01*
X013361Y009073D02*
X016420Y009073D01*
X016420Y009027D02*
X015725Y009027D01*
X015718Y009032D02*
X015658Y009057D01*
X015594Y009069D01*
X015585Y009069D01*
X015585Y008763D01*
X015538Y008763D01*
X015538Y009069D01*
X015529Y009069D01*
X015465Y009057D01*
X015405Y009032D01*
X015351Y008996D01*
X015305Y008950D01*
X015269Y008896D01*
X015244Y008836D01*
X015231Y008772D01*
X015231Y008763D01*
X015538Y008763D01*
X015538Y008716D01*
X015231Y008716D01*
X015231Y008707D01*
X014680Y008707D01*
X014680Y008683D02*
X014637Y008580D01*
X014559Y008502D01*
X014456Y008459D01*
X014344Y008459D01*
X014241Y008502D01*
X014162Y008580D01*
X014120Y008683D01*
X014120Y008795D01*
X014162Y008898D01*
X014241Y008977D01*
X014344Y009019D01*
X014456Y009019D01*
X014559Y008977D01*
X014637Y008898D01*
X014680Y008795D01*
X014680Y008683D01*
X014671Y008661D02*
X015240Y008661D01*
X015244Y008643D02*
X015269Y008583D01*
X015305Y008529D01*
X015351Y008483D01*
X015405Y008446D01*
X015465Y008422D01*
X015529Y008409D01*
X015538Y008409D01*
X015538Y008716D01*
X015585Y008716D01*
X015585Y008763D01*
X015892Y008763D01*
X015892Y008772D01*
X015879Y008836D01*
X015854Y008896D01*
X015818Y008950D01*
X015772Y008996D01*
X015718Y009032D01*
X015786Y008981D02*
X016420Y008981D01*
X016420Y008936D02*
X015827Y008936D01*
X015856Y008890D02*
X016420Y008890D01*
X016420Y008844D02*
X015875Y008844D01*
X015886Y008798D02*
X016420Y008798D01*
X016420Y008753D02*
X015585Y008753D01*
X015585Y008716D02*
X015892Y008716D01*
X015892Y008707D01*
X016420Y008707D01*
X016420Y008661D02*
X015883Y008661D01*
X015879Y008643D02*
X015892Y008707D01*
X015879Y008643D02*
X015854Y008583D01*
X015818Y008529D01*
X015772Y008483D01*
X015718Y008446D01*
X015658Y008422D01*
X015594Y008409D01*
X015585Y008409D01*
X015585Y008716D01*
X015585Y008707D02*
X015538Y008707D01*
X015538Y008753D02*
X014680Y008753D01*
X014679Y008798D02*
X015236Y008798D01*
X015247Y008844D02*
X014660Y008844D01*
X014641Y008890D02*
X015266Y008890D01*
X015295Y008936D02*
X014600Y008936D01*
X014548Y008981D02*
X015336Y008981D01*
X015398Y009027D02*
X013361Y009027D01*
X013361Y008981D02*
X014252Y008981D01*
X014200Y008936D02*
X013361Y008936D01*
X013361Y008890D02*
X014159Y008890D01*
X014140Y008844D02*
X013361Y008844D01*
X013361Y008798D02*
X014121Y008798D01*
X014120Y008753D02*
X013361Y008753D01*
X013361Y008707D02*
X014120Y008707D01*
X014129Y008661D02*
X013361Y008661D01*
X013361Y008615D02*
X014148Y008615D01*
X014173Y008570D02*
X013361Y008570D01*
X013361Y008524D02*
X014219Y008524D01*
X014297Y008478D02*
X013361Y008478D01*
X013361Y008432D02*
X015439Y008432D01*
X015357Y008478D02*
X014502Y008478D01*
X014581Y008524D02*
X015309Y008524D01*
X015277Y008570D02*
X014627Y008570D01*
X014652Y008615D02*
X015255Y008615D01*
X015244Y008643D02*
X015231Y008707D01*
X015538Y008661D02*
X015585Y008661D01*
X015585Y008615D02*
X015538Y008615D01*
X015538Y008570D02*
X015585Y008570D01*
X015585Y008524D02*
X015538Y008524D01*
X015538Y008478D02*
X015585Y008478D01*
X015585Y008432D02*
X015538Y008432D01*
X015684Y008432D02*
X016420Y008432D01*
X016420Y008387D02*
X013361Y008387D01*
X013361Y008341D02*
X016420Y008341D01*
X016420Y008295D02*
X013361Y008295D01*
X013361Y008249D02*
X016420Y008249D01*
X016420Y008204D02*
X013379Y008204D01*
X013425Y008158D02*
X016420Y008158D01*
X016420Y008112D02*
X013436Y008112D01*
X013436Y008067D02*
X016420Y008067D01*
X016420Y008021D02*
X013436Y008021D01*
X013589Y007975D02*
X016420Y007975D01*
X016420Y007929D02*
X013589Y007929D01*
X013589Y007884D02*
X016420Y007884D01*
X016420Y007838D02*
X013589Y007838D01*
X013589Y007792D02*
X016420Y007792D01*
X016420Y007746D02*
X013589Y007746D01*
X013589Y007701D02*
X016420Y007701D01*
X016420Y007655D02*
X013589Y007655D01*
X013589Y007609D02*
X016420Y007609D01*
X016420Y007563D02*
X013589Y007563D01*
X013589Y007518D02*
X016420Y007518D01*
X016420Y007472D02*
X013589Y007472D01*
X013589Y007426D02*
X016420Y007426D01*
X016420Y007380D02*
X013589Y007380D01*
X013589Y007335D02*
X016420Y007335D01*
X016420Y007289D02*
X015852Y007289D01*
X015810Y007331D02*
X016067Y007074D01*
X016067Y006916D01*
X015652Y006916D01*
X015652Y006869D01*
X016067Y006869D01*
X016067Y006711D01*
X015810Y006454D01*
X015652Y006454D01*
X015652Y006869D01*
X015605Y006869D01*
X015605Y006454D01*
X015447Y006454D01*
X015190Y006711D01*
X015190Y006869D01*
X015605Y006869D01*
X015605Y006916D01*
X015190Y006916D01*
X015190Y007074D01*
X015447Y007331D01*
X015605Y007331D01*
X015605Y006916D01*
X015652Y006916D01*
X015652Y007331D01*
X015810Y007331D01*
X015898Y007243D02*
X016420Y007243D01*
X016420Y007197D02*
X015944Y007197D01*
X015990Y007152D02*
X016420Y007152D01*
X016420Y007106D02*
X016035Y007106D01*
X016067Y007060D02*
X016420Y007060D01*
X016420Y007014D02*
X016067Y007014D01*
X016067Y006969D02*
X016420Y006969D01*
X016420Y006923D02*
X016067Y006923D01*
X016067Y006831D02*
X016420Y006831D01*
X016420Y006786D02*
X016067Y006786D01*
X016067Y006740D02*
X016420Y006740D01*
X016420Y006694D02*
X016306Y006694D01*
X016393Y006648D02*
X016420Y006648D01*
X016420Y006877D02*
X015652Y006877D01*
X015652Y006831D02*
X015605Y006831D01*
X015605Y006786D02*
X015652Y006786D01*
X015652Y006740D02*
X015605Y006740D01*
X015605Y006694D02*
X015652Y006694D01*
X015652Y006648D02*
X015605Y006648D01*
X015605Y006603D02*
X015652Y006603D01*
X015652Y006557D02*
X015605Y006557D01*
X015605Y006511D02*
X015652Y006511D01*
X015652Y006465D02*
X015605Y006465D01*
X015435Y006465D02*
X014902Y006465D01*
X014902Y006420D02*
X015930Y006420D01*
X015948Y006465D02*
X015821Y006465D01*
X015867Y006511D02*
X015958Y006511D01*
X015977Y006557D02*
X015913Y006557D01*
X015958Y006603D02*
X016005Y006603D01*
X016004Y006648D02*
X016051Y006648D01*
X016050Y006694D02*
X016138Y006694D01*
X015884Y006374D02*
X014902Y006374D01*
X014902Y006328D02*
X015838Y006328D01*
X015792Y006282D02*
X014902Y006282D01*
X014891Y006237D02*
X015747Y006237D01*
X015701Y006191D02*
X015102Y006191D01*
X015176Y006145D02*
X015655Y006145D01*
X015609Y006100D02*
X015226Y006100D01*
X015263Y006054D02*
X015564Y006054D01*
X015518Y006008D02*
X015291Y006008D01*
X015312Y005962D02*
X015472Y005962D01*
X015426Y005917D02*
X015327Y005917D01*
X015335Y005871D02*
X015381Y005871D01*
X015335Y005825D02*
X014943Y005825D01*
X014943Y005871D02*
X014896Y005871D01*
X014896Y005838D02*
X014896Y005790D01*
X014501Y005790D01*
X014501Y005781D01*
X014511Y005716D01*
X014531Y005653D01*
X014561Y005594D01*
X014600Y005541D01*
X014632Y005509D01*
X014136Y005509D01*
X014232Y005605D01*
X014288Y005741D01*
X014288Y005796D01*
X014537Y006044D01*
X014569Y006044D01*
X014561Y006034D01*
X014531Y005975D01*
X014511Y005912D01*
X014501Y005847D01*
X014501Y005838D01*
X014896Y005838D01*
X014896Y005825D02*
X014318Y005825D01*
X014288Y005779D02*
X014501Y005779D01*
X014508Y005734D02*
X014286Y005734D01*
X014267Y005688D02*
X014520Y005688D01*
X014537Y005642D02*
X014248Y005642D01*
X014224Y005596D02*
X014560Y005596D01*
X014593Y005551D02*
X014178Y005551D01*
X014363Y005871D02*
X014504Y005871D01*
X014512Y005917D02*
X014409Y005917D01*
X014455Y005962D02*
X014527Y005962D01*
X014548Y006008D02*
X014501Y006008D01*
X014896Y006008D02*
X014943Y006008D01*
X014943Y005962D02*
X014896Y005962D01*
X014896Y005917D02*
X014943Y005917D01*
X014943Y006054D02*
X014896Y006054D01*
X014896Y006100D02*
X014943Y006100D01*
X014943Y006145D02*
X014896Y006145D01*
X014896Y006191D02*
X014943Y006191D01*
X014902Y006511D02*
X015389Y006511D01*
X015344Y006557D02*
X014902Y006557D01*
X014902Y006603D02*
X015298Y006603D01*
X015252Y006648D02*
X014934Y006648D01*
X014979Y006694D02*
X015206Y006694D01*
X015190Y006740D02*
X015017Y006740D01*
X015017Y006786D02*
X015190Y006786D01*
X015190Y006831D02*
X015017Y006831D01*
X015017Y006877D02*
X015605Y006877D01*
X015605Y006923D02*
X015652Y006923D01*
X015652Y006969D02*
X015605Y006969D01*
X015605Y007014D02*
X015652Y007014D01*
X015652Y007060D02*
X015605Y007060D01*
X015605Y007106D02*
X015652Y007106D01*
X015652Y007152D02*
X015605Y007152D01*
X015605Y007197D02*
X015652Y007197D01*
X015652Y007243D02*
X015605Y007243D01*
X015605Y007289D02*
X015652Y007289D01*
X015404Y007289D02*
X013589Y007289D01*
X013589Y007243D02*
X014429Y007243D01*
X014383Y007197D02*
X013589Y007197D01*
X013589Y007152D02*
X014338Y007152D01*
X014292Y007106D02*
X013589Y007106D01*
X013589Y007060D02*
X014246Y007060D01*
X014240Y007014D02*
X013589Y007014D01*
X013589Y006969D02*
X014240Y006969D01*
X014240Y006923D02*
X013589Y006923D01*
X013589Y006877D02*
X014240Y006877D01*
X014240Y006831D02*
X013589Y006831D01*
X013589Y006786D02*
X014240Y006786D01*
X014240Y006740D02*
X013381Y006740D01*
X013426Y006694D02*
X014277Y006694D01*
X014323Y006648D02*
X013472Y006648D01*
X013518Y006603D02*
X014355Y006603D01*
X014286Y006557D02*
X013564Y006557D01*
X013609Y006511D02*
X014230Y006511D01*
X014184Y006465D02*
X013655Y006465D01*
X013701Y006420D02*
X014138Y006420D01*
X014093Y006374D02*
X013746Y006374D01*
X013792Y006328D02*
X014047Y006328D01*
X014001Y006282D02*
X013838Y006282D01*
X013884Y006237D02*
X013955Y006237D01*
X015017Y006923D02*
X015190Y006923D01*
X015190Y006969D02*
X015017Y006969D01*
X015017Y007014D02*
X015190Y007014D01*
X015190Y007060D02*
X015010Y007060D01*
X014965Y007106D02*
X015221Y007106D01*
X015267Y007152D02*
X014919Y007152D01*
X014873Y007197D02*
X015313Y007197D01*
X015358Y007243D02*
X014827Y007243D01*
X013019Y008021D02*
X012549Y008021D01*
X012541Y008067D02*
X013019Y008067D01*
X013019Y008112D02*
X012541Y008112D01*
X012518Y008158D02*
X013030Y008158D01*
X013076Y008204D02*
X012472Y008204D01*
X012426Y008249D02*
X013094Y008249D01*
X013094Y008295D02*
X012274Y008295D01*
X015538Y008798D02*
X015585Y008798D01*
X015585Y008844D02*
X015538Y008844D01*
X015538Y008890D02*
X015585Y008890D01*
X015585Y008936D02*
X015538Y008936D01*
X015538Y008981D02*
X015585Y008981D01*
X015585Y009027D02*
X015538Y009027D01*
X015502Y009393D02*
X016420Y009393D01*
X016420Y009439D02*
X015548Y009439D01*
X015593Y009485D02*
X016420Y009485D01*
X016420Y009530D02*
X015639Y009530D01*
X015685Y009576D02*
X016420Y009576D01*
X016420Y009622D02*
X015731Y009622D01*
X015776Y009668D02*
X016420Y009668D01*
X016420Y009713D02*
X015822Y009713D01*
X015868Y009759D02*
X016420Y009759D01*
X016420Y009805D02*
X015914Y009805D01*
X015959Y009851D02*
X016420Y009851D01*
X016420Y009896D02*
X016005Y009896D01*
X016051Y009942D02*
X016420Y009942D01*
X016420Y009988D02*
X016097Y009988D01*
X016142Y010034D02*
X016420Y010034D01*
X016420Y010079D02*
X016188Y010079D01*
X016234Y010125D02*
X016420Y010125D01*
X016420Y010171D02*
X016279Y010171D01*
X016420Y008615D02*
X015868Y008615D01*
X015845Y008570D02*
X016420Y008570D01*
X016420Y008524D02*
X015813Y008524D01*
X015765Y008478D02*
X016420Y008478D01*
X014113Y013190D02*
X013585Y013190D01*
X013585Y013236D02*
X014067Y013236D01*
X014021Y013281D02*
X013585Y013281D01*
X013585Y013327D02*
X013975Y013327D01*
X013930Y013373D02*
X013585Y013373D01*
X013585Y013419D02*
X013884Y013419D01*
X013838Y013464D02*
X013585Y013464D01*
X013585Y013510D02*
X013792Y013510D01*
X013747Y013556D02*
X013585Y013556D01*
X013585Y013602D02*
X013701Y013602D01*
X013655Y013647D02*
X013585Y013647D01*
X013585Y013693D02*
X013609Y013693D01*
X007881Y013876D02*
X004330Y013876D01*
X004330Y013830D02*
X007400Y013830D01*
X007400Y013785D02*
X004330Y013785D01*
X004330Y013739D02*
X007400Y013739D01*
X007400Y013693D02*
X004330Y013693D01*
X004330Y013647D02*
X007400Y013647D01*
X007400Y013602D02*
X004330Y013602D01*
X004330Y013556D02*
X007400Y013556D01*
X007400Y013510D02*
X004330Y013510D01*
X004330Y013464D02*
X007400Y013464D01*
X007400Y013419D02*
X004330Y013419D01*
X004330Y013922D02*
X007835Y013922D01*
X007790Y013968D02*
X004330Y013968D01*
X004330Y014013D02*
X007744Y014013D01*
X007698Y014059D02*
X004330Y014059D01*
X004330Y014105D02*
X007652Y014105D01*
X007607Y014151D02*
X004330Y014151D01*
X004330Y014196D02*
X007561Y014196D01*
X007515Y014242D02*
X004330Y014242D01*
X004330Y014288D02*
X007469Y014288D01*
X007424Y014333D02*
X004330Y014333D01*
X004330Y014379D02*
X007378Y014379D01*
X007371Y014425D02*
X004330Y014425D01*
X004330Y014471D02*
X005784Y014471D01*
X005695Y014516D02*
X004330Y014516D01*
X004330Y014562D02*
X005650Y014562D01*
X005606Y014608D02*
X004330Y014608D01*
X004330Y014654D02*
X005587Y014654D01*
X005568Y014699D02*
X004330Y014699D01*
X004330Y014745D02*
X005551Y014745D01*
X005551Y014791D02*
X004330Y014791D01*
X004330Y014837D02*
X005551Y014837D01*
X005551Y014882D02*
X004330Y014882D01*
X004330Y014928D02*
X005568Y014928D01*
X005586Y014974D02*
X004330Y014974D01*
X004330Y015020D02*
X005605Y015020D01*
X005649Y015065D02*
X004330Y015065D01*
X004330Y015111D02*
X005695Y015111D01*
X005783Y015157D02*
X004330Y015157D01*
X004330Y015203D02*
X006119Y015203D01*
X006165Y015248D02*
X004330Y015248D01*
X004330Y015294D02*
X006211Y015294D01*
X006073Y015157D02*
X006056Y015157D01*
X006268Y014974D02*
X006586Y014974D01*
X006568Y014928D02*
X006272Y014928D01*
X006288Y014882D02*
X006551Y014882D01*
X006551Y014887D02*
X006551Y014741D01*
X006607Y014605D01*
X006711Y014501D01*
X006846Y014445D01*
X006993Y014445D01*
X007128Y014501D01*
X007232Y014605D01*
X007288Y014741D01*
X007288Y014887D01*
X007232Y015023D01*
X007128Y015127D01*
X006993Y015183D01*
X006846Y015183D01*
X006711Y015127D01*
X006607Y015023D01*
X006551Y014887D01*
X006551Y014837D02*
X006288Y014837D01*
X006288Y014791D02*
X006551Y014791D01*
X006551Y014745D02*
X006288Y014745D01*
X006271Y014699D02*
X006568Y014699D01*
X006587Y014654D02*
X006252Y014654D01*
X006233Y014608D02*
X006606Y014608D01*
X006650Y014562D02*
X006189Y014562D01*
X006144Y014516D02*
X006695Y014516D01*
X006784Y014471D02*
X006055Y014471D01*
X006314Y015020D02*
X006605Y015020D01*
X006649Y015065D02*
X006360Y015065D01*
X006406Y015111D02*
X006695Y015111D01*
X006783Y015157D02*
X006451Y015157D01*
X006497Y015203D02*
X007371Y015203D01*
X007371Y015248D02*
X006543Y015248D01*
X006589Y015294D02*
X007377Y015294D01*
X007371Y015157D02*
X007056Y015157D01*
X007144Y015111D02*
X007371Y015111D01*
X007371Y015065D02*
X007190Y015065D01*
X007234Y015020D02*
X007371Y015020D01*
X007371Y014974D02*
X007253Y014974D01*
X007272Y014928D02*
X007371Y014928D01*
X007371Y014882D02*
X007288Y014882D01*
X007288Y014837D02*
X007371Y014837D01*
X007371Y014791D02*
X007288Y014791D01*
X007288Y014745D02*
X007371Y014745D01*
X007371Y014699D02*
X007271Y014699D01*
X007252Y014654D02*
X007371Y014654D01*
X007371Y014608D02*
X007233Y014608D01*
X007189Y014562D02*
X007371Y014562D01*
X007371Y014516D02*
X007144Y014516D01*
X007055Y014471D02*
X007371Y014471D01*
X004581Y012641D02*
X004534Y012641D01*
X004534Y012595D02*
X004581Y012595D01*
X004581Y012549D02*
X004534Y012549D01*
X004534Y012504D02*
X004581Y012504D01*
X004581Y012458D02*
X004534Y012458D01*
X004534Y012412D02*
X004581Y012412D01*
X004581Y012366D02*
X004534Y012366D01*
X004534Y012321D02*
X004581Y012321D01*
X004931Y012321D02*
X005079Y012321D01*
X005124Y012366D02*
X004931Y012366D01*
X004931Y012412D02*
X005170Y012412D01*
X005264Y012458D02*
X004931Y012458D01*
D33*
X006337Y012479D03*
X006841Y012656D03*
X007156Y013007D03*
X007171Y013515D03*
X006668Y013397D03*
X006376Y013003D03*
X006845Y012133D03*
X006337Y011964D03*
X006841Y011609D03*
X006333Y011471D03*
X006864Y011125D03*
X006990Y010727D03*
X007010Y009905D03*
X006841Y009322D03*
X006341Y009219D03*
X006345Y008649D03*
X006845Y008802D03*
X006849Y008290D03*
X006345Y008125D03*
X006408Y007621D03*
X006900Y007779D03*
X006774Y007263D03*
X004510Y005432D03*
X010136Y009818D03*
X009317Y010314D03*
X010124Y010790D03*
X011234Y010318D03*
X012498Y010345D03*
X013238Y010330D03*
X004506Y015117D03*
D34*
X005920Y014814D02*
X006821Y015716D01*
X006821Y015822D01*
X007207Y015822D01*
X007738Y016114D02*
X007738Y015466D01*
X007504Y015233D01*
X007504Y014442D01*
X008061Y013885D01*
X009009Y013885D01*
X010254Y013885D01*
X010872Y013267D01*
X009695Y012631D02*
X013228Y009098D01*
X013228Y008060D01*
X013234Y008054D01*
X013234Y007361D01*
X012447Y007361D02*
X012447Y007934D01*
X012332Y008048D01*
X009530Y010851D01*
X009530Y011529D01*
X011763Y011911D02*
X011910Y011911D01*
X013226Y013227D01*
X013234Y013227D01*
X013226Y013227D02*
X012304Y014149D01*
X011780Y014149D01*
X011531Y014399D01*
X009747Y014399D01*
X009281Y014865D01*
X009281Y014865D01*
X008970Y014865D01*
X008920Y014814D01*
X009281Y014865D02*
X011748Y017332D01*
X016046Y017332D01*
X023764Y025050D01*
X024120Y025050D01*
X024409Y025406D02*
X024477Y025339D01*
X024477Y022963D01*
X025065Y022374D01*
X026159Y022652D02*
X024672Y024139D01*
X024672Y025406D01*
X024489Y025589D01*
X021016Y025589D01*
X020764Y025338D01*
X020764Y025016D01*
X020442Y024694D01*
X015833Y024694D01*
X015477Y025050D01*
X015120Y025050D01*
X018601Y025570D02*
X019120Y025050D01*
X018601Y025570D02*
X010797Y025570D01*
X010449Y025222D01*
X010449Y025034D01*
X010449Y023237D01*
X008288Y021076D01*
X008288Y016664D01*
X007738Y016114D01*
X008500Y014983D02*
X011086Y017568D01*
X014188Y017568D01*
X021120Y024501D01*
X021120Y025050D01*
X022120Y025050D02*
X022477Y025050D01*
X022833Y025406D01*
X024409Y025406D01*
X025597Y025200D02*
X025597Y024865D01*
X024984Y024252D01*
X024930Y024252D01*
X026120Y025050D02*
X026477Y025050D01*
X027878Y023649D01*
X033161Y023649D01*
X034294Y022516D01*
X034294Y021929D01*
X034675Y021548D01*
X036276Y021548D01*
X038230Y019595D01*
X038230Y018546D01*
X040149Y016627D01*
X040149Y011867D01*
X038589Y010307D01*
X038589Y008601D01*
X037490Y008601D01*
X038589Y008601D02*
X038990Y008601D01*
X040109Y007483D01*
X040109Y007393D01*
X040494Y007393D01*
X040169Y007007D02*
X039880Y007296D01*
X039880Y007393D01*
X039494Y007393D01*
X039109Y007393D01*
X039109Y007296D01*
X038819Y007007D01*
X035394Y007007D01*
X034876Y006489D01*
X034876Y006393D01*
X034490Y006393D01*
X034105Y006049D02*
X034105Y007739D01*
X033360Y008483D01*
X032598Y008179D02*
X032598Y008851D01*
X033360Y009613D01*
X033364Y010743D02*
X032485Y010743D01*
X032129Y011099D01*
X030239Y011099D01*
X029042Y009903D01*
X026823Y009903D01*
X026579Y010146D01*
X026579Y010440D01*
X026401Y010440D01*
X026223Y010440D01*
X025866Y010440D01*
X025486Y010059D01*
X019219Y010059D01*
X016052Y013226D01*
X014265Y013226D01*
X013488Y014004D01*
X013488Y015061D01*
X014120Y015694D01*
X014120Y016050D01*
X013764Y016340D02*
X013764Y015658D01*
X012920Y014814D01*
X012729Y015623D02*
X011920Y014814D01*
X011966Y015229D02*
X011335Y015229D01*
X010920Y014814D01*
X010567Y015462D02*
X009920Y014814D01*
X010396Y014142D02*
X008998Y014142D01*
X008500Y014639D01*
X008500Y014983D01*
X010396Y014142D02*
X010649Y013888D01*
X011786Y013888D01*
X012447Y013227D01*
X014497Y014649D02*
X014497Y015070D01*
X015120Y015694D01*
X015120Y016050D01*
X015669Y015694D02*
X019408Y015694D01*
X019764Y016050D01*
X020120Y016050D01*
X020181Y015468D02*
X020764Y016050D01*
X021120Y016050D01*
X021764Y016050D02*
X022120Y016050D01*
X021764Y016050D02*
X021001Y015288D01*
X017893Y015288D01*
X017430Y014825D01*
X016104Y015468D02*
X015482Y014845D01*
X015274Y015298D02*
X015669Y015694D01*
X016104Y015468D02*
X020181Y015468D01*
X019275Y017226D02*
X023621Y021571D01*
X032375Y021571D01*
X033360Y020586D01*
X033360Y019420D02*
X031163Y017223D01*
X025202Y017223D01*
X026206Y016608D02*
X026764Y016050D01*
X027120Y016050D01*
X027477Y016050D01*
X028013Y016587D01*
X030431Y016587D01*
X030961Y016057D01*
X030961Y014743D01*
X031155Y014549D01*
X034728Y014549D01*
X034949Y014769D01*
X037681Y014769D01*
X038199Y014251D01*
X038585Y014251D01*
X039195Y014151D02*
X039195Y014580D01*
X039484Y014869D01*
X039581Y014869D01*
X039581Y015255D01*
X039415Y015691D02*
X039860Y015691D01*
X039967Y015584D01*
X039967Y011940D01*
X038409Y010381D01*
X037921Y010381D01*
X036170Y008631D01*
X036170Y008102D01*
X036494Y007779D01*
X036494Y007393D01*
X037175Y006779D02*
X037105Y006708D01*
X037105Y006270D01*
X036842Y006007D01*
X034147Y006007D01*
X034105Y006049D01*
X032598Y008179D02*
X031370Y006951D01*
X028610Y006951D01*
X027176Y008385D01*
X025707Y009919D02*
X023384Y007596D01*
X023384Y003994D01*
X021985Y002594D01*
X012594Y002594D01*
X011466Y003723D01*
X011168Y003723D01*
X010883Y004007D01*
X010883Y004556D01*
X011737Y005410D01*
X011420Y005727D01*
X011420Y005916D01*
X010910Y006425D01*
X010234Y006425D01*
X009297Y007361D01*
X009209Y006662D02*
X008510Y007361D01*
X007723Y007361D02*
X008628Y006456D01*
X009263Y006456D01*
X009893Y005826D01*
X009896Y005826D01*
X009920Y005814D01*
X009729Y006245D02*
X010489Y006245D01*
X010920Y005814D01*
X011737Y005410D02*
X011758Y005388D01*
X012324Y005388D01*
X012750Y005814D01*
X012920Y005814D01*
X011920Y005814D02*
X011028Y006706D01*
X010740Y006706D01*
X010085Y007361D01*
X009311Y006662D02*
X009729Y006245D01*
X009311Y006662D02*
X009209Y006662D01*
X007207Y004818D02*
X006821Y004818D01*
X006821Y004912D01*
X005920Y005814D01*
X016267Y013406D02*
X018191Y011482D01*
X022824Y011482D01*
X023866Y010440D01*
X024223Y010440D01*
X024401Y010440D01*
X024579Y010440D01*
X024963Y010824D01*
X026485Y010824D01*
X026796Y010513D01*
X026796Y010210D01*
X026923Y010084D01*
X028863Y010084D01*
X030021Y011242D01*
X029449Y012197D02*
X035677Y012197D01*
X036345Y012865D01*
X037105Y014345D02*
X038199Y013251D01*
X038585Y013251D01*
X038585Y013637D01*
X038681Y013637D01*
X039195Y014151D01*
X039415Y015691D02*
X039149Y015958D01*
X039149Y016402D01*
X036339Y019211D01*
X036339Y019250D01*
X036510Y019420D01*
X036339Y019211D02*
X033502Y016374D01*
X031396Y016374D01*
X030982Y016788D01*
X012961Y016788D01*
X012513Y016340D01*
X012513Y015776D01*
X011966Y015229D01*
X011545Y015800D02*
X011545Y016117D01*
X012396Y016968D01*
X031056Y016968D01*
X031470Y016554D01*
X032226Y016554D01*
X036257Y020586D01*
X036510Y020586D01*
X036631Y020931D02*
X036991Y020571D01*
X036991Y019231D01*
X039581Y016641D01*
X039581Y016255D01*
X040331Y016731D02*
X040331Y011780D01*
X038789Y010238D01*
X038789Y009098D01*
X040061Y007825D01*
X040785Y007825D01*
X040884Y007726D01*
X040884Y007066D01*
X040825Y007007D01*
X040169Y007007D01*
X038876Y006735D02*
X038876Y006077D01*
X037588Y004789D01*
X026433Y004789D01*
X023774Y007448D01*
X028276Y011024D02*
X029449Y012197D01*
X030333Y014345D02*
X037105Y014345D01*
X040331Y016731D02*
X038873Y018189D01*
X038873Y019406D01*
X040642Y021175D01*
X040642Y025527D01*
X040355Y025814D01*
X038069Y025814D01*
X037510Y025255D01*
X036956Y025809D01*
X026206Y025809D01*
X025597Y025200D01*
X026159Y022652D02*
X030537Y022652D01*
X030819Y022934D01*
X030819Y022973D01*
X031098Y023253D01*
X033270Y023253D01*
X033963Y022560D01*
X033963Y022070D01*
X033963Y022006D01*
X035038Y020931D01*
X036631Y020931D01*
X032179Y022401D02*
X031353Y022401D01*
X031301Y022418D01*
X031301Y022418D01*
X031294Y022420D01*
X030992Y022119D01*
X022002Y022119D01*
X017109Y017226D01*
X013831Y016406D02*
X013764Y016340D01*
X013831Y016406D02*
X023408Y016406D01*
X023764Y016050D01*
X024120Y016050D01*
X024298Y016050D01*
X024477Y016050D01*
X024833Y015694D01*
X028427Y015694D01*
X028616Y015883D01*
X028616Y016219D01*
X028803Y016406D01*
X029585Y016406D01*
X030248Y015743D01*
X030293Y015743D01*
X030605Y015743D01*
X030293Y015743D02*
X030229Y015679D01*
X030229Y014449D01*
X030333Y014345D01*
X030605Y014743D02*
X030961Y014743D01*
X026206Y016608D02*
X013036Y016608D01*
X012729Y016301D01*
X012729Y015623D01*
X011545Y015800D02*
X011207Y015462D01*
X010567Y015462D01*
X014497Y014649D02*
X015740Y013406D01*
X016267Y013406D01*
X020420Y013212D02*
X023296Y013212D01*
X023627Y013542D01*
X025093Y013542D01*
X023782Y014104D02*
X023220Y013542D01*
X021943Y013542D01*
X037175Y006779D02*
X038832Y006779D01*
X038876Y006735D01*
X034837Y024979D02*
X034207Y024979D01*
X033990Y025196D01*
X033963Y025219D01*
D35*
X006589Y009901D03*
D36*
X006589Y010723D03*
D37*
X006589Y012810D01*
X006605Y012824D01*
X006605Y012838D01*
X006606Y012851D01*
X006608Y012865D01*
X006610Y012879D01*
X006612Y012893D01*
X006615Y012906D01*
X006618Y012920D01*
X006622Y012933D01*
X006626Y012946D01*
X006630Y012959D01*
X006635Y012972D01*
X006640Y012985D01*
X006646Y012998D01*
X006652Y013010D01*
X006658Y013022D01*
X006665Y013034D01*
X006672Y013046D01*
X006679Y013058D01*
X006687Y013069D01*
X006695Y013081D01*
X006704Y013091D01*
X006713Y013102D01*
X006722Y013112D01*
X006731Y013122D01*
X006741Y013132D01*
X006751Y013142D01*
X006761Y013151D01*
X006772Y013160D01*
X006783Y013168D01*
X006794Y013176D01*
X006805Y013184D01*
X006817Y013192D01*
X006829Y013199D01*
X006841Y013205D01*
X006853Y013212D01*
X006866Y013218D01*
X006878Y013223D01*
X006891Y013229D01*
X006904Y013233D01*
X006917Y013238D01*
X006931Y013242D01*
X006944Y013245D01*
X006957Y013248D01*
X006971Y013251D01*
X006985Y013254D01*
X006998Y013255D01*
X007012Y013257D01*
X007026Y013258D01*
X007040Y013259D01*
X007053Y013259D01*
X007715Y013259D01*
X007723Y013267D01*
X007723Y013267D01*
X006589Y009901D02*
X006597Y007912D01*
X006597Y007899D01*
X006598Y007885D01*
X006599Y007871D01*
X006600Y007857D01*
X006602Y007844D01*
X006604Y007830D01*
X006607Y007817D01*
X006610Y007803D01*
X006613Y007790D01*
X006617Y007777D01*
X006622Y007763D01*
X006626Y007750D01*
X006631Y007738D01*
X006637Y007725D01*
X006643Y007712D01*
X006649Y007700D01*
X006656Y007688D01*
X006663Y007676D01*
X006670Y007664D01*
X006678Y007653D01*
X006686Y007642D01*
X006694Y007631D01*
X006703Y007620D01*
X006712Y007610D01*
X006721Y007599D01*
X006730Y007589D01*
X006740Y007580D01*
X006751Y007571D01*
X006761Y007562D01*
X006772Y007553D01*
X006783Y007545D01*
X006794Y007537D01*
X006805Y007529D01*
X006817Y007522D01*
X006829Y007515D01*
X006841Y007508D01*
X006853Y007502D01*
X006866Y007496D01*
X006879Y007490D01*
X006891Y007485D01*
X006904Y007481D01*
X006918Y007476D01*
X006931Y007472D01*
X006944Y007469D01*
X006958Y007466D01*
X006971Y007463D01*
X006985Y007461D01*
X006998Y007459D01*
X007012Y007458D01*
X007026Y007457D01*
X007040Y007456D01*
X007053Y007456D01*
D38*
X005959Y010314D03*
D39*
X022711Y003999D03*
X022754Y007763D03*
X028640Y007806D03*
X029046Y003999D03*
M02*
