%
M48
M72
T01C0.0130
T02C0.0157
T03C0.0197
T04C0.0236
T05C0.0276
T06C0.0315
T07C0.0320
T08C0.0354
T09C0.0394
T10C0.0433
T11C0.0472
T12C0.0591
T13C0.0787
T14C0.0866
T15C0.1181
T16C0.1260
%
T01
X8494Y8113
X15482Y14845
X17430Y14825
X25707Y9919
X15274Y15298
X27176Y8385
X23774Y7448
X9695Y12631
X13228Y8060
X10649Y13888
X23577Y9133
X16794Y5578
X14049Y17903
X19034Y9180
X34949Y14769
X9009Y13885
X11763Y11911
X15336Y9615
X17470Y10477
X11095Y8113
X25065Y22374
X17109Y17226
X16222Y6433
X30021Y11242
X28276Y11024
X17797Y6035
X19275Y17226
X25202Y17223
X7053Y7456
X9530Y11529
X12332Y8048
X24930Y24252
X20420Y13212
X23782Y14104
T02
X9317Y10314
X11234Y10318
X12498Y10345
X13238Y10330
X10124Y10790
X10136Y9818
X6900Y7779
X7156Y13007
X6849Y8290
X6990Y10727
X6845Y8802
X6841Y12656
X6841Y9322
X7010Y9905
X6845Y12133
X6841Y11609
X6864Y11125
X7171Y13515
X6774Y7263
X6668Y13397
X6345Y8125
X6376Y13003
X6408Y7621
X6337Y12479
X4506Y15117
X6337Y11964
X6333Y11471
X6345Y8649
X6341Y9219
X4510Y5432
T03
X5959Y10314
T04
X19534Y6412
X19553Y5625
X19534Y9507
X19553Y8719
X4557Y8842
X4557Y12286
X4557Y8345
X4557Y11786
X6589Y9901
X6589Y10723
X22754Y7763
X28640Y7806
X29046Y3999
X22711Y3999
T05
X16703Y8739
X16703Y11889
X36510Y18247
X33360Y18247
X36510Y17105
X33360Y17105
X36510Y8483
X33360Y8483
X36510Y9613
X33360Y9613
X18794Y14487
X18794Y14015
X18794Y14960
X18794Y13542
X14400Y11889
X14400Y8739
X15561Y11889
X15561Y8739
X26939Y15070
X26939Y11920
X28219Y11920
X28219Y15070
X21479Y5519
X21164Y6019
X21479Y6519
X37490Y11751
X37490Y8601
X37490Y16015
X37490Y12865
X36345Y16015
X36345Y12865
X36514Y10743
X33364Y10743
X36510Y11869
X33360Y11869
X36510Y19420
X33360Y19420
X36510Y20586
X33360Y20586
X21943Y14487
X21943Y14015
X21943Y14960
X21943Y13542
X25093Y14487
X25093Y14015
X25093Y14960
X25093Y13542
X37510Y22105
X37510Y25255
X33963Y25219
X33963Y22070
X30112Y6377
X30112Y3227
T06
X30605Y13743
X30605Y14743
X30605Y15743
X30605Y12743
X27101Y3830
X23951Y3830
X25223Y10440
X24223Y10440
X23223Y10440
X26223Y10440
X27223Y10440
X28223Y10440
X16120Y25050
X29120Y25050
X28120Y25050
X27120Y25050
X26120Y25050
X25120Y25050
X24120Y25050
X23120Y25050
X22120Y25050
X21120Y25050
X20120Y25050
X19120Y25050
X18120Y25050
X17120Y25050
X23120Y16050
X15120Y25050
X11120Y25050
X14120Y16050
X15120Y16050
X16120Y16050
X17120Y16050
X18120Y16050
X19120Y16050
X20120Y16050
X21120Y16050
X22120Y16050
X14120Y25050
X24120Y16050
X25120Y16050
X26120Y16050
X27120Y16050
X28120Y16050
X29120Y16050
X11120Y16050
X12120Y16050
X13120Y16050
X13120Y25050
X12120Y25050
X11258Y3282
X11258Y4282
X17912Y6743
X17912Y8633
X20136Y12578
X20175Y10609
T07
X30364Y24101
X30364Y23101
X15628Y6893
X14628Y6893
X20034Y7609
X19034Y7609
X21183Y8613
X21183Y9613
T08
X20368Y13751
X20368Y14751
X15274Y4223
X14274Y4223
X13274Y4223
X31786Y16940
X31786Y15940
X31786Y14940
X31786Y13653
X31786Y12653
X31786Y11653
X34490Y6393
X35490Y6393
X36490Y6393
X37490Y6393
X38490Y6393
X38585Y16251
X38585Y15251
X38585Y14251
X38585Y13251
X38585Y12251
X39581Y16255
X39581Y15255
X39581Y14255
X39581Y13255
X39581Y12255
X15274Y3007
X14274Y3007
X13274Y3007
X38494Y7393
X37494Y7393
X36494Y7393
X35494Y7393
X34494Y7393
X39494Y7393
X40494Y7393
X14404Y13790
X14404Y12790
X7207Y4818
X8207Y4818
X8207Y15822
X7207Y15822
X24593Y12389
X25593Y12389
T09
X14920Y5814
X14920Y14814
X13920Y5814
X13920Y14814
X12920Y5814
X11920Y5814
X10920Y5814
X9920Y5814
X8920Y5814
X7920Y5814
X12920Y14814
X11920Y14814
X10920Y14814
X9920Y14814
X8920Y14814
X7920Y14814
X6920Y5814
X5920Y5814
X6920Y14814
X5920Y14814
T10
X32179Y24999
X32179Y22401
X23510Y11952
X23510Y14952
X17912Y9700
X17912Y12700
X32179Y6101
X32179Y3503
X4707Y10314
X5711Y9310
X5711Y11318
X35707Y25007
X35707Y22408
X39254Y25003
X39254Y22405
T11
X18916Y3814
X20097Y3814
X17734Y3814
X33065Y24979
X33065Y22420
X31294Y24979
X31294Y22420
X33065Y6082
X33065Y3523
X31294Y6082
X31294Y3523
X36609Y24979
X36609Y22420
X34837Y24979
X34837Y22420
X40152Y24979
X40152Y22420
X38380Y24979
X38380Y22420
T12
X5408Y8542
X5408Y12086
X16475Y3814
X21357Y3814
T13
X30794Y8361
X30797Y9692
X40187Y18810
X42211Y20141
X42211Y8361
T14
X30801Y20141
X40187Y9692
X30797Y18810
X22770Y9086
X28675Y9046
T15
X7908Y3739
T16
X5605Y24684
X5605Y3818
X42219Y3818
X42219Y24684
X7231Y24094
X7231Y17007
X9345Y24094
X9345Y17007
M30
