G75*
%MOIN*%
%OFA0B0*%
%FSLAX24Y24*%
%IPPOS*%
%LPD*%
%AMOC8*
5,1,8,0,0,1.08239X$1,22.5*
%
%ADD10C,0.0000*%
%ADD11C,0.0100*%
%ADD12C,0.0080*%
%ADD13C,0.0150*%
D10*
X004227Y002440D02*
X043597Y002440D01*
X043597Y026062D01*
X004227Y026062D01*
X004227Y002440D01*
X004975Y003818D02*
X004977Y003868D01*
X004983Y003918D01*
X004993Y003967D01*
X005007Y004015D01*
X005024Y004062D01*
X005045Y004107D01*
X005070Y004151D01*
X005098Y004192D01*
X005130Y004231D01*
X005164Y004268D01*
X005201Y004302D01*
X005241Y004332D01*
X005283Y004359D01*
X005327Y004383D01*
X005373Y004404D01*
X005420Y004420D01*
X005468Y004433D01*
X005518Y004442D01*
X005567Y004447D01*
X005618Y004448D01*
X005668Y004445D01*
X005717Y004438D01*
X005766Y004427D01*
X005814Y004412D01*
X005860Y004394D01*
X005905Y004372D01*
X005948Y004346D01*
X005989Y004317D01*
X006028Y004285D01*
X006064Y004250D01*
X006096Y004212D01*
X006126Y004172D01*
X006153Y004129D01*
X006176Y004085D01*
X006195Y004039D01*
X006211Y003991D01*
X006223Y003942D01*
X006231Y003893D01*
X006235Y003843D01*
X006235Y003793D01*
X006231Y003743D01*
X006223Y003694D01*
X006211Y003645D01*
X006195Y003597D01*
X006176Y003551D01*
X006153Y003507D01*
X006126Y003464D01*
X006096Y003424D01*
X006064Y003386D01*
X006028Y003351D01*
X005989Y003319D01*
X005948Y003290D01*
X005905Y003264D01*
X005860Y003242D01*
X005814Y003224D01*
X005766Y003209D01*
X005717Y003198D01*
X005668Y003191D01*
X005618Y003188D01*
X005567Y003189D01*
X005518Y003194D01*
X005468Y003203D01*
X005420Y003216D01*
X005373Y003232D01*
X005327Y003253D01*
X005283Y003277D01*
X005241Y003304D01*
X005201Y003334D01*
X005164Y003368D01*
X005130Y003405D01*
X005098Y003444D01*
X005070Y003485D01*
X005045Y003529D01*
X005024Y003574D01*
X005007Y003621D01*
X004993Y003669D01*
X004983Y003718D01*
X004977Y003768D01*
X004975Y003818D01*
X007317Y003739D02*
X007319Y003787D01*
X007325Y003835D01*
X007335Y003882D01*
X007348Y003928D01*
X007366Y003973D01*
X007386Y004017D01*
X007411Y004059D01*
X007439Y004098D01*
X007469Y004135D01*
X007503Y004169D01*
X007540Y004201D01*
X007578Y004230D01*
X007619Y004255D01*
X007662Y004277D01*
X007707Y004295D01*
X007753Y004309D01*
X007800Y004320D01*
X007848Y004327D01*
X007896Y004330D01*
X007944Y004329D01*
X007992Y004324D01*
X008040Y004315D01*
X008086Y004303D01*
X008131Y004286D01*
X008175Y004266D01*
X008217Y004243D01*
X008257Y004216D01*
X008295Y004186D01*
X008330Y004153D01*
X008362Y004117D01*
X008392Y004079D01*
X008418Y004038D01*
X008440Y003995D01*
X008460Y003951D01*
X008475Y003906D01*
X008487Y003859D01*
X008495Y003811D01*
X008499Y003763D01*
X008499Y003715D01*
X008495Y003667D01*
X008487Y003619D01*
X008475Y003572D01*
X008460Y003527D01*
X008440Y003483D01*
X008418Y003440D01*
X008392Y003399D01*
X008362Y003361D01*
X008330Y003325D01*
X008295Y003292D01*
X008257Y003262D01*
X008217Y003235D01*
X008175Y003212D01*
X008131Y003192D01*
X008086Y003175D01*
X008040Y003163D01*
X007992Y003154D01*
X007944Y003149D01*
X007896Y003148D01*
X007848Y003151D01*
X007800Y003158D01*
X007753Y003169D01*
X007707Y003183D01*
X007662Y003201D01*
X007619Y003223D01*
X007578Y003248D01*
X007540Y003277D01*
X007503Y003309D01*
X007469Y003343D01*
X007439Y003380D01*
X007411Y003419D01*
X007386Y003461D01*
X007366Y003505D01*
X007348Y003550D01*
X007335Y003596D01*
X007325Y003643D01*
X007319Y003691D01*
X007317Y003739D01*
X005113Y008542D02*
X005115Y008576D01*
X005121Y008610D01*
X005131Y008643D01*
X005144Y008674D01*
X005162Y008704D01*
X005182Y008732D01*
X005206Y008757D01*
X005232Y008779D01*
X005260Y008797D01*
X005291Y008813D01*
X005323Y008825D01*
X005357Y008833D01*
X005391Y008837D01*
X005425Y008837D01*
X005459Y008833D01*
X005493Y008825D01*
X005525Y008813D01*
X005555Y008797D01*
X005584Y008779D01*
X005610Y008757D01*
X005634Y008732D01*
X005654Y008704D01*
X005672Y008674D01*
X005685Y008643D01*
X005695Y008610D01*
X005701Y008576D01*
X005703Y008542D01*
X005701Y008508D01*
X005695Y008474D01*
X005685Y008441D01*
X005672Y008410D01*
X005654Y008380D01*
X005634Y008352D01*
X005610Y008327D01*
X005584Y008305D01*
X005556Y008287D01*
X005525Y008271D01*
X005493Y008259D01*
X005459Y008251D01*
X005425Y008247D01*
X005391Y008247D01*
X005357Y008251D01*
X005323Y008259D01*
X005291Y008271D01*
X005260Y008287D01*
X005232Y008305D01*
X005206Y008327D01*
X005182Y008352D01*
X005162Y008380D01*
X005144Y008410D01*
X005131Y008441D01*
X005121Y008474D01*
X005115Y008508D01*
X005113Y008542D01*
X005113Y012086D02*
X005115Y012120D01*
X005121Y012154D01*
X005131Y012187D01*
X005144Y012218D01*
X005162Y012248D01*
X005182Y012276D01*
X005206Y012301D01*
X005232Y012323D01*
X005260Y012341D01*
X005291Y012357D01*
X005323Y012369D01*
X005357Y012377D01*
X005391Y012381D01*
X005425Y012381D01*
X005459Y012377D01*
X005493Y012369D01*
X005525Y012357D01*
X005555Y012341D01*
X005584Y012323D01*
X005610Y012301D01*
X005634Y012276D01*
X005654Y012248D01*
X005672Y012218D01*
X005685Y012187D01*
X005695Y012154D01*
X005701Y012120D01*
X005703Y012086D01*
X005701Y012052D01*
X005695Y012018D01*
X005685Y011985D01*
X005672Y011954D01*
X005654Y011924D01*
X005634Y011896D01*
X005610Y011871D01*
X005584Y011849D01*
X005556Y011831D01*
X005525Y011815D01*
X005493Y011803D01*
X005459Y011795D01*
X005425Y011791D01*
X005391Y011791D01*
X005357Y011795D01*
X005323Y011803D01*
X005291Y011815D01*
X005260Y011831D01*
X005232Y011849D01*
X005206Y011871D01*
X005182Y011896D01*
X005162Y011924D01*
X005144Y011954D01*
X005131Y011985D01*
X005121Y012018D01*
X005115Y012052D01*
X005113Y012086D01*
X006601Y017007D02*
X006603Y017057D01*
X006609Y017107D01*
X006619Y017156D01*
X006633Y017204D01*
X006650Y017251D01*
X006671Y017296D01*
X006696Y017340D01*
X006724Y017381D01*
X006756Y017420D01*
X006790Y017457D01*
X006827Y017491D01*
X006867Y017521D01*
X006909Y017548D01*
X006953Y017572D01*
X006999Y017593D01*
X007046Y017609D01*
X007094Y017622D01*
X007144Y017631D01*
X007193Y017636D01*
X007244Y017637D01*
X007294Y017634D01*
X007343Y017627D01*
X007392Y017616D01*
X007440Y017601D01*
X007486Y017583D01*
X007531Y017561D01*
X007574Y017535D01*
X007615Y017506D01*
X007654Y017474D01*
X007690Y017439D01*
X007722Y017401D01*
X007752Y017361D01*
X007779Y017318D01*
X007802Y017274D01*
X007821Y017228D01*
X007837Y017180D01*
X007849Y017131D01*
X007857Y017082D01*
X007861Y017032D01*
X007861Y016982D01*
X007857Y016932D01*
X007849Y016883D01*
X007837Y016834D01*
X007821Y016786D01*
X007802Y016740D01*
X007779Y016696D01*
X007752Y016653D01*
X007722Y016613D01*
X007690Y016575D01*
X007654Y016540D01*
X007615Y016508D01*
X007574Y016479D01*
X007531Y016453D01*
X007486Y016431D01*
X007440Y016413D01*
X007392Y016398D01*
X007343Y016387D01*
X007294Y016380D01*
X007244Y016377D01*
X007193Y016378D01*
X007144Y016383D01*
X007094Y016392D01*
X007046Y016405D01*
X006999Y016421D01*
X006953Y016442D01*
X006909Y016466D01*
X006867Y016493D01*
X006827Y016523D01*
X006790Y016557D01*
X006756Y016594D01*
X006724Y016633D01*
X006696Y016674D01*
X006671Y016718D01*
X006650Y016763D01*
X006633Y016810D01*
X006619Y016858D01*
X006609Y016907D01*
X006603Y016957D01*
X006601Y017007D01*
X008715Y017007D02*
X008717Y017057D01*
X008723Y017107D01*
X008733Y017156D01*
X008747Y017204D01*
X008764Y017251D01*
X008785Y017296D01*
X008810Y017340D01*
X008838Y017381D01*
X008870Y017420D01*
X008904Y017457D01*
X008941Y017491D01*
X008981Y017521D01*
X009023Y017548D01*
X009067Y017572D01*
X009113Y017593D01*
X009160Y017609D01*
X009208Y017622D01*
X009258Y017631D01*
X009307Y017636D01*
X009358Y017637D01*
X009408Y017634D01*
X009457Y017627D01*
X009506Y017616D01*
X009554Y017601D01*
X009600Y017583D01*
X009645Y017561D01*
X009688Y017535D01*
X009729Y017506D01*
X009768Y017474D01*
X009804Y017439D01*
X009836Y017401D01*
X009866Y017361D01*
X009893Y017318D01*
X009916Y017274D01*
X009935Y017228D01*
X009951Y017180D01*
X009963Y017131D01*
X009971Y017082D01*
X009975Y017032D01*
X009975Y016982D01*
X009971Y016932D01*
X009963Y016883D01*
X009951Y016834D01*
X009935Y016786D01*
X009916Y016740D01*
X009893Y016696D01*
X009866Y016653D01*
X009836Y016613D01*
X009804Y016575D01*
X009768Y016540D01*
X009729Y016508D01*
X009688Y016479D01*
X009645Y016453D01*
X009600Y016431D01*
X009554Y016413D01*
X009506Y016398D01*
X009457Y016387D01*
X009408Y016380D01*
X009358Y016377D01*
X009307Y016378D01*
X009258Y016383D01*
X009208Y016392D01*
X009160Y016405D01*
X009113Y016421D01*
X009067Y016442D01*
X009023Y016466D01*
X008981Y016493D01*
X008941Y016523D01*
X008904Y016557D01*
X008870Y016594D01*
X008838Y016633D01*
X008810Y016674D01*
X008785Y016718D01*
X008764Y016763D01*
X008747Y016810D01*
X008733Y016858D01*
X008723Y016907D01*
X008717Y016957D01*
X008715Y017007D01*
X008715Y024094D02*
X008717Y024144D01*
X008723Y024194D01*
X008733Y024243D01*
X008747Y024291D01*
X008764Y024338D01*
X008785Y024383D01*
X008810Y024427D01*
X008838Y024468D01*
X008870Y024507D01*
X008904Y024544D01*
X008941Y024578D01*
X008981Y024608D01*
X009023Y024635D01*
X009067Y024659D01*
X009113Y024680D01*
X009160Y024696D01*
X009208Y024709D01*
X009258Y024718D01*
X009307Y024723D01*
X009358Y024724D01*
X009408Y024721D01*
X009457Y024714D01*
X009506Y024703D01*
X009554Y024688D01*
X009600Y024670D01*
X009645Y024648D01*
X009688Y024622D01*
X009729Y024593D01*
X009768Y024561D01*
X009804Y024526D01*
X009836Y024488D01*
X009866Y024448D01*
X009893Y024405D01*
X009916Y024361D01*
X009935Y024315D01*
X009951Y024267D01*
X009963Y024218D01*
X009971Y024169D01*
X009975Y024119D01*
X009975Y024069D01*
X009971Y024019D01*
X009963Y023970D01*
X009951Y023921D01*
X009935Y023873D01*
X009916Y023827D01*
X009893Y023783D01*
X009866Y023740D01*
X009836Y023700D01*
X009804Y023662D01*
X009768Y023627D01*
X009729Y023595D01*
X009688Y023566D01*
X009645Y023540D01*
X009600Y023518D01*
X009554Y023500D01*
X009506Y023485D01*
X009457Y023474D01*
X009408Y023467D01*
X009358Y023464D01*
X009307Y023465D01*
X009258Y023470D01*
X009208Y023479D01*
X009160Y023492D01*
X009113Y023508D01*
X009067Y023529D01*
X009023Y023553D01*
X008981Y023580D01*
X008941Y023610D01*
X008904Y023644D01*
X008870Y023681D01*
X008838Y023720D01*
X008810Y023761D01*
X008785Y023805D01*
X008764Y023850D01*
X008747Y023897D01*
X008733Y023945D01*
X008723Y023994D01*
X008717Y024044D01*
X008715Y024094D01*
X006601Y024094D02*
X006603Y024144D01*
X006609Y024194D01*
X006619Y024243D01*
X006633Y024291D01*
X006650Y024338D01*
X006671Y024383D01*
X006696Y024427D01*
X006724Y024468D01*
X006756Y024507D01*
X006790Y024544D01*
X006827Y024578D01*
X006867Y024608D01*
X006909Y024635D01*
X006953Y024659D01*
X006999Y024680D01*
X007046Y024696D01*
X007094Y024709D01*
X007144Y024718D01*
X007193Y024723D01*
X007244Y024724D01*
X007294Y024721D01*
X007343Y024714D01*
X007392Y024703D01*
X007440Y024688D01*
X007486Y024670D01*
X007531Y024648D01*
X007574Y024622D01*
X007615Y024593D01*
X007654Y024561D01*
X007690Y024526D01*
X007722Y024488D01*
X007752Y024448D01*
X007779Y024405D01*
X007802Y024361D01*
X007821Y024315D01*
X007837Y024267D01*
X007849Y024218D01*
X007857Y024169D01*
X007861Y024119D01*
X007861Y024069D01*
X007857Y024019D01*
X007849Y023970D01*
X007837Y023921D01*
X007821Y023873D01*
X007802Y023827D01*
X007779Y023783D01*
X007752Y023740D01*
X007722Y023700D01*
X007690Y023662D01*
X007654Y023627D01*
X007615Y023595D01*
X007574Y023566D01*
X007531Y023540D01*
X007486Y023518D01*
X007440Y023500D01*
X007392Y023485D01*
X007343Y023474D01*
X007294Y023467D01*
X007244Y023464D01*
X007193Y023465D01*
X007144Y023470D01*
X007094Y023479D01*
X007046Y023492D01*
X006999Y023508D01*
X006953Y023529D01*
X006909Y023553D01*
X006867Y023580D01*
X006827Y023610D01*
X006790Y023644D01*
X006756Y023681D01*
X006724Y023720D01*
X006696Y023761D01*
X006671Y023805D01*
X006650Y023850D01*
X006633Y023897D01*
X006619Y023945D01*
X006609Y023994D01*
X006603Y024044D01*
X006601Y024094D01*
X004975Y024684D02*
X004977Y024734D01*
X004983Y024784D01*
X004993Y024833D01*
X005007Y024881D01*
X005024Y024928D01*
X005045Y024973D01*
X005070Y025017D01*
X005098Y025058D01*
X005130Y025097D01*
X005164Y025134D01*
X005201Y025168D01*
X005241Y025198D01*
X005283Y025225D01*
X005327Y025249D01*
X005373Y025270D01*
X005420Y025286D01*
X005468Y025299D01*
X005518Y025308D01*
X005567Y025313D01*
X005618Y025314D01*
X005668Y025311D01*
X005717Y025304D01*
X005766Y025293D01*
X005814Y025278D01*
X005860Y025260D01*
X005905Y025238D01*
X005948Y025212D01*
X005989Y025183D01*
X006028Y025151D01*
X006064Y025116D01*
X006096Y025078D01*
X006126Y025038D01*
X006153Y024995D01*
X006176Y024951D01*
X006195Y024905D01*
X006211Y024857D01*
X006223Y024808D01*
X006231Y024759D01*
X006235Y024709D01*
X006235Y024659D01*
X006231Y024609D01*
X006223Y024560D01*
X006211Y024511D01*
X006195Y024463D01*
X006176Y024417D01*
X006153Y024373D01*
X006126Y024330D01*
X006096Y024290D01*
X006064Y024252D01*
X006028Y024217D01*
X005989Y024185D01*
X005948Y024156D01*
X005905Y024130D01*
X005860Y024108D01*
X005814Y024090D01*
X005766Y024075D01*
X005717Y024064D01*
X005668Y024057D01*
X005618Y024054D01*
X005567Y024055D01*
X005518Y024060D01*
X005468Y024069D01*
X005420Y024082D01*
X005373Y024098D01*
X005327Y024119D01*
X005283Y024143D01*
X005241Y024170D01*
X005201Y024200D01*
X005164Y024234D01*
X005130Y024271D01*
X005098Y024310D01*
X005070Y024351D01*
X005045Y024395D01*
X005024Y024440D01*
X005007Y024487D01*
X004993Y024535D01*
X004983Y024584D01*
X004977Y024634D01*
X004975Y024684D01*
X030368Y020141D02*
X030370Y020182D01*
X030376Y020223D01*
X030386Y020263D01*
X030399Y020302D01*
X030416Y020339D01*
X030437Y020375D01*
X030461Y020409D01*
X030488Y020440D01*
X030517Y020468D01*
X030550Y020494D01*
X030584Y020516D01*
X030621Y020535D01*
X030659Y020550D01*
X030699Y020562D01*
X030739Y020570D01*
X030780Y020574D01*
X030822Y020574D01*
X030863Y020570D01*
X030903Y020562D01*
X030943Y020550D01*
X030981Y020535D01*
X031017Y020516D01*
X031052Y020494D01*
X031085Y020468D01*
X031114Y020440D01*
X031141Y020409D01*
X031165Y020375D01*
X031186Y020339D01*
X031203Y020302D01*
X031216Y020263D01*
X031226Y020223D01*
X031232Y020182D01*
X031234Y020141D01*
X031232Y020100D01*
X031226Y020059D01*
X031216Y020019D01*
X031203Y019980D01*
X031186Y019943D01*
X031165Y019907D01*
X031141Y019873D01*
X031114Y019842D01*
X031085Y019814D01*
X031052Y019788D01*
X031018Y019766D01*
X030981Y019747D01*
X030943Y019732D01*
X030903Y019720D01*
X030863Y019712D01*
X030822Y019708D01*
X030780Y019708D01*
X030739Y019712D01*
X030699Y019720D01*
X030659Y019732D01*
X030621Y019747D01*
X030585Y019766D01*
X030550Y019788D01*
X030517Y019814D01*
X030488Y019842D01*
X030461Y019873D01*
X030437Y019907D01*
X030416Y019943D01*
X030399Y019980D01*
X030386Y020019D01*
X030376Y020059D01*
X030370Y020100D01*
X030368Y020141D01*
X030364Y018810D02*
X030366Y018851D01*
X030372Y018892D01*
X030382Y018932D01*
X030395Y018971D01*
X030412Y019008D01*
X030433Y019044D01*
X030457Y019078D01*
X030484Y019109D01*
X030513Y019137D01*
X030546Y019163D01*
X030580Y019185D01*
X030617Y019204D01*
X030655Y019219D01*
X030695Y019231D01*
X030735Y019239D01*
X030776Y019243D01*
X030818Y019243D01*
X030859Y019239D01*
X030899Y019231D01*
X030939Y019219D01*
X030977Y019204D01*
X031013Y019185D01*
X031048Y019163D01*
X031081Y019137D01*
X031110Y019109D01*
X031137Y019078D01*
X031161Y019044D01*
X031182Y019008D01*
X031199Y018971D01*
X031212Y018932D01*
X031222Y018892D01*
X031228Y018851D01*
X031230Y018810D01*
X031228Y018769D01*
X031222Y018728D01*
X031212Y018688D01*
X031199Y018649D01*
X031182Y018612D01*
X031161Y018576D01*
X031137Y018542D01*
X031110Y018511D01*
X031081Y018483D01*
X031048Y018457D01*
X031014Y018435D01*
X030977Y018416D01*
X030939Y018401D01*
X030899Y018389D01*
X030859Y018381D01*
X030818Y018377D01*
X030776Y018377D01*
X030735Y018381D01*
X030695Y018389D01*
X030655Y018401D01*
X030617Y018416D01*
X030581Y018435D01*
X030546Y018457D01*
X030513Y018483D01*
X030484Y018511D01*
X030457Y018542D01*
X030433Y018576D01*
X030412Y018612D01*
X030395Y018649D01*
X030382Y018688D01*
X030372Y018728D01*
X030366Y018769D01*
X030364Y018810D01*
X039793Y018810D02*
X039795Y018849D01*
X039801Y018888D01*
X039811Y018926D01*
X039824Y018963D01*
X039841Y018998D01*
X039861Y019032D01*
X039885Y019063D01*
X039912Y019092D01*
X039941Y019118D01*
X039973Y019141D01*
X040007Y019161D01*
X040043Y019177D01*
X040080Y019189D01*
X040119Y019198D01*
X040158Y019203D01*
X040197Y019204D01*
X040236Y019201D01*
X040275Y019194D01*
X040312Y019183D01*
X040349Y019169D01*
X040384Y019151D01*
X040417Y019130D01*
X040448Y019105D01*
X040476Y019078D01*
X040501Y019048D01*
X040523Y019015D01*
X040542Y018981D01*
X040557Y018945D01*
X040569Y018907D01*
X040577Y018869D01*
X040581Y018830D01*
X040581Y018790D01*
X040577Y018751D01*
X040569Y018713D01*
X040557Y018675D01*
X040542Y018639D01*
X040523Y018605D01*
X040501Y018572D01*
X040476Y018542D01*
X040448Y018515D01*
X040417Y018490D01*
X040384Y018469D01*
X040349Y018451D01*
X040312Y018437D01*
X040275Y018426D01*
X040236Y018419D01*
X040197Y018416D01*
X040158Y018417D01*
X040119Y018422D01*
X040080Y018431D01*
X040043Y018443D01*
X040007Y018459D01*
X039973Y018479D01*
X039941Y018502D01*
X039912Y018528D01*
X039885Y018557D01*
X039861Y018588D01*
X039841Y018622D01*
X039824Y018657D01*
X039811Y018694D01*
X039801Y018732D01*
X039795Y018771D01*
X039793Y018810D01*
X041817Y020141D02*
X041819Y020180D01*
X041825Y020219D01*
X041835Y020257D01*
X041848Y020294D01*
X041865Y020329D01*
X041885Y020363D01*
X041909Y020394D01*
X041936Y020423D01*
X041965Y020449D01*
X041997Y020472D01*
X042031Y020492D01*
X042067Y020508D01*
X042104Y020520D01*
X042143Y020529D01*
X042182Y020534D01*
X042221Y020535D01*
X042260Y020532D01*
X042299Y020525D01*
X042336Y020514D01*
X042373Y020500D01*
X042408Y020482D01*
X042441Y020461D01*
X042472Y020436D01*
X042500Y020409D01*
X042525Y020379D01*
X042547Y020346D01*
X042566Y020312D01*
X042581Y020276D01*
X042593Y020238D01*
X042601Y020200D01*
X042605Y020161D01*
X042605Y020121D01*
X042601Y020082D01*
X042593Y020044D01*
X042581Y020006D01*
X042566Y019970D01*
X042547Y019936D01*
X042525Y019903D01*
X042500Y019873D01*
X042472Y019846D01*
X042441Y019821D01*
X042408Y019800D01*
X042373Y019782D01*
X042336Y019768D01*
X042299Y019757D01*
X042260Y019750D01*
X042221Y019747D01*
X042182Y019748D01*
X042143Y019753D01*
X042104Y019762D01*
X042067Y019774D01*
X042031Y019790D01*
X041997Y019810D01*
X041965Y019833D01*
X041936Y019859D01*
X041909Y019888D01*
X041885Y019919D01*
X041865Y019953D01*
X041848Y019988D01*
X041835Y020025D01*
X041825Y020063D01*
X041819Y020102D01*
X041817Y020141D01*
X041589Y024684D02*
X041591Y024734D01*
X041597Y024784D01*
X041607Y024833D01*
X041621Y024881D01*
X041638Y024928D01*
X041659Y024973D01*
X041684Y025017D01*
X041712Y025058D01*
X041744Y025097D01*
X041778Y025134D01*
X041815Y025168D01*
X041855Y025198D01*
X041897Y025225D01*
X041941Y025249D01*
X041987Y025270D01*
X042034Y025286D01*
X042082Y025299D01*
X042132Y025308D01*
X042181Y025313D01*
X042232Y025314D01*
X042282Y025311D01*
X042331Y025304D01*
X042380Y025293D01*
X042428Y025278D01*
X042474Y025260D01*
X042519Y025238D01*
X042562Y025212D01*
X042603Y025183D01*
X042642Y025151D01*
X042678Y025116D01*
X042710Y025078D01*
X042740Y025038D01*
X042767Y024995D01*
X042790Y024951D01*
X042809Y024905D01*
X042825Y024857D01*
X042837Y024808D01*
X042845Y024759D01*
X042849Y024709D01*
X042849Y024659D01*
X042845Y024609D01*
X042837Y024560D01*
X042825Y024511D01*
X042809Y024463D01*
X042790Y024417D01*
X042767Y024373D01*
X042740Y024330D01*
X042710Y024290D01*
X042678Y024252D01*
X042642Y024217D01*
X042603Y024185D01*
X042562Y024156D01*
X042519Y024130D01*
X042474Y024108D01*
X042428Y024090D01*
X042380Y024075D01*
X042331Y024064D01*
X042282Y024057D01*
X042232Y024054D01*
X042181Y024055D01*
X042132Y024060D01*
X042082Y024069D01*
X042034Y024082D01*
X041987Y024098D01*
X041941Y024119D01*
X041897Y024143D01*
X041855Y024170D01*
X041815Y024200D01*
X041778Y024234D01*
X041744Y024271D01*
X041712Y024310D01*
X041684Y024351D01*
X041659Y024395D01*
X041638Y024440D01*
X041621Y024487D01*
X041607Y024535D01*
X041597Y024584D01*
X041591Y024634D01*
X041589Y024684D01*
X039754Y009692D02*
X039756Y009733D01*
X039762Y009774D01*
X039772Y009814D01*
X039785Y009853D01*
X039802Y009890D01*
X039823Y009926D01*
X039847Y009960D01*
X039874Y009991D01*
X039903Y010019D01*
X039936Y010045D01*
X039970Y010067D01*
X040007Y010086D01*
X040045Y010101D01*
X040085Y010113D01*
X040125Y010121D01*
X040166Y010125D01*
X040208Y010125D01*
X040249Y010121D01*
X040289Y010113D01*
X040329Y010101D01*
X040367Y010086D01*
X040403Y010067D01*
X040438Y010045D01*
X040471Y010019D01*
X040500Y009991D01*
X040527Y009960D01*
X040551Y009926D01*
X040572Y009890D01*
X040589Y009853D01*
X040602Y009814D01*
X040612Y009774D01*
X040618Y009733D01*
X040620Y009692D01*
X040618Y009651D01*
X040612Y009610D01*
X040602Y009570D01*
X040589Y009531D01*
X040572Y009494D01*
X040551Y009458D01*
X040527Y009424D01*
X040500Y009393D01*
X040471Y009365D01*
X040438Y009339D01*
X040404Y009317D01*
X040367Y009298D01*
X040329Y009283D01*
X040289Y009271D01*
X040249Y009263D01*
X040208Y009259D01*
X040166Y009259D01*
X040125Y009263D01*
X040085Y009271D01*
X040045Y009283D01*
X040007Y009298D01*
X039971Y009317D01*
X039936Y009339D01*
X039903Y009365D01*
X039874Y009393D01*
X039847Y009424D01*
X039823Y009458D01*
X039802Y009494D01*
X039785Y009531D01*
X039772Y009570D01*
X039762Y009610D01*
X039756Y009651D01*
X039754Y009692D01*
X041817Y008361D02*
X041819Y008400D01*
X041825Y008439D01*
X041835Y008477D01*
X041848Y008514D01*
X041865Y008549D01*
X041885Y008583D01*
X041909Y008614D01*
X041936Y008643D01*
X041965Y008669D01*
X041997Y008692D01*
X042031Y008712D01*
X042067Y008728D01*
X042104Y008740D01*
X042143Y008749D01*
X042182Y008754D01*
X042221Y008755D01*
X042260Y008752D01*
X042299Y008745D01*
X042336Y008734D01*
X042373Y008720D01*
X042408Y008702D01*
X042441Y008681D01*
X042472Y008656D01*
X042500Y008629D01*
X042525Y008599D01*
X042547Y008566D01*
X042566Y008532D01*
X042581Y008496D01*
X042593Y008458D01*
X042601Y008420D01*
X042605Y008381D01*
X042605Y008341D01*
X042601Y008302D01*
X042593Y008264D01*
X042581Y008226D01*
X042566Y008190D01*
X042547Y008156D01*
X042525Y008123D01*
X042500Y008093D01*
X042472Y008066D01*
X042441Y008041D01*
X042408Y008020D01*
X042373Y008002D01*
X042336Y007988D01*
X042299Y007977D01*
X042260Y007970D01*
X042221Y007967D01*
X042182Y007968D01*
X042143Y007973D01*
X042104Y007982D01*
X042067Y007994D01*
X042031Y008010D01*
X041997Y008030D01*
X041965Y008053D01*
X041936Y008079D01*
X041909Y008108D01*
X041885Y008139D01*
X041865Y008173D01*
X041848Y008208D01*
X041835Y008245D01*
X041825Y008283D01*
X041819Y008322D01*
X041817Y008361D01*
X041589Y003818D02*
X041591Y003868D01*
X041597Y003918D01*
X041607Y003967D01*
X041621Y004015D01*
X041638Y004062D01*
X041659Y004107D01*
X041684Y004151D01*
X041712Y004192D01*
X041744Y004231D01*
X041778Y004268D01*
X041815Y004302D01*
X041855Y004332D01*
X041897Y004359D01*
X041941Y004383D01*
X041987Y004404D01*
X042034Y004420D01*
X042082Y004433D01*
X042132Y004442D01*
X042181Y004447D01*
X042232Y004448D01*
X042282Y004445D01*
X042331Y004438D01*
X042380Y004427D01*
X042428Y004412D01*
X042474Y004394D01*
X042519Y004372D01*
X042562Y004346D01*
X042603Y004317D01*
X042642Y004285D01*
X042678Y004250D01*
X042710Y004212D01*
X042740Y004172D01*
X042767Y004129D01*
X042790Y004085D01*
X042809Y004039D01*
X042825Y003991D01*
X042837Y003942D01*
X042845Y003893D01*
X042849Y003843D01*
X042849Y003793D01*
X042845Y003743D01*
X042837Y003694D01*
X042825Y003645D01*
X042809Y003597D01*
X042790Y003551D01*
X042767Y003507D01*
X042740Y003464D01*
X042710Y003424D01*
X042678Y003386D01*
X042642Y003351D01*
X042603Y003319D01*
X042562Y003290D01*
X042519Y003264D01*
X042474Y003242D01*
X042428Y003224D01*
X042380Y003209D01*
X042331Y003198D01*
X042282Y003191D01*
X042232Y003188D01*
X042181Y003189D01*
X042132Y003194D01*
X042082Y003203D01*
X042034Y003216D01*
X041987Y003232D01*
X041941Y003253D01*
X041897Y003277D01*
X041855Y003304D01*
X041815Y003334D01*
X041778Y003368D01*
X041744Y003405D01*
X041712Y003444D01*
X041684Y003485D01*
X041659Y003529D01*
X041638Y003574D01*
X041621Y003621D01*
X041607Y003669D01*
X041597Y003718D01*
X041591Y003768D01*
X041589Y003818D01*
X030400Y008361D02*
X030402Y008400D01*
X030408Y008439D01*
X030418Y008477D01*
X030431Y008514D01*
X030448Y008549D01*
X030468Y008583D01*
X030492Y008614D01*
X030519Y008643D01*
X030548Y008669D01*
X030580Y008692D01*
X030614Y008712D01*
X030650Y008728D01*
X030687Y008740D01*
X030726Y008749D01*
X030765Y008754D01*
X030804Y008755D01*
X030843Y008752D01*
X030882Y008745D01*
X030919Y008734D01*
X030956Y008720D01*
X030991Y008702D01*
X031024Y008681D01*
X031055Y008656D01*
X031083Y008629D01*
X031108Y008599D01*
X031130Y008566D01*
X031149Y008532D01*
X031164Y008496D01*
X031176Y008458D01*
X031184Y008420D01*
X031188Y008381D01*
X031188Y008341D01*
X031184Y008302D01*
X031176Y008264D01*
X031164Y008226D01*
X031149Y008190D01*
X031130Y008156D01*
X031108Y008123D01*
X031083Y008093D01*
X031055Y008066D01*
X031024Y008041D01*
X030991Y008020D01*
X030956Y008002D01*
X030919Y007988D01*
X030882Y007977D01*
X030843Y007970D01*
X030804Y007967D01*
X030765Y007968D01*
X030726Y007973D01*
X030687Y007982D01*
X030650Y007994D01*
X030614Y008010D01*
X030580Y008030D01*
X030548Y008053D01*
X030519Y008079D01*
X030492Y008108D01*
X030468Y008139D01*
X030448Y008173D01*
X030431Y008208D01*
X030418Y008245D01*
X030408Y008283D01*
X030402Y008322D01*
X030400Y008361D01*
X028242Y009046D02*
X028244Y009087D01*
X028250Y009128D01*
X028260Y009168D01*
X028273Y009207D01*
X028290Y009244D01*
X028311Y009280D01*
X028335Y009314D01*
X028362Y009345D01*
X028391Y009373D01*
X028424Y009399D01*
X028458Y009421D01*
X028495Y009440D01*
X028533Y009455D01*
X028573Y009467D01*
X028613Y009475D01*
X028654Y009479D01*
X028696Y009479D01*
X028737Y009475D01*
X028777Y009467D01*
X028817Y009455D01*
X028855Y009440D01*
X028891Y009421D01*
X028926Y009399D01*
X028959Y009373D01*
X028988Y009345D01*
X029015Y009314D01*
X029039Y009280D01*
X029060Y009244D01*
X029077Y009207D01*
X029090Y009168D01*
X029100Y009128D01*
X029106Y009087D01*
X029108Y009046D01*
X029106Y009005D01*
X029100Y008964D01*
X029090Y008924D01*
X029077Y008885D01*
X029060Y008848D01*
X029039Y008812D01*
X029015Y008778D01*
X028988Y008747D01*
X028959Y008719D01*
X028926Y008693D01*
X028892Y008671D01*
X028855Y008652D01*
X028817Y008637D01*
X028777Y008625D01*
X028737Y008617D01*
X028696Y008613D01*
X028654Y008613D01*
X028613Y008617D01*
X028573Y008625D01*
X028533Y008637D01*
X028495Y008652D01*
X028459Y008671D01*
X028424Y008693D01*
X028391Y008719D01*
X028362Y008747D01*
X028335Y008778D01*
X028311Y008812D01*
X028290Y008848D01*
X028273Y008885D01*
X028260Y008924D01*
X028250Y008964D01*
X028244Y009005D01*
X028242Y009046D01*
X030403Y009692D02*
X030405Y009731D01*
X030411Y009770D01*
X030421Y009808D01*
X030434Y009845D01*
X030451Y009880D01*
X030471Y009914D01*
X030495Y009945D01*
X030522Y009974D01*
X030551Y010000D01*
X030583Y010023D01*
X030617Y010043D01*
X030653Y010059D01*
X030690Y010071D01*
X030729Y010080D01*
X030768Y010085D01*
X030807Y010086D01*
X030846Y010083D01*
X030885Y010076D01*
X030922Y010065D01*
X030959Y010051D01*
X030994Y010033D01*
X031027Y010012D01*
X031058Y009987D01*
X031086Y009960D01*
X031111Y009930D01*
X031133Y009897D01*
X031152Y009863D01*
X031167Y009827D01*
X031179Y009789D01*
X031187Y009751D01*
X031191Y009712D01*
X031191Y009672D01*
X031187Y009633D01*
X031179Y009595D01*
X031167Y009557D01*
X031152Y009521D01*
X031133Y009487D01*
X031111Y009454D01*
X031086Y009424D01*
X031058Y009397D01*
X031027Y009372D01*
X030994Y009351D01*
X030959Y009333D01*
X030922Y009319D01*
X030885Y009308D01*
X030846Y009301D01*
X030807Y009298D01*
X030768Y009299D01*
X030729Y009304D01*
X030690Y009313D01*
X030653Y009325D01*
X030617Y009341D01*
X030583Y009361D01*
X030551Y009384D01*
X030522Y009410D01*
X030495Y009439D01*
X030471Y009470D01*
X030451Y009504D01*
X030434Y009539D01*
X030421Y009576D01*
X030411Y009614D01*
X030405Y009653D01*
X030403Y009692D01*
X022337Y009086D02*
X022339Y009127D01*
X022345Y009168D01*
X022355Y009208D01*
X022368Y009247D01*
X022385Y009284D01*
X022406Y009320D01*
X022430Y009354D01*
X022457Y009385D01*
X022486Y009413D01*
X022519Y009439D01*
X022553Y009461D01*
X022590Y009480D01*
X022628Y009495D01*
X022668Y009507D01*
X022708Y009515D01*
X022749Y009519D01*
X022791Y009519D01*
X022832Y009515D01*
X022872Y009507D01*
X022912Y009495D01*
X022950Y009480D01*
X022986Y009461D01*
X023021Y009439D01*
X023054Y009413D01*
X023083Y009385D01*
X023110Y009354D01*
X023134Y009320D01*
X023155Y009284D01*
X023172Y009247D01*
X023185Y009208D01*
X023195Y009168D01*
X023201Y009127D01*
X023203Y009086D01*
X023201Y009045D01*
X023195Y009004D01*
X023185Y008964D01*
X023172Y008925D01*
X023155Y008888D01*
X023134Y008852D01*
X023110Y008818D01*
X023083Y008787D01*
X023054Y008759D01*
X023021Y008733D01*
X022987Y008711D01*
X022950Y008692D01*
X022912Y008677D01*
X022872Y008665D01*
X022832Y008657D01*
X022791Y008653D01*
X022749Y008653D01*
X022708Y008657D01*
X022668Y008665D01*
X022628Y008677D01*
X022590Y008692D01*
X022554Y008711D01*
X022519Y008733D01*
X022486Y008759D01*
X022457Y008787D01*
X022430Y008818D01*
X022406Y008852D01*
X022385Y008888D01*
X022368Y008925D01*
X022355Y008964D01*
X022345Y009004D01*
X022339Y009045D01*
X022337Y009086D01*
X023794Y003830D02*
X023796Y003855D01*
X023802Y003879D01*
X023811Y003901D01*
X023824Y003922D01*
X023840Y003941D01*
X023859Y003957D01*
X023880Y003970D01*
X023902Y003979D01*
X023926Y003985D01*
X023951Y003987D01*
X023976Y003985D01*
X024000Y003979D01*
X024022Y003970D01*
X024043Y003957D01*
X024062Y003941D01*
X024078Y003922D01*
X024091Y003901D01*
X024100Y003879D01*
X024106Y003855D01*
X024108Y003830D01*
X024106Y003805D01*
X024100Y003781D01*
X024091Y003759D01*
X024078Y003738D01*
X024062Y003719D01*
X024043Y003703D01*
X024022Y003690D01*
X024000Y003681D01*
X023976Y003675D01*
X023951Y003673D01*
X023926Y003675D01*
X023902Y003681D01*
X023880Y003690D01*
X023859Y003703D01*
X023840Y003719D01*
X023824Y003738D01*
X023811Y003759D01*
X023802Y003781D01*
X023796Y003805D01*
X023794Y003830D01*
X026944Y003830D02*
X026946Y003855D01*
X026952Y003879D01*
X026961Y003901D01*
X026974Y003922D01*
X026990Y003941D01*
X027009Y003957D01*
X027030Y003970D01*
X027052Y003979D01*
X027076Y003985D01*
X027101Y003987D01*
X027126Y003985D01*
X027150Y003979D01*
X027172Y003970D01*
X027193Y003957D01*
X027212Y003941D01*
X027228Y003922D01*
X027241Y003901D01*
X027250Y003879D01*
X027256Y003855D01*
X027258Y003830D01*
X027256Y003805D01*
X027250Y003781D01*
X027241Y003759D01*
X027228Y003738D01*
X027212Y003719D01*
X027193Y003703D01*
X027172Y003690D01*
X027150Y003681D01*
X027126Y003675D01*
X027101Y003673D01*
X027076Y003675D01*
X027052Y003681D01*
X027030Y003690D01*
X027009Y003703D01*
X026990Y003719D01*
X026974Y003738D01*
X026961Y003759D01*
X026952Y003781D01*
X026946Y003805D01*
X026944Y003830D01*
D11*
X008936Y008836D02*
X008376Y009210D01*
X008469Y009444D02*
X008563Y009444D01*
X008656Y009537D01*
X008656Y009724D01*
X008563Y009817D01*
X008469Y009817D01*
X008376Y009724D01*
X008376Y009537D01*
X008469Y009444D01*
X008656Y009537D02*
X008750Y009444D01*
X008843Y009444D01*
X008936Y009537D01*
X008936Y009724D01*
X008843Y009817D01*
X008750Y009817D01*
X008656Y009724D01*
X008563Y010051D02*
X008469Y010051D01*
X008376Y010145D01*
X008376Y010332D01*
X008469Y010425D01*
X008563Y010051D02*
X008936Y010425D01*
X008936Y010051D01*
X008936Y010659D02*
X008936Y011033D01*
X008936Y010846D02*
X008376Y010846D01*
X008563Y011033D01*
X008376Y011267D02*
X008936Y011641D01*
X008843Y011875D02*
X008936Y011968D01*
X008936Y012155D01*
X008843Y012248D01*
X008656Y012155D02*
X008656Y011968D01*
X008750Y011875D01*
X008843Y011875D01*
X008656Y012155D02*
X008563Y012248D01*
X008469Y012248D01*
X008376Y012155D01*
X008376Y011968D01*
X008469Y011875D01*
X008376Y011641D02*
X008936Y011267D01*
X008936Y009210D02*
X008376Y008836D01*
D12*
X007499Y011455D02*
X007499Y011735D01*
X007499Y011595D02*
X007919Y011595D01*
X007919Y011915D02*
X007499Y011915D01*
X007499Y012195D02*
X007919Y011915D01*
X007919Y012195D02*
X007499Y012195D01*
X007639Y012376D02*
X007919Y012376D01*
X007709Y012376D02*
X007709Y012656D01*
X007639Y012656D02*
X007499Y012516D01*
X007639Y012376D01*
X007639Y012656D02*
X007919Y012656D01*
D13*
X009541Y017875D02*
X009399Y018017D01*
X009399Y018300D01*
X009541Y018442D01*
X009541Y018796D02*
X009399Y018938D01*
X009399Y019221D01*
X009541Y019363D01*
X009399Y019717D02*
X009541Y020000D01*
X009825Y020284D01*
X009825Y019858D01*
X009966Y019717D01*
X010108Y019717D01*
X010250Y019858D01*
X010250Y020142D01*
X010108Y020284D01*
X009825Y020284D01*
X010108Y020637D02*
X009541Y020637D01*
X010108Y021204D01*
X010250Y021063D01*
X010250Y020779D01*
X010108Y020637D01*
X009541Y020637D02*
X009399Y020779D01*
X009399Y021063D01*
X009541Y021204D01*
X010108Y021204D01*
X009541Y021558D02*
X010108Y022125D01*
X010250Y022125D01*
X010108Y022479D02*
X010250Y022621D01*
X010250Y022904D01*
X010108Y023046D01*
X009541Y022479D01*
X010108Y022479D01*
X009541Y022479D02*
X009399Y022621D01*
X009399Y022904D01*
X009541Y023046D01*
X010108Y023046D01*
X009399Y022125D02*
X009399Y021558D01*
X009541Y021558D01*
X010250Y019363D02*
X009683Y018796D01*
X009541Y018796D01*
X010250Y018796D02*
X010250Y019363D01*
X010250Y018442D02*
X009683Y017875D01*
X009541Y017875D01*
X010250Y017875D02*
X010250Y018442D01*
M02*
