G75*
%MOIN*%
%OFA0B0*%
%FSLAX24Y24*%
%IPPOS*%
%LPD*%
%AMOC8*
5,1,8,0,0,1.08239X$1,22.5*
%
%ADD10C,0.0000*%
%ADD11R,0.0709X0.0709*%
%ADD12R,0.0531X0.0531*%
%ADD13C,0.0591*%
%ADD14R,0.0591X0.0591*%
%ADD15C,0.0728*%
%ADD16R,0.1800X0.0450*%
%ADD17C,0.0416*%
%ADD18R,0.0500X0.0500*%
%ADD19C,0.0669*%
%ADD20R,0.0472X0.0472*%
%ADD21C,0.0531*%
%ADD22C,0.0433*%
%ADD23C,0.0394*%
%ADD24C,0.0380*%
%ADD25C,0.0350*%
%ADD26C,0.0270*%
%ADD27C,0.0320*%
%ADD28C,0.0258*%
%ADD29C,0.0376*%
%ADD30C,0.0157*%
%ADD31C,0.0100*%
%ADD32C,0.0160*%
%ADD33R,0.0337X0.0337*%
%ADD34C,0.0337*%
%ADD35OC8,0.0297*%
D10*
X004227Y000218D02*
X036825Y000218D01*
X036825Y031478D01*
X004227Y031478D01*
X004227Y000218D01*
X004659Y001045D02*
X004661Y001084D01*
X004667Y001123D01*
X004677Y001161D01*
X004690Y001198D01*
X004707Y001233D01*
X004727Y001267D01*
X004751Y001298D01*
X004778Y001327D01*
X004807Y001353D01*
X004839Y001376D01*
X004873Y001396D01*
X004909Y001412D01*
X004946Y001424D01*
X004985Y001433D01*
X005024Y001438D01*
X005063Y001439D01*
X005102Y001436D01*
X005141Y001429D01*
X005178Y001418D01*
X005215Y001404D01*
X005250Y001386D01*
X005283Y001365D01*
X005314Y001340D01*
X005342Y001313D01*
X005367Y001283D01*
X005389Y001250D01*
X005408Y001216D01*
X005423Y001180D01*
X005435Y001142D01*
X005443Y001104D01*
X005447Y001065D01*
X005447Y001025D01*
X005443Y000986D01*
X005435Y000948D01*
X005423Y000910D01*
X005408Y000874D01*
X005389Y000840D01*
X005367Y000807D01*
X005342Y000777D01*
X005314Y000750D01*
X005283Y000725D01*
X005250Y000704D01*
X005215Y000686D01*
X005178Y000672D01*
X005141Y000661D01*
X005102Y000654D01*
X005063Y000651D01*
X005024Y000652D01*
X004985Y000657D01*
X004946Y000666D01*
X004909Y000678D01*
X004873Y000694D01*
X004839Y000714D01*
X004807Y000737D01*
X004778Y000763D01*
X004751Y000792D01*
X004727Y000823D01*
X004707Y000857D01*
X004690Y000892D01*
X004677Y000929D01*
X004667Y000967D01*
X004661Y001006D01*
X004659Y001045D01*
X004699Y002423D02*
X004701Y002460D01*
X004707Y002497D01*
X004716Y002532D01*
X004730Y002567D01*
X004746Y002600D01*
X004767Y002631D01*
X004790Y002660D01*
X004816Y002686D01*
X004845Y002709D01*
X004876Y002730D01*
X004909Y002746D01*
X004944Y002760D01*
X004979Y002769D01*
X005016Y002775D01*
X005053Y002777D01*
X005090Y002775D01*
X005127Y002769D01*
X005162Y002760D01*
X005197Y002746D01*
X005230Y002730D01*
X005261Y002709D01*
X005290Y002686D01*
X005316Y002660D01*
X005339Y002631D01*
X005360Y002600D01*
X005376Y002567D01*
X005390Y002532D01*
X005399Y002497D01*
X005405Y002460D01*
X005407Y002423D01*
X005405Y002386D01*
X005399Y002349D01*
X005390Y002314D01*
X005376Y002279D01*
X005360Y002246D01*
X005339Y002215D01*
X005316Y002186D01*
X005290Y002160D01*
X005261Y002137D01*
X005230Y002116D01*
X005197Y002100D01*
X005162Y002086D01*
X005127Y002077D01*
X005090Y002071D01*
X005053Y002069D01*
X005016Y002071D01*
X004979Y002077D01*
X004944Y002086D01*
X004909Y002100D01*
X004876Y002116D01*
X004845Y002137D01*
X004816Y002160D01*
X004790Y002186D01*
X004767Y002215D01*
X004746Y002246D01*
X004730Y002279D01*
X004716Y002314D01*
X004707Y002349D01*
X004701Y002386D01*
X004699Y002423D01*
X005152Y003407D02*
X005154Y003441D01*
X005160Y003475D01*
X005170Y003508D01*
X005183Y003539D01*
X005201Y003569D01*
X005221Y003597D01*
X005245Y003622D01*
X005271Y003644D01*
X005299Y003662D01*
X005330Y003678D01*
X005362Y003690D01*
X005396Y003698D01*
X005430Y003702D01*
X005464Y003702D01*
X005498Y003698D01*
X005532Y003690D01*
X005564Y003678D01*
X005594Y003662D01*
X005623Y003644D01*
X005649Y003622D01*
X005673Y003597D01*
X005693Y003569D01*
X005711Y003539D01*
X005724Y003508D01*
X005734Y003475D01*
X005740Y003441D01*
X005742Y003407D01*
X005740Y003373D01*
X005734Y003339D01*
X005724Y003306D01*
X005711Y003275D01*
X005693Y003245D01*
X005673Y003217D01*
X005649Y003192D01*
X005623Y003170D01*
X005595Y003152D01*
X005564Y003136D01*
X005532Y003124D01*
X005498Y003116D01*
X005464Y003112D01*
X005430Y003112D01*
X005396Y003116D01*
X005362Y003124D01*
X005330Y003136D01*
X005299Y003152D01*
X005271Y003170D01*
X005245Y003192D01*
X005221Y003217D01*
X005201Y003245D01*
X005183Y003275D01*
X005170Y003306D01*
X005160Y003339D01*
X005154Y003373D01*
X005152Y003407D01*
X005152Y007344D02*
X005154Y007378D01*
X005160Y007412D01*
X005170Y007445D01*
X005183Y007476D01*
X005201Y007506D01*
X005221Y007534D01*
X005245Y007559D01*
X005271Y007581D01*
X005299Y007599D01*
X005330Y007615D01*
X005362Y007627D01*
X005396Y007635D01*
X005430Y007639D01*
X005464Y007639D01*
X005498Y007635D01*
X005532Y007627D01*
X005564Y007615D01*
X005594Y007599D01*
X005623Y007581D01*
X005649Y007559D01*
X005673Y007534D01*
X005693Y007506D01*
X005711Y007476D01*
X005724Y007445D01*
X005734Y007412D01*
X005740Y007378D01*
X005742Y007344D01*
X005740Y007310D01*
X005734Y007276D01*
X005724Y007243D01*
X005711Y007212D01*
X005693Y007182D01*
X005673Y007154D01*
X005649Y007129D01*
X005623Y007107D01*
X005595Y007089D01*
X005564Y007073D01*
X005532Y007061D01*
X005498Y007053D01*
X005464Y007049D01*
X005430Y007049D01*
X005396Y007053D01*
X005362Y007061D01*
X005330Y007073D01*
X005299Y007089D01*
X005271Y007107D01*
X005245Y007129D01*
X005221Y007154D01*
X005201Y007182D01*
X005183Y007212D01*
X005170Y007243D01*
X005160Y007276D01*
X005154Y007310D01*
X005152Y007344D01*
X004699Y008328D02*
X004701Y008365D01*
X004707Y008402D01*
X004716Y008437D01*
X004730Y008472D01*
X004746Y008505D01*
X004767Y008536D01*
X004790Y008565D01*
X004816Y008591D01*
X004845Y008614D01*
X004876Y008635D01*
X004909Y008651D01*
X004944Y008665D01*
X004979Y008674D01*
X005016Y008680D01*
X005053Y008682D01*
X005090Y008680D01*
X005127Y008674D01*
X005162Y008665D01*
X005197Y008651D01*
X005230Y008635D01*
X005261Y008614D01*
X005290Y008591D01*
X005316Y008565D01*
X005339Y008536D01*
X005360Y008505D01*
X005376Y008472D01*
X005390Y008437D01*
X005399Y008402D01*
X005405Y008365D01*
X005407Y008328D01*
X005405Y008291D01*
X005399Y008254D01*
X005390Y008219D01*
X005376Y008184D01*
X005360Y008151D01*
X005339Y008120D01*
X005316Y008091D01*
X005290Y008065D01*
X005261Y008042D01*
X005230Y008021D01*
X005197Y008005D01*
X005162Y007991D01*
X005127Y007982D01*
X005090Y007976D01*
X005053Y007974D01*
X005016Y007976D01*
X004979Y007982D01*
X004944Y007991D01*
X004909Y008005D01*
X004876Y008021D01*
X004845Y008042D01*
X004816Y008065D01*
X004790Y008091D01*
X004767Y008120D01*
X004746Y008151D01*
X004730Y008184D01*
X004716Y008219D01*
X004707Y008254D01*
X004701Y008291D01*
X004699Y008328D01*
X004659Y009706D02*
X004661Y009745D01*
X004667Y009784D01*
X004677Y009822D01*
X004690Y009859D01*
X004707Y009894D01*
X004727Y009928D01*
X004751Y009959D01*
X004778Y009988D01*
X004807Y010014D01*
X004839Y010037D01*
X004873Y010057D01*
X004909Y010073D01*
X004946Y010085D01*
X004985Y010094D01*
X005024Y010099D01*
X005063Y010100D01*
X005102Y010097D01*
X005141Y010090D01*
X005178Y010079D01*
X005215Y010065D01*
X005250Y010047D01*
X005283Y010026D01*
X005314Y010001D01*
X005342Y009974D01*
X005367Y009944D01*
X005389Y009911D01*
X005408Y009877D01*
X005423Y009841D01*
X005435Y009803D01*
X005443Y009765D01*
X005447Y009726D01*
X005447Y009686D01*
X005443Y009647D01*
X005435Y009609D01*
X005423Y009571D01*
X005408Y009535D01*
X005389Y009501D01*
X005367Y009468D01*
X005342Y009438D01*
X005314Y009411D01*
X005283Y009386D01*
X005250Y009365D01*
X005215Y009347D01*
X005178Y009333D01*
X005141Y009322D01*
X005102Y009315D01*
X005063Y009312D01*
X005024Y009313D01*
X004985Y009318D01*
X004946Y009327D01*
X004909Y009339D01*
X004873Y009355D01*
X004839Y009375D01*
X004807Y009398D01*
X004778Y009424D01*
X004751Y009453D01*
X004727Y009484D01*
X004707Y009518D01*
X004690Y009553D01*
X004677Y009590D01*
X004667Y009628D01*
X004661Y009667D01*
X004659Y009706D01*
X004659Y011517D02*
X004661Y011556D01*
X004667Y011595D01*
X004677Y011633D01*
X004690Y011670D01*
X004707Y011705D01*
X004727Y011739D01*
X004751Y011770D01*
X004778Y011799D01*
X004807Y011825D01*
X004839Y011848D01*
X004873Y011868D01*
X004909Y011884D01*
X004946Y011896D01*
X004985Y011905D01*
X005024Y011910D01*
X005063Y011911D01*
X005102Y011908D01*
X005141Y011901D01*
X005178Y011890D01*
X005215Y011876D01*
X005250Y011858D01*
X005283Y011837D01*
X005314Y011812D01*
X005342Y011785D01*
X005367Y011755D01*
X005389Y011722D01*
X005408Y011688D01*
X005423Y011652D01*
X005435Y011614D01*
X005443Y011576D01*
X005447Y011537D01*
X005447Y011497D01*
X005443Y011458D01*
X005435Y011420D01*
X005423Y011382D01*
X005408Y011346D01*
X005389Y011312D01*
X005367Y011279D01*
X005342Y011249D01*
X005314Y011222D01*
X005283Y011197D01*
X005250Y011176D01*
X005215Y011158D01*
X005178Y011144D01*
X005141Y011133D01*
X005102Y011126D01*
X005063Y011123D01*
X005024Y011124D01*
X004985Y011129D01*
X004946Y011138D01*
X004909Y011150D01*
X004873Y011166D01*
X004839Y011186D01*
X004807Y011209D01*
X004778Y011235D01*
X004751Y011264D01*
X004727Y011295D01*
X004707Y011329D01*
X004690Y011364D01*
X004677Y011401D01*
X004667Y011439D01*
X004661Y011478D01*
X004659Y011517D01*
X004699Y012895D02*
X004701Y012932D01*
X004707Y012969D01*
X004716Y013004D01*
X004730Y013039D01*
X004746Y013072D01*
X004767Y013103D01*
X004790Y013132D01*
X004816Y013158D01*
X004845Y013181D01*
X004876Y013202D01*
X004909Y013218D01*
X004944Y013232D01*
X004979Y013241D01*
X005016Y013247D01*
X005053Y013249D01*
X005090Y013247D01*
X005127Y013241D01*
X005162Y013232D01*
X005197Y013218D01*
X005230Y013202D01*
X005261Y013181D01*
X005290Y013158D01*
X005316Y013132D01*
X005339Y013103D01*
X005360Y013072D01*
X005376Y013039D01*
X005390Y013004D01*
X005399Y012969D01*
X005405Y012932D01*
X005407Y012895D01*
X005405Y012858D01*
X005399Y012821D01*
X005390Y012786D01*
X005376Y012751D01*
X005360Y012718D01*
X005339Y012687D01*
X005316Y012658D01*
X005290Y012632D01*
X005261Y012609D01*
X005230Y012588D01*
X005197Y012572D01*
X005162Y012558D01*
X005127Y012549D01*
X005090Y012543D01*
X005053Y012541D01*
X005016Y012543D01*
X004979Y012549D01*
X004944Y012558D01*
X004909Y012572D01*
X004876Y012588D01*
X004845Y012609D01*
X004816Y012632D01*
X004790Y012658D01*
X004767Y012687D01*
X004746Y012718D01*
X004730Y012751D01*
X004716Y012786D01*
X004707Y012821D01*
X004701Y012858D01*
X004699Y012895D01*
X005152Y013880D02*
X005154Y013914D01*
X005160Y013948D01*
X005170Y013981D01*
X005183Y014012D01*
X005201Y014042D01*
X005221Y014070D01*
X005245Y014095D01*
X005271Y014117D01*
X005299Y014135D01*
X005330Y014151D01*
X005362Y014163D01*
X005396Y014171D01*
X005430Y014175D01*
X005464Y014175D01*
X005498Y014171D01*
X005532Y014163D01*
X005564Y014151D01*
X005594Y014135D01*
X005623Y014117D01*
X005649Y014095D01*
X005673Y014070D01*
X005693Y014042D01*
X005711Y014012D01*
X005724Y013981D01*
X005734Y013948D01*
X005740Y013914D01*
X005742Y013880D01*
X005740Y013846D01*
X005734Y013812D01*
X005724Y013779D01*
X005711Y013748D01*
X005693Y013718D01*
X005673Y013690D01*
X005649Y013665D01*
X005623Y013643D01*
X005595Y013625D01*
X005564Y013609D01*
X005532Y013597D01*
X005498Y013589D01*
X005464Y013585D01*
X005430Y013585D01*
X005396Y013589D01*
X005362Y013597D01*
X005330Y013609D01*
X005299Y013625D01*
X005271Y013643D01*
X005245Y013665D01*
X005221Y013690D01*
X005201Y013718D01*
X005183Y013748D01*
X005170Y013779D01*
X005160Y013812D01*
X005154Y013846D01*
X005152Y013880D01*
X005152Y017817D02*
X005154Y017851D01*
X005160Y017885D01*
X005170Y017918D01*
X005183Y017949D01*
X005201Y017979D01*
X005221Y018007D01*
X005245Y018032D01*
X005271Y018054D01*
X005299Y018072D01*
X005330Y018088D01*
X005362Y018100D01*
X005396Y018108D01*
X005430Y018112D01*
X005464Y018112D01*
X005498Y018108D01*
X005532Y018100D01*
X005564Y018088D01*
X005594Y018072D01*
X005623Y018054D01*
X005649Y018032D01*
X005673Y018007D01*
X005693Y017979D01*
X005711Y017949D01*
X005724Y017918D01*
X005734Y017885D01*
X005740Y017851D01*
X005742Y017817D01*
X005740Y017783D01*
X005734Y017749D01*
X005724Y017716D01*
X005711Y017685D01*
X005693Y017655D01*
X005673Y017627D01*
X005649Y017602D01*
X005623Y017580D01*
X005595Y017562D01*
X005564Y017546D01*
X005532Y017534D01*
X005498Y017526D01*
X005464Y017522D01*
X005430Y017522D01*
X005396Y017526D01*
X005362Y017534D01*
X005330Y017546D01*
X005299Y017562D01*
X005271Y017580D01*
X005245Y017602D01*
X005221Y017627D01*
X005201Y017655D01*
X005183Y017685D01*
X005170Y017716D01*
X005160Y017749D01*
X005154Y017783D01*
X005152Y017817D01*
X004699Y018801D02*
X004701Y018838D01*
X004707Y018875D01*
X004716Y018910D01*
X004730Y018945D01*
X004746Y018978D01*
X004767Y019009D01*
X004790Y019038D01*
X004816Y019064D01*
X004845Y019087D01*
X004876Y019108D01*
X004909Y019124D01*
X004944Y019138D01*
X004979Y019147D01*
X005016Y019153D01*
X005053Y019155D01*
X005090Y019153D01*
X005127Y019147D01*
X005162Y019138D01*
X005197Y019124D01*
X005230Y019108D01*
X005261Y019087D01*
X005290Y019064D01*
X005316Y019038D01*
X005339Y019009D01*
X005360Y018978D01*
X005376Y018945D01*
X005390Y018910D01*
X005399Y018875D01*
X005405Y018838D01*
X005407Y018801D01*
X005405Y018764D01*
X005399Y018727D01*
X005390Y018692D01*
X005376Y018657D01*
X005360Y018624D01*
X005339Y018593D01*
X005316Y018564D01*
X005290Y018538D01*
X005261Y018515D01*
X005230Y018494D01*
X005197Y018478D01*
X005162Y018464D01*
X005127Y018455D01*
X005090Y018449D01*
X005053Y018447D01*
X005016Y018449D01*
X004979Y018455D01*
X004944Y018464D01*
X004909Y018478D01*
X004876Y018494D01*
X004845Y018515D01*
X004816Y018538D01*
X004790Y018564D01*
X004767Y018593D01*
X004746Y018624D01*
X004730Y018657D01*
X004716Y018692D01*
X004707Y018727D01*
X004701Y018764D01*
X004699Y018801D01*
X004659Y020179D02*
X004661Y020218D01*
X004667Y020257D01*
X004677Y020295D01*
X004690Y020332D01*
X004707Y020367D01*
X004727Y020401D01*
X004751Y020432D01*
X004778Y020461D01*
X004807Y020487D01*
X004839Y020510D01*
X004873Y020530D01*
X004909Y020546D01*
X004946Y020558D01*
X004985Y020567D01*
X005024Y020572D01*
X005063Y020573D01*
X005102Y020570D01*
X005141Y020563D01*
X005178Y020552D01*
X005215Y020538D01*
X005250Y020520D01*
X005283Y020499D01*
X005314Y020474D01*
X005342Y020447D01*
X005367Y020417D01*
X005389Y020384D01*
X005408Y020350D01*
X005423Y020314D01*
X005435Y020276D01*
X005443Y020238D01*
X005447Y020199D01*
X005447Y020159D01*
X005443Y020120D01*
X005435Y020082D01*
X005423Y020044D01*
X005408Y020008D01*
X005389Y019974D01*
X005367Y019941D01*
X005342Y019911D01*
X005314Y019884D01*
X005283Y019859D01*
X005250Y019838D01*
X005215Y019820D01*
X005178Y019806D01*
X005141Y019795D01*
X005102Y019788D01*
X005063Y019785D01*
X005024Y019786D01*
X004985Y019791D01*
X004946Y019800D01*
X004909Y019812D01*
X004873Y019828D01*
X004839Y019848D01*
X004807Y019871D01*
X004778Y019897D01*
X004751Y019926D01*
X004727Y019957D01*
X004707Y019991D01*
X004690Y020026D01*
X004677Y020063D01*
X004667Y020101D01*
X004661Y020140D01*
X004659Y020179D01*
X004659Y021990D02*
X004661Y022029D01*
X004667Y022068D01*
X004677Y022106D01*
X004690Y022143D01*
X004707Y022178D01*
X004727Y022212D01*
X004751Y022243D01*
X004778Y022272D01*
X004807Y022298D01*
X004839Y022321D01*
X004873Y022341D01*
X004909Y022357D01*
X004946Y022369D01*
X004985Y022378D01*
X005024Y022383D01*
X005063Y022384D01*
X005102Y022381D01*
X005141Y022374D01*
X005178Y022363D01*
X005215Y022349D01*
X005250Y022331D01*
X005283Y022310D01*
X005314Y022285D01*
X005342Y022258D01*
X005367Y022228D01*
X005389Y022195D01*
X005408Y022161D01*
X005423Y022125D01*
X005435Y022087D01*
X005443Y022049D01*
X005447Y022010D01*
X005447Y021970D01*
X005443Y021931D01*
X005435Y021893D01*
X005423Y021855D01*
X005408Y021819D01*
X005389Y021785D01*
X005367Y021752D01*
X005342Y021722D01*
X005314Y021695D01*
X005283Y021670D01*
X005250Y021649D01*
X005215Y021631D01*
X005178Y021617D01*
X005141Y021606D01*
X005102Y021599D01*
X005063Y021596D01*
X005024Y021597D01*
X004985Y021602D01*
X004946Y021611D01*
X004909Y021623D01*
X004873Y021639D01*
X004839Y021659D01*
X004807Y021682D01*
X004778Y021708D01*
X004751Y021737D01*
X004727Y021768D01*
X004707Y021802D01*
X004690Y021837D01*
X004677Y021874D01*
X004667Y021912D01*
X004661Y021951D01*
X004659Y021990D01*
X004699Y023368D02*
X004701Y023405D01*
X004707Y023442D01*
X004716Y023477D01*
X004730Y023512D01*
X004746Y023545D01*
X004767Y023576D01*
X004790Y023605D01*
X004816Y023631D01*
X004845Y023654D01*
X004876Y023675D01*
X004909Y023691D01*
X004944Y023705D01*
X004979Y023714D01*
X005016Y023720D01*
X005053Y023722D01*
X005090Y023720D01*
X005127Y023714D01*
X005162Y023705D01*
X005197Y023691D01*
X005230Y023675D01*
X005261Y023654D01*
X005290Y023631D01*
X005316Y023605D01*
X005339Y023576D01*
X005360Y023545D01*
X005376Y023512D01*
X005390Y023477D01*
X005399Y023442D01*
X005405Y023405D01*
X005407Y023368D01*
X005405Y023331D01*
X005399Y023294D01*
X005390Y023259D01*
X005376Y023224D01*
X005360Y023191D01*
X005339Y023160D01*
X005316Y023131D01*
X005290Y023105D01*
X005261Y023082D01*
X005230Y023061D01*
X005197Y023045D01*
X005162Y023031D01*
X005127Y023022D01*
X005090Y023016D01*
X005053Y023014D01*
X005016Y023016D01*
X004979Y023022D01*
X004944Y023031D01*
X004909Y023045D01*
X004876Y023061D01*
X004845Y023082D01*
X004816Y023105D01*
X004790Y023131D01*
X004767Y023160D01*
X004746Y023191D01*
X004730Y023224D01*
X004716Y023259D01*
X004707Y023294D01*
X004701Y023331D01*
X004699Y023368D01*
X005152Y024352D02*
X005154Y024386D01*
X005160Y024420D01*
X005170Y024453D01*
X005183Y024484D01*
X005201Y024514D01*
X005221Y024542D01*
X005245Y024567D01*
X005271Y024589D01*
X005299Y024607D01*
X005330Y024623D01*
X005362Y024635D01*
X005396Y024643D01*
X005430Y024647D01*
X005464Y024647D01*
X005498Y024643D01*
X005532Y024635D01*
X005564Y024623D01*
X005594Y024607D01*
X005623Y024589D01*
X005649Y024567D01*
X005673Y024542D01*
X005693Y024514D01*
X005711Y024484D01*
X005724Y024453D01*
X005734Y024420D01*
X005740Y024386D01*
X005742Y024352D01*
X005740Y024318D01*
X005734Y024284D01*
X005724Y024251D01*
X005711Y024220D01*
X005693Y024190D01*
X005673Y024162D01*
X005649Y024137D01*
X005623Y024115D01*
X005595Y024097D01*
X005564Y024081D01*
X005532Y024069D01*
X005498Y024061D01*
X005464Y024057D01*
X005430Y024057D01*
X005396Y024061D01*
X005362Y024069D01*
X005330Y024081D01*
X005299Y024097D01*
X005271Y024115D01*
X005245Y024137D01*
X005221Y024162D01*
X005201Y024190D01*
X005183Y024220D01*
X005170Y024251D01*
X005160Y024284D01*
X005154Y024318D01*
X005152Y024352D01*
X005152Y028289D02*
X005154Y028323D01*
X005160Y028357D01*
X005170Y028390D01*
X005183Y028421D01*
X005201Y028451D01*
X005221Y028479D01*
X005245Y028504D01*
X005271Y028526D01*
X005299Y028544D01*
X005330Y028560D01*
X005362Y028572D01*
X005396Y028580D01*
X005430Y028584D01*
X005464Y028584D01*
X005498Y028580D01*
X005532Y028572D01*
X005564Y028560D01*
X005594Y028544D01*
X005623Y028526D01*
X005649Y028504D01*
X005673Y028479D01*
X005693Y028451D01*
X005711Y028421D01*
X005724Y028390D01*
X005734Y028357D01*
X005740Y028323D01*
X005742Y028289D01*
X005740Y028255D01*
X005734Y028221D01*
X005724Y028188D01*
X005711Y028157D01*
X005693Y028127D01*
X005673Y028099D01*
X005649Y028074D01*
X005623Y028052D01*
X005595Y028034D01*
X005564Y028018D01*
X005532Y028006D01*
X005498Y027998D01*
X005464Y027994D01*
X005430Y027994D01*
X005396Y027998D01*
X005362Y028006D01*
X005330Y028018D01*
X005299Y028034D01*
X005271Y028052D01*
X005245Y028074D01*
X005221Y028099D01*
X005201Y028127D01*
X005183Y028157D01*
X005170Y028188D01*
X005160Y028221D01*
X005154Y028255D01*
X005152Y028289D01*
X004699Y029273D02*
X004701Y029310D01*
X004707Y029347D01*
X004716Y029382D01*
X004730Y029417D01*
X004746Y029450D01*
X004767Y029481D01*
X004790Y029510D01*
X004816Y029536D01*
X004845Y029559D01*
X004876Y029580D01*
X004909Y029596D01*
X004944Y029610D01*
X004979Y029619D01*
X005016Y029625D01*
X005053Y029627D01*
X005090Y029625D01*
X005127Y029619D01*
X005162Y029610D01*
X005197Y029596D01*
X005230Y029580D01*
X005261Y029559D01*
X005290Y029536D01*
X005316Y029510D01*
X005339Y029481D01*
X005360Y029450D01*
X005376Y029417D01*
X005390Y029382D01*
X005399Y029347D01*
X005405Y029310D01*
X005407Y029273D01*
X005405Y029236D01*
X005399Y029199D01*
X005390Y029164D01*
X005376Y029129D01*
X005360Y029096D01*
X005339Y029065D01*
X005316Y029036D01*
X005290Y029010D01*
X005261Y028987D01*
X005230Y028966D01*
X005197Y028950D01*
X005162Y028936D01*
X005127Y028927D01*
X005090Y028921D01*
X005053Y028919D01*
X005016Y028921D01*
X004979Y028927D01*
X004944Y028936D01*
X004909Y028950D01*
X004876Y028966D01*
X004845Y028987D01*
X004816Y029010D01*
X004790Y029036D01*
X004767Y029065D01*
X004746Y029096D01*
X004730Y029129D01*
X004716Y029164D01*
X004707Y029199D01*
X004701Y029236D01*
X004699Y029273D01*
X004659Y030651D02*
X004661Y030690D01*
X004667Y030729D01*
X004677Y030767D01*
X004690Y030804D01*
X004707Y030839D01*
X004727Y030873D01*
X004751Y030904D01*
X004778Y030933D01*
X004807Y030959D01*
X004839Y030982D01*
X004873Y031002D01*
X004909Y031018D01*
X004946Y031030D01*
X004985Y031039D01*
X005024Y031044D01*
X005063Y031045D01*
X005102Y031042D01*
X005141Y031035D01*
X005178Y031024D01*
X005215Y031010D01*
X005250Y030992D01*
X005283Y030971D01*
X005314Y030946D01*
X005342Y030919D01*
X005367Y030889D01*
X005389Y030856D01*
X005408Y030822D01*
X005423Y030786D01*
X005435Y030748D01*
X005443Y030710D01*
X005447Y030671D01*
X005447Y030631D01*
X005443Y030592D01*
X005435Y030554D01*
X005423Y030516D01*
X005408Y030480D01*
X005389Y030446D01*
X005367Y030413D01*
X005342Y030383D01*
X005314Y030356D01*
X005283Y030331D01*
X005250Y030310D01*
X005215Y030292D01*
X005178Y030278D01*
X005141Y030267D01*
X005102Y030260D01*
X005063Y030257D01*
X005024Y030258D01*
X004985Y030263D01*
X004946Y030272D01*
X004909Y030284D01*
X004873Y030300D01*
X004839Y030320D01*
X004807Y030343D01*
X004778Y030369D01*
X004751Y030398D01*
X004727Y030429D01*
X004707Y030463D01*
X004690Y030498D01*
X004677Y030535D01*
X004667Y030573D01*
X004661Y030612D01*
X004659Y030651D01*
X014514Y024943D02*
X014516Y024991D01*
X014522Y025039D01*
X014532Y025086D01*
X014545Y025132D01*
X014563Y025177D01*
X014583Y025221D01*
X014608Y025263D01*
X014636Y025302D01*
X014666Y025339D01*
X014700Y025373D01*
X014737Y025405D01*
X014775Y025434D01*
X014816Y025459D01*
X014859Y025481D01*
X014904Y025499D01*
X014950Y025513D01*
X014997Y025524D01*
X015045Y025531D01*
X015093Y025534D01*
X015141Y025533D01*
X015189Y025528D01*
X015237Y025519D01*
X015283Y025507D01*
X015328Y025490D01*
X015372Y025470D01*
X015414Y025447D01*
X015454Y025420D01*
X015492Y025390D01*
X015527Y025357D01*
X015559Y025321D01*
X015589Y025283D01*
X015615Y025242D01*
X015637Y025199D01*
X015657Y025155D01*
X015672Y025110D01*
X015684Y025063D01*
X015692Y025015D01*
X015696Y024967D01*
X015696Y024919D01*
X015692Y024871D01*
X015684Y024823D01*
X015672Y024776D01*
X015657Y024731D01*
X015637Y024687D01*
X015615Y024644D01*
X015589Y024603D01*
X015559Y024565D01*
X015527Y024529D01*
X015492Y024496D01*
X015454Y024466D01*
X015414Y024439D01*
X015372Y024416D01*
X015328Y024396D01*
X015283Y024379D01*
X015237Y024367D01*
X015189Y024358D01*
X015141Y024353D01*
X015093Y024352D01*
X015045Y024355D01*
X014997Y024362D01*
X014950Y024373D01*
X014904Y024387D01*
X014859Y024405D01*
X014816Y024427D01*
X014775Y024452D01*
X014737Y024481D01*
X014700Y024513D01*
X014666Y024547D01*
X014636Y024584D01*
X014608Y024623D01*
X014583Y024665D01*
X014563Y024709D01*
X014545Y024754D01*
X014532Y024800D01*
X014522Y024847D01*
X014516Y024895D01*
X014514Y024943D01*
X017514Y023198D02*
X017516Y023248D01*
X017522Y023298D01*
X017532Y023347D01*
X017546Y023395D01*
X017563Y023442D01*
X017584Y023487D01*
X017609Y023531D01*
X017637Y023572D01*
X017669Y023611D01*
X017703Y023648D01*
X017740Y023682D01*
X017780Y023712D01*
X017822Y023739D01*
X017866Y023763D01*
X017912Y023784D01*
X017959Y023800D01*
X018007Y023813D01*
X018057Y023822D01*
X018106Y023827D01*
X018157Y023828D01*
X018207Y023825D01*
X018256Y023818D01*
X018305Y023807D01*
X018353Y023792D01*
X018399Y023774D01*
X018444Y023752D01*
X018487Y023726D01*
X018528Y023697D01*
X018567Y023665D01*
X018603Y023630D01*
X018635Y023592D01*
X018665Y023552D01*
X018692Y023509D01*
X018715Y023465D01*
X018734Y023419D01*
X018750Y023371D01*
X018762Y023322D01*
X018770Y023273D01*
X018774Y023223D01*
X018774Y023173D01*
X018770Y023123D01*
X018762Y023074D01*
X018750Y023025D01*
X018734Y022977D01*
X018715Y022931D01*
X018692Y022887D01*
X018665Y022844D01*
X018635Y022804D01*
X018603Y022766D01*
X018567Y022731D01*
X018528Y022699D01*
X018487Y022670D01*
X018444Y022644D01*
X018399Y022622D01*
X018353Y022604D01*
X018305Y022589D01*
X018256Y022578D01*
X018207Y022571D01*
X018157Y022568D01*
X018106Y022569D01*
X018057Y022574D01*
X018007Y022583D01*
X017959Y022596D01*
X017912Y022612D01*
X017866Y022633D01*
X017822Y022657D01*
X017780Y022684D01*
X017740Y022714D01*
X017703Y022748D01*
X017669Y022785D01*
X017637Y022824D01*
X017609Y022865D01*
X017584Y022909D01*
X017563Y022954D01*
X017546Y023001D01*
X017532Y023049D01*
X017522Y023098D01*
X017516Y023148D01*
X017514Y023198D01*
X019226Y021990D02*
X019228Y022029D01*
X019234Y022068D01*
X019244Y022106D01*
X019257Y022143D01*
X019274Y022178D01*
X019294Y022212D01*
X019318Y022243D01*
X019345Y022272D01*
X019374Y022298D01*
X019406Y022321D01*
X019440Y022341D01*
X019476Y022357D01*
X019513Y022369D01*
X019552Y022378D01*
X019591Y022383D01*
X019630Y022384D01*
X019669Y022381D01*
X019708Y022374D01*
X019745Y022363D01*
X019782Y022349D01*
X019817Y022331D01*
X019850Y022310D01*
X019881Y022285D01*
X019909Y022258D01*
X019934Y022228D01*
X019956Y022195D01*
X019975Y022161D01*
X019990Y022125D01*
X020002Y022087D01*
X020010Y022049D01*
X020014Y022010D01*
X020014Y021970D01*
X020010Y021931D01*
X020002Y021893D01*
X019990Y021855D01*
X019975Y021819D01*
X019956Y021785D01*
X019934Y021752D01*
X019909Y021722D01*
X019881Y021695D01*
X019850Y021670D01*
X019817Y021649D01*
X019782Y021631D01*
X019745Y021617D01*
X019708Y021606D01*
X019669Y021599D01*
X019630Y021596D01*
X019591Y021597D01*
X019552Y021602D01*
X019513Y021611D01*
X019476Y021623D01*
X019440Y021639D01*
X019406Y021659D01*
X019374Y021682D01*
X019345Y021708D01*
X019318Y021737D01*
X019294Y021768D01*
X019274Y021802D01*
X019257Y021837D01*
X019244Y021874D01*
X019234Y021912D01*
X019228Y021951D01*
X019226Y021990D01*
X019226Y020179D02*
X019228Y020218D01*
X019234Y020257D01*
X019244Y020295D01*
X019257Y020332D01*
X019274Y020367D01*
X019294Y020401D01*
X019318Y020432D01*
X019345Y020461D01*
X019374Y020487D01*
X019406Y020510D01*
X019440Y020530D01*
X019476Y020546D01*
X019513Y020558D01*
X019552Y020567D01*
X019591Y020572D01*
X019630Y020573D01*
X019669Y020570D01*
X019708Y020563D01*
X019745Y020552D01*
X019782Y020538D01*
X019817Y020520D01*
X019850Y020499D01*
X019881Y020474D01*
X019909Y020447D01*
X019934Y020417D01*
X019956Y020384D01*
X019975Y020350D01*
X019990Y020314D01*
X020002Y020276D01*
X020010Y020238D01*
X020014Y020199D01*
X020014Y020159D01*
X020010Y020120D01*
X020002Y020082D01*
X019990Y020044D01*
X019975Y020008D01*
X019956Y019974D01*
X019934Y019941D01*
X019909Y019911D01*
X019881Y019884D01*
X019850Y019859D01*
X019817Y019838D01*
X019782Y019820D01*
X019745Y019806D01*
X019708Y019795D01*
X019669Y019788D01*
X019630Y019785D01*
X019591Y019786D01*
X019552Y019791D01*
X019513Y019800D01*
X019476Y019812D01*
X019440Y019828D01*
X019406Y019848D01*
X019374Y019871D01*
X019345Y019897D01*
X019318Y019926D01*
X019294Y019957D01*
X019274Y019991D01*
X019257Y020026D01*
X019244Y020063D01*
X019234Y020101D01*
X019228Y020140D01*
X019226Y020179D01*
X018061Y018151D02*
X018063Y018195D01*
X018069Y018239D01*
X018079Y018282D01*
X018092Y018324D01*
X018110Y018364D01*
X018131Y018403D01*
X018155Y018440D01*
X018182Y018475D01*
X018213Y018507D01*
X018246Y018536D01*
X018282Y018562D01*
X018320Y018584D01*
X018360Y018603D01*
X018401Y018619D01*
X018444Y018631D01*
X018487Y018639D01*
X018531Y018643D01*
X018575Y018643D01*
X018619Y018639D01*
X018662Y018631D01*
X018705Y018619D01*
X018746Y018603D01*
X018786Y018584D01*
X018824Y018562D01*
X018860Y018536D01*
X018893Y018507D01*
X018924Y018475D01*
X018951Y018440D01*
X018975Y018403D01*
X018996Y018364D01*
X019014Y018324D01*
X019027Y018282D01*
X019037Y018239D01*
X019043Y018195D01*
X019045Y018151D01*
X019043Y018107D01*
X019037Y018063D01*
X019027Y018020D01*
X019014Y017978D01*
X018996Y017938D01*
X018975Y017899D01*
X018951Y017862D01*
X018924Y017827D01*
X018893Y017795D01*
X018860Y017766D01*
X018824Y017740D01*
X018786Y017718D01*
X018746Y017699D01*
X018705Y017683D01*
X018662Y017671D01*
X018619Y017663D01*
X018575Y017659D01*
X018531Y017659D01*
X018487Y017663D01*
X018444Y017671D01*
X018401Y017683D01*
X018360Y017699D01*
X018320Y017718D01*
X018282Y017740D01*
X018246Y017766D01*
X018213Y017795D01*
X018182Y017827D01*
X018155Y017862D01*
X018131Y017899D01*
X018110Y017938D01*
X018092Y017978D01*
X018079Y018020D01*
X018069Y018063D01*
X018063Y018107D01*
X018061Y018151D01*
X021077Y018801D02*
X021079Y018838D01*
X021085Y018875D01*
X021094Y018910D01*
X021108Y018945D01*
X021124Y018978D01*
X021145Y019009D01*
X021168Y019038D01*
X021194Y019064D01*
X021223Y019087D01*
X021254Y019108D01*
X021287Y019124D01*
X021322Y019138D01*
X021357Y019147D01*
X021394Y019153D01*
X021431Y019155D01*
X021468Y019153D01*
X021505Y019147D01*
X021540Y019138D01*
X021575Y019124D01*
X021608Y019108D01*
X021639Y019087D01*
X021668Y019064D01*
X021694Y019038D01*
X021717Y019009D01*
X021738Y018978D01*
X021754Y018945D01*
X021768Y018910D01*
X021777Y018875D01*
X021783Y018838D01*
X021785Y018801D01*
X021783Y018764D01*
X021777Y018727D01*
X021768Y018692D01*
X021754Y018657D01*
X021738Y018624D01*
X021717Y018593D01*
X021694Y018564D01*
X021668Y018538D01*
X021639Y018515D01*
X021608Y018494D01*
X021575Y018478D01*
X021540Y018464D01*
X021505Y018455D01*
X021468Y018449D01*
X021431Y018447D01*
X021394Y018449D01*
X021357Y018455D01*
X021322Y018464D01*
X021287Y018478D01*
X021254Y018494D01*
X021223Y018515D01*
X021194Y018538D01*
X021168Y018564D01*
X021145Y018593D01*
X021124Y018624D01*
X021108Y018657D01*
X021094Y018692D01*
X021085Y018727D01*
X021079Y018764D01*
X021077Y018801D01*
X021530Y017817D02*
X021532Y017851D01*
X021538Y017885D01*
X021548Y017918D01*
X021561Y017949D01*
X021579Y017979D01*
X021599Y018007D01*
X021623Y018032D01*
X021649Y018054D01*
X021677Y018072D01*
X021708Y018088D01*
X021740Y018100D01*
X021774Y018108D01*
X021808Y018112D01*
X021842Y018112D01*
X021876Y018108D01*
X021910Y018100D01*
X021942Y018088D01*
X021972Y018072D01*
X022001Y018054D01*
X022027Y018032D01*
X022051Y018007D01*
X022071Y017979D01*
X022089Y017949D01*
X022102Y017918D01*
X022112Y017885D01*
X022118Y017851D01*
X022120Y017817D01*
X022118Y017783D01*
X022112Y017749D01*
X022102Y017716D01*
X022089Y017685D01*
X022071Y017655D01*
X022051Y017627D01*
X022027Y017602D01*
X022001Y017580D01*
X021973Y017562D01*
X021942Y017546D01*
X021910Y017534D01*
X021876Y017526D01*
X021842Y017522D01*
X021808Y017522D01*
X021774Y017526D01*
X021740Y017534D01*
X021708Y017546D01*
X021677Y017562D01*
X021649Y017580D01*
X021623Y017602D01*
X021599Y017627D01*
X021579Y017655D01*
X021561Y017685D01*
X021548Y017716D01*
X021538Y017749D01*
X021532Y017783D01*
X021530Y017817D01*
X021037Y020179D02*
X021039Y020218D01*
X021045Y020257D01*
X021055Y020295D01*
X021068Y020332D01*
X021085Y020367D01*
X021105Y020401D01*
X021129Y020432D01*
X021156Y020461D01*
X021185Y020487D01*
X021217Y020510D01*
X021251Y020530D01*
X021287Y020546D01*
X021324Y020558D01*
X021363Y020567D01*
X021402Y020572D01*
X021441Y020573D01*
X021480Y020570D01*
X021519Y020563D01*
X021556Y020552D01*
X021593Y020538D01*
X021628Y020520D01*
X021661Y020499D01*
X021692Y020474D01*
X021720Y020447D01*
X021745Y020417D01*
X021767Y020384D01*
X021786Y020350D01*
X021801Y020314D01*
X021813Y020276D01*
X021821Y020238D01*
X021825Y020199D01*
X021825Y020159D01*
X021821Y020120D01*
X021813Y020082D01*
X021801Y020044D01*
X021786Y020008D01*
X021767Y019974D01*
X021745Y019941D01*
X021720Y019911D01*
X021692Y019884D01*
X021661Y019859D01*
X021628Y019838D01*
X021593Y019820D01*
X021556Y019806D01*
X021519Y019795D01*
X021480Y019788D01*
X021441Y019785D01*
X021402Y019786D01*
X021363Y019791D01*
X021324Y019800D01*
X021287Y019812D01*
X021251Y019828D01*
X021217Y019848D01*
X021185Y019871D01*
X021156Y019897D01*
X021129Y019926D01*
X021105Y019957D01*
X021085Y019991D01*
X021068Y020026D01*
X021055Y020063D01*
X021045Y020101D01*
X021039Y020140D01*
X021037Y020179D01*
X021037Y021990D02*
X021039Y022029D01*
X021045Y022068D01*
X021055Y022106D01*
X021068Y022143D01*
X021085Y022178D01*
X021105Y022212D01*
X021129Y022243D01*
X021156Y022272D01*
X021185Y022298D01*
X021217Y022321D01*
X021251Y022341D01*
X021287Y022357D01*
X021324Y022369D01*
X021363Y022378D01*
X021402Y022383D01*
X021441Y022384D01*
X021480Y022381D01*
X021519Y022374D01*
X021556Y022363D01*
X021593Y022349D01*
X021628Y022331D01*
X021661Y022310D01*
X021692Y022285D01*
X021720Y022258D01*
X021745Y022228D01*
X021767Y022195D01*
X021786Y022161D01*
X021801Y022125D01*
X021813Y022087D01*
X021821Y022049D01*
X021825Y022010D01*
X021825Y021970D01*
X021821Y021931D01*
X021813Y021893D01*
X021801Y021855D01*
X021786Y021819D01*
X021767Y021785D01*
X021745Y021752D01*
X021720Y021722D01*
X021692Y021695D01*
X021661Y021670D01*
X021628Y021649D01*
X021593Y021631D01*
X021556Y021617D01*
X021519Y021606D01*
X021480Y021599D01*
X021441Y021596D01*
X021402Y021597D01*
X021363Y021602D01*
X021324Y021611D01*
X021287Y021623D01*
X021251Y021639D01*
X021217Y021659D01*
X021185Y021682D01*
X021156Y021708D01*
X021129Y021737D01*
X021105Y021768D01*
X021085Y021802D01*
X021068Y021837D01*
X021055Y021874D01*
X021045Y021912D01*
X021039Y021951D01*
X021037Y021990D01*
X021077Y023368D02*
X021079Y023405D01*
X021085Y023442D01*
X021094Y023477D01*
X021108Y023512D01*
X021124Y023545D01*
X021145Y023576D01*
X021168Y023605D01*
X021194Y023631D01*
X021223Y023654D01*
X021254Y023675D01*
X021287Y023691D01*
X021322Y023705D01*
X021357Y023714D01*
X021394Y023720D01*
X021431Y023722D01*
X021468Y023720D01*
X021505Y023714D01*
X021540Y023705D01*
X021575Y023691D01*
X021608Y023675D01*
X021639Y023654D01*
X021668Y023631D01*
X021694Y023605D01*
X021717Y023576D01*
X021738Y023545D01*
X021754Y023512D01*
X021768Y023477D01*
X021777Y023442D01*
X021783Y023405D01*
X021785Y023368D01*
X021783Y023331D01*
X021777Y023294D01*
X021768Y023259D01*
X021754Y023224D01*
X021738Y023191D01*
X021717Y023160D01*
X021694Y023131D01*
X021668Y023105D01*
X021639Y023082D01*
X021608Y023061D01*
X021575Y023045D01*
X021540Y023031D01*
X021505Y023022D01*
X021468Y023016D01*
X021431Y023014D01*
X021394Y023016D01*
X021357Y023022D01*
X021322Y023031D01*
X021287Y023045D01*
X021254Y023061D01*
X021223Y023082D01*
X021194Y023105D01*
X021168Y023131D01*
X021145Y023160D01*
X021124Y023191D01*
X021108Y023224D01*
X021094Y023259D01*
X021085Y023294D01*
X021079Y023331D01*
X021077Y023368D01*
X021530Y024352D02*
X021532Y024386D01*
X021538Y024420D01*
X021548Y024453D01*
X021561Y024484D01*
X021579Y024514D01*
X021599Y024542D01*
X021623Y024567D01*
X021649Y024589D01*
X021677Y024607D01*
X021708Y024623D01*
X021740Y024635D01*
X021774Y024643D01*
X021808Y024647D01*
X021842Y024647D01*
X021876Y024643D01*
X021910Y024635D01*
X021942Y024623D01*
X021972Y024607D01*
X022001Y024589D01*
X022027Y024567D01*
X022051Y024542D01*
X022071Y024514D01*
X022089Y024484D01*
X022102Y024453D01*
X022112Y024420D01*
X022118Y024386D01*
X022120Y024352D01*
X022118Y024318D01*
X022112Y024284D01*
X022102Y024251D01*
X022089Y024220D01*
X022071Y024190D01*
X022051Y024162D01*
X022027Y024137D01*
X022001Y024115D01*
X021973Y024097D01*
X021942Y024081D01*
X021910Y024069D01*
X021876Y024061D01*
X021842Y024057D01*
X021808Y024057D01*
X021774Y024061D01*
X021740Y024069D01*
X021708Y024081D01*
X021677Y024097D01*
X021649Y024115D01*
X021623Y024137D01*
X021599Y024162D01*
X021579Y024190D01*
X021561Y024220D01*
X021548Y024251D01*
X021538Y024284D01*
X021532Y024318D01*
X021530Y024352D01*
X021530Y028289D02*
X021532Y028323D01*
X021538Y028357D01*
X021548Y028390D01*
X021561Y028421D01*
X021579Y028451D01*
X021599Y028479D01*
X021623Y028504D01*
X021649Y028526D01*
X021677Y028544D01*
X021708Y028560D01*
X021740Y028572D01*
X021774Y028580D01*
X021808Y028584D01*
X021842Y028584D01*
X021876Y028580D01*
X021910Y028572D01*
X021942Y028560D01*
X021972Y028544D01*
X022001Y028526D01*
X022027Y028504D01*
X022051Y028479D01*
X022071Y028451D01*
X022089Y028421D01*
X022102Y028390D01*
X022112Y028357D01*
X022118Y028323D01*
X022120Y028289D01*
X022118Y028255D01*
X022112Y028221D01*
X022102Y028188D01*
X022089Y028157D01*
X022071Y028127D01*
X022051Y028099D01*
X022027Y028074D01*
X022001Y028052D01*
X021973Y028034D01*
X021942Y028018D01*
X021910Y028006D01*
X021876Y027998D01*
X021842Y027994D01*
X021808Y027994D01*
X021774Y027998D01*
X021740Y028006D01*
X021708Y028018D01*
X021677Y028034D01*
X021649Y028052D01*
X021623Y028074D01*
X021599Y028099D01*
X021579Y028127D01*
X021561Y028157D01*
X021548Y028188D01*
X021538Y028221D01*
X021532Y028255D01*
X021530Y028289D01*
X021077Y029273D02*
X021079Y029310D01*
X021085Y029347D01*
X021094Y029382D01*
X021108Y029417D01*
X021124Y029450D01*
X021145Y029481D01*
X021168Y029510D01*
X021194Y029536D01*
X021223Y029559D01*
X021254Y029580D01*
X021287Y029596D01*
X021322Y029610D01*
X021357Y029619D01*
X021394Y029625D01*
X021431Y029627D01*
X021468Y029625D01*
X021505Y029619D01*
X021540Y029610D01*
X021575Y029596D01*
X021608Y029580D01*
X021639Y029559D01*
X021668Y029536D01*
X021694Y029510D01*
X021717Y029481D01*
X021738Y029450D01*
X021754Y029417D01*
X021768Y029382D01*
X021777Y029347D01*
X021783Y029310D01*
X021785Y029273D01*
X021783Y029236D01*
X021777Y029199D01*
X021768Y029164D01*
X021754Y029129D01*
X021738Y029096D01*
X021717Y029065D01*
X021694Y029036D01*
X021668Y029010D01*
X021639Y028987D01*
X021608Y028966D01*
X021575Y028950D01*
X021540Y028936D01*
X021505Y028927D01*
X021468Y028921D01*
X021431Y028919D01*
X021394Y028921D01*
X021357Y028927D01*
X021322Y028936D01*
X021287Y028950D01*
X021254Y028966D01*
X021223Y028987D01*
X021194Y029010D01*
X021168Y029036D01*
X021145Y029065D01*
X021124Y029096D01*
X021108Y029129D01*
X021094Y029164D01*
X021085Y029199D01*
X021079Y029236D01*
X021077Y029273D01*
X021037Y030651D02*
X021039Y030690D01*
X021045Y030729D01*
X021055Y030767D01*
X021068Y030804D01*
X021085Y030839D01*
X021105Y030873D01*
X021129Y030904D01*
X021156Y030933D01*
X021185Y030959D01*
X021217Y030982D01*
X021251Y031002D01*
X021287Y031018D01*
X021324Y031030D01*
X021363Y031039D01*
X021402Y031044D01*
X021441Y031045D01*
X021480Y031042D01*
X021519Y031035D01*
X021556Y031024D01*
X021593Y031010D01*
X021628Y030992D01*
X021661Y030971D01*
X021692Y030946D01*
X021720Y030919D01*
X021745Y030889D01*
X021767Y030856D01*
X021786Y030822D01*
X021801Y030786D01*
X021813Y030748D01*
X021821Y030710D01*
X021825Y030671D01*
X021825Y030631D01*
X021821Y030592D01*
X021813Y030554D01*
X021801Y030516D01*
X021786Y030480D01*
X021767Y030446D01*
X021745Y030413D01*
X021720Y030383D01*
X021692Y030356D01*
X021661Y030331D01*
X021628Y030310D01*
X021593Y030292D01*
X021556Y030278D01*
X021519Y030267D01*
X021480Y030260D01*
X021441Y030257D01*
X021402Y030258D01*
X021363Y030263D01*
X021324Y030272D01*
X021287Y030284D01*
X021251Y030300D01*
X021217Y030320D01*
X021185Y030343D01*
X021156Y030369D01*
X021129Y030398D01*
X021105Y030429D01*
X021085Y030463D01*
X021068Y030498D01*
X021055Y030535D01*
X021045Y030573D01*
X021039Y030612D01*
X021037Y030651D01*
X019226Y030651D02*
X019228Y030690D01*
X019234Y030729D01*
X019244Y030767D01*
X019257Y030804D01*
X019274Y030839D01*
X019294Y030873D01*
X019318Y030904D01*
X019345Y030933D01*
X019374Y030959D01*
X019406Y030982D01*
X019440Y031002D01*
X019476Y031018D01*
X019513Y031030D01*
X019552Y031039D01*
X019591Y031044D01*
X019630Y031045D01*
X019669Y031042D01*
X019708Y031035D01*
X019745Y031024D01*
X019782Y031010D01*
X019817Y030992D01*
X019850Y030971D01*
X019881Y030946D01*
X019909Y030919D01*
X019934Y030889D01*
X019956Y030856D01*
X019975Y030822D01*
X019990Y030786D01*
X020002Y030748D01*
X020010Y030710D01*
X020014Y030671D01*
X020014Y030631D01*
X020010Y030592D01*
X020002Y030554D01*
X019990Y030516D01*
X019975Y030480D01*
X019956Y030446D01*
X019934Y030413D01*
X019909Y030383D01*
X019881Y030356D01*
X019850Y030331D01*
X019817Y030310D01*
X019782Y030292D01*
X019745Y030278D01*
X019708Y030267D01*
X019669Y030260D01*
X019630Y030257D01*
X019591Y030258D01*
X019552Y030263D01*
X019513Y030272D01*
X019476Y030284D01*
X019440Y030300D01*
X019406Y030320D01*
X019374Y030343D01*
X019345Y030369D01*
X019318Y030398D01*
X019294Y030429D01*
X019274Y030463D01*
X019257Y030498D01*
X019244Y030535D01*
X019234Y030573D01*
X019228Y030612D01*
X019226Y030651D01*
X018061Y028624D02*
X018063Y028668D01*
X018069Y028712D01*
X018079Y028755D01*
X018092Y028797D01*
X018110Y028837D01*
X018131Y028876D01*
X018155Y028913D01*
X018182Y028948D01*
X018213Y028980D01*
X018246Y029009D01*
X018282Y029035D01*
X018320Y029057D01*
X018360Y029076D01*
X018401Y029092D01*
X018444Y029104D01*
X018487Y029112D01*
X018531Y029116D01*
X018575Y029116D01*
X018619Y029112D01*
X018662Y029104D01*
X018705Y029092D01*
X018746Y029076D01*
X018786Y029057D01*
X018824Y029035D01*
X018860Y029009D01*
X018893Y028980D01*
X018924Y028948D01*
X018951Y028913D01*
X018975Y028876D01*
X018996Y028837D01*
X019014Y028797D01*
X019027Y028755D01*
X019037Y028712D01*
X019043Y028668D01*
X019045Y028624D01*
X019043Y028580D01*
X019037Y028536D01*
X019027Y028493D01*
X019014Y028451D01*
X018996Y028411D01*
X018975Y028372D01*
X018951Y028335D01*
X018924Y028300D01*
X018893Y028268D01*
X018860Y028239D01*
X018824Y028213D01*
X018786Y028191D01*
X018746Y028172D01*
X018705Y028156D01*
X018662Y028144D01*
X018619Y028136D01*
X018575Y028132D01*
X018531Y028132D01*
X018487Y028136D01*
X018444Y028144D01*
X018401Y028156D01*
X018360Y028172D01*
X018320Y028191D01*
X018282Y028213D01*
X018246Y028239D01*
X018213Y028268D01*
X018182Y028300D01*
X018155Y028335D01*
X018131Y028372D01*
X018110Y028411D01*
X018092Y028451D01*
X018079Y028493D01*
X018069Y028536D01*
X018063Y028580D01*
X018061Y028624D01*
X030892Y024943D02*
X030894Y024991D01*
X030900Y025039D01*
X030910Y025086D01*
X030923Y025132D01*
X030941Y025177D01*
X030961Y025221D01*
X030986Y025263D01*
X031014Y025302D01*
X031044Y025339D01*
X031078Y025373D01*
X031115Y025405D01*
X031153Y025434D01*
X031194Y025459D01*
X031237Y025481D01*
X031282Y025499D01*
X031328Y025513D01*
X031375Y025524D01*
X031423Y025531D01*
X031471Y025534D01*
X031519Y025533D01*
X031567Y025528D01*
X031615Y025519D01*
X031661Y025507D01*
X031706Y025490D01*
X031750Y025470D01*
X031792Y025447D01*
X031832Y025420D01*
X031870Y025390D01*
X031905Y025357D01*
X031937Y025321D01*
X031967Y025283D01*
X031993Y025242D01*
X032015Y025199D01*
X032035Y025155D01*
X032050Y025110D01*
X032062Y025063D01*
X032070Y025015D01*
X032074Y024967D01*
X032074Y024919D01*
X032070Y024871D01*
X032062Y024823D01*
X032050Y024776D01*
X032035Y024731D01*
X032015Y024687D01*
X031993Y024644D01*
X031967Y024603D01*
X031937Y024565D01*
X031905Y024529D01*
X031870Y024496D01*
X031832Y024466D01*
X031792Y024439D01*
X031750Y024416D01*
X031706Y024396D01*
X031661Y024379D01*
X031615Y024367D01*
X031567Y024358D01*
X031519Y024353D01*
X031471Y024352D01*
X031423Y024355D01*
X031375Y024362D01*
X031328Y024373D01*
X031282Y024387D01*
X031237Y024405D01*
X031194Y024427D01*
X031153Y024452D01*
X031115Y024481D01*
X031078Y024513D01*
X031044Y024547D01*
X031014Y024584D01*
X030986Y024623D01*
X030961Y024665D01*
X030941Y024709D01*
X030923Y024754D01*
X030910Y024800D01*
X030900Y024847D01*
X030894Y024895D01*
X030892Y024943D01*
X033892Y023198D02*
X033894Y023248D01*
X033900Y023298D01*
X033910Y023347D01*
X033924Y023395D01*
X033941Y023442D01*
X033962Y023487D01*
X033987Y023531D01*
X034015Y023572D01*
X034047Y023611D01*
X034081Y023648D01*
X034118Y023682D01*
X034158Y023712D01*
X034200Y023739D01*
X034244Y023763D01*
X034290Y023784D01*
X034337Y023800D01*
X034385Y023813D01*
X034435Y023822D01*
X034484Y023827D01*
X034535Y023828D01*
X034585Y023825D01*
X034634Y023818D01*
X034683Y023807D01*
X034731Y023792D01*
X034777Y023774D01*
X034822Y023752D01*
X034865Y023726D01*
X034906Y023697D01*
X034945Y023665D01*
X034981Y023630D01*
X035013Y023592D01*
X035043Y023552D01*
X035070Y023509D01*
X035093Y023465D01*
X035112Y023419D01*
X035128Y023371D01*
X035140Y023322D01*
X035148Y023273D01*
X035152Y023223D01*
X035152Y023173D01*
X035148Y023123D01*
X035140Y023074D01*
X035128Y023025D01*
X035112Y022977D01*
X035093Y022931D01*
X035070Y022887D01*
X035043Y022844D01*
X035013Y022804D01*
X034981Y022766D01*
X034945Y022731D01*
X034906Y022699D01*
X034865Y022670D01*
X034822Y022644D01*
X034777Y022622D01*
X034731Y022604D01*
X034683Y022589D01*
X034634Y022578D01*
X034585Y022571D01*
X034535Y022568D01*
X034484Y022569D01*
X034435Y022574D01*
X034385Y022583D01*
X034337Y022596D01*
X034290Y022612D01*
X034244Y022633D01*
X034200Y022657D01*
X034158Y022684D01*
X034118Y022714D01*
X034081Y022748D01*
X034047Y022785D01*
X034015Y022824D01*
X033987Y022865D01*
X033962Y022909D01*
X033941Y022954D01*
X033924Y023001D01*
X033910Y023049D01*
X033900Y023098D01*
X033894Y023148D01*
X033892Y023198D01*
X035604Y021990D02*
X035606Y022029D01*
X035612Y022068D01*
X035622Y022106D01*
X035635Y022143D01*
X035652Y022178D01*
X035672Y022212D01*
X035696Y022243D01*
X035723Y022272D01*
X035752Y022298D01*
X035784Y022321D01*
X035818Y022341D01*
X035854Y022357D01*
X035891Y022369D01*
X035930Y022378D01*
X035969Y022383D01*
X036008Y022384D01*
X036047Y022381D01*
X036086Y022374D01*
X036123Y022363D01*
X036160Y022349D01*
X036195Y022331D01*
X036228Y022310D01*
X036259Y022285D01*
X036287Y022258D01*
X036312Y022228D01*
X036334Y022195D01*
X036353Y022161D01*
X036368Y022125D01*
X036380Y022087D01*
X036388Y022049D01*
X036392Y022010D01*
X036392Y021970D01*
X036388Y021931D01*
X036380Y021893D01*
X036368Y021855D01*
X036353Y021819D01*
X036334Y021785D01*
X036312Y021752D01*
X036287Y021722D01*
X036259Y021695D01*
X036228Y021670D01*
X036195Y021649D01*
X036160Y021631D01*
X036123Y021617D01*
X036086Y021606D01*
X036047Y021599D01*
X036008Y021596D01*
X035969Y021597D01*
X035930Y021602D01*
X035891Y021611D01*
X035854Y021623D01*
X035818Y021639D01*
X035784Y021659D01*
X035752Y021682D01*
X035723Y021708D01*
X035696Y021737D01*
X035672Y021768D01*
X035652Y021802D01*
X035635Y021837D01*
X035622Y021874D01*
X035612Y021912D01*
X035606Y021951D01*
X035604Y021990D01*
X035604Y020179D02*
X035606Y020218D01*
X035612Y020257D01*
X035622Y020295D01*
X035635Y020332D01*
X035652Y020367D01*
X035672Y020401D01*
X035696Y020432D01*
X035723Y020461D01*
X035752Y020487D01*
X035784Y020510D01*
X035818Y020530D01*
X035854Y020546D01*
X035891Y020558D01*
X035930Y020567D01*
X035969Y020572D01*
X036008Y020573D01*
X036047Y020570D01*
X036086Y020563D01*
X036123Y020552D01*
X036160Y020538D01*
X036195Y020520D01*
X036228Y020499D01*
X036259Y020474D01*
X036287Y020447D01*
X036312Y020417D01*
X036334Y020384D01*
X036353Y020350D01*
X036368Y020314D01*
X036380Y020276D01*
X036388Y020238D01*
X036392Y020199D01*
X036392Y020159D01*
X036388Y020120D01*
X036380Y020082D01*
X036368Y020044D01*
X036353Y020008D01*
X036334Y019974D01*
X036312Y019941D01*
X036287Y019911D01*
X036259Y019884D01*
X036228Y019859D01*
X036195Y019838D01*
X036160Y019820D01*
X036123Y019806D01*
X036086Y019795D01*
X036047Y019788D01*
X036008Y019785D01*
X035969Y019786D01*
X035930Y019791D01*
X035891Y019800D01*
X035854Y019812D01*
X035818Y019828D01*
X035784Y019848D01*
X035752Y019871D01*
X035723Y019897D01*
X035696Y019926D01*
X035672Y019957D01*
X035652Y019991D01*
X035635Y020026D01*
X035622Y020063D01*
X035612Y020101D01*
X035606Y020140D01*
X035604Y020179D01*
X034439Y018151D02*
X034441Y018195D01*
X034447Y018239D01*
X034457Y018282D01*
X034470Y018324D01*
X034488Y018364D01*
X034509Y018403D01*
X034533Y018440D01*
X034560Y018475D01*
X034591Y018507D01*
X034624Y018536D01*
X034660Y018562D01*
X034698Y018584D01*
X034738Y018603D01*
X034779Y018619D01*
X034822Y018631D01*
X034865Y018639D01*
X034909Y018643D01*
X034953Y018643D01*
X034997Y018639D01*
X035040Y018631D01*
X035083Y018619D01*
X035124Y018603D01*
X035164Y018584D01*
X035202Y018562D01*
X035238Y018536D01*
X035271Y018507D01*
X035302Y018475D01*
X035329Y018440D01*
X035353Y018403D01*
X035374Y018364D01*
X035392Y018324D01*
X035405Y018282D01*
X035415Y018239D01*
X035421Y018195D01*
X035423Y018151D01*
X035421Y018107D01*
X035415Y018063D01*
X035405Y018020D01*
X035392Y017978D01*
X035374Y017938D01*
X035353Y017899D01*
X035329Y017862D01*
X035302Y017827D01*
X035271Y017795D01*
X035238Y017766D01*
X035202Y017740D01*
X035164Y017718D01*
X035124Y017699D01*
X035083Y017683D01*
X035040Y017671D01*
X034997Y017663D01*
X034953Y017659D01*
X034909Y017659D01*
X034865Y017663D01*
X034822Y017671D01*
X034779Y017683D01*
X034738Y017699D01*
X034698Y017718D01*
X034660Y017740D01*
X034624Y017766D01*
X034591Y017795D01*
X034560Y017827D01*
X034533Y017862D01*
X034509Y017899D01*
X034488Y017938D01*
X034470Y017978D01*
X034457Y018020D01*
X034447Y018063D01*
X034441Y018107D01*
X034439Y018151D01*
X030892Y014470D02*
X030894Y014518D01*
X030900Y014566D01*
X030910Y014613D01*
X030923Y014659D01*
X030941Y014704D01*
X030961Y014748D01*
X030986Y014790D01*
X031014Y014829D01*
X031044Y014866D01*
X031078Y014900D01*
X031115Y014932D01*
X031153Y014961D01*
X031194Y014986D01*
X031237Y015008D01*
X031282Y015026D01*
X031328Y015040D01*
X031375Y015051D01*
X031423Y015058D01*
X031471Y015061D01*
X031519Y015060D01*
X031567Y015055D01*
X031615Y015046D01*
X031661Y015034D01*
X031706Y015017D01*
X031750Y014997D01*
X031792Y014974D01*
X031832Y014947D01*
X031870Y014917D01*
X031905Y014884D01*
X031937Y014848D01*
X031967Y014810D01*
X031993Y014769D01*
X032015Y014726D01*
X032035Y014682D01*
X032050Y014637D01*
X032062Y014590D01*
X032070Y014542D01*
X032074Y014494D01*
X032074Y014446D01*
X032070Y014398D01*
X032062Y014350D01*
X032050Y014303D01*
X032035Y014258D01*
X032015Y014214D01*
X031993Y014171D01*
X031967Y014130D01*
X031937Y014092D01*
X031905Y014056D01*
X031870Y014023D01*
X031832Y013993D01*
X031792Y013966D01*
X031750Y013943D01*
X031706Y013923D01*
X031661Y013906D01*
X031615Y013894D01*
X031567Y013885D01*
X031519Y013880D01*
X031471Y013879D01*
X031423Y013882D01*
X031375Y013889D01*
X031328Y013900D01*
X031282Y013914D01*
X031237Y013932D01*
X031194Y013954D01*
X031153Y013979D01*
X031115Y014008D01*
X031078Y014040D01*
X031044Y014074D01*
X031014Y014111D01*
X030986Y014150D01*
X030961Y014192D01*
X030941Y014236D01*
X030923Y014281D01*
X030910Y014327D01*
X030900Y014374D01*
X030894Y014422D01*
X030892Y014470D01*
X033892Y012726D02*
X033894Y012776D01*
X033900Y012826D01*
X033910Y012875D01*
X033924Y012923D01*
X033941Y012970D01*
X033962Y013015D01*
X033987Y013059D01*
X034015Y013100D01*
X034047Y013139D01*
X034081Y013176D01*
X034118Y013210D01*
X034158Y013240D01*
X034200Y013267D01*
X034244Y013291D01*
X034290Y013312D01*
X034337Y013328D01*
X034385Y013341D01*
X034435Y013350D01*
X034484Y013355D01*
X034535Y013356D01*
X034585Y013353D01*
X034634Y013346D01*
X034683Y013335D01*
X034731Y013320D01*
X034777Y013302D01*
X034822Y013280D01*
X034865Y013254D01*
X034906Y013225D01*
X034945Y013193D01*
X034981Y013158D01*
X035013Y013120D01*
X035043Y013080D01*
X035070Y013037D01*
X035093Y012993D01*
X035112Y012947D01*
X035128Y012899D01*
X035140Y012850D01*
X035148Y012801D01*
X035152Y012751D01*
X035152Y012701D01*
X035148Y012651D01*
X035140Y012602D01*
X035128Y012553D01*
X035112Y012505D01*
X035093Y012459D01*
X035070Y012415D01*
X035043Y012372D01*
X035013Y012332D01*
X034981Y012294D01*
X034945Y012259D01*
X034906Y012227D01*
X034865Y012198D01*
X034822Y012172D01*
X034777Y012150D01*
X034731Y012132D01*
X034683Y012117D01*
X034634Y012106D01*
X034585Y012099D01*
X034535Y012096D01*
X034484Y012097D01*
X034435Y012102D01*
X034385Y012111D01*
X034337Y012124D01*
X034290Y012140D01*
X034244Y012161D01*
X034200Y012185D01*
X034158Y012212D01*
X034118Y012242D01*
X034081Y012276D01*
X034047Y012313D01*
X034015Y012352D01*
X033987Y012393D01*
X033962Y012437D01*
X033941Y012482D01*
X033924Y012529D01*
X033910Y012577D01*
X033900Y012626D01*
X033894Y012676D01*
X033892Y012726D01*
X035604Y011517D02*
X035606Y011556D01*
X035612Y011595D01*
X035622Y011633D01*
X035635Y011670D01*
X035652Y011705D01*
X035672Y011739D01*
X035696Y011770D01*
X035723Y011799D01*
X035752Y011825D01*
X035784Y011848D01*
X035818Y011868D01*
X035854Y011884D01*
X035891Y011896D01*
X035930Y011905D01*
X035969Y011910D01*
X036008Y011911D01*
X036047Y011908D01*
X036086Y011901D01*
X036123Y011890D01*
X036160Y011876D01*
X036195Y011858D01*
X036228Y011837D01*
X036259Y011812D01*
X036287Y011785D01*
X036312Y011755D01*
X036334Y011722D01*
X036353Y011688D01*
X036368Y011652D01*
X036380Y011614D01*
X036388Y011576D01*
X036392Y011537D01*
X036392Y011497D01*
X036388Y011458D01*
X036380Y011420D01*
X036368Y011382D01*
X036353Y011346D01*
X036334Y011312D01*
X036312Y011279D01*
X036287Y011249D01*
X036259Y011222D01*
X036228Y011197D01*
X036195Y011176D01*
X036160Y011158D01*
X036123Y011144D01*
X036086Y011133D01*
X036047Y011126D01*
X036008Y011123D01*
X035969Y011124D01*
X035930Y011129D01*
X035891Y011138D01*
X035854Y011150D01*
X035818Y011166D01*
X035784Y011186D01*
X035752Y011209D01*
X035723Y011235D01*
X035696Y011264D01*
X035672Y011295D01*
X035652Y011329D01*
X035635Y011364D01*
X035622Y011401D01*
X035612Y011439D01*
X035606Y011478D01*
X035604Y011517D01*
X035604Y009706D02*
X035606Y009745D01*
X035612Y009784D01*
X035622Y009822D01*
X035635Y009859D01*
X035652Y009894D01*
X035672Y009928D01*
X035696Y009959D01*
X035723Y009988D01*
X035752Y010014D01*
X035784Y010037D01*
X035818Y010057D01*
X035854Y010073D01*
X035891Y010085D01*
X035930Y010094D01*
X035969Y010099D01*
X036008Y010100D01*
X036047Y010097D01*
X036086Y010090D01*
X036123Y010079D01*
X036160Y010065D01*
X036195Y010047D01*
X036228Y010026D01*
X036259Y010001D01*
X036287Y009974D01*
X036312Y009944D01*
X036334Y009911D01*
X036353Y009877D01*
X036368Y009841D01*
X036380Y009803D01*
X036388Y009765D01*
X036392Y009726D01*
X036392Y009686D01*
X036388Y009647D01*
X036380Y009609D01*
X036368Y009571D01*
X036353Y009535D01*
X036334Y009501D01*
X036312Y009468D01*
X036287Y009438D01*
X036259Y009411D01*
X036228Y009386D01*
X036195Y009365D01*
X036160Y009347D01*
X036123Y009333D01*
X036086Y009322D01*
X036047Y009315D01*
X036008Y009312D01*
X035969Y009313D01*
X035930Y009318D01*
X035891Y009327D01*
X035854Y009339D01*
X035818Y009355D01*
X035784Y009375D01*
X035752Y009398D01*
X035723Y009424D01*
X035696Y009453D01*
X035672Y009484D01*
X035652Y009518D01*
X035635Y009553D01*
X035622Y009590D01*
X035612Y009628D01*
X035606Y009667D01*
X035604Y009706D01*
X034439Y007679D02*
X034441Y007723D01*
X034447Y007767D01*
X034457Y007810D01*
X034470Y007852D01*
X034488Y007892D01*
X034509Y007931D01*
X034533Y007968D01*
X034560Y008003D01*
X034591Y008035D01*
X034624Y008064D01*
X034660Y008090D01*
X034698Y008112D01*
X034738Y008131D01*
X034779Y008147D01*
X034822Y008159D01*
X034865Y008167D01*
X034909Y008171D01*
X034953Y008171D01*
X034997Y008167D01*
X035040Y008159D01*
X035083Y008147D01*
X035124Y008131D01*
X035164Y008112D01*
X035202Y008090D01*
X035238Y008064D01*
X035271Y008035D01*
X035302Y008003D01*
X035329Y007968D01*
X035353Y007931D01*
X035374Y007892D01*
X035392Y007852D01*
X035405Y007810D01*
X035415Y007767D01*
X035421Y007723D01*
X035423Y007679D01*
X035421Y007635D01*
X035415Y007591D01*
X035405Y007548D01*
X035392Y007506D01*
X035374Y007466D01*
X035353Y007427D01*
X035329Y007390D01*
X035302Y007355D01*
X035271Y007323D01*
X035238Y007294D01*
X035202Y007268D01*
X035164Y007246D01*
X035124Y007227D01*
X035083Y007211D01*
X035040Y007199D01*
X034997Y007191D01*
X034953Y007187D01*
X034909Y007187D01*
X034865Y007191D01*
X034822Y007199D01*
X034779Y007211D01*
X034738Y007227D01*
X034698Y007246D01*
X034660Y007268D01*
X034624Y007294D01*
X034591Y007323D01*
X034560Y007355D01*
X034533Y007390D01*
X034509Y007427D01*
X034488Y007466D01*
X034470Y007506D01*
X034457Y007548D01*
X034447Y007591D01*
X034441Y007635D01*
X034439Y007679D01*
X030892Y003998D02*
X030894Y004046D01*
X030900Y004094D01*
X030910Y004141D01*
X030923Y004187D01*
X030941Y004232D01*
X030961Y004276D01*
X030986Y004318D01*
X031014Y004357D01*
X031044Y004394D01*
X031078Y004428D01*
X031115Y004460D01*
X031153Y004489D01*
X031194Y004514D01*
X031237Y004536D01*
X031282Y004554D01*
X031328Y004568D01*
X031375Y004579D01*
X031423Y004586D01*
X031471Y004589D01*
X031519Y004588D01*
X031567Y004583D01*
X031615Y004574D01*
X031661Y004562D01*
X031706Y004545D01*
X031750Y004525D01*
X031792Y004502D01*
X031832Y004475D01*
X031870Y004445D01*
X031905Y004412D01*
X031937Y004376D01*
X031967Y004338D01*
X031993Y004297D01*
X032015Y004254D01*
X032035Y004210D01*
X032050Y004165D01*
X032062Y004118D01*
X032070Y004070D01*
X032074Y004022D01*
X032074Y003974D01*
X032070Y003926D01*
X032062Y003878D01*
X032050Y003831D01*
X032035Y003786D01*
X032015Y003742D01*
X031993Y003699D01*
X031967Y003658D01*
X031937Y003620D01*
X031905Y003584D01*
X031870Y003551D01*
X031832Y003521D01*
X031792Y003494D01*
X031750Y003471D01*
X031706Y003451D01*
X031661Y003434D01*
X031615Y003422D01*
X031567Y003413D01*
X031519Y003408D01*
X031471Y003407D01*
X031423Y003410D01*
X031375Y003417D01*
X031328Y003428D01*
X031282Y003442D01*
X031237Y003460D01*
X031194Y003482D01*
X031153Y003507D01*
X031115Y003536D01*
X031078Y003568D01*
X031044Y003602D01*
X031014Y003639D01*
X030986Y003678D01*
X030961Y003720D01*
X030941Y003764D01*
X030923Y003809D01*
X030910Y003855D01*
X030900Y003902D01*
X030894Y003950D01*
X030892Y003998D01*
X033892Y002254D02*
X033894Y002304D01*
X033900Y002354D01*
X033910Y002403D01*
X033924Y002451D01*
X033941Y002498D01*
X033962Y002543D01*
X033987Y002587D01*
X034015Y002628D01*
X034047Y002667D01*
X034081Y002704D01*
X034118Y002738D01*
X034158Y002768D01*
X034200Y002795D01*
X034244Y002819D01*
X034290Y002840D01*
X034337Y002856D01*
X034385Y002869D01*
X034435Y002878D01*
X034484Y002883D01*
X034535Y002884D01*
X034585Y002881D01*
X034634Y002874D01*
X034683Y002863D01*
X034731Y002848D01*
X034777Y002830D01*
X034822Y002808D01*
X034865Y002782D01*
X034906Y002753D01*
X034945Y002721D01*
X034981Y002686D01*
X035013Y002648D01*
X035043Y002608D01*
X035070Y002565D01*
X035093Y002521D01*
X035112Y002475D01*
X035128Y002427D01*
X035140Y002378D01*
X035148Y002329D01*
X035152Y002279D01*
X035152Y002229D01*
X035148Y002179D01*
X035140Y002130D01*
X035128Y002081D01*
X035112Y002033D01*
X035093Y001987D01*
X035070Y001943D01*
X035043Y001900D01*
X035013Y001860D01*
X034981Y001822D01*
X034945Y001787D01*
X034906Y001755D01*
X034865Y001726D01*
X034822Y001700D01*
X034777Y001678D01*
X034731Y001660D01*
X034683Y001645D01*
X034634Y001634D01*
X034585Y001627D01*
X034535Y001624D01*
X034484Y001625D01*
X034435Y001630D01*
X034385Y001639D01*
X034337Y001652D01*
X034290Y001668D01*
X034244Y001689D01*
X034200Y001713D01*
X034158Y001740D01*
X034118Y001770D01*
X034081Y001804D01*
X034047Y001841D01*
X034015Y001880D01*
X033987Y001921D01*
X033962Y001965D01*
X033941Y002010D01*
X033924Y002057D01*
X033910Y002105D01*
X033900Y002154D01*
X033894Y002204D01*
X033892Y002254D01*
X035604Y001045D02*
X035606Y001084D01*
X035612Y001123D01*
X035622Y001161D01*
X035635Y001198D01*
X035652Y001233D01*
X035672Y001267D01*
X035696Y001298D01*
X035723Y001327D01*
X035752Y001353D01*
X035784Y001376D01*
X035818Y001396D01*
X035854Y001412D01*
X035891Y001424D01*
X035930Y001433D01*
X035969Y001438D01*
X036008Y001439D01*
X036047Y001436D01*
X036086Y001429D01*
X036123Y001418D01*
X036160Y001404D01*
X036195Y001386D01*
X036228Y001365D01*
X036259Y001340D01*
X036287Y001313D01*
X036312Y001283D01*
X036334Y001250D01*
X036353Y001216D01*
X036368Y001180D01*
X036380Y001142D01*
X036388Y001104D01*
X036392Y001065D01*
X036392Y001025D01*
X036388Y000986D01*
X036380Y000948D01*
X036368Y000910D01*
X036353Y000874D01*
X036334Y000840D01*
X036312Y000807D01*
X036287Y000777D01*
X036259Y000750D01*
X036228Y000725D01*
X036195Y000704D01*
X036160Y000686D01*
X036123Y000672D01*
X036086Y000661D01*
X036047Y000654D01*
X036008Y000651D01*
X035969Y000652D01*
X035930Y000657D01*
X035891Y000666D01*
X035854Y000678D01*
X035818Y000694D01*
X035784Y000714D01*
X035752Y000737D01*
X035723Y000763D01*
X035696Y000792D01*
X035672Y000823D01*
X035652Y000857D01*
X035635Y000892D01*
X035622Y000929D01*
X035612Y000967D01*
X035606Y001006D01*
X035604Y001045D01*
X021530Y003407D02*
X021532Y003441D01*
X021538Y003475D01*
X021548Y003508D01*
X021561Y003539D01*
X021579Y003569D01*
X021599Y003597D01*
X021623Y003622D01*
X021649Y003644D01*
X021677Y003662D01*
X021708Y003678D01*
X021740Y003690D01*
X021774Y003698D01*
X021808Y003702D01*
X021842Y003702D01*
X021876Y003698D01*
X021910Y003690D01*
X021942Y003678D01*
X021972Y003662D01*
X022001Y003644D01*
X022027Y003622D01*
X022051Y003597D01*
X022071Y003569D01*
X022089Y003539D01*
X022102Y003508D01*
X022112Y003475D01*
X022118Y003441D01*
X022120Y003407D01*
X022118Y003373D01*
X022112Y003339D01*
X022102Y003306D01*
X022089Y003275D01*
X022071Y003245D01*
X022051Y003217D01*
X022027Y003192D01*
X022001Y003170D01*
X021973Y003152D01*
X021942Y003136D01*
X021910Y003124D01*
X021876Y003116D01*
X021842Y003112D01*
X021808Y003112D01*
X021774Y003116D01*
X021740Y003124D01*
X021708Y003136D01*
X021677Y003152D01*
X021649Y003170D01*
X021623Y003192D01*
X021599Y003217D01*
X021579Y003245D01*
X021561Y003275D01*
X021548Y003306D01*
X021538Y003339D01*
X021532Y003373D01*
X021530Y003407D01*
X021077Y002423D02*
X021079Y002460D01*
X021085Y002497D01*
X021094Y002532D01*
X021108Y002567D01*
X021124Y002600D01*
X021145Y002631D01*
X021168Y002660D01*
X021194Y002686D01*
X021223Y002709D01*
X021254Y002730D01*
X021287Y002746D01*
X021322Y002760D01*
X021357Y002769D01*
X021394Y002775D01*
X021431Y002777D01*
X021468Y002775D01*
X021505Y002769D01*
X021540Y002760D01*
X021575Y002746D01*
X021608Y002730D01*
X021639Y002709D01*
X021668Y002686D01*
X021694Y002660D01*
X021717Y002631D01*
X021738Y002600D01*
X021754Y002567D01*
X021768Y002532D01*
X021777Y002497D01*
X021783Y002460D01*
X021785Y002423D01*
X021783Y002386D01*
X021777Y002349D01*
X021768Y002314D01*
X021754Y002279D01*
X021738Y002246D01*
X021717Y002215D01*
X021694Y002186D01*
X021668Y002160D01*
X021639Y002137D01*
X021608Y002116D01*
X021575Y002100D01*
X021540Y002086D01*
X021505Y002077D01*
X021468Y002071D01*
X021431Y002069D01*
X021394Y002071D01*
X021357Y002077D01*
X021322Y002086D01*
X021287Y002100D01*
X021254Y002116D01*
X021223Y002137D01*
X021194Y002160D01*
X021168Y002186D01*
X021145Y002215D01*
X021124Y002246D01*
X021108Y002279D01*
X021094Y002314D01*
X021085Y002349D01*
X021079Y002386D01*
X021077Y002423D01*
X021037Y001045D02*
X021039Y001084D01*
X021045Y001123D01*
X021055Y001161D01*
X021068Y001198D01*
X021085Y001233D01*
X021105Y001267D01*
X021129Y001298D01*
X021156Y001327D01*
X021185Y001353D01*
X021217Y001376D01*
X021251Y001396D01*
X021287Y001412D01*
X021324Y001424D01*
X021363Y001433D01*
X021402Y001438D01*
X021441Y001439D01*
X021480Y001436D01*
X021519Y001429D01*
X021556Y001418D01*
X021593Y001404D01*
X021628Y001386D01*
X021661Y001365D01*
X021692Y001340D01*
X021720Y001313D01*
X021745Y001283D01*
X021767Y001250D01*
X021786Y001216D01*
X021801Y001180D01*
X021813Y001142D01*
X021821Y001104D01*
X021825Y001065D01*
X021825Y001025D01*
X021821Y000986D01*
X021813Y000948D01*
X021801Y000910D01*
X021786Y000874D01*
X021767Y000840D01*
X021745Y000807D01*
X021720Y000777D01*
X021692Y000750D01*
X021661Y000725D01*
X021628Y000704D01*
X021593Y000686D01*
X021556Y000672D01*
X021519Y000661D01*
X021480Y000654D01*
X021441Y000651D01*
X021402Y000652D01*
X021363Y000657D01*
X021324Y000666D01*
X021287Y000678D01*
X021251Y000694D01*
X021217Y000714D01*
X021185Y000737D01*
X021156Y000763D01*
X021129Y000792D01*
X021105Y000823D01*
X021085Y000857D01*
X021068Y000892D01*
X021055Y000929D01*
X021045Y000967D01*
X021039Y001006D01*
X021037Y001045D01*
X019226Y001045D02*
X019228Y001084D01*
X019234Y001123D01*
X019244Y001161D01*
X019257Y001198D01*
X019274Y001233D01*
X019294Y001267D01*
X019318Y001298D01*
X019345Y001327D01*
X019374Y001353D01*
X019406Y001376D01*
X019440Y001396D01*
X019476Y001412D01*
X019513Y001424D01*
X019552Y001433D01*
X019591Y001438D01*
X019630Y001439D01*
X019669Y001436D01*
X019708Y001429D01*
X019745Y001418D01*
X019782Y001404D01*
X019817Y001386D01*
X019850Y001365D01*
X019881Y001340D01*
X019909Y001313D01*
X019934Y001283D01*
X019956Y001250D01*
X019975Y001216D01*
X019990Y001180D01*
X020002Y001142D01*
X020010Y001104D01*
X020014Y001065D01*
X020014Y001025D01*
X020010Y000986D01*
X020002Y000948D01*
X019990Y000910D01*
X019975Y000874D01*
X019956Y000840D01*
X019934Y000807D01*
X019909Y000777D01*
X019881Y000750D01*
X019850Y000725D01*
X019817Y000704D01*
X019782Y000686D01*
X019745Y000672D01*
X019708Y000661D01*
X019669Y000654D01*
X019630Y000651D01*
X019591Y000652D01*
X019552Y000657D01*
X019513Y000666D01*
X019476Y000678D01*
X019440Y000694D01*
X019406Y000714D01*
X019374Y000737D01*
X019345Y000763D01*
X019318Y000792D01*
X019294Y000823D01*
X019274Y000857D01*
X019257Y000892D01*
X019244Y000929D01*
X019234Y000967D01*
X019228Y001006D01*
X019226Y001045D01*
X017514Y002254D02*
X017516Y002304D01*
X017522Y002354D01*
X017532Y002403D01*
X017546Y002451D01*
X017563Y002498D01*
X017584Y002543D01*
X017609Y002587D01*
X017637Y002628D01*
X017669Y002667D01*
X017703Y002704D01*
X017740Y002738D01*
X017780Y002768D01*
X017822Y002795D01*
X017866Y002819D01*
X017912Y002840D01*
X017959Y002856D01*
X018007Y002869D01*
X018057Y002878D01*
X018106Y002883D01*
X018157Y002884D01*
X018207Y002881D01*
X018256Y002874D01*
X018305Y002863D01*
X018353Y002848D01*
X018399Y002830D01*
X018444Y002808D01*
X018487Y002782D01*
X018528Y002753D01*
X018567Y002721D01*
X018603Y002686D01*
X018635Y002648D01*
X018665Y002608D01*
X018692Y002565D01*
X018715Y002521D01*
X018734Y002475D01*
X018750Y002427D01*
X018762Y002378D01*
X018770Y002329D01*
X018774Y002279D01*
X018774Y002229D01*
X018770Y002179D01*
X018762Y002130D01*
X018750Y002081D01*
X018734Y002033D01*
X018715Y001987D01*
X018692Y001943D01*
X018665Y001900D01*
X018635Y001860D01*
X018603Y001822D01*
X018567Y001787D01*
X018528Y001755D01*
X018487Y001726D01*
X018444Y001700D01*
X018399Y001678D01*
X018353Y001660D01*
X018305Y001645D01*
X018256Y001634D01*
X018207Y001627D01*
X018157Y001624D01*
X018106Y001625D01*
X018057Y001630D01*
X018007Y001639D01*
X017959Y001652D01*
X017912Y001668D01*
X017866Y001689D01*
X017822Y001713D01*
X017780Y001740D01*
X017740Y001770D01*
X017703Y001804D01*
X017669Y001841D01*
X017637Y001880D01*
X017609Y001921D01*
X017584Y001965D01*
X017563Y002010D01*
X017546Y002057D01*
X017532Y002105D01*
X017522Y002154D01*
X017516Y002204D01*
X017514Y002254D01*
X014514Y003998D02*
X014516Y004046D01*
X014522Y004094D01*
X014532Y004141D01*
X014545Y004187D01*
X014563Y004232D01*
X014583Y004276D01*
X014608Y004318D01*
X014636Y004357D01*
X014666Y004394D01*
X014700Y004428D01*
X014737Y004460D01*
X014775Y004489D01*
X014816Y004514D01*
X014859Y004536D01*
X014904Y004554D01*
X014950Y004568D01*
X014997Y004579D01*
X015045Y004586D01*
X015093Y004589D01*
X015141Y004588D01*
X015189Y004583D01*
X015237Y004574D01*
X015283Y004562D01*
X015328Y004545D01*
X015372Y004525D01*
X015414Y004502D01*
X015454Y004475D01*
X015492Y004445D01*
X015527Y004412D01*
X015559Y004376D01*
X015589Y004338D01*
X015615Y004297D01*
X015637Y004254D01*
X015657Y004210D01*
X015672Y004165D01*
X015684Y004118D01*
X015692Y004070D01*
X015696Y004022D01*
X015696Y003974D01*
X015692Y003926D01*
X015684Y003878D01*
X015672Y003831D01*
X015657Y003786D01*
X015637Y003742D01*
X015615Y003699D01*
X015589Y003658D01*
X015559Y003620D01*
X015527Y003584D01*
X015492Y003551D01*
X015454Y003521D01*
X015414Y003494D01*
X015372Y003471D01*
X015328Y003451D01*
X015283Y003434D01*
X015237Y003422D01*
X015189Y003413D01*
X015141Y003408D01*
X015093Y003407D01*
X015045Y003410D01*
X014997Y003417D01*
X014950Y003428D01*
X014904Y003442D01*
X014859Y003460D01*
X014816Y003482D01*
X014775Y003507D01*
X014737Y003536D01*
X014700Y003568D01*
X014666Y003602D01*
X014636Y003639D01*
X014608Y003678D01*
X014583Y003720D01*
X014563Y003764D01*
X014545Y003809D01*
X014532Y003855D01*
X014522Y003902D01*
X014516Y003950D01*
X014514Y003998D01*
X018061Y007679D02*
X018063Y007723D01*
X018069Y007767D01*
X018079Y007810D01*
X018092Y007852D01*
X018110Y007892D01*
X018131Y007931D01*
X018155Y007968D01*
X018182Y008003D01*
X018213Y008035D01*
X018246Y008064D01*
X018282Y008090D01*
X018320Y008112D01*
X018360Y008131D01*
X018401Y008147D01*
X018444Y008159D01*
X018487Y008167D01*
X018531Y008171D01*
X018575Y008171D01*
X018619Y008167D01*
X018662Y008159D01*
X018705Y008147D01*
X018746Y008131D01*
X018786Y008112D01*
X018824Y008090D01*
X018860Y008064D01*
X018893Y008035D01*
X018924Y008003D01*
X018951Y007968D01*
X018975Y007931D01*
X018996Y007892D01*
X019014Y007852D01*
X019027Y007810D01*
X019037Y007767D01*
X019043Y007723D01*
X019045Y007679D01*
X019043Y007635D01*
X019037Y007591D01*
X019027Y007548D01*
X019014Y007506D01*
X018996Y007466D01*
X018975Y007427D01*
X018951Y007390D01*
X018924Y007355D01*
X018893Y007323D01*
X018860Y007294D01*
X018824Y007268D01*
X018786Y007246D01*
X018746Y007227D01*
X018705Y007211D01*
X018662Y007199D01*
X018619Y007191D01*
X018575Y007187D01*
X018531Y007187D01*
X018487Y007191D01*
X018444Y007199D01*
X018401Y007211D01*
X018360Y007227D01*
X018320Y007246D01*
X018282Y007268D01*
X018246Y007294D01*
X018213Y007323D01*
X018182Y007355D01*
X018155Y007390D01*
X018131Y007427D01*
X018110Y007466D01*
X018092Y007506D01*
X018079Y007548D01*
X018069Y007591D01*
X018063Y007635D01*
X018061Y007679D01*
X019226Y009706D02*
X019228Y009745D01*
X019234Y009784D01*
X019244Y009822D01*
X019257Y009859D01*
X019274Y009894D01*
X019294Y009928D01*
X019318Y009959D01*
X019345Y009988D01*
X019374Y010014D01*
X019406Y010037D01*
X019440Y010057D01*
X019476Y010073D01*
X019513Y010085D01*
X019552Y010094D01*
X019591Y010099D01*
X019630Y010100D01*
X019669Y010097D01*
X019708Y010090D01*
X019745Y010079D01*
X019782Y010065D01*
X019817Y010047D01*
X019850Y010026D01*
X019881Y010001D01*
X019909Y009974D01*
X019934Y009944D01*
X019956Y009911D01*
X019975Y009877D01*
X019990Y009841D01*
X020002Y009803D01*
X020010Y009765D01*
X020014Y009726D01*
X020014Y009686D01*
X020010Y009647D01*
X020002Y009609D01*
X019990Y009571D01*
X019975Y009535D01*
X019956Y009501D01*
X019934Y009468D01*
X019909Y009438D01*
X019881Y009411D01*
X019850Y009386D01*
X019817Y009365D01*
X019782Y009347D01*
X019745Y009333D01*
X019708Y009322D01*
X019669Y009315D01*
X019630Y009312D01*
X019591Y009313D01*
X019552Y009318D01*
X019513Y009327D01*
X019476Y009339D01*
X019440Y009355D01*
X019406Y009375D01*
X019374Y009398D01*
X019345Y009424D01*
X019318Y009453D01*
X019294Y009484D01*
X019274Y009518D01*
X019257Y009553D01*
X019244Y009590D01*
X019234Y009628D01*
X019228Y009667D01*
X019226Y009706D01*
X019226Y011517D02*
X019228Y011556D01*
X019234Y011595D01*
X019244Y011633D01*
X019257Y011670D01*
X019274Y011705D01*
X019294Y011739D01*
X019318Y011770D01*
X019345Y011799D01*
X019374Y011825D01*
X019406Y011848D01*
X019440Y011868D01*
X019476Y011884D01*
X019513Y011896D01*
X019552Y011905D01*
X019591Y011910D01*
X019630Y011911D01*
X019669Y011908D01*
X019708Y011901D01*
X019745Y011890D01*
X019782Y011876D01*
X019817Y011858D01*
X019850Y011837D01*
X019881Y011812D01*
X019909Y011785D01*
X019934Y011755D01*
X019956Y011722D01*
X019975Y011688D01*
X019990Y011652D01*
X020002Y011614D01*
X020010Y011576D01*
X020014Y011537D01*
X020014Y011497D01*
X020010Y011458D01*
X020002Y011420D01*
X019990Y011382D01*
X019975Y011346D01*
X019956Y011312D01*
X019934Y011279D01*
X019909Y011249D01*
X019881Y011222D01*
X019850Y011197D01*
X019817Y011176D01*
X019782Y011158D01*
X019745Y011144D01*
X019708Y011133D01*
X019669Y011126D01*
X019630Y011123D01*
X019591Y011124D01*
X019552Y011129D01*
X019513Y011138D01*
X019476Y011150D01*
X019440Y011166D01*
X019406Y011186D01*
X019374Y011209D01*
X019345Y011235D01*
X019318Y011264D01*
X019294Y011295D01*
X019274Y011329D01*
X019257Y011364D01*
X019244Y011401D01*
X019234Y011439D01*
X019228Y011478D01*
X019226Y011517D01*
X017514Y012726D02*
X017516Y012776D01*
X017522Y012826D01*
X017532Y012875D01*
X017546Y012923D01*
X017563Y012970D01*
X017584Y013015D01*
X017609Y013059D01*
X017637Y013100D01*
X017669Y013139D01*
X017703Y013176D01*
X017740Y013210D01*
X017780Y013240D01*
X017822Y013267D01*
X017866Y013291D01*
X017912Y013312D01*
X017959Y013328D01*
X018007Y013341D01*
X018057Y013350D01*
X018106Y013355D01*
X018157Y013356D01*
X018207Y013353D01*
X018256Y013346D01*
X018305Y013335D01*
X018353Y013320D01*
X018399Y013302D01*
X018444Y013280D01*
X018487Y013254D01*
X018528Y013225D01*
X018567Y013193D01*
X018603Y013158D01*
X018635Y013120D01*
X018665Y013080D01*
X018692Y013037D01*
X018715Y012993D01*
X018734Y012947D01*
X018750Y012899D01*
X018762Y012850D01*
X018770Y012801D01*
X018774Y012751D01*
X018774Y012701D01*
X018770Y012651D01*
X018762Y012602D01*
X018750Y012553D01*
X018734Y012505D01*
X018715Y012459D01*
X018692Y012415D01*
X018665Y012372D01*
X018635Y012332D01*
X018603Y012294D01*
X018567Y012259D01*
X018528Y012227D01*
X018487Y012198D01*
X018444Y012172D01*
X018399Y012150D01*
X018353Y012132D01*
X018305Y012117D01*
X018256Y012106D01*
X018207Y012099D01*
X018157Y012096D01*
X018106Y012097D01*
X018057Y012102D01*
X018007Y012111D01*
X017959Y012124D01*
X017912Y012140D01*
X017866Y012161D01*
X017822Y012185D01*
X017780Y012212D01*
X017740Y012242D01*
X017703Y012276D01*
X017669Y012313D01*
X017637Y012352D01*
X017609Y012393D01*
X017584Y012437D01*
X017563Y012482D01*
X017546Y012529D01*
X017532Y012577D01*
X017522Y012626D01*
X017516Y012676D01*
X017514Y012726D01*
X014514Y014470D02*
X014516Y014518D01*
X014522Y014566D01*
X014532Y014613D01*
X014545Y014659D01*
X014563Y014704D01*
X014583Y014748D01*
X014608Y014790D01*
X014636Y014829D01*
X014666Y014866D01*
X014700Y014900D01*
X014737Y014932D01*
X014775Y014961D01*
X014816Y014986D01*
X014859Y015008D01*
X014904Y015026D01*
X014950Y015040D01*
X014997Y015051D01*
X015045Y015058D01*
X015093Y015061D01*
X015141Y015060D01*
X015189Y015055D01*
X015237Y015046D01*
X015283Y015034D01*
X015328Y015017D01*
X015372Y014997D01*
X015414Y014974D01*
X015454Y014947D01*
X015492Y014917D01*
X015527Y014884D01*
X015559Y014848D01*
X015589Y014810D01*
X015615Y014769D01*
X015637Y014726D01*
X015657Y014682D01*
X015672Y014637D01*
X015684Y014590D01*
X015692Y014542D01*
X015696Y014494D01*
X015696Y014446D01*
X015692Y014398D01*
X015684Y014350D01*
X015672Y014303D01*
X015657Y014258D01*
X015637Y014214D01*
X015615Y014171D01*
X015589Y014130D01*
X015559Y014092D01*
X015527Y014056D01*
X015492Y014023D01*
X015454Y013993D01*
X015414Y013966D01*
X015372Y013943D01*
X015328Y013923D01*
X015283Y013906D01*
X015237Y013894D01*
X015189Y013885D01*
X015141Y013880D01*
X015093Y013879D01*
X015045Y013882D01*
X014997Y013889D01*
X014950Y013900D01*
X014904Y013914D01*
X014859Y013932D01*
X014816Y013954D01*
X014775Y013979D01*
X014737Y014008D01*
X014700Y014040D01*
X014666Y014074D01*
X014636Y014111D01*
X014608Y014150D01*
X014583Y014192D01*
X014563Y014236D01*
X014545Y014281D01*
X014532Y014327D01*
X014522Y014374D01*
X014516Y014422D01*
X014514Y014470D01*
X021077Y012895D02*
X021079Y012932D01*
X021085Y012969D01*
X021094Y013004D01*
X021108Y013039D01*
X021124Y013072D01*
X021145Y013103D01*
X021168Y013132D01*
X021194Y013158D01*
X021223Y013181D01*
X021254Y013202D01*
X021287Y013218D01*
X021322Y013232D01*
X021357Y013241D01*
X021394Y013247D01*
X021431Y013249D01*
X021468Y013247D01*
X021505Y013241D01*
X021540Y013232D01*
X021575Y013218D01*
X021608Y013202D01*
X021639Y013181D01*
X021668Y013158D01*
X021694Y013132D01*
X021717Y013103D01*
X021738Y013072D01*
X021754Y013039D01*
X021768Y013004D01*
X021777Y012969D01*
X021783Y012932D01*
X021785Y012895D01*
X021783Y012858D01*
X021777Y012821D01*
X021768Y012786D01*
X021754Y012751D01*
X021738Y012718D01*
X021717Y012687D01*
X021694Y012658D01*
X021668Y012632D01*
X021639Y012609D01*
X021608Y012588D01*
X021575Y012572D01*
X021540Y012558D01*
X021505Y012549D01*
X021468Y012543D01*
X021431Y012541D01*
X021394Y012543D01*
X021357Y012549D01*
X021322Y012558D01*
X021287Y012572D01*
X021254Y012588D01*
X021223Y012609D01*
X021194Y012632D01*
X021168Y012658D01*
X021145Y012687D01*
X021124Y012718D01*
X021108Y012751D01*
X021094Y012786D01*
X021085Y012821D01*
X021079Y012858D01*
X021077Y012895D01*
X021530Y013880D02*
X021532Y013914D01*
X021538Y013948D01*
X021548Y013981D01*
X021561Y014012D01*
X021579Y014042D01*
X021599Y014070D01*
X021623Y014095D01*
X021649Y014117D01*
X021677Y014135D01*
X021708Y014151D01*
X021740Y014163D01*
X021774Y014171D01*
X021808Y014175D01*
X021842Y014175D01*
X021876Y014171D01*
X021910Y014163D01*
X021942Y014151D01*
X021972Y014135D01*
X022001Y014117D01*
X022027Y014095D01*
X022051Y014070D01*
X022071Y014042D01*
X022089Y014012D01*
X022102Y013981D01*
X022112Y013948D01*
X022118Y013914D01*
X022120Y013880D01*
X022118Y013846D01*
X022112Y013812D01*
X022102Y013779D01*
X022089Y013748D01*
X022071Y013718D01*
X022051Y013690D01*
X022027Y013665D01*
X022001Y013643D01*
X021973Y013625D01*
X021942Y013609D01*
X021910Y013597D01*
X021876Y013589D01*
X021842Y013585D01*
X021808Y013585D01*
X021774Y013589D01*
X021740Y013597D01*
X021708Y013609D01*
X021677Y013625D01*
X021649Y013643D01*
X021623Y013665D01*
X021599Y013690D01*
X021579Y013718D01*
X021561Y013748D01*
X021548Y013779D01*
X021538Y013812D01*
X021532Y013846D01*
X021530Y013880D01*
X021037Y011517D02*
X021039Y011556D01*
X021045Y011595D01*
X021055Y011633D01*
X021068Y011670D01*
X021085Y011705D01*
X021105Y011739D01*
X021129Y011770D01*
X021156Y011799D01*
X021185Y011825D01*
X021217Y011848D01*
X021251Y011868D01*
X021287Y011884D01*
X021324Y011896D01*
X021363Y011905D01*
X021402Y011910D01*
X021441Y011911D01*
X021480Y011908D01*
X021519Y011901D01*
X021556Y011890D01*
X021593Y011876D01*
X021628Y011858D01*
X021661Y011837D01*
X021692Y011812D01*
X021720Y011785D01*
X021745Y011755D01*
X021767Y011722D01*
X021786Y011688D01*
X021801Y011652D01*
X021813Y011614D01*
X021821Y011576D01*
X021825Y011537D01*
X021825Y011497D01*
X021821Y011458D01*
X021813Y011420D01*
X021801Y011382D01*
X021786Y011346D01*
X021767Y011312D01*
X021745Y011279D01*
X021720Y011249D01*
X021692Y011222D01*
X021661Y011197D01*
X021628Y011176D01*
X021593Y011158D01*
X021556Y011144D01*
X021519Y011133D01*
X021480Y011126D01*
X021441Y011123D01*
X021402Y011124D01*
X021363Y011129D01*
X021324Y011138D01*
X021287Y011150D01*
X021251Y011166D01*
X021217Y011186D01*
X021185Y011209D01*
X021156Y011235D01*
X021129Y011264D01*
X021105Y011295D01*
X021085Y011329D01*
X021068Y011364D01*
X021055Y011401D01*
X021045Y011439D01*
X021039Y011478D01*
X021037Y011517D01*
X021037Y009706D02*
X021039Y009745D01*
X021045Y009784D01*
X021055Y009822D01*
X021068Y009859D01*
X021085Y009894D01*
X021105Y009928D01*
X021129Y009959D01*
X021156Y009988D01*
X021185Y010014D01*
X021217Y010037D01*
X021251Y010057D01*
X021287Y010073D01*
X021324Y010085D01*
X021363Y010094D01*
X021402Y010099D01*
X021441Y010100D01*
X021480Y010097D01*
X021519Y010090D01*
X021556Y010079D01*
X021593Y010065D01*
X021628Y010047D01*
X021661Y010026D01*
X021692Y010001D01*
X021720Y009974D01*
X021745Y009944D01*
X021767Y009911D01*
X021786Y009877D01*
X021801Y009841D01*
X021813Y009803D01*
X021821Y009765D01*
X021825Y009726D01*
X021825Y009686D01*
X021821Y009647D01*
X021813Y009609D01*
X021801Y009571D01*
X021786Y009535D01*
X021767Y009501D01*
X021745Y009468D01*
X021720Y009438D01*
X021692Y009411D01*
X021661Y009386D01*
X021628Y009365D01*
X021593Y009347D01*
X021556Y009333D01*
X021519Y009322D01*
X021480Y009315D01*
X021441Y009312D01*
X021402Y009313D01*
X021363Y009318D01*
X021324Y009327D01*
X021287Y009339D01*
X021251Y009355D01*
X021217Y009375D01*
X021185Y009398D01*
X021156Y009424D01*
X021129Y009453D01*
X021105Y009484D01*
X021085Y009518D01*
X021068Y009553D01*
X021055Y009590D01*
X021045Y009628D01*
X021039Y009667D01*
X021037Y009706D01*
X021077Y008328D02*
X021079Y008365D01*
X021085Y008402D01*
X021094Y008437D01*
X021108Y008472D01*
X021124Y008505D01*
X021145Y008536D01*
X021168Y008565D01*
X021194Y008591D01*
X021223Y008614D01*
X021254Y008635D01*
X021287Y008651D01*
X021322Y008665D01*
X021357Y008674D01*
X021394Y008680D01*
X021431Y008682D01*
X021468Y008680D01*
X021505Y008674D01*
X021540Y008665D01*
X021575Y008651D01*
X021608Y008635D01*
X021639Y008614D01*
X021668Y008591D01*
X021694Y008565D01*
X021717Y008536D01*
X021738Y008505D01*
X021754Y008472D01*
X021768Y008437D01*
X021777Y008402D01*
X021783Y008365D01*
X021785Y008328D01*
X021783Y008291D01*
X021777Y008254D01*
X021768Y008219D01*
X021754Y008184D01*
X021738Y008151D01*
X021717Y008120D01*
X021694Y008091D01*
X021668Y008065D01*
X021639Y008042D01*
X021608Y008021D01*
X021575Y008005D01*
X021540Y007991D01*
X021505Y007982D01*
X021468Y007976D01*
X021431Y007974D01*
X021394Y007976D01*
X021357Y007982D01*
X021322Y007991D01*
X021287Y008005D01*
X021254Y008021D01*
X021223Y008042D01*
X021194Y008065D01*
X021168Y008091D01*
X021145Y008120D01*
X021124Y008151D01*
X021108Y008184D01*
X021094Y008219D01*
X021085Y008254D01*
X021079Y008291D01*
X021077Y008328D01*
X021530Y007344D02*
X021532Y007378D01*
X021538Y007412D01*
X021548Y007445D01*
X021561Y007476D01*
X021579Y007506D01*
X021599Y007534D01*
X021623Y007559D01*
X021649Y007581D01*
X021677Y007599D01*
X021708Y007615D01*
X021740Y007627D01*
X021774Y007635D01*
X021808Y007639D01*
X021842Y007639D01*
X021876Y007635D01*
X021910Y007627D01*
X021942Y007615D01*
X021972Y007599D01*
X022001Y007581D01*
X022027Y007559D01*
X022051Y007534D01*
X022071Y007506D01*
X022089Y007476D01*
X022102Y007445D01*
X022112Y007412D01*
X022118Y007378D01*
X022120Y007344D01*
X022118Y007310D01*
X022112Y007276D01*
X022102Y007243D01*
X022089Y007212D01*
X022071Y007182D01*
X022051Y007154D01*
X022027Y007129D01*
X022001Y007107D01*
X021973Y007089D01*
X021942Y007073D01*
X021910Y007061D01*
X021876Y007053D01*
X021842Y007049D01*
X021808Y007049D01*
X021774Y007053D01*
X021740Y007061D01*
X021708Y007073D01*
X021677Y007089D01*
X021649Y007107D01*
X021623Y007129D01*
X021599Y007154D01*
X021579Y007182D01*
X021561Y007212D01*
X021548Y007243D01*
X021538Y007276D01*
X021532Y007310D01*
X021530Y007344D01*
X034439Y028624D02*
X034441Y028668D01*
X034447Y028712D01*
X034457Y028755D01*
X034470Y028797D01*
X034488Y028837D01*
X034509Y028876D01*
X034533Y028913D01*
X034560Y028948D01*
X034591Y028980D01*
X034624Y029009D01*
X034660Y029035D01*
X034698Y029057D01*
X034738Y029076D01*
X034779Y029092D01*
X034822Y029104D01*
X034865Y029112D01*
X034909Y029116D01*
X034953Y029116D01*
X034997Y029112D01*
X035040Y029104D01*
X035083Y029092D01*
X035124Y029076D01*
X035164Y029057D01*
X035202Y029035D01*
X035238Y029009D01*
X035271Y028980D01*
X035302Y028948D01*
X035329Y028913D01*
X035353Y028876D01*
X035374Y028837D01*
X035392Y028797D01*
X035405Y028755D01*
X035415Y028712D01*
X035421Y028668D01*
X035423Y028624D01*
X035421Y028580D01*
X035415Y028536D01*
X035405Y028493D01*
X035392Y028451D01*
X035374Y028411D01*
X035353Y028372D01*
X035329Y028335D01*
X035302Y028300D01*
X035271Y028268D01*
X035238Y028239D01*
X035202Y028213D01*
X035164Y028191D01*
X035124Y028172D01*
X035083Y028156D01*
X035040Y028144D01*
X034997Y028136D01*
X034953Y028132D01*
X034909Y028132D01*
X034865Y028136D01*
X034822Y028144D01*
X034779Y028156D01*
X034738Y028172D01*
X034698Y028191D01*
X034660Y028213D01*
X034624Y028239D01*
X034591Y028268D01*
X034560Y028300D01*
X034533Y028335D01*
X034509Y028372D01*
X034488Y028411D01*
X034470Y028451D01*
X034457Y028493D01*
X034447Y028536D01*
X034441Y028580D01*
X034439Y028624D01*
X035604Y030651D02*
X035606Y030690D01*
X035612Y030729D01*
X035622Y030767D01*
X035635Y030804D01*
X035652Y030839D01*
X035672Y030873D01*
X035696Y030904D01*
X035723Y030933D01*
X035752Y030959D01*
X035784Y030982D01*
X035818Y031002D01*
X035854Y031018D01*
X035891Y031030D01*
X035930Y031039D01*
X035969Y031044D01*
X036008Y031045D01*
X036047Y031042D01*
X036086Y031035D01*
X036123Y031024D01*
X036160Y031010D01*
X036195Y030992D01*
X036228Y030971D01*
X036259Y030946D01*
X036287Y030919D01*
X036312Y030889D01*
X036334Y030856D01*
X036353Y030822D01*
X036368Y030786D01*
X036380Y030748D01*
X036388Y030710D01*
X036392Y030671D01*
X036392Y030631D01*
X036388Y030592D01*
X036380Y030554D01*
X036368Y030516D01*
X036353Y030480D01*
X036334Y030446D01*
X036312Y030413D01*
X036287Y030383D01*
X036259Y030356D01*
X036228Y030331D01*
X036195Y030310D01*
X036160Y030292D01*
X036123Y030278D01*
X036086Y030267D01*
X036047Y030260D01*
X036008Y030257D01*
X035969Y030258D01*
X035930Y030263D01*
X035891Y030272D01*
X035854Y030284D01*
X035818Y030300D01*
X035784Y030320D01*
X035752Y030343D01*
X035723Y030369D01*
X035696Y030398D01*
X035672Y030429D01*
X035652Y030463D01*
X035635Y030498D01*
X035622Y030535D01*
X035612Y030573D01*
X035606Y030612D01*
X035604Y030651D01*
D11*
X031057Y029757D03*
X031057Y028757D03*
X031057Y019285D03*
X031057Y018285D03*
X031057Y008813D03*
X031057Y007813D03*
X014679Y007813D03*
X014679Y008813D03*
X014679Y018285D03*
X014679Y019285D03*
X014679Y028757D03*
X014679Y029757D03*
D12*
X019845Y028820D03*
X019845Y027820D03*
X019845Y026820D03*
X019845Y025820D03*
X019845Y024820D03*
X019845Y023820D03*
X022935Y021817D03*
X023935Y021817D03*
X024935Y021817D03*
X025935Y021817D03*
X024644Y020348D03*
X023644Y020348D03*
X022644Y020348D03*
X019845Y018348D03*
X019845Y017348D03*
X019845Y016348D03*
X019845Y015348D03*
X019845Y014348D03*
X019845Y013348D03*
X022935Y011344D03*
X023935Y011344D03*
X024935Y011344D03*
X025935Y011344D03*
X024644Y009876D03*
X023644Y009876D03*
X022644Y009876D03*
X019845Y007876D03*
X019845Y006876D03*
X019845Y005876D03*
X019845Y004876D03*
X019845Y003876D03*
X019845Y002876D03*
X022935Y000872D03*
X023935Y000872D03*
X024935Y000872D03*
X025935Y000872D03*
X031542Y001943D03*
X032542Y001943D03*
X036223Y002876D03*
X036223Y003876D03*
X036223Y004876D03*
X036223Y005876D03*
X036223Y006876D03*
X036223Y007876D03*
X032542Y012415D03*
X031542Y012415D03*
X036223Y013348D03*
X036223Y014348D03*
X036223Y015348D03*
X036223Y016348D03*
X036223Y017348D03*
X036223Y018348D03*
X032542Y022887D03*
X031542Y022887D03*
X036223Y023820D03*
X036223Y024820D03*
X036223Y025820D03*
X036223Y026820D03*
X036223Y027820D03*
X036223Y028820D03*
X024644Y030820D03*
X023644Y030820D03*
X022644Y030820D03*
X016164Y022887D03*
X015164Y022887D03*
X009557Y021817D03*
X008557Y021817D03*
X007557Y021817D03*
X006557Y021817D03*
X006266Y020348D03*
X007266Y020348D03*
X008266Y020348D03*
X015164Y012415D03*
X016164Y012415D03*
X009557Y011344D03*
X008557Y011344D03*
X007557Y011344D03*
X006557Y011344D03*
X006266Y009876D03*
X007266Y009876D03*
X008266Y009876D03*
X015164Y001943D03*
X016164Y001943D03*
X009557Y000872D03*
X008557Y000872D03*
X007557Y000872D03*
X006557Y000872D03*
X006266Y030820D03*
X007266Y030820D03*
X008266Y030820D03*
D13*
X009518Y030820D03*
X011561Y030820D03*
X012561Y030820D03*
X013561Y030820D03*
X014561Y030820D03*
X015561Y030820D03*
X016561Y030820D03*
X017561Y030820D03*
X025896Y030820D03*
X027939Y030820D03*
X028939Y030820D03*
X029939Y030820D03*
X030939Y030820D03*
X031939Y030820D03*
X032939Y030820D03*
X033939Y030820D03*
X033939Y021820D03*
X032939Y021820D03*
X031939Y021820D03*
X030939Y021820D03*
X029939Y021820D03*
X028939Y021820D03*
X027939Y021820D03*
X027939Y020348D03*
X028939Y020348D03*
X029939Y020348D03*
X030939Y020348D03*
X031939Y020348D03*
X032939Y020348D03*
X033939Y020348D03*
X025896Y020348D03*
X017561Y020348D03*
X016561Y020348D03*
X015561Y020348D03*
X014561Y020348D03*
X013561Y020348D03*
X012561Y020348D03*
X011561Y020348D03*
X011561Y021820D03*
X012561Y021820D03*
X013561Y021820D03*
X014561Y021820D03*
X015561Y021820D03*
X016561Y021820D03*
X017561Y021820D03*
X009518Y020348D03*
X011561Y011348D03*
X012561Y011348D03*
X013561Y011348D03*
X014561Y011348D03*
X015561Y011348D03*
X016561Y011348D03*
X017561Y011348D03*
X017561Y009876D03*
X016561Y009876D03*
X015561Y009876D03*
X014561Y009876D03*
X013561Y009876D03*
X012561Y009876D03*
X011561Y009876D03*
X009518Y009876D03*
X011561Y000876D03*
X012561Y000876D03*
X013561Y000876D03*
X014561Y000876D03*
X015561Y000876D03*
X016561Y000876D03*
X017561Y000876D03*
X025896Y009876D03*
X027939Y009876D03*
X028939Y009876D03*
X029939Y009876D03*
X030939Y009876D03*
X031939Y009876D03*
X032939Y009876D03*
X033939Y009876D03*
X033939Y011348D03*
X032939Y011348D03*
X031939Y011348D03*
X030939Y011348D03*
X029939Y011348D03*
X028939Y011348D03*
X027939Y011348D03*
X027939Y000876D03*
X028939Y000876D03*
X029939Y000876D03*
X030939Y000876D03*
X031939Y000876D03*
X032939Y000876D03*
X033939Y000876D03*
D14*
X026939Y000876D03*
X026939Y009876D03*
X026939Y011348D03*
X026939Y020348D03*
X026939Y021820D03*
X026939Y030820D03*
X010561Y030820D03*
X010561Y021820D03*
X010561Y020348D03*
X010561Y011348D03*
X010561Y009876D03*
X010561Y000876D03*
D15*
X005711Y004372D03*
X004707Y005376D03*
X005711Y006379D03*
X005711Y014844D03*
X004707Y015848D03*
X005711Y016852D03*
X005711Y025317D03*
X004707Y026320D03*
X005711Y027324D03*
X021085Y026320D03*
X022089Y025317D03*
X022089Y027324D03*
X022089Y016852D03*
X021085Y015848D03*
X022089Y014844D03*
X022089Y006379D03*
X021085Y005376D03*
X022089Y004372D03*
D16*
X021585Y004376D03*
X021585Y006376D03*
X021585Y014848D03*
X021585Y016848D03*
X021585Y025320D03*
X021585Y027320D03*
X005207Y027320D03*
X005207Y025320D03*
X005207Y016848D03*
X005207Y014848D03*
X005207Y006376D03*
X005207Y004376D03*
D17*
X014396Y004635D03*
X014569Y003021D03*
X016931Y003021D03*
X014396Y006998D03*
X014569Y013494D03*
X014396Y015108D03*
X014396Y017470D03*
X016931Y013494D03*
X016931Y023966D03*
X014569Y023966D03*
X014396Y025580D03*
X014396Y027943D03*
X030774Y027943D03*
X030774Y025580D03*
X030947Y023966D03*
X033309Y023966D03*
X030774Y017470D03*
X030774Y015108D03*
X030947Y013494D03*
X033309Y013494D03*
X030774Y006998D03*
X030774Y004635D03*
X030947Y003021D03*
X033309Y003021D03*
D18*
X020939Y003415D03*
X020939Y003911D03*
X020935Y006832D03*
X020935Y007320D03*
X020939Y013887D03*
X020939Y014383D03*
X020935Y017305D03*
X020935Y017793D03*
X020939Y024360D03*
X020939Y024856D03*
X020935Y027777D03*
X020935Y028265D03*
X004557Y028265D03*
X004557Y027777D03*
X004561Y024856D03*
X004561Y024360D03*
X004557Y017793D03*
X004557Y017305D03*
X004561Y014383D03*
X004561Y013887D03*
X004557Y007320D03*
X004557Y006832D03*
X004561Y003911D03*
X004561Y003415D03*
D19*
X014372Y001946D03*
X016971Y001946D03*
X016971Y012419D03*
X014372Y012419D03*
X014372Y022891D03*
X016971Y022891D03*
X030750Y022891D03*
X033349Y022891D03*
X033349Y012419D03*
X030750Y012419D03*
X030750Y001946D03*
X033349Y001946D03*
D20*
X033112Y004309D03*
X033939Y004309D03*
X034766Y004309D03*
X034746Y008777D03*
X032857Y008777D03*
X033112Y014781D03*
X033939Y014781D03*
X034766Y014781D03*
X034746Y019250D03*
X032857Y019250D03*
X033112Y025254D03*
X033939Y025254D03*
X034766Y025254D03*
X034746Y029722D03*
X032857Y029722D03*
X018368Y029722D03*
X016479Y029722D03*
X016734Y025254D03*
X017561Y025254D03*
X018388Y025254D03*
X018368Y019250D03*
X016479Y019250D03*
X016734Y014781D03*
X017561Y014781D03*
X018388Y014781D03*
X018368Y008777D03*
X016479Y008777D03*
X016734Y004309D03*
X017561Y004309D03*
X018388Y004309D03*
D21*
X018927Y008781D03*
X015927Y008781D03*
X015927Y019254D03*
X018927Y019254D03*
X018927Y029726D03*
X015927Y029726D03*
X032305Y029726D03*
X035305Y029726D03*
X035305Y019254D03*
X032305Y019254D03*
X032305Y008781D03*
X035305Y008781D03*
D22*
X032864Y006679D03*
X032864Y006179D03*
X032864Y005679D03*
X032864Y016151D03*
X032864Y016651D03*
X032864Y017151D03*
X032864Y026624D03*
X032864Y027124D03*
X032864Y027624D03*
X016486Y027624D03*
X016486Y027124D03*
X016486Y026624D03*
X016486Y017151D03*
X016486Y016651D03*
X016486Y016151D03*
X016486Y006679D03*
X016486Y006179D03*
X016486Y005679D03*
D23*
X023849Y008045D02*
X023849Y008517D01*
X023849Y012612D02*
X023849Y013084D01*
X023849Y018518D02*
X023849Y018990D01*
X023849Y023084D02*
X023849Y023556D01*
X023849Y028990D02*
X023849Y029462D01*
X007471Y029462D02*
X007471Y028990D01*
X007471Y023556D02*
X007471Y023084D01*
X007471Y018990D02*
X007471Y018518D01*
X007471Y013084D02*
X007471Y012612D01*
X007471Y008517D02*
X007471Y008045D01*
X007471Y002612D02*
X007471Y002140D01*
X023849Y002140D02*
X023849Y002612D01*
D24*
X024636Y002650D02*
X024636Y002180D01*
X025423Y002180D02*
X025423Y002650D01*
X026211Y002611D02*
X026211Y002141D01*
X026998Y002141D02*
X026998Y002611D01*
X027786Y002611D02*
X027786Y002141D01*
X028573Y002141D02*
X028573Y002611D01*
X029360Y002611D02*
X029360Y002141D01*
X029360Y008046D02*
X029360Y008516D01*
X028573Y008516D02*
X028573Y008046D01*
X027786Y008046D02*
X027786Y008516D01*
X026998Y008516D02*
X026998Y008046D01*
X026211Y008046D02*
X026211Y008516D01*
X025423Y008516D02*
X025423Y008046D01*
X024636Y008046D02*
X024636Y008516D01*
X024636Y012652D02*
X024636Y013122D01*
X025423Y013122D02*
X025423Y012652D01*
X026211Y012613D02*
X026211Y013083D01*
X026998Y013083D02*
X026998Y012613D01*
X027786Y012613D02*
X027786Y013083D01*
X028573Y013083D02*
X028573Y012613D01*
X029360Y012613D02*
X029360Y013083D01*
X029360Y018519D02*
X029360Y018989D01*
X028573Y018989D02*
X028573Y018519D01*
X027786Y018519D02*
X027786Y018989D01*
X026998Y018989D02*
X026998Y018519D01*
X026211Y018519D02*
X026211Y018989D01*
X025423Y018989D02*
X025423Y018519D01*
X024636Y018519D02*
X024636Y018989D01*
X024636Y023125D02*
X024636Y023595D01*
X025423Y023595D02*
X025423Y023125D01*
X026211Y023085D02*
X026211Y023555D01*
X026998Y023555D02*
X026998Y023085D01*
X027786Y023085D02*
X027786Y023555D01*
X028573Y023555D02*
X028573Y023085D01*
X029360Y023085D02*
X029360Y023555D01*
X029360Y028991D02*
X029360Y029461D01*
X028573Y029461D02*
X028573Y028991D01*
X027786Y028991D02*
X027786Y029461D01*
X026998Y029461D02*
X026998Y028991D01*
X026211Y028991D02*
X026211Y029461D01*
X025423Y029461D02*
X025423Y028991D01*
X024636Y028991D02*
X024636Y029461D01*
X012983Y029461D02*
X012983Y028991D01*
X012195Y028991D02*
X012195Y029461D01*
X011408Y029461D02*
X011408Y028991D01*
X010620Y028991D02*
X010620Y029461D01*
X009833Y029461D02*
X009833Y028991D01*
X009046Y028991D02*
X009046Y029461D01*
X008258Y029461D02*
X008258Y028991D01*
X008258Y023595D02*
X008258Y023125D01*
X009046Y023125D02*
X009046Y023595D01*
X009833Y023555D02*
X009833Y023085D01*
X010620Y023085D02*
X010620Y023555D01*
X011408Y023555D02*
X011408Y023085D01*
X012195Y023085D02*
X012195Y023555D01*
X012983Y023555D02*
X012983Y023085D01*
X012983Y018989D02*
X012983Y018519D01*
X012195Y018519D02*
X012195Y018989D01*
X011408Y018989D02*
X011408Y018519D01*
X010620Y018519D02*
X010620Y018989D01*
X009833Y018989D02*
X009833Y018519D01*
X009046Y018519D02*
X009046Y018989D01*
X008258Y018989D02*
X008258Y018519D01*
X008258Y013122D02*
X008258Y012652D01*
X009046Y012652D02*
X009046Y013122D01*
X009833Y013083D02*
X009833Y012613D01*
X010620Y012613D02*
X010620Y013083D01*
X011408Y013083D02*
X011408Y012613D01*
X012195Y012613D02*
X012195Y013083D01*
X012983Y013083D02*
X012983Y012613D01*
X012983Y008516D02*
X012983Y008046D01*
X012195Y008046D02*
X012195Y008516D01*
X011408Y008516D02*
X011408Y008046D01*
X010620Y008046D02*
X010620Y008516D01*
X009833Y008516D02*
X009833Y008046D01*
X009046Y008046D02*
X009046Y008516D01*
X008258Y008516D02*
X008258Y008046D01*
X008258Y002650D02*
X008258Y002180D01*
X009046Y002180D02*
X009046Y002650D01*
X009833Y002611D02*
X009833Y002141D01*
X010620Y002141D02*
X010620Y002611D01*
X011408Y002611D02*
X011408Y002141D01*
X012195Y002141D02*
X012195Y002611D01*
X012983Y002611D02*
X012983Y002141D01*
D25*
X012967Y002226D02*
X012983Y002376D01*
X012967Y002383D01*
X012967Y006320D01*
X012888Y006320D01*
X012967Y006320D02*
X012967Y006596D01*
X013518Y007147D01*
X013518Y008722D01*
X013360Y008801D01*
X012927Y009234D01*
X013518Y008722D02*
X014542Y009746D01*
X014542Y009864D01*
X014561Y009876D01*
X014660Y008840D02*
X014679Y008813D01*
X014660Y008840D02*
X013951Y008131D01*
X013951Y005100D01*
X014384Y004667D01*
X014396Y004635D01*
X016234Y003998D02*
X016234Y005415D01*
X016471Y005651D01*
X016486Y005679D01*
X016274Y005691D01*
X015486Y006478D01*
X015486Y008486D01*
X015927Y008781D02*
X015959Y008801D01*
X016313Y008801D01*
X016479Y008777D01*
X016510Y008761D01*
X016510Y008407D01*
X016707Y008210D01*
X017297Y007659D02*
X017297Y005179D01*
X017967Y005651D02*
X017967Y006990D01*
X017770Y007187D01*
X017297Y007659D02*
X018282Y008643D01*
X018368Y008777D01*
X018400Y008801D01*
X018912Y008801D01*
X018927Y008781D01*
X017561Y009876D02*
X017534Y009864D01*
X017101Y009864D01*
X017101Y009628D01*
X016786Y009313D01*
X015723Y009313D01*
X016561Y011348D02*
X016549Y011360D01*
X016549Y011754D01*
X016156Y012147D01*
X016156Y012383D01*
X016164Y012415D01*
X016971Y012419D02*
X016983Y012423D01*
X016983Y012659D01*
X016943Y012698D01*
X016943Y013486D01*
X016931Y013494D01*
X017101Y013565D01*
X017652Y014116D01*
X016431Y014273D02*
X016234Y014470D01*
X016234Y015887D01*
X016471Y016124D01*
X016486Y016151D01*
X016274Y016163D01*
X015486Y016950D01*
X015486Y018958D01*
X015927Y019254D02*
X015959Y019273D01*
X016313Y019273D01*
X016479Y019250D01*
X016510Y019234D01*
X016510Y018880D01*
X016707Y018683D01*
X017297Y018131D02*
X017297Y015651D01*
X017967Y016124D02*
X017967Y017462D01*
X017770Y017659D01*
X017297Y018131D02*
X018282Y019116D01*
X018368Y019250D01*
X018400Y019273D01*
X018912Y019273D01*
X018927Y019254D01*
X017561Y020348D02*
X017534Y020336D01*
X017101Y020336D01*
X017101Y020100D01*
X016786Y019785D01*
X015723Y019785D01*
X014679Y019285D02*
X014660Y019313D01*
X013951Y018604D01*
X013951Y015572D01*
X014384Y015139D01*
X014396Y015108D01*
X012967Y016793D02*
X012888Y016793D01*
X012967Y016793D02*
X012967Y017069D01*
X013518Y017620D01*
X013518Y019194D01*
X013360Y019273D01*
X012927Y019706D01*
X013518Y019194D02*
X014542Y020218D01*
X014542Y020336D01*
X014561Y020348D01*
X016549Y021832D02*
X016549Y022226D01*
X016156Y022620D01*
X016156Y022856D01*
X016164Y022887D01*
X016971Y022891D02*
X016983Y022895D01*
X016983Y023131D01*
X016943Y023171D01*
X016943Y023958D01*
X016931Y023966D01*
X017101Y024037D01*
X017652Y024588D01*
X016431Y024746D02*
X016234Y024943D01*
X016234Y026360D01*
X016471Y026596D01*
X016486Y026624D01*
X016274Y026635D01*
X015486Y027423D01*
X015486Y029431D01*
X015927Y029726D02*
X015959Y029746D01*
X016313Y029746D01*
X016479Y029722D01*
X016510Y029706D01*
X016510Y029352D01*
X016707Y029155D01*
X017297Y028604D02*
X017297Y026124D01*
X017967Y026596D02*
X017967Y027935D01*
X017770Y028131D01*
X017297Y028604D02*
X018282Y029588D01*
X018368Y029722D01*
X018400Y029746D01*
X018912Y029746D01*
X018927Y029726D01*
X017561Y030820D02*
X017534Y030809D01*
X017101Y030809D01*
X017101Y030572D01*
X016786Y030257D01*
X015723Y030257D01*
X014679Y029757D02*
X014660Y029785D01*
X013951Y029076D01*
X013951Y026045D01*
X014384Y025612D01*
X014396Y025580D01*
X012967Y027265D02*
X012888Y027265D01*
X012967Y027265D02*
X012967Y027541D01*
X013518Y028092D01*
X013518Y029667D01*
X013360Y029746D01*
X012927Y030179D01*
X013518Y029667D02*
X014542Y030691D01*
X014542Y030809D01*
X014561Y030820D01*
X010998Y028840D02*
X010998Y028368D01*
X010841Y028368D01*
X010605Y028368D01*
X010998Y028368D02*
X010998Y027541D01*
X010998Y028840D02*
X010644Y029194D01*
X010620Y029226D01*
X012967Y027265D02*
X012967Y023328D01*
X012983Y023320D01*
X012967Y023171D01*
X012967Y022738D01*
X012691Y022462D01*
X016549Y021832D02*
X016561Y021820D01*
X017561Y021820D02*
X017573Y021832D01*
X018872Y021832D01*
X018872Y022541D01*
X019109Y022777D01*
X019109Y026517D01*
X018675Y025809D02*
X018675Y027541D01*
X018912Y027777D01*
X021585Y027320D02*
X021589Y027305D01*
X022061Y027305D01*
X022089Y027324D01*
X022101Y027147D01*
X022101Y025494D02*
X022089Y025317D01*
X022061Y025336D01*
X021589Y025336D01*
X021585Y025320D01*
X025132Y022620D02*
X025132Y022029D01*
X024935Y021832D01*
X024935Y021817D01*
X026998Y018754D02*
X027022Y018722D01*
X027376Y018368D01*
X027376Y017895D01*
X027219Y017895D01*
X026983Y017895D01*
X027376Y017895D02*
X027376Y017069D01*
X029266Y016793D02*
X029345Y016793D01*
X029345Y012856D01*
X029360Y012848D01*
X029345Y012698D01*
X029345Y012265D01*
X029069Y011990D01*
X030920Y009864D02*
X030939Y009876D01*
X030920Y009864D02*
X030920Y009746D01*
X029896Y008722D01*
X029738Y008801D01*
X029305Y009234D01*
X029896Y008722D02*
X029896Y007147D01*
X029345Y006596D01*
X029345Y006320D01*
X029266Y006320D01*
X029345Y006320D02*
X029345Y002383D01*
X029360Y002376D01*
X029345Y002226D01*
X029345Y001793D01*
X029069Y001517D01*
X030774Y004635D02*
X030762Y004667D01*
X030329Y005100D01*
X030329Y008131D01*
X031038Y008840D01*
X031057Y008813D01*
X031864Y008486D02*
X031864Y006478D01*
X032652Y005691D01*
X032864Y005679D01*
X032849Y005651D01*
X032612Y005415D01*
X032612Y003998D01*
X032809Y003801D01*
X033309Y003021D02*
X033479Y003092D01*
X034030Y003643D01*
X033321Y003013D02*
X033309Y003021D01*
X033321Y003013D02*
X033321Y002226D01*
X033360Y002187D01*
X033360Y001950D01*
X033349Y001946D01*
X032927Y001281D02*
X032534Y001675D01*
X032534Y001911D01*
X032542Y001943D01*
X032927Y001281D02*
X032927Y000887D01*
X032939Y000876D01*
X033939Y000876D02*
X033951Y000887D01*
X035250Y000887D01*
X035250Y001596D01*
X035486Y001832D01*
X035486Y005572D01*
X035053Y004864D02*
X035053Y006596D01*
X035290Y006832D01*
X034345Y006990D02*
X034345Y005651D01*
X033675Y005179D02*
X033675Y007659D01*
X034660Y008643D01*
X034746Y008777D01*
X034778Y008801D01*
X035290Y008801D01*
X035305Y008781D01*
X033939Y009876D02*
X033912Y009864D01*
X033479Y009864D01*
X033479Y009628D01*
X033164Y009313D01*
X032101Y009313D01*
X032337Y008801D02*
X032305Y008781D01*
X032337Y008801D02*
X032691Y008801D01*
X032857Y008777D01*
X032888Y008761D01*
X032888Y008407D01*
X033085Y008210D01*
X034148Y007187D02*
X034345Y006990D01*
X033939Y011348D02*
X033951Y011360D01*
X035250Y011360D01*
X035250Y012069D01*
X035486Y012305D01*
X035486Y016045D01*
X035053Y015336D02*
X035053Y017069D01*
X035290Y017305D01*
X034345Y017462D02*
X034345Y016124D01*
X033675Y015651D02*
X033675Y018131D01*
X034660Y019116D01*
X034746Y019250D01*
X034778Y019273D01*
X035290Y019273D01*
X035305Y019254D01*
X033939Y020348D02*
X033912Y020336D01*
X033479Y020336D01*
X033479Y020100D01*
X033164Y019785D01*
X032101Y019785D01*
X032337Y019273D02*
X032305Y019254D01*
X032337Y019273D02*
X032691Y019273D01*
X032857Y019250D01*
X032888Y019234D01*
X032888Y018880D01*
X033085Y018683D01*
X031864Y018958D02*
X031864Y016950D01*
X032652Y016163D01*
X032864Y016151D01*
X032849Y016124D01*
X032612Y015887D01*
X032612Y014470D01*
X032809Y014273D01*
X033309Y013494D02*
X033479Y013565D01*
X034030Y014116D01*
X033321Y013486D02*
X033309Y013494D01*
X033321Y013486D02*
X033321Y012698D01*
X033360Y012659D01*
X033360Y012423D01*
X033349Y012419D01*
X032927Y011754D02*
X032534Y012147D01*
X032534Y012383D01*
X032542Y012415D01*
X032927Y011754D02*
X032927Y011360D01*
X032939Y011348D01*
X030774Y015108D02*
X030762Y015139D01*
X030329Y015572D01*
X030329Y018604D01*
X031038Y019313D01*
X031057Y019285D01*
X030920Y020218D02*
X030920Y020336D01*
X030939Y020348D01*
X030920Y020218D02*
X029896Y019194D01*
X029738Y019273D01*
X029305Y019706D01*
X029896Y019194D02*
X029896Y017620D01*
X029345Y017069D01*
X029345Y016793D01*
X034148Y017659D02*
X034345Y017462D01*
X033939Y021820D02*
X033951Y021832D01*
X035250Y021832D01*
X035250Y022541D01*
X035486Y022777D01*
X035486Y026517D01*
X035053Y025809D02*
X035053Y027541D01*
X035290Y027777D01*
X034345Y027935D02*
X034345Y026596D01*
X033675Y026124D02*
X033675Y028604D01*
X034660Y029588D01*
X034746Y029722D01*
X034778Y029746D01*
X035290Y029746D01*
X035305Y029726D01*
X033939Y030820D02*
X033912Y030809D01*
X033479Y030809D01*
X033479Y030572D01*
X033164Y030257D01*
X032101Y030257D01*
X032337Y029746D02*
X032305Y029726D01*
X032337Y029746D02*
X032691Y029746D01*
X032857Y029722D01*
X032888Y029706D01*
X032888Y029352D01*
X033085Y029155D01*
X031864Y029431D02*
X031864Y027423D01*
X032652Y026635D01*
X032864Y026624D01*
X032849Y026596D01*
X032612Y026360D01*
X032612Y024943D01*
X032809Y024746D01*
X033309Y023966D02*
X033479Y024037D01*
X034030Y024588D01*
X033321Y023958D02*
X033309Y023966D01*
X033321Y023958D02*
X033321Y023171D01*
X033360Y023131D01*
X033360Y022895D01*
X033349Y022891D01*
X032927Y022226D02*
X032534Y022620D01*
X032534Y022856D01*
X032542Y022887D01*
X032927Y022226D02*
X032927Y021832D01*
X032939Y021820D01*
X029345Y022738D02*
X029345Y023171D01*
X029360Y023320D01*
X029345Y023328D01*
X029345Y027265D01*
X029266Y027265D01*
X029345Y027265D02*
X029345Y027541D01*
X029896Y028092D01*
X029896Y029667D01*
X029738Y029746D01*
X029305Y030179D01*
X029896Y029667D02*
X030920Y030691D01*
X030920Y030809D01*
X030939Y030820D01*
X031038Y029785D02*
X031057Y029757D01*
X031038Y029785D02*
X030329Y029076D01*
X030329Y026045D01*
X030762Y025612D01*
X030774Y025580D01*
X029345Y022738D02*
X029069Y022462D01*
X027376Y027541D02*
X027376Y028368D01*
X027219Y028368D01*
X026983Y028368D01*
X027376Y028368D02*
X027376Y028840D01*
X027022Y029194D01*
X026998Y029226D01*
X034148Y028131D02*
X034345Y027935D01*
X022089Y016852D02*
X022101Y016675D01*
X022061Y016832D02*
X022089Y016852D01*
X022061Y016832D02*
X021589Y016832D01*
X021585Y016848D01*
X022101Y015021D02*
X022089Y014844D01*
X022061Y014864D01*
X021589Y014864D01*
X021585Y014848D01*
X019109Y016045D02*
X019109Y012305D01*
X018872Y012069D01*
X018872Y011360D01*
X017573Y011360D01*
X017561Y011348D01*
X018675Y015336D02*
X018675Y017069D01*
X018912Y017305D01*
X012967Y016793D02*
X012967Y012856D01*
X012983Y012848D01*
X012967Y012698D01*
X012967Y012265D01*
X012691Y011990D01*
X008754Y012147D02*
X008754Y011557D01*
X008557Y011360D01*
X008557Y011344D01*
X010620Y008281D02*
X010644Y008250D01*
X010998Y007895D01*
X010998Y007423D01*
X010841Y007423D01*
X010605Y007423D01*
X010998Y007423D02*
X010998Y006596D01*
X012967Y002226D02*
X012967Y001793D01*
X012691Y001517D01*
X016156Y001675D02*
X016156Y001911D01*
X016164Y001943D01*
X016156Y001675D02*
X016549Y001281D01*
X016549Y000887D01*
X016561Y000876D01*
X017561Y000876D02*
X017573Y000887D01*
X018872Y000887D01*
X018872Y001596D01*
X019109Y001832D01*
X019109Y005572D01*
X018675Y004864D02*
X018675Y006596D01*
X018912Y006832D01*
X021585Y006376D02*
X021589Y006360D01*
X022061Y006360D01*
X022089Y006379D01*
X022101Y006202D01*
X022101Y004549D02*
X022089Y004372D01*
X022061Y004391D01*
X021589Y004391D01*
X021585Y004376D01*
X025132Y001675D02*
X025132Y001084D01*
X024935Y000887D01*
X024935Y000872D01*
X027376Y006596D02*
X027376Y007423D01*
X027219Y007423D01*
X026983Y007423D01*
X027376Y007423D02*
X027376Y007895D01*
X027022Y008250D01*
X026998Y008281D01*
X024935Y011344D02*
X024935Y011360D01*
X025132Y011557D01*
X025132Y012147D01*
X016431Y003801D02*
X016234Y003998D01*
X016931Y003021D02*
X017101Y003092D01*
X017652Y003643D01*
X016943Y003013D02*
X016931Y003021D01*
X016943Y003013D02*
X016943Y002226D01*
X016983Y002187D01*
X016983Y001950D01*
X016971Y001946D01*
X008754Y001675D02*
X008754Y001084D01*
X008557Y000887D01*
X008557Y000872D01*
X005711Y004372D02*
X005723Y004549D01*
X005683Y004391D02*
X005711Y004372D01*
X005683Y004391D02*
X005211Y004391D01*
X005207Y004376D01*
X005723Y006202D02*
X005711Y006379D01*
X005683Y006360D01*
X005211Y006360D01*
X005207Y006376D01*
X005207Y014848D02*
X005211Y014864D01*
X005683Y014864D01*
X005711Y014844D01*
X005723Y015021D01*
X005723Y016675D02*
X005711Y016852D01*
X005683Y016832D01*
X005211Y016832D01*
X005207Y016848D01*
X010605Y017895D02*
X010841Y017895D01*
X010998Y017895D01*
X010998Y018368D01*
X010644Y018722D01*
X010620Y018754D01*
X010998Y017895D02*
X010998Y017069D01*
X008557Y021817D02*
X008557Y021832D01*
X008754Y022029D01*
X008754Y022620D01*
X005711Y025317D02*
X005723Y025494D01*
X005683Y025336D02*
X005711Y025317D01*
X005683Y025336D02*
X005211Y025336D01*
X005207Y025320D01*
X005723Y027147D02*
X005711Y027324D01*
X005683Y027305D01*
X005211Y027305D01*
X005207Y027320D01*
D26*
X008794Y023919D03*
X008754Y022620D03*
X009148Y022305D03*
X011786Y023722D03*
X012573Y022935D03*
X012691Y022462D03*
X013557Y022895D03*
X011943Y025100D03*
X012888Y027265D03*
X012927Y028053D03*
X012140Y028565D03*
X012612Y029588D03*
X012927Y030179D03*
X015171Y030257D03*
X015723Y030257D03*
X015486Y029431D03*
X015880Y029194D03*
X016707Y029155D03*
X017376Y029234D03*
X017770Y028131D03*
X018912Y027777D03*
X019109Y026517D03*
X018675Y025809D03*
X017967Y026596D03*
X017297Y026124D03*
X015841Y025533D03*
X016431Y024746D03*
X017652Y024588D03*
X014384Y026163D03*
X011510Y027580D03*
X010998Y027541D03*
X010605Y028368D03*
X009857Y026832D03*
X009502Y026832D03*
X012927Y019706D03*
X012612Y019116D03*
X012140Y018092D03*
X012927Y017580D03*
X012888Y016793D03*
X011510Y017108D03*
X010998Y017069D03*
X010605Y017895D03*
X009857Y016360D03*
X009502Y016360D03*
X011943Y014628D03*
X011786Y013250D03*
X012573Y012462D03*
X012691Y011990D03*
X013557Y012423D03*
X016431Y014273D03*
X015841Y015061D03*
X017297Y015651D03*
X017967Y016124D03*
X018675Y015336D03*
X019109Y016045D03*
X018912Y017305D03*
X017770Y017659D03*
X017376Y018761D03*
X016707Y018683D03*
X015880Y018722D03*
X015486Y018958D03*
X015723Y019785D03*
X015171Y019785D03*
X014384Y015691D03*
X017652Y014116D03*
X015723Y009313D03*
X015171Y009313D03*
X015486Y008486D03*
X015880Y008250D03*
X016707Y008210D03*
X017376Y008289D03*
X017770Y007187D03*
X018912Y006832D03*
X019109Y005572D03*
X018675Y004864D03*
X017967Y005651D03*
X017297Y005179D03*
X015841Y004588D03*
X016431Y003801D03*
X017652Y003643D03*
X014384Y005218D03*
X012888Y006320D03*
X012927Y007108D03*
X012140Y007620D03*
X012612Y008643D03*
X012927Y009234D03*
X010605Y007423D03*
X010998Y006596D03*
X011510Y006635D03*
X009857Y005887D03*
X009502Y005887D03*
X011943Y004155D03*
X011786Y002777D03*
X012573Y001990D03*
X012691Y001517D03*
X013557Y001950D03*
X009148Y001360D03*
X008754Y001675D03*
X008794Y002974D03*
X009148Y011832D03*
X008754Y012147D03*
X008794Y013446D03*
X025171Y013446D03*
X025132Y012147D03*
X025526Y011832D03*
X028164Y013250D03*
X028951Y012462D03*
X029069Y011990D03*
X029935Y012423D03*
X028321Y014628D03*
X026234Y016360D03*
X025880Y016360D03*
X027376Y017069D03*
X027888Y017108D03*
X028518Y018092D03*
X029305Y017580D03*
X029266Y016793D03*
X030762Y015691D03*
X032219Y015061D03*
X032809Y014273D03*
X034030Y014116D03*
X035053Y015336D03*
X035486Y016045D03*
X034345Y016124D03*
X033675Y015651D03*
X035290Y017305D03*
X034148Y017659D03*
X033754Y018761D03*
X033085Y018683D03*
X032258Y018722D03*
X031864Y018958D03*
X032101Y019785D03*
X031549Y019785D03*
X029305Y019706D03*
X028990Y019116D03*
X026983Y017895D03*
X025526Y022305D03*
X025132Y022620D03*
X025171Y023919D03*
X028164Y023722D03*
X028951Y022935D03*
X029069Y022462D03*
X029935Y022895D03*
X028321Y025100D03*
X026234Y026832D03*
X025880Y026832D03*
X027376Y027541D03*
X027888Y027580D03*
X028518Y028565D03*
X029305Y028053D03*
X029266Y027265D03*
X030762Y026163D03*
X032219Y025533D03*
X032809Y024746D03*
X034030Y024588D03*
X035053Y025809D03*
X035486Y026517D03*
X034345Y026596D03*
X033675Y026124D03*
X035290Y027777D03*
X034148Y028131D03*
X033754Y029234D03*
X033085Y029155D03*
X032258Y029194D03*
X031864Y029431D03*
X032101Y030257D03*
X031549Y030257D03*
X029305Y030179D03*
X028990Y029588D03*
X026983Y028368D03*
X029305Y009234D03*
X028990Y008643D03*
X028518Y007620D03*
X029305Y007108D03*
X029266Y006320D03*
X027888Y006635D03*
X027376Y006596D03*
X026983Y007423D03*
X026234Y005887D03*
X025880Y005887D03*
X028321Y004155D03*
X028164Y002777D03*
X028951Y001990D03*
X029069Y001517D03*
X029935Y001950D03*
X032809Y003801D03*
X032219Y004588D03*
X033675Y005179D03*
X034345Y005651D03*
X035053Y004864D03*
X035486Y005572D03*
X035290Y006832D03*
X034148Y007187D03*
X033754Y008289D03*
X033085Y008210D03*
X032258Y008250D03*
X031864Y008486D03*
X032101Y009313D03*
X031549Y009313D03*
X030762Y005218D03*
X034030Y003643D03*
X025526Y001360D03*
X025132Y001675D03*
X025171Y002974D03*
D27*
X023849Y002376D02*
X023849Y001647D01*
X024636Y008281D02*
X024636Y008907D01*
X023849Y012120D02*
X023849Y012848D01*
X024636Y018754D02*
X024636Y019380D01*
X023849Y022592D02*
X023849Y023320D01*
X024636Y029226D02*
X024636Y029852D01*
X008258Y029852D02*
X008258Y029226D01*
X007471Y023320D02*
X007471Y022592D01*
X008258Y019380D02*
X008258Y018754D01*
X007471Y012848D02*
X007471Y012120D01*
X008258Y008907D02*
X008258Y008281D01*
X007471Y002376D02*
X007471Y001647D01*
D28*
X006459Y002340D03*
X005801Y001261D03*
X007171Y004364D03*
X008392Y005380D03*
X007148Y006415D03*
X006455Y007832D03*
X005565Y008903D03*
X008258Y008907D03*
X005801Y011734D03*
X006459Y012813D03*
X007171Y014836D03*
X008392Y015852D03*
X007148Y016887D03*
X006455Y018305D03*
X005565Y019376D03*
X008258Y019380D03*
X005801Y022206D03*
X006459Y023285D03*
X007171Y025309D03*
X008392Y026324D03*
X007148Y027360D03*
X006455Y028777D03*
X005565Y029848D03*
X008258Y029852D03*
X021943Y029848D03*
X022833Y028777D03*
X023526Y027360D03*
X024770Y026324D03*
X023549Y025309D03*
X022837Y023285D03*
X022179Y022206D03*
X021943Y019376D03*
X022833Y018305D03*
X023526Y016887D03*
X024770Y015852D03*
X023549Y014836D03*
X022837Y012813D03*
X022179Y011734D03*
X021943Y008903D03*
X022833Y007832D03*
X023526Y006415D03*
X024770Y005380D03*
X023549Y004364D03*
X022837Y002340D03*
X022179Y001261D03*
X024636Y008907D03*
X024636Y019380D03*
X024636Y029852D03*
D29*
X023849Y022592D03*
X023849Y012120D03*
X023849Y001647D03*
X007471Y001647D03*
X007471Y012120D03*
X007471Y022592D03*
D30*
X007051Y022655D02*
X008422Y022655D01*
X008422Y022368D01*
X006098Y022368D01*
X006006Y022275D01*
X006006Y021596D01*
X005540Y021596D01*
X005581Y021637D01*
X005676Y021866D01*
X005676Y022114D01*
X005581Y022342D01*
X005406Y022517D01*
X005177Y022612D01*
X004930Y022612D01*
X004701Y022517D01*
X004660Y022476D01*
X004660Y022937D01*
X004723Y022873D01*
X004937Y022785D01*
X005169Y022785D01*
X005384Y022873D01*
X005548Y023037D01*
X005636Y023252D01*
X005636Y023484D01*
X005548Y023698D01*
X005418Y023828D01*
X005551Y023828D01*
X005744Y023908D01*
X005891Y024055D01*
X005971Y024248D01*
X005971Y024456D01*
X005891Y024649D01*
X005765Y024775D01*
X005838Y024787D01*
X005919Y024813D01*
X005995Y024852D01*
X006065Y024902D01*
X006079Y024917D01*
X006130Y024917D01*
X006176Y024929D01*
X006211Y024949D01*
X006206Y023423D01*
X006172Y023342D01*
X006172Y023228D01*
X006216Y023123D01*
X006297Y023042D01*
X006402Y022999D01*
X006516Y022999D01*
X006621Y023042D01*
X006702Y023123D01*
X006745Y023228D01*
X006745Y023342D01*
X006702Y023447D01*
X006681Y023468D01*
X006686Y025273D01*
X006776Y025273D01*
X006868Y025365D01*
X006868Y027177D01*
X006776Y027269D01*
X006695Y027269D01*
X006693Y028610D01*
X006698Y028615D01*
X006741Y028720D01*
X006741Y028834D01*
X006698Y028939D01*
X006622Y029015D01*
X006651Y029044D01*
X007105Y029044D01*
X007116Y029032D01*
X007116Y028919D01*
X007170Y028789D01*
X007270Y028689D01*
X007400Y028635D01*
X007541Y028635D01*
X007671Y028689D01*
X007762Y028780D01*
X007762Y028629D01*
X007854Y028537D01*
X008507Y028537D01*
X008507Y024057D01*
X007051Y024057D01*
X006959Y023964D01*
X006959Y022747D01*
X007051Y022655D01*
X007027Y022679D02*
X004660Y022679D01*
X004660Y022523D02*
X004715Y022523D01*
X004660Y022835D02*
X004815Y022835D01*
X005292Y022835D02*
X006959Y022835D01*
X006959Y022991D02*
X005502Y022991D01*
X005593Y023147D02*
X006206Y023147D01*
X006172Y023303D02*
X005636Y023303D01*
X005636Y023459D02*
X006206Y023459D01*
X006206Y023615D02*
X005582Y023615D01*
X005475Y023771D02*
X006207Y023771D01*
X006207Y023927D02*
X005763Y023927D01*
X005903Y024083D02*
X006208Y024083D01*
X006208Y024239D02*
X005968Y024239D01*
X005971Y024395D02*
X006209Y024395D01*
X006209Y024551D02*
X005932Y024551D01*
X005833Y024707D02*
X006210Y024707D01*
X006210Y024863D02*
X006010Y024863D01*
X005681Y025287D02*
X005241Y025287D01*
X005241Y025346D01*
X005681Y025346D01*
X005681Y025287D01*
X005681Y025331D02*
X005241Y025331D01*
X005173Y025241D02*
X005181Y025189D01*
X005208Y025108D01*
X005241Y025043D01*
X005241Y024917D01*
X005343Y024917D01*
X005357Y024902D01*
X005394Y024876D01*
X005343Y024876D01*
X005150Y024796D01*
X005003Y024649D01*
X004990Y024618D01*
X004990Y024856D01*
X004990Y024917D01*
X005173Y024917D01*
X005173Y025241D01*
X005173Y025175D02*
X005186Y025175D01*
X005173Y025019D02*
X005241Y025019D01*
X005312Y024863D02*
X004990Y024863D01*
X004990Y024856D02*
X004660Y024856D01*
X004660Y024856D01*
X004990Y024856D01*
X004990Y024707D02*
X005061Y024707D01*
X006685Y024707D02*
X008507Y024707D01*
X008507Y024551D02*
X006684Y024551D01*
X006684Y024395D02*
X008507Y024395D01*
X008507Y024239D02*
X006683Y024239D01*
X006683Y024083D02*
X008507Y024083D01*
X008507Y024863D02*
X006685Y024863D01*
X006686Y025019D02*
X008507Y025019D01*
X008507Y025175D02*
X006686Y025175D01*
X006834Y025331D02*
X008507Y025331D01*
X008507Y025487D02*
X006868Y025487D01*
X006868Y025643D02*
X008507Y025643D01*
X008507Y025799D02*
X006868Y025799D01*
X006868Y025955D02*
X008507Y025955D01*
X008507Y026111D02*
X006868Y026111D01*
X006868Y026267D02*
X008507Y026267D01*
X008507Y026423D02*
X006868Y026423D01*
X006868Y026579D02*
X008507Y026579D01*
X008507Y026735D02*
X006868Y026735D01*
X006868Y026891D02*
X008507Y026891D01*
X008507Y027047D02*
X006868Y027047D01*
X006843Y027203D02*
X008507Y027203D01*
X008507Y027359D02*
X006695Y027359D01*
X006695Y027515D02*
X008507Y027515D01*
X008507Y027671D02*
X006695Y027671D01*
X006694Y027827D02*
X008507Y027827D01*
X008507Y027983D02*
X006694Y027983D01*
X006694Y028139D02*
X008507Y028139D01*
X008507Y028295D02*
X006693Y028295D01*
X006693Y028451D02*
X008507Y028451D01*
X007785Y028607D02*
X006693Y028607D01*
X006741Y028763D02*
X007197Y028763D01*
X007117Y028919D02*
X006707Y028919D01*
X006288Y029015D02*
X006212Y028939D01*
X006168Y028834D01*
X006168Y028720D01*
X006212Y028615D01*
X006218Y028609D01*
X006220Y027686D01*
X006217Y027688D01*
X006176Y027712D01*
X006130Y027724D01*
X006079Y027724D01*
X006065Y027738D01*
X005995Y027789D01*
X005919Y027828D01*
X005838Y027854D01*
X005765Y027866D01*
X005891Y027992D01*
X005971Y028185D01*
X005971Y028393D01*
X005891Y028586D01*
X005744Y028733D01*
X005551Y028813D01*
X005418Y028813D01*
X005548Y028943D01*
X005636Y029157D01*
X005636Y029389D01*
X005548Y029604D01*
X005384Y029768D01*
X005169Y029856D01*
X004937Y029856D01*
X004723Y029768D01*
X004660Y029704D01*
X004660Y030165D01*
X004701Y030124D01*
X004930Y030029D01*
X005177Y030029D01*
X005406Y030124D01*
X005498Y030216D01*
X005498Y030117D01*
X005591Y030025D01*
X008270Y030025D01*
X008270Y029939D01*
X007854Y029939D01*
X007762Y029846D01*
X007762Y029672D01*
X007671Y029763D01*
X007541Y029817D01*
X007400Y029817D01*
X007270Y029763D01*
X007170Y029663D01*
X007116Y029533D01*
X007116Y029519D01*
X006651Y029519D01*
X006582Y029587D01*
X006328Y029587D01*
X006149Y029408D01*
X006149Y029154D01*
X006288Y029015D01*
X006228Y029075D02*
X005602Y029075D01*
X005636Y029230D02*
X006149Y029230D01*
X006149Y029386D02*
X005636Y029386D01*
X005573Y029542D02*
X006283Y029542D01*
X006627Y029542D02*
X007120Y029542D01*
X007206Y029698D02*
X005453Y029698D01*
X005174Y029854D02*
X007770Y029854D01*
X007762Y029698D02*
X007736Y029698D01*
X008270Y030010D02*
X004660Y030010D01*
X004660Y029854D02*
X004933Y029854D01*
X005449Y030166D02*
X005498Y030166D01*
X005523Y028919D02*
X006203Y028919D01*
X006168Y028763D02*
X005673Y028763D01*
X005871Y028607D02*
X006218Y028607D01*
X006218Y028451D02*
X005947Y028451D01*
X005971Y028295D02*
X006218Y028295D01*
X006219Y028139D02*
X005952Y028139D01*
X005882Y027983D02*
X006219Y027983D01*
X006219Y027827D02*
X005921Y027827D01*
X005681Y027354D02*
X005241Y027354D01*
X005241Y027295D01*
X005681Y027295D01*
X005681Y027354D01*
X005343Y027724D02*
X005241Y027724D01*
X005241Y027598D01*
X005208Y027533D01*
X005181Y027452D01*
X005173Y027400D01*
X005173Y027724D01*
X004986Y027724D01*
X004986Y027777D01*
X004660Y027777D01*
X004660Y027777D01*
X004986Y027777D01*
X004986Y028033D01*
X005003Y027992D01*
X005150Y027845D01*
X005343Y027765D01*
X005394Y027765D01*
X005357Y027738D01*
X005343Y027724D01*
X005241Y027671D02*
X005173Y027671D01*
X005173Y027515D02*
X005202Y027515D01*
X005194Y027827D02*
X004986Y027827D01*
X004986Y027983D02*
X005012Y027983D01*
X007745Y028763D02*
X007762Y028763D01*
X012248Y030246D02*
X014109Y030246D01*
X014109Y029704D01*
X013669Y029265D01*
X013619Y029143D01*
X013619Y025979D01*
X013669Y025857D01*
X013763Y025763D01*
X014040Y025486D01*
X014086Y025373D01*
X014109Y025351D01*
X014109Y024166D01*
X013235Y024166D01*
X013114Y024044D01*
X013114Y023900D01*
X013090Y023910D01*
X013019Y023924D01*
X012999Y023924D01*
X012999Y023337D01*
X012966Y023337D01*
X012966Y023924D01*
X012946Y023924D01*
X012939Y023923D01*
X012939Y023957D01*
X012847Y024049D01*
X012603Y024049D01*
X012595Y024057D01*
X012426Y024057D01*
X012426Y027258D01*
X012928Y027760D01*
X012986Y027760D01*
X013093Y027805D01*
X013175Y027887D01*
X013220Y027995D01*
X013220Y028111D01*
X013175Y028218D01*
X013093Y028301D01*
X012986Y028345D01*
X012869Y028345D01*
X012762Y028301D01*
X012679Y028218D01*
X012635Y028111D01*
X012635Y028054D01*
X012623Y028042D01*
X012623Y028537D01*
X013398Y028537D01*
X013490Y028629D01*
X013490Y029846D01*
X013398Y029939D01*
X012555Y029939D01*
X012248Y030246D01*
X012328Y030166D02*
X014109Y030166D01*
X014109Y030010D02*
X012484Y030010D01*
X013482Y029854D02*
X014109Y029854D01*
X014103Y029698D02*
X013490Y029698D01*
X013490Y029542D02*
X013947Y029542D01*
X013791Y029386D02*
X013490Y029386D01*
X013490Y029230D02*
X013655Y029230D01*
X013619Y029075D02*
X013490Y029075D01*
X013490Y028919D02*
X013619Y028919D01*
X013619Y028763D02*
X013490Y028763D01*
X013468Y028607D02*
X013619Y028607D01*
X013619Y028451D02*
X012623Y028451D01*
X012623Y028295D02*
X012756Y028295D01*
X012646Y028139D02*
X012623Y028139D01*
X013099Y028295D02*
X013619Y028295D01*
X013619Y028139D02*
X013208Y028139D01*
X013215Y027983D02*
X013619Y027983D01*
X013619Y027827D02*
X013115Y027827D01*
X012839Y027671D02*
X013619Y027671D01*
X013619Y027515D02*
X012683Y027515D01*
X012527Y027359D02*
X013619Y027359D01*
X013619Y027203D02*
X012426Y027203D01*
X012426Y027047D02*
X013619Y027047D01*
X013619Y026891D02*
X012426Y026891D01*
X012426Y026735D02*
X013619Y026735D01*
X013619Y026579D02*
X012426Y026579D01*
X012426Y026423D02*
X013619Y026423D01*
X013619Y026267D02*
X012426Y026267D01*
X012426Y026111D02*
X013619Y026111D01*
X013628Y025955D02*
X012426Y025955D01*
X012426Y025799D02*
X013727Y025799D01*
X013883Y025643D02*
X012426Y025643D01*
X012426Y025487D02*
X014039Y025487D01*
X014109Y025331D02*
X012426Y025331D01*
X012426Y025175D02*
X014109Y025175D01*
X014109Y025019D02*
X012426Y025019D01*
X012426Y024863D02*
X014109Y024863D01*
X014109Y024707D02*
X012426Y024707D01*
X012426Y024551D02*
X014109Y024551D01*
X014109Y024395D02*
X012426Y024395D01*
X012426Y024239D02*
X014109Y024239D01*
X013153Y024083D02*
X012426Y024083D01*
X012939Y023927D02*
X013114Y023927D01*
X012999Y023771D02*
X012966Y023771D01*
X012966Y023615D02*
X012999Y023615D01*
X012999Y023459D02*
X012966Y023459D01*
X012966Y023304D02*
X012999Y023304D01*
X012999Y022717D01*
X013019Y022717D01*
X013074Y022728D01*
X013074Y022627D01*
X012843Y022395D01*
X012579Y022395D01*
X012319Y022655D01*
X012484Y022655D01*
X012515Y022642D01*
X012631Y022642D01*
X012739Y022687D01*
X012810Y022758D01*
X012875Y022731D01*
X012946Y022717D01*
X012966Y022717D01*
X012966Y023304D01*
X012966Y023303D02*
X012999Y023303D01*
X012999Y023147D02*
X012966Y023147D01*
X012966Y022991D02*
X012999Y022991D01*
X012999Y022835D02*
X012966Y022835D01*
X013074Y022679D02*
X012721Y022679D01*
X012971Y022523D02*
X012451Y022523D01*
X012248Y019773D02*
X014109Y019773D01*
X014109Y019232D01*
X013669Y018792D01*
X013619Y018670D01*
X013619Y015506D01*
X013669Y015384D01*
X013763Y015291D01*
X014040Y015014D01*
X014086Y014901D01*
X014109Y014879D01*
X014109Y013693D01*
X013235Y013693D01*
X013114Y013572D01*
X013114Y013428D01*
X013090Y013438D01*
X013019Y013452D01*
X012999Y013452D01*
X012999Y012864D01*
X012966Y012864D01*
X012966Y013452D01*
X012946Y013452D01*
X012939Y013450D01*
X012939Y013484D01*
X012847Y013576D01*
X012603Y013576D01*
X012595Y013584D01*
X012426Y013584D01*
X012426Y016786D01*
X012928Y017288D01*
X012986Y017288D01*
X013093Y017332D01*
X013175Y017415D01*
X013220Y017522D01*
X013220Y017638D01*
X013175Y017746D01*
X013093Y017828D01*
X012986Y017873D01*
X012869Y017873D01*
X012762Y017828D01*
X012679Y017746D01*
X012635Y017638D01*
X012635Y017581D01*
X012623Y017569D01*
X012623Y018065D01*
X013398Y018065D01*
X013490Y018157D01*
X013490Y019374D01*
X013398Y019466D01*
X012555Y019466D01*
X012248Y019773D01*
X012306Y019716D02*
X014109Y019716D01*
X014109Y019560D02*
X012462Y019560D01*
X013461Y019404D02*
X014109Y019404D01*
X014109Y019248D02*
X013490Y019248D01*
X013490Y019092D02*
X013969Y019092D01*
X013813Y018936D02*
X013490Y018936D01*
X013490Y018780D02*
X013664Y018780D01*
X013619Y018624D02*
X013490Y018624D01*
X013490Y018468D02*
X013619Y018468D01*
X013619Y018312D02*
X013490Y018312D01*
X013489Y018156D02*
X013619Y018156D01*
X013619Y018000D02*
X012623Y018000D01*
X012623Y017844D02*
X012799Y017844D01*
X012655Y017688D02*
X012623Y017688D01*
X013055Y017844D02*
X013619Y017844D01*
X013619Y017688D02*
X013199Y017688D01*
X013220Y017532D02*
X013619Y017532D01*
X013619Y017376D02*
X013137Y017376D01*
X012860Y017220D02*
X013619Y017220D01*
X013619Y017064D02*
X012705Y017064D01*
X012549Y016908D02*
X013619Y016908D01*
X013619Y016752D02*
X012426Y016752D01*
X012426Y016596D02*
X013619Y016596D01*
X013619Y016440D02*
X012426Y016440D01*
X012426Y016284D02*
X013619Y016284D01*
X013619Y016128D02*
X012426Y016128D01*
X012426Y015972D02*
X013619Y015972D01*
X013619Y015816D02*
X012426Y015816D01*
X012426Y015660D02*
X013619Y015660D01*
X013619Y015504D02*
X012426Y015504D01*
X012426Y015348D02*
X013705Y015348D01*
X013861Y015192D02*
X012426Y015192D01*
X012426Y015036D02*
X014017Y015036D01*
X014107Y014880D02*
X012426Y014880D01*
X012426Y014724D02*
X014109Y014724D01*
X014109Y014568D02*
X012426Y014568D01*
X012426Y014412D02*
X014109Y014412D01*
X014109Y014256D02*
X012426Y014256D01*
X012426Y014100D02*
X014109Y014100D01*
X014109Y013944D02*
X012426Y013944D01*
X012426Y013788D02*
X014109Y013788D01*
X013174Y013632D02*
X012426Y013632D01*
X012939Y013476D02*
X013114Y013476D01*
X012999Y013320D02*
X012966Y013320D01*
X012966Y013164D02*
X012999Y013164D01*
X012999Y013009D02*
X012966Y013009D01*
X012966Y012832D02*
X012999Y012832D01*
X012999Y012244D01*
X013019Y012244D01*
X013074Y012255D01*
X013074Y012154D01*
X012843Y011923D01*
X012579Y011923D01*
X012319Y012183D01*
X012484Y012183D01*
X012515Y012170D01*
X012631Y012170D01*
X012739Y012214D01*
X012810Y012285D01*
X012875Y012258D01*
X012946Y012244D01*
X012966Y012244D01*
X012966Y012832D01*
X012966Y012697D02*
X012999Y012697D01*
X012999Y012541D02*
X012966Y012541D01*
X012966Y012385D02*
X012999Y012385D01*
X013074Y012229D02*
X012753Y012229D01*
X012992Y012073D02*
X012429Y012073D01*
X012248Y009301D02*
X014109Y009301D01*
X014109Y008759D01*
X013669Y008320D01*
X013619Y008198D01*
X013619Y005034D01*
X013669Y004912D01*
X013763Y004818D01*
X014040Y004541D01*
X014086Y004429D01*
X014109Y004406D01*
X014109Y003221D01*
X013235Y003221D01*
X013114Y003099D01*
X013114Y002955D01*
X013090Y002965D01*
X013019Y002979D01*
X012999Y002979D01*
X012999Y002392D01*
X012966Y002392D01*
X012966Y002979D01*
X012946Y002979D01*
X012939Y002978D01*
X012939Y003012D01*
X012847Y003104D01*
X012603Y003104D01*
X012595Y003112D01*
X012426Y003112D01*
X012426Y006313D01*
X012928Y006815D01*
X012986Y006815D01*
X013093Y006860D01*
X013175Y006942D01*
X013220Y007050D01*
X013220Y007166D01*
X013175Y007274D01*
X013093Y007356D01*
X012986Y007400D01*
X012869Y007400D01*
X012762Y007356D01*
X012679Y007274D01*
X012635Y007166D01*
X012635Y007109D01*
X012623Y007097D01*
X012623Y007592D01*
X013398Y007592D01*
X013490Y007684D01*
X013490Y008901D01*
X013398Y008994D01*
X012555Y008994D01*
X012248Y009301D01*
X012284Y009265D02*
X014109Y009265D01*
X014109Y009109D02*
X012440Y009109D01*
X013439Y008953D02*
X014109Y008953D01*
X014109Y008797D02*
X013490Y008797D01*
X013490Y008641D02*
X013990Y008641D01*
X013834Y008485D02*
X013490Y008485D01*
X013490Y008329D02*
X013678Y008329D01*
X013619Y008173D02*
X013490Y008173D01*
X013490Y008017D02*
X013619Y008017D01*
X013619Y007861D02*
X013490Y007861D01*
X013490Y007705D02*
X013619Y007705D01*
X013619Y007549D02*
X012623Y007549D01*
X012623Y007393D02*
X012852Y007393D01*
X013003Y007393D02*
X013619Y007393D01*
X013619Y007237D02*
X013190Y007237D01*
X013220Y007081D02*
X013619Y007081D01*
X013619Y006925D02*
X013158Y006925D01*
X012882Y006769D02*
X013619Y006769D01*
X013619Y006613D02*
X012726Y006613D01*
X012570Y006457D02*
X013619Y006457D01*
X013619Y006301D02*
X012426Y006301D01*
X012426Y006145D02*
X013619Y006145D01*
X013619Y005989D02*
X012426Y005989D01*
X012426Y005833D02*
X013619Y005833D01*
X013619Y005677D02*
X012426Y005677D01*
X012426Y005521D02*
X013619Y005521D01*
X013619Y005365D02*
X012426Y005365D01*
X012426Y005209D02*
X013619Y005209D01*
X013619Y005054D02*
X012426Y005054D01*
X012426Y004898D02*
X013683Y004898D01*
X013839Y004742D02*
X012426Y004742D01*
X012426Y004586D02*
X013995Y004586D01*
X014086Y004430D02*
X012426Y004430D01*
X012426Y004274D02*
X014109Y004274D01*
X014109Y004118D02*
X012426Y004118D01*
X012426Y003962D02*
X014109Y003962D01*
X014109Y003806D02*
X012426Y003806D01*
X012426Y003650D02*
X014109Y003650D01*
X014109Y003494D02*
X012426Y003494D01*
X012426Y003338D02*
X014109Y003338D01*
X013196Y003182D02*
X012426Y003182D01*
X012925Y003026D02*
X013114Y003026D01*
X012999Y002870D02*
X012966Y002870D01*
X012966Y002714D02*
X012999Y002714D01*
X012999Y002558D02*
X012966Y002558D01*
X012966Y002402D02*
X012999Y002402D01*
X012999Y002359D02*
X012999Y001772D01*
X013019Y001772D01*
X013074Y001783D01*
X013074Y001682D01*
X012843Y001450D01*
X012579Y001450D01*
X012319Y001710D01*
X012484Y001710D01*
X012515Y001697D01*
X012631Y001697D01*
X012739Y001742D01*
X012810Y001813D01*
X012875Y001786D01*
X012946Y001772D01*
X012966Y001772D01*
X012966Y002359D01*
X012999Y002359D01*
X012999Y002246D02*
X012966Y002246D01*
X012966Y002090D02*
X012999Y002090D01*
X012999Y001934D02*
X012966Y001934D01*
X012966Y001778D02*
X012999Y001778D01*
X013049Y001778D02*
X013074Y001778D01*
X012916Y001778D02*
X012775Y001778D01*
X013014Y001622D02*
X012408Y001622D01*
X012564Y001466D02*
X012858Y001466D01*
X008507Y003112D02*
X007051Y003112D01*
X006959Y003020D01*
X006959Y001802D01*
X007051Y001710D01*
X008422Y001710D01*
X008422Y001423D01*
X006098Y001423D01*
X006006Y001331D01*
X006006Y000651D01*
X005540Y000651D01*
X005581Y000692D01*
X005676Y000921D01*
X005676Y001169D01*
X005581Y001397D01*
X005406Y001573D01*
X005177Y001667D01*
X004930Y001667D01*
X004701Y001573D01*
X004660Y001531D01*
X004660Y001992D01*
X004723Y001929D01*
X004937Y001840D01*
X005169Y001840D01*
X005384Y001929D01*
X005548Y002093D01*
X005636Y002307D01*
X005636Y002539D01*
X005548Y002753D01*
X005418Y002883D01*
X005551Y002883D01*
X005744Y002963D01*
X005891Y003110D01*
X005971Y003303D01*
X005971Y003511D01*
X005891Y003704D01*
X005765Y003831D01*
X005838Y003842D01*
X005919Y003869D01*
X005995Y003907D01*
X006065Y003958D01*
X006079Y003972D01*
X006130Y003972D01*
X006176Y003984D01*
X006211Y004004D01*
X006206Y002478D01*
X006172Y002397D01*
X006172Y002283D01*
X006216Y002178D01*
X006297Y002097D01*
X006402Y002054D01*
X006516Y002054D01*
X006621Y002097D01*
X006702Y002178D01*
X006745Y002283D01*
X006745Y002397D01*
X006702Y002502D01*
X006681Y002523D01*
X006686Y004328D01*
X006776Y004328D01*
X006868Y004421D01*
X006868Y006232D01*
X006776Y006324D01*
X006695Y006324D01*
X006693Y007665D01*
X006698Y007670D01*
X006741Y007775D01*
X006741Y007889D01*
X006698Y007995D01*
X006622Y008070D01*
X006651Y008099D01*
X007105Y008099D01*
X007116Y008087D01*
X007116Y007974D01*
X007170Y007844D01*
X007270Y007744D01*
X007400Y007691D01*
X007541Y007691D01*
X007671Y007744D01*
X007762Y007835D01*
X007762Y007684D01*
X007854Y007592D01*
X008507Y007592D01*
X008507Y003112D01*
X008507Y003182D02*
X006683Y003182D01*
X006683Y003338D02*
X008507Y003338D01*
X008507Y003494D02*
X006684Y003494D01*
X006684Y003650D02*
X008507Y003650D01*
X008507Y003806D02*
X006685Y003806D01*
X006685Y003962D02*
X008507Y003962D01*
X008507Y004118D02*
X006686Y004118D01*
X006686Y004274D02*
X008507Y004274D01*
X008507Y004430D02*
X006868Y004430D01*
X006868Y004586D02*
X008507Y004586D01*
X008507Y004742D02*
X006868Y004742D01*
X006868Y004898D02*
X008507Y004898D01*
X008507Y005054D02*
X006868Y005054D01*
X006868Y005209D02*
X008507Y005209D01*
X008507Y005365D02*
X006868Y005365D01*
X006868Y005521D02*
X008507Y005521D01*
X008507Y005677D02*
X006868Y005677D01*
X006868Y005833D02*
X008507Y005833D01*
X008507Y005989D02*
X006868Y005989D01*
X006868Y006145D02*
X008507Y006145D01*
X008507Y006301D02*
X006799Y006301D01*
X006695Y006457D02*
X008507Y006457D01*
X008507Y006613D02*
X006695Y006613D01*
X006694Y006769D02*
X008507Y006769D01*
X008507Y006925D02*
X006694Y006925D01*
X006694Y007081D02*
X008507Y007081D01*
X008507Y007237D02*
X006694Y007237D01*
X006693Y007393D02*
X008507Y007393D01*
X008507Y007549D02*
X006693Y007549D01*
X006712Y007705D02*
X007365Y007705D01*
X007576Y007705D02*
X007762Y007705D01*
X007163Y007861D02*
X006741Y007861D01*
X006675Y008017D02*
X007116Y008017D01*
X007116Y008574D02*
X006651Y008574D01*
X006582Y008642D01*
X006328Y008642D01*
X006149Y008463D01*
X006149Y008209D01*
X006288Y008070D01*
X006212Y007995D01*
X006168Y007889D01*
X006168Y007775D01*
X006212Y007670D01*
X006218Y007664D01*
X006220Y006741D01*
X006217Y006744D01*
X006176Y006767D01*
X006130Y006779D01*
X006079Y006779D01*
X006065Y006794D01*
X005995Y006844D01*
X005919Y006883D01*
X005838Y006909D01*
X005765Y006921D01*
X005891Y007047D01*
X005971Y007240D01*
X005971Y007448D01*
X005891Y007641D01*
X005744Y007788D01*
X005551Y007868D01*
X005418Y007868D01*
X005548Y007998D01*
X005636Y008212D01*
X005636Y008444D01*
X005548Y008659D01*
X005384Y008823D01*
X005169Y008911D01*
X004937Y008911D01*
X004723Y008823D01*
X004660Y008759D01*
X004660Y009220D01*
X004701Y009179D01*
X004930Y009084D01*
X005177Y009084D01*
X005406Y009179D01*
X005498Y009271D01*
X005498Y009173D01*
X005591Y009080D01*
X008270Y009080D01*
X008270Y008994D01*
X007854Y008994D01*
X007762Y008901D01*
X007762Y008727D01*
X007671Y008818D01*
X007541Y008872D01*
X007400Y008872D01*
X007270Y008818D01*
X007170Y008718D01*
X007116Y008588D01*
X007116Y008574D01*
X007138Y008641D02*
X006583Y008641D01*
X006327Y008641D02*
X005555Y008641D01*
X005620Y008485D02*
X006171Y008485D01*
X006149Y008329D02*
X005636Y008329D01*
X005620Y008173D02*
X006185Y008173D01*
X006235Y008017D02*
X005556Y008017D01*
X005568Y007861D02*
X006168Y007861D01*
X006197Y007705D02*
X005827Y007705D01*
X005929Y007549D02*
X006218Y007549D01*
X006218Y007393D02*
X005971Y007393D01*
X005970Y007237D02*
X006219Y007237D01*
X006219Y007081D02*
X005905Y007081D01*
X005769Y006925D02*
X006219Y006925D01*
X006219Y006769D02*
X006168Y006769D01*
X005681Y006409D02*
X005241Y006409D01*
X005241Y006350D01*
X005681Y006350D01*
X005681Y006409D01*
X005241Y006653D02*
X005208Y006588D01*
X005181Y006507D01*
X005173Y006455D01*
X005173Y006779D01*
X004986Y006779D01*
X004986Y006832D01*
X004660Y006832D01*
X004660Y006832D01*
X004986Y006832D01*
X004986Y007088D01*
X005003Y007047D01*
X005150Y006900D01*
X005343Y006820D01*
X005394Y006820D01*
X005357Y006794D01*
X005343Y006779D01*
X005241Y006779D01*
X005241Y006653D01*
X005221Y006613D02*
X005173Y006613D01*
X005173Y006457D02*
X005173Y006457D01*
X005173Y006769D02*
X005241Y006769D01*
X005125Y006925D02*
X004986Y006925D01*
X004986Y007081D02*
X004989Y007081D01*
X004697Y008797D02*
X004660Y008797D01*
X004660Y008953D02*
X007814Y008953D01*
X007762Y008797D02*
X007692Y008797D01*
X007249Y008797D02*
X005409Y008797D01*
X005562Y009109D02*
X005238Y009109D01*
X005492Y009265D02*
X005498Y009265D01*
X004869Y009109D02*
X004660Y009109D01*
X005540Y011124D02*
X005581Y011165D01*
X005676Y011394D01*
X005676Y011641D01*
X005581Y011870D01*
X005406Y012045D01*
X005177Y012140D01*
X004930Y012140D01*
X004701Y012045D01*
X004660Y012004D01*
X004660Y012464D01*
X004723Y012401D01*
X004937Y012312D01*
X005169Y012312D01*
X005384Y012401D01*
X005548Y012565D01*
X005636Y012779D01*
X005636Y013011D01*
X005548Y013226D01*
X005418Y013356D01*
X005551Y013356D01*
X005744Y013435D01*
X005891Y013583D01*
X005971Y013775D01*
X005971Y013984D01*
X005891Y014176D01*
X005765Y014303D01*
X005838Y014315D01*
X005919Y014341D01*
X005995Y014380D01*
X006065Y014430D01*
X006079Y014444D01*
X006130Y014444D01*
X006176Y014456D01*
X006211Y014476D01*
X006206Y012950D01*
X006172Y012870D01*
X006172Y012756D01*
X006216Y012650D01*
X006297Y012570D01*
X006402Y012526D01*
X006516Y012526D01*
X006621Y012570D01*
X006702Y012650D01*
X006745Y012756D01*
X006745Y012870D01*
X006702Y012975D01*
X006681Y012996D01*
X006686Y014801D01*
X006776Y014801D01*
X006868Y014893D01*
X006868Y016705D01*
X006776Y016797D01*
X006695Y016797D01*
X006693Y018137D01*
X006698Y018142D01*
X006741Y018248D01*
X006741Y018362D01*
X006698Y018467D01*
X006622Y018543D01*
X006651Y018571D01*
X007105Y018571D01*
X007116Y018559D01*
X007116Y018447D01*
X007170Y018317D01*
X007270Y018217D01*
X007400Y018163D01*
X007541Y018163D01*
X007671Y018217D01*
X007762Y018308D01*
X007762Y018157D01*
X007854Y018065D01*
X008507Y018065D01*
X008507Y013584D01*
X007051Y013584D01*
X006959Y013492D01*
X006959Y012275D01*
X007051Y012183D01*
X008422Y012183D01*
X008422Y011895D01*
X006098Y011895D01*
X006006Y011803D01*
X006006Y011124D01*
X005540Y011124D01*
X005553Y011137D02*
X006006Y011137D01*
X006006Y011293D02*
X005634Y011293D01*
X005676Y011449D02*
X006006Y011449D01*
X006006Y011605D02*
X005676Y011605D01*
X005626Y011761D02*
X006006Y011761D01*
X005534Y011917D02*
X008422Y011917D01*
X008422Y012073D02*
X005339Y012073D01*
X005344Y012385D02*
X006959Y012385D01*
X006959Y012541D02*
X006551Y012541D01*
X006367Y012541D02*
X005523Y012541D01*
X005602Y012697D02*
X006197Y012697D01*
X006172Y012853D02*
X005636Y012853D01*
X005636Y013009D02*
X006206Y013009D01*
X006207Y013164D02*
X005573Y013164D01*
X005453Y013320D02*
X006207Y013320D01*
X006207Y013476D02*
X005785Y013476D01*
X005912Y013632D02*
X006208Y013632D01*
X006208Y013788D02*
X005971Y013788D01*
X005971Y013944D02*
X006209Y013944D01*
X006209Y014100D02*
X005923Y014100D01*
X005811Y014256D02*
X006210Y014256D01*
X006210Y014412D02*
X006040Y014412D01*
X005681Y014815D02*
X005241Y014815D01*
X005241Y014874D01*
X005681Y014874D01*
X005681Y014815D01*
X005343Y014444D02*
X005357Y014430D01*
X005394Y014404D01*
X005343Y014404D01*
X005150Y014324D01*
X005003Y014176D01*
X004990Y014145D01*
X004990Y014383D01*
X004660Y014383D01*
X004660Y014383D01*
X004990Y014383D01*
X004990Y014444D01*
X005173Y014444D01*
X005173Y014768D01*
X005181Y014717D01*
X005208Y014636D01*
X005241Y014571D01*
X005241Y014444D01*
X005343Y014444D01*
X005381Y014412D02*
X004990Y014412D01*
X004990Y014256D02*
X005083Y014256D01*
X005173Y014568D02*
X005241Y014568D01*
X005180Y014724D02*
X005173Y014724D01*
X006686Y014724D02*
X008507Y014724D01*
X008507Y014568D02*
X006686Y014568D01*
X006685Y014412D02*
X008507Y014412D01*
X008507Y014256D02*
X006685Y014256D01*
X006684Y014100D02*
X008507Y014100D01*
X008507Y013944D02*
X006684Y013944D01*
X006683Y013788D02*
X008507Y013788D01*
X008507Y013632D02*
X006683Y013632D01*
X006682Y013476D02*
X006959Y013476D01*
X006959Y013320D02*
X006682Y013320D01*
X006681Y013164D02*
X006959Y013164D01*
X006959Y013009D02*
X006681Y013009D01*
X006745Y012853D02*
X006959Y012853D01*
X006959Y012697D02*
X006721Y012697D01*
X007005Y012229D02*
X004660Y012229D01*
X004660Y012385D02*
X004763Y012385D01*
X004768Y012073D02*
X004660Y012073D01*
X006856Y014880D02*
X008507Y014880D01*
X008507Y015036D02*
X006868Y015036D01*
X006868Y015192D02*
X008507Y015192D01*
X008507Y015348D02*
X006868Y015348D01*
X006868Y015504D02*
X008507Y015504D01*
X008507Y015660D02*
X006868Y015660D01*
X006868Y015816D02*
X008507Y015816D01*
X008507Y015972D02*
X006868Y015972D01*
X006868Y016128D02*
X008507Y016128D01*
X008507Y016284D02*
X006868Y016284D01*
X006868Y016440D02*
X008507Y016440D01*
X008507Y016596D02*
X006868Y016596D01*
X006821Y016752D02*
X008507Y016752D01*
X008507Y016908D02*
X006695Y016908D01*
X006695Y017064D02*
X008507Y017064D01*
X008507Y017220D02*
X006694Y017220D01*
X006694Y017376D02*
X008507Y017376D01*
X008507Y017532D02*
X006694Y017532D01*
X006694Y017688D02*
X008507Y017688D01*
X008507Y017844D02*
X006693Y017844D01*
X006693Y018000D02*
X008507Y018000D01*
X007763Y018156D02*
X006703Y018156D01*
X006741Y018312D02*
X007175Y018312D01*
X007116Y018468D02*
X006697Y018468D01*
X006288Y018543D02*
X006212Y018467D01*
X006168Y018362D01*
X006168Y018248D01*
X006212Y018142D01*
X006218Y018137D01*
X006220Y017213D01*
X006217Y017216D01*
X006176Y017240D01*
X006130Y017252D01*
X006079Y017252D01*
X006065Y017266D01*
X005995Y017316D01*
X005919Y017355D01*
X005838Y017381D01*
X005765Y017393D01*
X005891Y017520D01*
X005971Y017712D01*
X005971Y017921D01*
X005891Y018113D01*
X005744Y018261D01*
X005551Y018341D01*
X005418Y018341D01*
X005548Y018471D01*
X005636Y018685D01*
X005636Y018917D01*
X005548Y019131D01*
X005384Y019295D01*
X005169Y019384D01*
X004937Y019384D01*
X004723Y019295D01*
X004660Y019232D01*
X004660Y019692D01*
X004701Y019651D01*
X004930Y019556D01*
X005177Y019556D01*
X005406Y019651D01*
X005498Y019743D01*
X005498Y019645D01*
X005591Y019553D01*
X008270Y019553D01*
X008270Y019466D01*
X007854Y019466D01*
X007762Y019374D01*
X007762Y019200D01*
X007671Y019290D01*
X007541Y019344D01*
X007400Y019344D01*
X007270Y019290D01*
X007170Y019190D01*
X007116Y019060D01*
X007116Y019046D01*
X006651Y019046D01*
X006582Y019115D01*
X006328Y019115D01*
X006149Y018936D01*
X005629Y018936D01*
X005636Y018780D02*
X006149Y018780D01*
X006149Y018682D02*
X006288Y018543D01*
X006213Y018468D02*
X005545Y018468D01*
X005611Y018624D02*
X006207Y018624D01*
X006149Y018682D02*
X006149Y018936D01*
X006305Y019092D02*
X005564Y019092D01*
X005431Y019248D02*
X007228Y019248D01*
X007129Y019092D02*
X006605Y019092D01*
X006168Y018312D02*
X005621Y018312D01*
X005849Y018156D02*
X006206Y018156D01*
X006218Y018000D02*
X005938Y018000D01*
X005971Y017844D02*
X006218Y017844D01*
X006219Y017688D02*
X005961Y017688D01*
X005896Y017532D02*
X006219Y017532D01*
X006219Y017376D02*
X005855Y017376D01*
X006210Y017220D02*
X006220Y017220D01*
X005681Y016881D02*
X005241Y016881D01*
X005241Y016822D01*
X005681Y016822D01*
X005681Y016881D01*
X005343Y017252D02*
X005241Y017252D01*
X005241Y017125D01*
X005208Y017060D01*
X005181Y016979D01*
X005173Y016928D01*
X005173Y017252D01*
X004986Y017252D01*
X004986Y017305D01*
X004986Y017560D01*
X005003Y017520D01*
X005150Y017372D01*
X005343Y017293D01*
X005394Y017293D01*
X005357Y017266D01*
X005343Y017252D01*
X005241Y017220D02*
X005173Y017220D01*
X005173Y017064D02*
X005210Y017064D01*
X005147Y017376D02*
X004986Y017376D01*
X004986Y017305D02*
X004660Y017305D01*
X004660Y017305D01*
X004986Y017305D01*
X004986Y017532D02*
X004998Y017532D01*
X004676Y019248D02*
X004660Y019248D01*
X004660Y019404D02*
X007792Y019404D01*
X007762Y019248D02*
X007714Y019248D01*
X005584Y019560D02*
X005185Y019560D01*
X004921Y019560D02*
X004660Y019560D01*
X005471Y019716D02*
X005498Y019716D01*
X005625Y021743D02*
X006006Y021743D01*
X006006Y021899D02*
X005676Y021899D01*
X005676Y022055D02*
X006006Y022055D01*
X006006Y022211D02*
X005635Y022211D01*
X005556Y022367D02*
X006098Y022367D01*
X005392Y022523D02*
X008422Y022523D01*
X006959Y023147D02*
X006712Y023147D01*
X006745Y023303D02*
X006959Y023303D01*
X006959Y023459D02*
X006690Y023459D01*
X006681Y023615D02*
X006959Y023615D01*
X006959Y023771D02*
X006682Y023771D01*
X006682Y023927D02*
X006959Y023927D01*
X021038Y024856D02*
X021038Y024856D01*
X021368Y024856D01*
X021368Y024917D01*
X021551Y024917D01*
X021551Y025241D01*
X021559Y025189D01*
X021586Y025108D01*
X021619Y025043D01*
X021619Y024917D01*
X021721Y024917D01*
X021735Y024902D01*
X021772Y024876D01*
X021721Y024876D01*
X021528Y024796D01*
X021381Y024649D01*
X021368Y024618D01*
X021368Y024856D01*
X021038Y024856D01*
X021368Y024863D02*
X021690Y024863D01*
X021619Y025019D02*
X021551Y025019D01*
X021551Y025175D02*
X021564Y025175D01*
X021619Y025287D02*
X021619Y025346D01*
X022059Y025346D01*
X022059Y025287D01*
X021619Y025287D01*
X021619Y025331D02*
X022059Y025331D01*
X022143Y024775D02*
X022216Y024787D01*
X022297Y024813D01*
X022373Y024852D01*
X022442Y024902D01*
X022457Y024917D01*
X022508Y024917D01*
X022554Y024929D01*
X022588Y024949D01*
X022584Y023423D01*
X022550Y023342D01*
X022550Y023228D01*
X022594Y023123D01*
X022675Y023042D01*
X022780Y022999D01*
X022894Y022999D01*
X022999Y023042D01*
X023080Y023123D01*
X023123Y023228D01*
X023123Y023342D01*
X023080Y023447D01*
X023059Y023468D01*
X023064Y025273D01*
X023154Y025273D01*
X023246Y025365D01*
X023246Y027177D01*
X023154Y027269D01*
X023073Y027269D01*
X023071Y028610D01*
X023076Y028615D01*
X023119Y028720D01*
X023119Y028834D01*
X023076Y028939D01*
X023000Y029015D01*
X023028Y029044D01*
X023483Y029044D01*
X023494Y029032D01*
X023494Y028919D01*
X023548Y028789D01*
X023648Y028689D01*
X023778Y028635D01*
X023919Y028635D01*
X024049Y028689D01*
X024140Y028780D01*
X024140Y028629D01*
X024232Y028537D01*
X024885Y028537D01*
X024885Y024057D01*
X023429Y024057D01*
X023337Y023964D01*
X023337Y022747D01*
X023429Y022655D01*
X024800Y022655D01*
X024800Y022368D01*
X022476Y022368D01*
X022384Y022275D01*
X022384Y021596D01*
X021918Y021596D01*
X021959Y021637D01*
X022054Y021866D01*
X022054Y022114D01*
X021959Y022342D01*
X021784Y022517D01*
X021555Y022612D01*
X021308Y022612D01*
X021079Y022517D01*
X021038Y022476D01*
X021038Y022937D01*
X021101Y022873D01*
X021315Y022785D01*
X021547Y022785D01*
X021762Y022873D01*
X021926Y023037D01*
X022014Y023252D01*
X022014Y023484D01*
X021926Y023698D01*
X021796Y023828D01*
X021929Y023828D01*
X022122Y023908D01*
X022269Y024055D01*
X022349Y024248D01*
X022349Y024456D01*
X022269Y024649D01*
X022143Y024775D01*
X022211Y024707D02*
X022588Y024707D01*
X022587Y024551D02*
X022310Y024551D01*
X022349Y024395D02*
X022587Y024395D01*
X022586Y024239D02*
X022345Y024239D01*
X022281Y024083D02*
X022586Y024083D01*
X022585Y023927D02*
X022141Y023927D01*
X021852Y023771D02*
X022585Y023771D01*
X022584Y023615D02*
X021960Y023615D01*
X022014Y023459D02*
X022584Y023459D01*
X022550Y023303D02*
X022014Y023303D01*
X021971Y023147D02*
X022584Y023147D01*
X023090Y023147D02*
X023337Y023147D01*
X023337Y022991D02*
X021879Y022991D01*
X021670Y022835D02*
X023337Y022835D01*
X023405Y022679D02*
X021038Y022679D01*
X021038Y022523D02*
X021093Y022523D01*
X021038Y022835D02*
X021193Y022835D01*
X021770Y022523D02*
X024800Y022523D01*
X023337Y023303D02*
X023123Y023303D01*
X023068Y023459D02*
X023337Y023459D01*
X023337Y023615D02*
X023059Y023615D01*
X023060Y023771D02*
X023337Y023771D01*
X023337Y023927D02*
X023060Y023927D01*
X023061Y024083D02*
X024885Y024083D01*
X024885Y024239D02*
X023061Y024239D01*
X023062Y024395D02*
X024885Y024395D01*
X024885Y024551D02*
X023062Y024551D01*
X023063Y024707D02*
X024885Y024707D01*
X024885Y024863D02*
X023063Y024863D01*
X023064Y025019D02*
X024885Y025019D01*
X024885Y025175D02*
X023064Y025175D01*
X023212Y025331D02*
X024885Y025331D01*
X024885Y025487D02*
X023246Y025487D01*
X023246Y025643D02*
X024885Y025643D01*
X024885Y025799D02*
X023246Y025799D01*
X023246Y025955D02*
X024885Y025955D01*
X024885Y026111D02*
X023246Y026111D01*
X023246Y026267D02*
X024885Y026267D01*
X024885Y026423D02*
X023246Y026423D01*
X023246Y026579D02*
X024885Y026579D01*
X024885Y026735D02*
X023246Y026735D01*
X023246Y026891D02*
X024885Y026891D01*
X024885Y027047D02*
X023246Y027047D01*
X023221Y027203D02*
X024885Y027203D01*
X024885Y027359D02*
X023073Y027359D01*
X023073Y027515D02*
X024885Y027515D01*
X024885Y027671D02*
X023072Y027671D01*
X023072Y027827D02*
X024885Y027827D01*
X024885Y027983D02*
X023072Y027983D01*
X023072Y028139D02*
X024885Y028139D01*
X024885Y028295D02*
X023071Y028295D01*
X023071Y028451D02*
X024885Y028451D01*
X024163Y028607D02*
X023071Y028607D01*
X023119Y028763D02*
X023575Y028763D01*
X023495Y028919D02*
X023084Y028919D01*
X022666Y029015D02*
X022527Y029154D01*
X022527Y029408D01*
X022706Y029587D01*
X022960Y029587D01*
X023028Y029519D01*
X023494Y029519D01*
X023494Y029533D01*
X023548Y029663D01*
X023648Y029763D01*
X023778Y029817D01*
X023919Y029817D01*
X024049Y029763D01*
X024140Y029672D01*
X024140Y029846D01*
X024232Y029939D01*
X024648Y029939D01*
X024648Y030025D01*
X021968Y030025D01*
X021876Y030117D01*
X021876Y030216D01*
X021784Y030124D01*
X021555Y030029D01*
X021308Y030029D01*
X021079Y030124D01*
X021038Y030165D01*
X021038Y029704D01*
X021101Y029768D01*
X021315Y029856D01*
X021547Y029856D01*
X021762Y029768D01*
X021926Y029604D01*
X022014Y029389D01*
X022014Y029157D01*
X021926Y028943D01*
X021796Y028813D01*
X021929Y028813D01*
X022122Y028733D01*
X022269Y028586D01*
X022349Y028393D01*
X022349Y028185D01*
X022269Y027992D01*
X022143Y027866D01*
X022216Y027854D01*
X022297Y027828D01*
X022373Y027789D01*
X022442Y027738D01*
X022457Y027724D01*
X022508Y027724D01*
X022554Y027712D01*
X022595Y027688D01*
X022597Y027686D01*
X022596Y028609D01*
X022590Y028615D01*
X022546Y028720D01*
X022546Y028834D01*
X022590Y028939D01*
X022666Y029015D01*
X022606Y029075D02*
X021980Y029075D01*
X022014Y029230D02*
X022527Y029230D01*
X022527Y029386D02*
X022014Y029386D01*
X021951Y029542D02*
X022661Y029542D01*
X023005Y029542D02*
X023498Y029542D01*
X023584Y029698D02*
X021831Y029698D01*
X021552Y029854D02*
X024148Y029854D01*
X024140Y029698D02*
X024114Y029698D01*
X024648Y030010D02*
X021038Y030010D01*
X021038Y029854D02*
X021311Y029854D01*
X021827Y030166D02*
X021876Y030166D01*
X021901Y028919D02*
X022581Y028919D01*
X022546Y028763D02*
X022051Y028763D01*
X022249Y028607D02*
X022596Y028607D01*
X022596Y028451D02*
X022325Y028451D01*
X022349Y028295D02*
X022596Y028295D01*
X022597Y028139D02*
X022330Y028139D01*
X022260Y027983D02*
X022597Y027983D01*
X022597Y027827D02*
X022299Y027827D01*
X022059Y027354D02*
X021619Y027354D01*
X021619Y027295D01*
X022059Y027295D01*
X022059Y027354D01*
X021721Y027724D02*
X021619Y027724D01*
X021619Y027598D01*
X021586Y027533D01*
X021559Y027452D01*
X021551Y027400D01*
X021551Y027724D01*
X021364Y027724D01*
X021364Y027777D01*
X021038Y027777D01*
X021038Y027777D01*
X021364Y027777D01*
X021364Y028033D01*
X021381Y027992D01*
X021528Y027845D01*
X021721Y027765D01*
X021772Y027765D01*
X021735Y027738D01*
X021721Y027724D01*
X021619Y027671D02*
X021551Y027671D01*
X021551Y027515D02*
X021580Y027515D01*
X021572Y027827D02*
X021364Y027827D01*
X021364Y027983D02*
X021390Y027983D01*
X024123Y028763D02*
X024140Y028763D01*
X022588Y024863D02*
X022388Y024863D01*
X021439Y024707D02*
X021368Y024707D01*
X021934Y022367D02*
X022476Y022367D01*
X022384Y022211D02*
X022013Y022211D01*
X022054Y022055D02*
X022384Y022055D01*
X022384Y021899D02*
X022054Y021899D01*
X022003Y021743D02*
X022384Y021743D01*
X021876Y019743D02*
X021784Y019651D01*
X021555Y019556D01*
X021308Y019556D01*
X021079Y019651D01*
X021038Y019692D01*
X021038Y019232D01*
X021101Y019295D01*
X021315Y019384D01*
X021547Y019384D01*
X021762Y019295D01*
X021926Y019131D01*
X022014Y018917D01*
X022014Y018685D01*
X021926Y018471D01*
X021796Y018341D01*
X021929Y018341D01*
X022122Y018261D01*
X022269Y018113D01*
X022349Y017921D01*
X022349Y017712D01*
X022269Y017520D01*
X022143Y017393D01*
X022216Y017381D01*
X022297Y017355D01*
X022373Y017316D01*
X022442Y017266D01*
X022457Y017252D01*
X022508Y017252D01*
X022554Y017240D01*
X022595Y017216D01*
X022597Y017213D01*
X022596Y018137D01*
X022590Y018142D01*
X022546Y018248D01*
X022546Y018362D01*
X022590Y018467D01*
X022666Y018543D01*
X022527Y018682D01*
X022527Y018936D01*
X022007Y018936D01*
X022014Y018780D02*
X022527Y018780D01*
X022527Y018936D02*
X022706Y019115D01*
X022960Y019115D01*
X023028Y019046D01*
X023494Y019046D01*
X023494Y019060D01*
X023548Y019190D01*
X023648Y019290D01*
X023778Y019344D01*
X023919Y019344D01*
X024049Y019290D01*
X024140Y019200D01*
X024140Y019374D01*
X024232Y019466D01*
X024648Y019466D01*
X024648Y019553D01*
X021968Y019553D01*
X021876Y019645D01*
X021876Y019743D01*
X021876Y019716D02*
X021849Y019716D01*
X021962Y019560D02*
X021563Y019560D01*
X021299Y019560D02*
X021038Y019560D01*
X021038Y019404D02*
X024170Y019404D01*
X024140Y019248D02*
X024092Y019248D01*
X023606Y019248D02*
X021809Y019248D01*
X021942Y019092D02*
X022683Y019092D01*
X022983Y019092D02*
X023507Y019092D01*
X023483Y018571D02*
X023028Y018571D01*
X023000Y018543D01*
X023076Y018467D01*
X023119Y018362D01*
X023119Y018248D01*
X023076Y018142D01*
X023071Y018137D01*
X023073Y016797D01*
X023154Y016797D01*
X023246Y016705D01*
X023246Y014893D01*
X023154Y014801D01*
X023064Y014801D01*
X023059Y012996D01*
X023080Y012975D01*
X023123Y012870D01*
X023123Y012756D01*
X023080Y012650D01*
X022999Y012570D01*
X022894Y012526D01*
X022780Y012526D01*
X022675Y012570D01*
X022594Y012650D01*
X022550Y012756D01*
X022550Y012870D01*
X022584Y012950D01*
X022588Y014476D01*
X022554Y014456D01*
X022508Y014444D01*
X022457Y014444D01*
X022442Y014430D01*
X022373Y014380D01*
X022297Y014341D01*
X022216Y014315D01*
X022143Y014303D01*
X022269Y014176D01*
X022349Y013984D01*
X022349Y013775D01*
X022269Y013583D01*
X022122Y013435D01*
X021929Y013356D01*
X021796Y013356D01*
X021926Y013226D01*
X022014Y013011D01*
X022014Y012779D01*
X021926Y012565D01*
X021762Y012401D01*
X021547Y012312D01*
X021315Y012312D01*
X021101Y012401D01*
X021038Y012464D01*
X021038Y012004D01*
X021079Y012045D01*
X021308Y012140D01*
X021555Y012140D01*
X021784Y012045D01*
X021959Y011870D01*
X022054Y011641D01*
X022054Y011394D01*
X021959Y011165D01*
X021918Y011124D01*
X022384Y011124D01*
X022384Y011803D01*
X022476Y011895D01*
X024800Y011895D01*
X024800Y012183D01*
X023429Y012183D01*
X023337Y012275D01*
X023337Y013492D01*
X023429Y013584D01*
X024885Y013584D01*
X024885Y018065D01*
X024232Y018065D01*
X024140Y018157D01*
X024140Y018308D01*
X024049Y018217D01*
X023919Y018163D01*
X023778Y018163D01*
X023648Y018217D01*
X023548Y018317D01*
X023494Y018447D01*
X023494Y018559D01*
X023483Y018571D01*
X023494Y018468D02*
X023075Y018468D01*
X023119Y018312D02*
X023553Y018312D01*
X023081Y018156D02*
X024141Y018156D01*
X024885Y018000D02*
X023071Y018000D01*
X023071Y017844D02*
X024885Y017844D01*
X024885Y017688D02*
X023072Y017688D01*
X023072Y017532D02*
X024885Y017532D01*
X024885Y017376D02*
X023072Y017376D01*
X023072Y017220D02*
X024885Y017220D01*
X024885Y017064D02*
X023073Y017064D01*
X023073Y016908D02*
X024885Y016908D01*
X024885Y016752D02*
X023199Y016752D01*
X023246Y016596D02*
X024885Y016596D01*
X024885Y016440D02*
X023246Y016440D01*
X023246Y016284D02*
X024885Y016284D01*
X024885Y016128D02*
X023246Y016128D01*
X023246Y015972D02*
X024885Y015972D01*
X024885Y015816D02*
X023246Y015816D01*
X023246Y015660D02*
X024885Y015660D01*
X024885Y015504D02*
X023246Y015504D01*
X023246Y015348D02*
X024885Y015348D01*
X024885Y015192D02*
X023246Y015192D01*
X023246Y015036D02*
X024885Y015036D01*
X024885Y014880D02*
X023234Y014880D01*
X023064Y014724D02*
X024885Y014724D01*
X024885Y014568D02*
X023064Y014568D01*
X023063Y014412D02*
X024885Y014412D01*
X024885Y014256D02*
X023063Y014256D01*
X023062Y014100D02*
X024885Y014100D01*
X024885Y013944D02*
X023062Y013944D01*
X023061Y013788D02*
X024885Y013788D01*
X024885Y013632D02*
X023061Y013632D01*
X023060Y013476D02*
X023337Y013476D01*
X023337Y013320D02*
X023060Y013320D01*
X023059Y013164D02*
X023337Y013164D01*
X023337Y013009D02*
X023059Y013009D01*
X023123Y012853D02*
X023337Y012853D01*
X023337Y012697D02*
X023099Y012697D01*
X022929Y012541D02*
X023337Y012541D01*
X023337Y012385D02*
X021722Y012385D01*
X021901Y012541D02*
X022745Y012541D01*
X022575Y012697D02*
X021980Y012697D01*
X022014Y012853D02*
X022550Y012853D01*
X022584Y013009D02*
X022014Y013009D01*
X021951Y013164D02*
X022584Y013164D01*
X022585Y013320D02*
X021831Y013320D01*
X022163Y013476D02*
X022585Y013476D01*
X022586Y013632D02*
X022290Y013632D01*
X022349Y013788D02*
X022586Y013788D01*
X022587Y013944D02*
X022349Y013944D01*
X022301Y014100D02*
X022587Y014100D01*
X022588Y014256D02*
X022189Y014256D01*
X022418Y014412D02*
X022588Y014412D01*
X022059Y014815D02*
X022059Y014874D01*
X021619Y014874D01*
X021619Y014815D01*
X022059Y014815D01*
X021721Y014444D02*
X021735Y014430D01*
X021772Y014404D01*
X021721Y014404D01*
X021528Y014324D01*
X021381Y014176D01*
X021368Y014145D01*
X021368Y014383D01*
X021038Y014383D01*
X021038Y014383D01*
X021368Y014383D01*
X021368Y014444D01*
X021551Y014444D01*
X021551Y014768D01*
X021559Y014717D01*
X021586Y014636D01*
X021619Y014571D01*
X021619Y014444D01*
X021721Y014444D01*
X021759Y014412D02*
X021368Y014412D01*
X021368Y014256D02*
X021461Y014256D01*
X021551Y014568D02*
X021619Y014568D01*
X021558Y014724D02*
X021551Y014724D01*
X021619Y016822D02*
X021619Y016881D01*
X022059Y016881D01*
X022059Y016822D01*
X021619Y016822D01*
X021551Y016928D02*
X021551Y017252D01*
X021364Y017252D01*
X021364Y017305D01*
X021364Y017560D01*
X021381Y017520D01*
X021528Y017372D01*
X021721Y017293D01*
X021772Y017293D01*
X021735Y017266D01*
X021721Y017252D01*
X021619Y017252D01*
X021619Y017125D01*
X021586Y017060D01*
X021559Y016979D01*
X021551Y016928D01*
X021551Y017064D02*
X021588Y017064D01*
X021619Y017220D02*
X021551Y017220D01*
X021525Y017376D02*
X021364Y017376D01*
X021364Y017305D02*
X021038Y017305D01*
X021038Y017305D01*
X021364Y017305D01*
X021364Y017532D02*
X021376Y017532D01*
X022233Y017376D02*
X022597Y017376D01*
X022597Y017532D02*
X022274Y017532D01*
X022339Y017688D02*
X022597Y017688D01*
X022596Y017844D02*
X022349Y017844D01*
X022316Y018000D02*
X022596Y018000D01*
X022584Y018156D02*
X022227Y018156D01*
X021999Y018312D02*
X022546Y018312D01*
X022591Y018468D02*
X021923Y018468D01*
X021989Y018624D02*
X022585Y018624D01*
X022588Y017220D02*
X022597Y017220D01*
X021054Y019248D02*
X021038Y019248D01*
X021038Y012385D02*
X021141Y012385D01*
X021038Y012229D02*
X023383Y012229D01*
X022384Y011761D02*
X022004Y011761D01*
X022054Y011605D02*
X022384Y011605D01*
X022384Y011449D02*
X022054Y011449D01*
X022012Y011293D02*
X022384Y011293D01*
X022384Y011137D02*
X021931Y011137D01*
X021912Y011917D02*
X024800Y011917D01*
X024800Y012073D02*
X021717Y012073D01*
X021145Y012073D02*
X021038Y012073D01*
X021038Y009220D02*
X021079Y009179D01*
X021308Y009084D01*
X021555Y009084D01*
X021784Y009179D01*
X021876Y009271D01*
X021876Y009173D01*
X021968Y009080D01*
X024648Y009080D01*
X024648Y008994D01*
X024232Y008994D01*
X024140Y008901D01*
X024140Y008727D01*
X024049Y008818D01*
X023919Y008872D01*
X023778Y008872D01*
X023648Y008818D01*
X023548Y008718D01*
X023494Y008588D01*
X023494Y008574D01*
X023028Y008574D01*
X022960Y008642D01*
X022706Y008642D01*
X022527Y008463D01*
X022527Y008209D01*
X022666Y008070D01*
X022590Y007995D01*
X022546Y007889D01*
X022546Y007775D01*
X022590Y007670D01*
X022596Y007664D01*
X022597Y006741D01*
X022595Y006744D01*
X022554Y006767D01*
X022508Y006779D01*
X022457Y006779D01*
X022442Y006794D01*
X022373Y006844D01*
X022297Y006883D01*
X022216Y006909D01*
X022143Y006921D01*
X022269Y007047D01*
X022349Y007240D01*
X022349Y007448D01*
X022269Y007641D01*
X022122Y007788D01*
X021929Y007868D01*
X021796Y007868D01*
X021926Y007998D01*
X022014Y008212D01*
X022014Y008444D01*
X021926Y008659D01*
X021762Y008823D01*
X021547Y008911D01*
X021315Y008911D01*
X021101Y008823D01*
X021038Y008759D01*
X021038Y009220D01*
X021038Y009109D02*
X021247Y009109D01*
X021038Y008953D02*
X024192Y008953D01*
X024140Y008797D02*
X024070Y008797D01*
X023627Y008797D02*
X021787Y008797D01*
X021933Y008641D02*
X022705Y008641D01*
X022549Y008485D02*
X021998Y008485D01*
X022014Y008329D02*
X022527Y008329D01*
X022563Y008173D02*
X021998Y008173D01*
X021934Y008017D02*
X022613Y008017D01*
X022546Y007861D02*
X021946Y007861D01*
X022205Y007705D02*
X022575Y007705D01*
X022596Y007549D02*
X022307Y007549D01*
X022349Y007393D02*
X022596Y007393D01*
X022597Y007237D02*
X022348Y007237D01*
X022283Y007081D02*
X022597Y007081D01*
X022597Y006925D02*
X022147Y006925D01*
X021772Y006820D02*
X021735Y006794D01*
X021721Y006779D01*
X021619Y006779D01*
X021619Y006653D01*
X021586Y006588D01*
X021559Y006507D01*
X021551Y006455D01*
X021551Y006779D01*
X021364Y006779D01*
X021364Y006832D01*
X021038Y006832D01*
X021038Y006832D01*
X021364Y006832D01*
X021364Y007088D01*
X021381Y007047D01*
X021528Y006900D01*
X021721Y006820D01*
X021772Y006820D01*
X021619Y006769D02*
X021551Y006769D01*
X021551Y006613D02*
X021599Y006613D01*
X021551Y006457D02*
X021551Y006457D01*
X021619Y006409D02*
X022059Y006409D01*
X022059Y006350D01*
X021619Y006350D01*
X021619Y006409D01*
X021503Y006925D02*
X021364Y006925D01*
X021364Y007081D02*
X021367Y007081D01*
X022546Y006769D02*
X022597Y006769D01*
X023072Y006769D02*
X024885Y006769D01*
X024885Y006613D02*
X023073Y006613D01*
X023073Y006457D02*
X024885Y006457D01*
X024885Y006301D02*
X023177Y006301D01*
X023154Y006324D02*
X023073Y006324D01*
X023071Y007665D01*
X023076Y007670D01*
X023119Y007775D01*
X023119Y007889D01*
X023076Y007995D01*
X023000Y008070D01*
X023028Y008099D01*
X023483Y008099D01*
X023494Y008087D01*
X023494Y007974D01*
X023548Y007844D01*
X023648Y007744D01*
X023778Y007691D01*
X023919Y007691D01*
X024049Y007744D01*
X024140Y007835D01*
X024140Y007684D01*
X024232Y007592D01*
X024885Y007592D01*
X024885Y003112D01*
X023429Y003112D01*
X023337Y003020D01*
X023337Y001802D01*
X023429Y001710D01*
X024800Y001710D01*
X024800Y001423D01*
X022476Y001423D01*
X022384Y001331D01*
X022384Y000651D01*
X021918Y000651D01*
X021959Y000692D01*
X022054Y000921D01*
X022054Y001169D01*
X021959Y001397D01*
X021784Y001573D01*
X021555Y001667D01*
X021308Y001667D01*
X021079Y001573D01*
X021038Y001531D01*
X021038Y001992D01*
X021101Y001929D01*
X021315Y001840D01*
X021547Y001840D01*
X021762Y001929D01*
X021926Y002093D01*
X022014Y002307D01*
X022014Y002539D01*
X021926Y002753D01*
X021796Y002883D01*
X021929Y002883D01*
X022122Y002963D01*
X022269Y003110D01*
X022349Y003303D01*
X022349Y003511D01*
X022269Y003704D01*
X022143Y003831D01*
X022216Y003842D01*
X022297Y003869D01*
X022373Y003907D01*
X022442Y003958D01*
X022457Y003972D01*
X022508Y003972D01*
X022554Y003984D01*
X022588Y004004D01*
X022584Y002478D01*
X022550Y002397D01*
X022550Y002283D01*
X022594Y002178D01*
X022675Y002097D01*
X022780Y002054D01*
X022894Y002054D01*
X022999Y002097D01*
X023080Y002178D01*
X023123Y002283D01*
X023123Y002397D01*
X023080Y002502D01*
X023059Y002523D01*
X023064Y004328D01*
X023154Y004328D01*
X023246Y004421D01*
X023246Y006232D01*
X023154Y006324D01*
X023246Y006145D02*
X024885Y006145D01*
X024885Y005989D02*
X023246Y005989D01*
X023246Y005833D02*
X024885Y005833D01*
X024885Y005677D02*
X023246Y005677D01*
X023246Y005521D02*
X024885Y005521D01*
X024885Y005365D02*
X023246Y005365D01*
X023246Y005209D02*
X024885Y005209D01*
X024885Y005054D02*
X023246Y005054D01*
X023246Y004898D02*
X024885Y004898D01*
X024885Y004742D02*
X023246Y004742D01*
X023246Y004586D02*
X024885Y004586D01*
X024885Y004430D02*
X023246Y004430D01*
X023064Y004274D02*
X024885Y004274D01*
X024885Y004118D02*
X023064Y004118D01*
X023063Y003962D02*
X024885Y003962D01*
X024885Y003806D02*
X023063Y003806D01*
X023062Y003650D02*
X024885Y003650D01*
X024885Y003494D02*
X023062Y003494D01*
X023061Y003338D02*
X024885Y003338D01*
X024885Y003182D02*
X023061Y003182D01*
X023060Y003026D02*
X023343Y003026D01*
X023337Y002870D02*
X023060Y002870D01*
X023059Y002714D02*
X023337Y002714D01*
X023337Y002558D02*
X023059Y002558D01*
X023121Y002402D02*
X023337Y002402D01*
X023337Y002246D02*
X023108Y002246D01*
X022981Y002090D02*
X023337Y002090D01*
X023337Y001934D02*
X021767Y001934D01*
X021923Y002090D02*
X022692Y002090D01*
X022566Y002246D02*
X021989Y002246D01*
X022014Y002402D02*
X022552Y002402D01*
X022584Y002558D02*
X022007Y002558D01*
X021942Y002714D02*
X022585Y002714D01*
X022585Y002870D02*
X021809Y002870D01*
X022185Y003026D02*
X022585Y003026D01*
X022586Y003182D02*
X022299Y003182D01*
X022349Y003338D02*
X022586Y003338D01*
X022587Y003494D02*
X022349Y003494D01*
X022292Y003650D02*
X022587Y003650D01*
X022588Y003806D02*
X022168Y003806D01*
X022447Y003962D02*
X022588Y003962D01*
X022059Y004342D02*
X022059Y004401D01*
X021619Y004401D01*
X021619Y004342D01*
X022059Y004342D01*
X021721Y003972D02*
X021735Y003958D01*
X021772Y003931D01*
X021721Y003931D01*
X021528Y003851D01*
X021381Y003704D01*
X021368Y003673D01*
X021368Y003911D01*
X021038Y003911D01*
X021368Y003911D01*
X021368Y003972D01*
X021551Y003972D01*
X021551Y004296D01*
X021559Y004245D01*
X021586Y004163D01*
X021619Y004099D01*
X021619Y003972D01*
X021721Y003972D01*
X021731Y003962D02*
X021368Y003962D01*
X021368Y003806D02*
X021483Y003806D01*
X021551Y004118D02*
X021609Y004118D01*
X021555Y004274D02*
X021551Y004274D01*
X021038Y003911D02*
X021038Y003911D01*
X021038Y001934D02*
X021096Y001934D01*
X021038Y001778D02*
X023361Y001778D01*
X022384Y001310D02*
X021995Y001310D01*
X022054Y001154D02*
X022384Y001154D01*
X022384Y000998D02*
X022054Y000998D01*
X022021Y000842D02*
X022384Y000842D01*
X022384Y000686D02*
X021953Y000686D01*
X021891Y001466D02*
X024800Y001466D01*
X024800Y001622D02*
X021665Y001622D01*
X021198Y001622D02*
X021038Y001622D01*
X023072Y006925D02*
X024885Y006925D01*
X024885Y007081D02*
X023072Y007081D01*
X023072Y007237D02*
X024885Y007237D01*
X024885Y007393D02*
X023071Y007393D01*
X023071Y007549D02*
X024885Y007549D01*
X024140Y007705D02*
X023954Y007705D01*
X023743Y007705D02*
X023090Y007705D01*
X023119Y007861D02*
X023541Y007861D01*
X023494Y008017D02*
X023053Y008017D01*
X022961Y008641D02*
X023516Y008641D01*
X021940Y009109D02*
X021616Y009109D01*
X021870Y009265D02*
X021876Y009265D01*
X021075Y008797D02*
X021038Y008797D01*
X028626Y009301D02*
X030486Y009301D01*
X030486Y008759D01*
X030047Y008320D01*
X029996Y008198D01*
X029996Y005034D01*
X030047Y004912D01*
X030141Y004818D01*
X030417Y004541D01*
X030464Y004429D01*
X030486Y004406D01*
X030486Y003221D01*
X029613Y003221D01*
X029492Y003099D01*
X029492Y002955D01*
X029468Y002965D01*
X029397Y002979D01*
X029377Y002979D01*
X029377Y002392D01*
X029344Y002392D01*
X029344Y002979D01*
X029324Y002979D01*
X029317Y002978D01*
X029317Y003012D01*
X029225Y003104D01*
X028981Y003104D01*
X028973Y003112D01*
X028804Y003112D01*
X028804Y006313D01*
X029306Y006815D01*
X029364Y006815D01*
X029471Y006860D01*
X029553Y006942D01*
X029598Y007050D01*
X029598Y007166D01*
X029553Y007274D01*
X029471Y007356D01*
X029364Y007400D01*
X029247Y007400D01*
X029140Y007356D01*
X029057Y007274D01*
X029013Y007166D01*
X029013Y007109D01*
X029001Y007097D01*
X029001Y007592D01*
X029776Y007592D01*
X029868Y007684D01*
X029868Y008901D01*
X029776Y008994D01*
X028933Y008994D01*
X028626Y009301D01*
X028662Y009265D02*
X030486Y009265D01*
X030486Y009109D02*
X028818Y009109D01*
X029817Y008953D02*
X030486Y008953D01*
X030486Y008797D02*
X029868Y008797D01*
X029868Y008641D02*
X030368Y008641D01*
X030212Y008485D02*
X029868Y008485D01*
X029868Y008329D02*
X030056Y008329D01*
X029996Y008173D02*
X029868Y008173D01*
X029868Y008017D02*
X029996Y008017D01*
X029996Y007861D02*
X029868Y007861D01*
X029868Y007705D02*
X029996Y007705D01*
X029996Y007549D02*
X029001Y007549D01*
X029001Y007393D02*
X029230Y007393D01*
X029381Y007393D02*
X029996Y007393D01*
X029996Y007237D02*
X029568Y007237D01*
X029598Y007081D02*
X029996Y007081D01*
X029996Y006925D02*
X029536Y006925D01*
X029260Y006769D02*
X029996Y006769D01*
X029996Y006613D02*
X029104Y006613D01*
X028948Y006457D02*
X029996Y006457D01*
X029996Y006301D02*
X028804Y006301D01*
X028804Y006145D02*
X029996Y006145D01*
X029996Y005989D02*
X028804Y005989D01*
X028804Y005833D02*
X029996Y005833D01*
X029996Y005677D02*
X028804Y005677D01*
X028804Y005521D02*
X029996Y005521D01*
X029996Y005365D02*
X028804Y005365D01*
X028804Y005209D02*
X029996Y005209D01*
X029996Y005054D02*
X028804Y005054D01*
X028804Y004898D02*
X030061Y004898D01*
X030217Y004742D02*
X028804Y004742D01*
X028804Y004586D02*
X030373Y004586D01*
X030464Y004430D02*
X028804Y004430D01*
X028804Y004274D02*
X030486Y004274D01*
X030486Y004118D02*
X028804Y004118D01*
X028804Y003962D02*
X030486Y003962D01*
X030486Y003806D02*
X028804Y003806D01*
X028804Y003650D02*
X030486Y003650D01*
X030486Y003494D02*
X028804Y003494D01*
X028804Y003338D02*
X030486Y003338D01*
X029574Y003182D02*
X028804Y003182D01*
X029303Y003026D02*
X029492Y003026D01*
X029377Y002870D02*
X029344Y002870D01*
X029344Y002714D02*
X029377Y002714D01*
X029377Y002558D02*
X029344Y002558D01*
X029344Y002402D02*
X029377Y002402D01*
X029377Y002359D02*
X029377Y001772D01*
X029397Y001772D01*
X029452Y001783D01*
X029452Y001682D01*
X029221Y001450D01*
X028957Y001450D01*
X028697Y001710D01*
X028862Y001710D01*
X028893Y001697D01*
X029009Y001697D01*
X029117Y001742D01*
X029188Y001813D01*
X029253Y001786D01*
X029324Y001772D01*
X029344Y001772D01*
X029344Y002359D01*
X029377Y002359D01*
X029377Y002246D02*
X029344Y002246D01*
X029344Y002090D02*
X029377Y002090D01*
X029377Y001934D02*
X029344Y001934D01*
X029344Y001778D02*
X029377Y001778D01*
X029427Y001778D02*
X029452Y001778D01*
X029294Y001778D02*
X029153Y001778D01*
X029392Y001622D02*
X028786Y001622D01*
X028941Y001466D02*
X029236Y001466D01*
X029042Y007237D02*
X029001Y007237D01*
X028957Y011923D02*
X028697Y012183D01*
X028862Y012183D01*
X028893Y012170D01*
X029009Y012170D01*
X029117Y012214D01*
X029188Y012285D01*
X029253Y012258D01*
X029324Y012244D01*
X029344Y012244D01*
X029344Y012832D01*
X029377Y012832D01*
X029377Y012244D01*
X029397Y012244D01*
X029452Y012255D01*
X029452Y012154D01*
X029221Y011923D01*
X028957Y011923D01*
X028807Y012073D02*
X029370Y012073D01*
X029452Y012229D02*
X029131Y012229D01*
X029344Y012385D02*
X029377Y012385D01*
X029377Y012541D02*
X029344Y012541D01*
X029344Y012697D02*
X029377Y012697D01*
X029377Y012864D02*
X029344Y012864D01*
X029344Y013452D01*
X029324Y013452D01*
X029317Y013450D01*
X029317Y013484D01*
X029225Y013576D01*
X028981Y013576D01*
X028973Y013584D01*
X028804Y013584D01*
X028804Y016786D01*
X029306Y017288D01*
X029364Y017288D01*
X029471Y017332D01*
X029553Y017415D01*
X029598Y017522D01*
X029598Y017638D01*
X029553Y017746D01*
X029471Y017828D01*
X029364Y017873D01*
X029247Y017873D01*
X029140Y017828D01*
X029057Y017746D01*
X029013Y017638D01*
X029013Y017581D01*
X029001Y017569D01*
X029001Y018065D01*
X029776Y018065D01*
X029868Y018157D01*
X029868Y019374D01*
X029776Y019466D01*
X028933Y019466D01*
X028626Y019773D01*
X030486Y019773D01*
X030486Y019232D01*
X030047Y018792D01*
X029996Y018670D01*
X029996Y015506D01*
X030047Y015384D01*
X030141Y015291D01*
X030417Y015014D01*
X030464Y014901D01*
X030486Y014879D01*
X030486Y013693D01*
X029613Y013693D01*
X029492Y013572D01*
X029492Y013428D01*
X029468Y013438D01*
X029397Y013452D01*
X029377Y013452D01*
X029377Y012864D01*
X029377Y013009D02*
X029344Y013009D01*
X029344Y013164D02*
X029377Y013164D01*
X029377Y013320D02*
X029344Y013320D01*
X029317Y013476D02*
X029492Y013476D01*
X029552Y013632D02*
X028804Y013632D01*
X028804Y013788D02*
X030486Y013788D01*
X030486Y013944D02*
X028804Y013944D01*
X028804Y014100D02*
X030486Y014100D01*
X030486Y014256D02*
X028804Y014256D01*
X028804Y014412D02*
X030486Y014412D01*
X030486Y014568D02*
X028804Y014568D01*
X028804Y014724D02*
X030486Y014724D01*
X030485Y014880D02*
X028804Y014880D01*
X028804Y015036D02*
X030395Y015036D01*
X030239Y015192D02*
X028804Y015192D01*
X028804Y015348D02*
X030083Y015348D01*
X029997Y015504D02*
X028804Y015504D01*
X028804Y015660D02*
X029996Y015660D01*
X029996Y015816D02*
X028804Y015816D01*
X028804Y015972D02*
X029996Y015972D01*
X029996Y016128D02*
X028804Y016128D01*
X028804Y016284D02*
X029996Y016284D01*
X029996Y016440D02*
X028804Y016440D01*
X028804Y016596D02*
X029996Y016596D01*
X029996Y016752D02*
X028804Y016752D01*
X028926Y016908D02*
X029996Y016908D01*
X029996Y017064D02*
X029082Y017064D01*
X029238Y017220D02*
X029996Y017220D01*
X029996Y017376D02*
X029515Y017376D01*
X029598Y017532D02*
X029996Y017532D01*
X029996Y017688D02*
X029577Y017688D01*
X029433Y017844D02*
X029996Y017844D01*
X029996Y018000D02*
X029001Y018000D01*
X029001Y017844D02*
X029177Y017844D01*
X029033Y017688D02*
X029001Y017688D01*
X029867Y018156D02*
X029996Y018156D01*
X029996Y018312D02*
X029868Y018312D01*
X029868Y018468D02*
X029996Y018468D01*
X029996Y018624D02*
X029868Y018624D01*
X029868Y018780D02*
X030042Y018780D01*
X030191Y018936D02*
X029868Y018936D01*
X029868Y019092D02*
X030347Y019092D01*
X030486Y019248D02*
X029868Y019248D01*
X029839Y019404D02*
X030486Y019404D01*
X030486Y019560D02*
X028840Y019560D01*
X028684Y019716D02*
X030486Y019716D01*
X029221Y022395D02*
X028957Y022395D01*
X028697Y022655D01*
X028862Y022655D01*
X028893Y022642D01*
X029009Y022642D01*
X029117Y022687D01*
X029188Y022758D01*
X029253Y022731D01*
X029324Y022717D01*
X029344Y022717D01*
X029344Y023304D01*
X029377Y023304D01*
X029377Y022717D01*
X029397Y022717D01*
X029452Y022728D01*
X029452Y022627D01*
X029221Y022395D01*
X029349Y022523D02*
X028829Y022523D01*
X029099Y022679D02*
X029452Y022679D01*
X029377Y022835D02*
X029344Y022835D01*
X029344Y022991D02*
X029377Y022991D01*
X029377Y023147D02*
X029344Y023147D01*
X029344Y023303D02*
X029377Y023303D01*
X029377Y023337D02*
X029344Y023337D01*
X029344Y023924D01*
X029324Y023924D01*
X029317Y023923D01*
X029317Y023957D01*
X029225Y024049D01*
X028981Y024049D01*
X028973Y024057D01*
X028804Y024057D01*
X028804Y027258D01*
X029306Y027760D01*
X029364Y027760D01*
X029471Y027805D01*
X029553Y027887D01*
X029598Y027995D01*
X029598Y028111D01*
X029553Y028218D01*
X029471Y028301D01*
X029364Y028345D01*
X029247Y028345D01*
X029140Y028301D01*
X029057Y028218D01*
X029013Y028111D01*
X029013Y028054D01*
X029001Y028042D01*
X029001Y028537D01*
X029776Y028537D01*
X029868Y028629D01*
X029868Y029846D01*
X029776Y029939D01*
X028933Y029939D01*
X028626Y030246D01*
X030486Y030246D01*
X030486Y029704D01*
X030047Y029265D01*
X029996Y029143D01*
X029996Y025979D01*
X030047Y025857D01*
X030141Y025763D01*
X030417Y025486D01*
X030464Y025373D01*
X030486Y025351D01*
X030486Y024166D01*
X029613Y024166D01*
X029492Y024044D01*
X029492Y023900D01*
X029468Y023910D01*
X029397Y023924D01*
X029377Y023924D01*
X029377Y023337D01*
X029377Y023459D02*
X029344Y023459D01*
X029344Y023615D02*
X029377Y023615D01*
X029377Y023771D02*
X029344Y023771D01*
X029317Y023927D02*
X029492Y023927D01*
X029531Y024083D02*
X028804Y024083D01*
X028804Y024239D02*
X030486Y024239D01*
X030486Y024395D02*
X028804Y024395D01*
X028804Y024551D02*
X030486Y024551D01*
X030486Y024707D02*
X028804Y024707D01*
X028804Y024863D02*
X030486Y024863D01*
X030486Y025019D02*
X028804Y025019D01*
X028804Y025175D02*
X030486Y025175D01*
X030486Y025331D02*
X028804Y025331D01*
X028804Y025487D02*
X030417Y025487D01*
X030261Y025643D02*
X028804Y025643D01*
X028804Y025799D02*
X030105Y025799D01*
X030006Y025955D02*
X028804Y025955D01*
X028804Y026111D02*
X029996Y026111D01*
X029996Y026267D02*
X028804Y026267D01*
X028804Y026423D02*
X029996Y026423D01*
X029996Y026579D02*
X028804Y026579D01*
X028804Y026735D02*
X029996Y026735D01*
X029996Y026891D02*
X028804Y026891D01*
X028804Y027047D02*
X029996Y027047D01*
X029996Y027203D02*
X028804Y027203D01*
X028905Y027359D02*
X029996Y027359D01*
X029996Y027515D02*
X029061Y027515D01*
X029217Y027671D02*
X029996Y027671D01*
X029996Y027827D02*
X029493Y027827D01*
X029593Y027983D02*
X029996Y027983D01*
X029996Y028139D02*
X029586Y028139D01*
X029477Y028295D02*
X029996Y028295D01*
X029996Y028451D02*
X029001Y028451D01*
X029001Y028295D02*
X029134Y028295D01*
X029024Y028139D02*
X029001Y028139D01*
X029846Y028607D02*
X029996Y028607D01*
X029996Y028763D02*
X029868Y028763D01*
X029868Y028919D02*
X029996Y028919D01*
X029996Y029075D02*
X029868Y029075D01*
X029868Y029230D02*
X030033Y029230D01*
X030169Y029386D02*
X029868Y029386D01*
X029868Y029542D02*
X030325Y029542D01*
X030481Y029698D02*
X029868Y029698D01*
X029860Y029854D02*
X030486Y029854D01*
X030486Y030010D02*
X028862Y030010D01*
X028706Y030166D02*
X030486Y030166D01*
X012664Y007237D02*
X012623Y007237D01*
X006965Y003026D02*
X006682Y003026D01*
X006682Y002870D02*
X006959Y002870D01*
X006959Y002714D02*
X006682Y002714D01*
X006681Y002558D02*
X006959Y002558D01*
X006959Y002402D02*
X006743Y002402D01*
X006730Y002246D02*
X006959Y002246D01*
X006959Y002090D02*
X006603Y002090D01*
X006314Y002090D02*
X005545Y002090D01*
X005611Y002246D02*
X006188Y002246D01*
X006174Y002402D02*
X005636Y002402D01*
X005629Y002558D02*
X006206Y002558D01*
X006207Y002714D02*
X005564Y002714D01*
X005431Y002870D02*
X006207Y002870D01*
X006208Y003026D02*
X005807Y003026D01*
X005921Y003182D02*
X006208Y003182D01*
X006208Y003338D02*
X005971Y003338D01*
X005971Y003494D02*
X006209Y003494D01*
X006209Y003650D02*
X005914Y003650D01*
X005790Y003806D02*
X006210Y003806D01*
X006210Y003962D02*
X006069Y003962D01*
X005681Y004342D02*
X005241Y004342D01*
X005241Y004401D01*
X005681Y004401D01*
X005681Y004342D01*
X005343Y003972D02*
X005357Y003958D01*
X005394Y003931D01*
X005343Y003931D01*
X005150Y003851D01*
X005003Y003704D01*
X004990Y003673D01*
X004990Y003911D01*
X004660Y003911D01*
X004660Y003911D01*
X004990Y003911D01*
X004990Y003972D01*
X005173Y003972D01*
X005173Y004296D01*
X005181Y004245D01*
X005208Y004163D01*
X005241Y004099D01*
X005241Y003972D01*
X005343Y003972D01*
X005353Y003962D02*
X004990Y003962D01*
X004990Y003806D02*
X005105Y003806D01*
X005173Y004118D02*
X005231Y004118D01*
X005177Y004274D02*
X005173Y004274D01*
X005389Y001934D02*
X006959Y001934D01*
X006983Y001778D02*
X004660Y001778D01*
X004660Y001934D02*
X004718Y001934D01*
X004660Y001622D02*
X004820Y001622D01*
X005287Y001622D02*
X008422Y001622D01*
X008422Y001466D02*
X005513Y001466D01*
X005617Y001310D02*
X006006Y001310D01*
X006006Y001154D02*
X005676Y001154D01*
X005676Y000998D02*
X006006Y000998D01*
X006006Y000842D02*
X005643Y000842D01*
X005575Y000686D02*
X006006Y000686D01*
D31*
X006557Y000872D02*
X006589Y000848D01*
X007179Y000848D01*
X007179Y000533D01*
X007219Y000494D01*
X010132Y000494D01*
X010132Y002069D01*
X010290Y002226D01*
X010290Y008643D01*
X011549Y009903D01*
X011561Y009876D01*
X011589Y009864D01*
X011589Y009667D01*
X012612Y008643D01*
X012983Y008281D02*
X012967Y008250D01*
X012416Y007698D01*
X012416Y006832D01*
X011943Y006360D01*
X011943Y004155D01*
X012219Y003171D02*
X012140Y003092D01*
X012140Y002423D01*
X012179Y002383D01*
X012195Y002376D01*
X012219Y002344D01*
X012573Y001990D01*
X013282Y002029D02*
X013282Y001596D01*
X012573Y000887D01*
X012561Y000876D01*
X012691Y001045D01*
X011864Y001872D01*
X011864Y002698D01*
X011786Y002777D01*
X011431Y002383D02*
X011408Y002376D01*
X011431Y002344D01*
X011431Y001006D01*
X011549Y000887D01*
X011561Y000876D01*
X010605Y000927D02*
X010605Y002344D01*
X010620Y002376D01*
X010644Y002383D01*
X010644Y005769D01*
X011510Y006635D01*
X011786Y006439D02*
X011431Y006084D01*
X011431Y002383D01*
X012219Y003171D02*
X012219Y006399D01*
X012927Y007108D01*
X012140Y007620D02*
X011786Y007265D01*
X011786Y006439D01*
X009857Y005887D02*
X009857Y002383D01*
X009833Y002376D01*
X009502Y001714D02*
X009502Y005887D01*
X008794Y002974D02*
X009030Y002738D01*
X009030Y002423D01*
X009046Y002415D01*
X008794Y002974D02*
X008754Y002974D01*
X008715Y002974D01*
X008715Y009431D01*
X008282Y009864D01*
X008266Y009876D01*
X007219Y010966D02*
X010132Y010966D01*
X010132Y012541D01*
X010290Y012698D01*
X010290Y019116D01*
X011549Y020376D01*
X011561Y020348D01*
X011589Y020336D01*
X011589Y020139D01*
X012612Y019116D01*
X012983Y018754D02*
X012967Y018722D01*
X012416Y018171D01*
X012416Y017305D01*
X011943Y016832D01*
X011943Y014628D01*
X012219Y013643D02*
X012140Y013565D01*
X012140Y012895D01*
X012179Y012856D01*
X012195Y012848D01*
X012219Y012817D01*
X012573Y012462D01*
X013282Y012502D02*
X013282Y012069D01*
X012573Y011360D01*
X012561Y011348D01*
X012691Y011517D01*
X011864Y012344D01*
X011864Y013171D01*
X011786Y013250D01*
X011431Y012856D02*
X011408Y012848D01*
X011431Y012817D01*
X011431Y011478D01*
X011549Y011360D01*
X011561Y011348D01*
X010605Y011399D02*
X010605Y012817D01*
X010620Y012848D01*
X010644Y012856D01*
X010644Y016242D01*
X011510Y017108D01*
X011786Y016911D02*
X011431Y016557D01*
X011431Y012856D01*
X012219Y013643D02*
X012219Y016872D01*
X012927Y017580D01*
X012140Y018092D02*
X011786Y017738D01*
X011786Y016911D01*
X009857Y016360D02*
X009857Y012856D01*
X009833Y012848D01*
X009502Y012187D02*
X009502Y016360D01*
X008794Y013446D02*
X009030Y013210D01*
X009030Y012895D01*
X009046Y012887D01*
X008794Y013446D02*
X008754Y013446D01*
X008715Y013446D01*
X008715Y019903D01*
X008282Y020336D01*
X008266Y020348D01*
X007219Y021439D02*
X010132Y021439D01*
X010132Y023013D01*
X010290Y023171D01*
X010290Y029588D01*
X011549Y030848D01*
X011561Y030820D01*
X011589Y030809D01*
X011589Y030612D01*
X012612Y029588D01*
X012983Y029226D02*
X012967Y029194D01*
X012416Y028643D01*
X012416Y027777D01*
X011943Y027305D01*
X011943Y025100D01*
X012219Y024116D02*
X012140Y024037D01*
X012140Y023368D01*
X012179Y023328D01*
X012195Y023320D01*
X012219Y023289D01*
X012573Y022935D01*
X013282Y022974D02*
X013282Y022541D01*
X012573Y021832D01*
X012561Y021820D01*
X012691Y021990D01*
X011864Y022817D01*
X011864Y023643D01*
X011786Y023722D01*
X011431Y023328D02*
X011408Y023320D01*
X011431Y023289D01*
X011431Y021950D01*
X011549Y021832D01*
X011561Y021820D01*
X010605Y021872D02*
X010605Y023289D01*
X010620Y023320D01*
X010644Y023328D01*
X010644Y026714D01*
X011510Y027580D01*
X011786Y027383D02*
X011431Y027029D01*
X011431Y023328D01*
X012219Y024116D02*
X012219Y027344D01*
X012927Y028053D01*
X012140Y028565D02*
X011786Y028210D01*
X011786Y027383D01*
X009857Y026832D02*
X009857Y023328D01*
X009833Y023320D01*
X009502Y022659D02*
X009502Y026832D01*
X008794Y023919D02*
X009030Y023683D01*
X009030Y023368D01*
X009046Y023360D01*
X008794Y023919D02*
X008754Y023919D01*
X008715Y023919D01*
X008715Y030376D01*
X008282Y030809D01*
X008266Y030820D01*
X014384Y027935D02*
X014384Y026163D01*
X015171Y026202D02*
X015171Y030257D01*
X015880Y029194D02*
X015880Y028840D01*
X016825Y028840D01*
X017101Y029116D01*
X017101Y030139D01*
X019069Y030139D01*
X019423Y029785D01*
X019423Y026242D01*
X019817Y025848D01*
X019845Y025820D01*
X017101Y025533D02*
X017101Y024824D01*
X015171Y022895D01*
X015164Y022887D01*
X014569Y023966D02*
X014542Y023958D01*
X013321Y023958D01*
X013321Y023013D01*
X013282Y022974D01*
X013557Y022895D02*
X013557Y021832D01*
X013561Y021820D01*
X015171Y019785D02*
X015171Y015730D01*
X015841Y015061D01*
X016983Y015179D02*
X017101Y015061D01*
X017101Y014352D01*
X015171Y012423D01*
X015164Y012415D01*
X014569Y013494D02*
X014542Y013486D01*
X013321Y013486D01*
X013321Y012541D01*
X013282Y012502D01*
X013557Y012423D02*
X013557Y011360D01*
X013561Y011348D01*
X015171Y009313D02*
X015171Y005257D01*
X015841Y004588D01*
X016983Y004706D02*
X017101Y004588D01*
X017101Y003880D01*
X015171Y001950D01*
X015164Y001943D01*
X014569Y003021D02*
X014542Y003013D01*
X013321Y003013D01*
X013321Y002069D01*
X013282Y002029D01*
X013557Y001950D02*
X013557Y000887D01*
X013561Y000876D01*
X010605Y000927D02*
X010565Y000887D01*
X010561Y000876D01*
X009502Y001714D02*
X009148Y001360D01*
X006459Y002340D02*
X006443Y002356D01*
X006443Y002419D01*
X014384Y005218D02*
X014384Y006990D01*
X014396Y006998D01*
X015880Y007895D02*
X015880Y008250D01*
X015880Y007895D02*
X016825Y007895D01*
X017101Y008171D01*
X017101Y009194D01*
X019069Y009194D01*
X019423Y008840D01*
X019423Y005297D01*
X019817Y004903D01*
X019845Y004876D01*
X016983Y004706D02*
X016983Y007777D01*
X017297Y008092D01*
X017297Y008210D01*
X017376Y008289D01*
X022821Y012828D02*
X022837Y012813D01*
X022821Y012828D02*
X022821Y012891D01*
X022935Y011344D02*
X022967Y011320D01*
X023557Y011320D01*
X023557Y011006D01*
X023597Y010966D01*
X026510Y010966D01*
X026510Y012541D01*
X026668Y012698D01*
X026668Y019116D01*
X027927Y020376D01*
X027939Y020348D01*
X027967Y020336D01*
X027967Y020139D01*
X028990Y019116D01*
X029360Y018754D02*
X029345Y018722D01*
X028794Y018171D01*
X028794Y017305D01*
X028321Y016832D01*
X028321Y014628D01*
X028597Y013643D02*
X028518Y013565D01*
X028518Y012895D01*
X028557Y012856D01*
X028573Y012848D01*
X028597Y012817D01*
X028951Y012462D01*
X029660Y012502D02*
X029660Y012069D01*
X028951Y011360D01*
X028939Y011348D01*
X029069Y011517D01*
X028242Y012344D01*
X028242Y013171D01*
X028164Y013250D01*
X027809Y012856D02*
X027786Y012848D01*
X027809Y012817D01*
X027809Y011478D01*
X027927Y011360D01*
X027939Y011348D01*
X026983Y011399D02*
X026983Y012817D01*
X026998Y012848D01*
X027022Y012856D01*
X027022Y016242D01*
X027888Y017108D01*
X028164Y016911D02*
X027809Y016557D01*
X027809Y012856D01*
X028597Y013643D02*
X028597Y016872D01*
X029305Y017580D01*
X028518Y018092D02*
X028164Y017738D01*
X028164Y016911D01*
X026234Y016360D02*
X026234Y012856D01*
X026211Y012848D01*
X025880Y012187D02*
X025880Y016360D01*
X025171Y013446D02*
X025408Y013210D01*
X025408Y012895D01*
X025423Y012887D01*
X025171Y013446D02*
X025132Y013446D01*
X025093Y013446D01*
X025093Y019903D01*
X024660Y020336D01*
X024644Y020348D01*
X023597Y021439D02*
X026510Y021439D01*
X026510Y023013D01*
X026668Y023171D01*
X026668Y029588D01*
X027927Y030848D01*
X027939Y030820D01*
X027967Y030809D01*
X027967Y030612D01*
X028990Y029588D01*
X029360Y029226D02*
X029345Y029194D01*
X028794Y028643D01*
X028794Y027777D01*
X028321Y027305D01*
X028321Y025100D01*
X028597Y024116D02*
X028518Y024037D01*
X028518Y023368D01*
X028557Y023328D01*
X028573Y023320D01*
X028597Y023289D01*
X028951Y022935D01*
X029660Y022974D02*
X029660Y022541D01*
X028951Y021832D01*
X028939Y021820D01*
X029069Y021990D01*
X028242Y022817D01*
X028242Y023643D01*
X028164Y023722D01*
X027809Y023328D02*
X027786Y023320D01*
X027809Y023289D01*
X027809Y021950D01*
X027927Y021832D01*
X027939Y021820D01*
X026983Y021872D02*
X026983Y023289D01*
X026998Y023320D01*
X027022Y023328D01*
X027022Y026714D01*
X027888Y027580D01*
X028164Y027383D02*
X027809Y027029D01*
X027809Y023328D01*
X028597Y024116D02*
X028597Y027344D01*
X029305Y028053D01*
X028518Y028565D02*
X028164Y028210D01*
X028164Y027383D01*
X026234Y026832D02*
X026234Y023328D01*
X026211Y023320D01*
X025880Y022659D02*
X025880Y026832D01*
X025171Y023919D02*
X025408Y023683D01*
X025408Y023368D01*
X025423Y023360D01*
X025171Y023919D02*
X025132Y023919D01*
X025093Y023919D01*
X025093Y030376D01*
X024660Y030809D01*
X024644Y030820D01*
X030762Y027935D02*
X030762Y026163D01*
X031549Y026202D02*
X031549Y030257D01*
X032258Y029194D02*
X032258Y028840D01*
X033203Y028840D01*
X033479Y029116D01*
X033479Y030139D01*
X035447Y030139D01*
X035801Y029785D01*
X035801Y026242D01*
X036195Y025848D01*
X036223Y025820D01*
X033479Y025533D02*
X033479Y024824D01*
X031549Y022895D01*
X031542Y022887D01*
X030947Y023966D02*
X030920Y023958D01*
X029699Y023958D01*
X029699Y023013D01*
X029660Y022974D01*
X029935Y022895D02*
X029935Y021832D01*
X029939Y021820D01*
X031549Y019785D02*
X031549Y015730D01*
X032219Y015061D01*
X033360Y015179D02*
X033479Y015061D01*
X033479Y014352D01*
X031549Y012423D01*
X031542Y012415D01*
X030947Y013494D02*
X030920Y013486D01*
X029699Y013486D01*
X029699Y012541D01*
X029660Y012502D01*
X029935Y012423D02*
X029935Y011360D01*
X029939Y011348D01*
X027967Y009864D02*
X027967Y009667D01*
X028990Y008643D01*
X029360Y008281D02*
X029345Y008250D01*
X028794Y007698D01*
X028794Y006832D01*
X028321Y006360D01*
X028321Y004155D01*
X028597Y003171D02*
X028518Y003092D01*
X028518Y002423D01*
X028557Y002383D01*
X028573Y002376D01*
X028597Y002344D01*
X028951Y001990D01*
X029660Y002029D02*
X029660Y001596D01*
X028951Y000887D01*
X028939Y000876D01*
X029069Y001045D01*
X028242Y001872D01*
X028242Y002698D01*
X028164Y002777D01*
X027809Y002383D02*
X027786Y002376D01*
X027809Y002344D01*
X027809Y001006D01*
X027927Y000887D01*
X027939Y000876D01*
X026983Y000927D02*
X026983Y002344D01*
X026998Y002376D01*
X027022Y002383D01*
X027022Y005769D01*
X027888Y006635D01*
X028164Y006439D02*
X027809Y006084D01*
X027809Y002383D01*
X028597Y003171D02*
X028597Y006399D01*
X029305Y007108D01*
X028518Y007620D02*
X028164Y007265D01*
X028164Y006439D01*
X026234Y005887D02*
X026234Y002383D01*
X026211Y002376D01*
X026510Y002069D02*
X026668Y002226D01*
X026668Y008643D01*
X027927Y009903D01*
X027939Y009876D01*
X027967Y009864D01*
X026939Y011348D02*
X026943Y011360D01*
X026983Y011399D01*
X025880Y012187D02*
X025526Y011832D01*
X024644Y009876D02*
X024660Y009864D01*
X025093Y009431D01*
X025093Y002974D01*
X025132Y002974D01*
X025171Y002974D01*
X025408Y002738D01*
X025408Y002423D01*
X025423Y002415D01*
X025880Y001714D02*
X025880Y005887D01*
X022821Y002419D02*
X022821Y002356D01*
X022837Y002340D01*
X022935Y000872D02*
X022967Y000848D01*
X023557Y000848D01*
X023557Y000533D01*
X023597Y000494D01*
X026510Y000494D01*
X026510Y002069D01*
X025880Y001714D02*
X025526Y001360D01*
X026943Y000887D02*
X026939Y000876D01*
X026943Y000887D02*
X026983Y000927D01*
X029660Y002029D02*
X029699Y002069D01*
X029699Y003013D01*
X030920Y003013D01*
X030947Y003021D01*
X031549Y001950D02*
X031542Y001943D01*
X031549Y001950D02*
X033479Y003880D01*
X033479Y004588D01*
X033360Y004706D01*
X033360Y007777D01*
X033675Y008092D01*
X033675Y008210D01*
X033754Y008289D01*
X033479Y008171D02*
X033203Y007895D01*
X032258Y007895D01*
X032258Y008250D01*
X033479Y008171D02*
X033479Y009194D01*
X035447Y009194D01*
X035801Y008840D01*
X035801Y005297D01*
X036195Y004903D01*
X036223Y004876D01*
X032219Y004588D02*
X031549Y005257D01*
X031549Y009313D01*
X030774Y006998D02*
X030762Y006990D01*
X030762Y005218D01*
X029935Y001950D02*
X029935Y000887D01*
X029939Y000876D01*
X033360Y015179D02*
X033360Y018250D01*
X033675Y018565D01*
X033675Y018683D01*
X033754Y018761D01*
X033479Y018643D02*
X033203Y018368D01*
X032258Y018368D01*
X032258Y018722D01*
X033479Y018643D02*
X033479Y019667D01*
X035447Y019667D01*
X035801Y019313D01*
X035801Y015769D01*
X036195Y015376D01*
X036223Y015348D01*
X030762Y015691D02*
X030762Y017462D01*
X030774Y017470D01*
X026939Y021820D02*
X026943Y021832D01*
X026983Y021872D01*
X025880Y022659D02*
X025526Y022305D01*
X023557Y021793D02*
X023557Y021478D01*
X023597Y021439D01*
X023557Y021793D02*
X022967Y021793D01*
X022935Y021817D01*
X022837Y023285D02*
X022821Y023301D01*
X022821Y023364D01*
X019069Y019667D02*
X017101Y019667D01*
X017101Y018643D01*
X016825Y018368D01*
X015880Y018368D01*
X015880Y018722D01*
X016983Y018250D02*
X016983Y015179D01*
X019423Y015769D02*
X019423Y019313D01*
X019069Y019667D01*
X017376Y018761D02*
X017297Y018683D01*
X017297Y018565D01*
X016983Y018250D01*
X014396Y017470D02*
X014384Y017462D01*
X014384Y015691D01*
X010605Y011399D02*
X010565Y011360D01*
X010561Y011348D01*
X009502Y012187D02*
X009148Y011832D01*
X007179Y011320D02*
X007179Y011006D01*
X007219Y010966D01*
X007179Y011320D02*
X006589Y011320D01*
X006557Y011344D01*
X006459Y012813D02*
X006443Y012828D01*
X006443Y012891D01*
X007219Y021439D02*
X007179Y021478D01*
X007179Y021793D01*
X006589Y021793D01*
X006557Y021817D01*
X006459Y023285D02*
X006443Y023301D01*
X006443Y023364D01*
X009148Y022305D02*
X009502Y022659D01*
X010565Y021832D02*
X010561Y021820D01*
X010565Y021832D02*
X010605Y021872D01*
X015171Y026202D02*
X015841Y025533D01*
X016983Y025651D02*
X017101Y025533D01*
X016983Y025651D02*
X016983Y028722D01*
X017297Y029037D01*
X017297Y029155D01*
X017376Y029234D01*
X014396Y027943D02*
X014384Y027935D01*
X019423Y015769D02*
X019817Y015376D01*
X019845Y015348D01*
X031549Y026202D02*
X032219Y025533D01*
X033360Y025651D02*
X033479Y025533D01*
X033360Y025651D02*
X033360Y028722D01*
X033675Y029037D01*
X033675Y029155D01*
X033754Y029234D01*
X030774Y027943D02*
X030762Y027935D01*
D32*
X023849Y029175D02*
X023844Y029174D01*
X023841Y029171D01*
X023838Y029168D01*
X023837Y029163D01*
X023837Y029230D01*
X023837Y029238D02*
X023837Y029163D01*
X023849Y029175D02*
X023849Y029198D01*
X023849Y029226D01*
X023636Y029226D01*
X023636Y029281D01*
X022833Y029281D01*
X022833Y029273D01*
X022833Y029281D01*
X022833Y028777D02*
X022837Y026687D01*
X022829Y026691D01*
X022829Y025935D02*
X022821Y023364D01*
X022833Y018809D02*
X023636Y018809D01*
X023636Y018754D01*
X023849Y018754D01*
X023849Y018726D01*
X023849Y018702D01*
X023849Y018703D02*
X023844Y018702D01*
X023841Y018699D01*
X023838Y018696D01*
X023837Y018691D01*
X023837Y018757D01*
X023837Y018765D02*
X023837Y018691D01*
X022833Y018801D02*
X022833Y018809D01*
X022833Y018801D01*
X022833Y018305D02*
X022837Y016214D01*
X022829Y016218D01*
X022829Y015462D02*
X022821Y012891D01*
X022833Y008336D02*
X023636Y008336D01*
X023636Y008281D01*
X023849Y008281D01*
X023849Y008254D01*
X023849Y008230D01*
X023844Y008229D01*
X023841Y008226D01*
X023838Y008223D01*
X023837Y008218D01*
X023837Y008285D01*
X023837Y008293D02*
X023837Y008218D01*
X022833Y008328D02*
X022833Y008336D01*
X022833Y008328D01*
X022833Y007832D02*
X022837Y005742D01*
X022829Y005746D01*
X022829Y004990D02*
X022821Y002419D01*
X007471Y008230D02*
X007466Y008229D01*
X007463Y008226D01*
X007460Y008223D01*
X007459Y008218D01*
X007459Y008285D01*
X007459Y008293D02*
X007459Y008218D01*
X007471Y008230D02*
X007471Y008254D01*
X007471Y008281D01*
X007258Y008281D01*
X007258Y008336D01*
X006455Y008336D01*
X006455Y008328D01*
X006455Y008336D01*
X006455Y007832D02*
X006459Y005742D01*
X006451Y005746D01*
X006451Y004990D02*
X006443Y002419D01*
X006443Y012891D02*
X006451Y015462D01*
X006459Y016214D02*
X006451Y016218D01*
X006459Y016214D02*
X006455Y018305D01*
X006455Y018801D02*
X006455Y018809D01*
X007258Y018809D01*
X007258Y018754D01*
X007471Y018754D01*
X007471Y018726D01*
X007471Y018702D01*
X007471Y018703D02*
X007466Y018702D01*
X007463Y018699D01*
X007460Y018696D01*
X007459Y018691D01*
X007459Y018757D01*
X007459Y018765D02*
X007459Y018691D01*
X006455Y018809D02*
X006455Y018801D01*
X006443Y023364D02*
X006451Y025935D01*
X006459Y026687D02*
X006451Y026691D01*
X006459Y026687D02*
X006455Y028777D01*
X006455Y029273D02*
X006455Y029281D01*
X007258Y029281D01*
X007258Y029226D01*
X007471Y029226D01*
X007471Y029198D01*
X007471Y029175D01*
X007466Y029174D01*
X007463Y029171D01*
X007460Y029168D01*
X007459Y029163D01*
X007459Y029230D01*
X007459Y029238D02*
X007459Y029163D01*
X006455Y029281D02*
X006455Y029273D01*
D33*
X005908Y026320D03*
X006451Y025935D03*
X005908Y015848D03*
X006451Y015462D03*
X005908Y005376D03*
X006451Y004990D03*
X022286Y005376D03*
X022829Y004990D03*
X022829Y015462D03*
X022286Y015848D03*
X022829Y025935D03*
X022286Y026320D03*
D34*
X022829Y026691D03*
X022829Y016218D03*
X022829Y005746D03*
X006451Y005746D03*
X006451Y016218D03*
X006451Y026691D03*
D35*
X006455Y029281D03*
X006455Y018809D03*
X006455Y008336D03*
X022833Y008336D03*
X022833Y018809D03*
X022833Y029281D03*
M02*
