G75*
%MOIN*%
%OFA0B0*%
%FSLAX24Y24*%
%IPPOS*%
%LPD*%
%AMOC8*
5,1,8,0,0,1.08239X$1,22.5*
%
%ADD10C,0.0000*%
%ADD11C,0.0080*%
%ADD12C,0.0050*%
%ADD13C,0.0040*%
%ADD14C,0.0060*%
%ADD15C,0.0059*%
%ADD16C,0.0320*%
D10*
X004227Y000218D02*
X036825Y000218D01*
X036825Y031478D01*
X004227Y031478D01*
X004227Y000218D01*
X004659Y001045D02*
X004661Y001084D01*
X004667Y001123D01*
X004677Y001161D01*
X004690Y001198D01*
X004707Y001233D01*
X004727Y001267D01*
X004751Y001298D01*
X004778Y001327D01*
X004807Y001353D01*
X004839Y001376D01*
X004873Y001396D01*
X004909Y001412D01*
X004946Y001424D01*
X004985Y001433D01*
X005024Y001438D01*
X005063Y001439D01*
X005102Y001436D01*
X005141Y001429D01*
X005178Y001418D01*
X005215Y001404D01*
X005250Y001386D01*
X005283Y001365D01*
X005314Y001340D01*
X005342Y001313D01*
X005367Y001283D01*
X005389Y001250D01*
X005408Y001216D01*
X005423Y001180D01*
X005435Y001142D01*
X005443Y001104D01*
X005447Y001065D01*
X005447Y001025D01*
X005443Y000986D01*
X005435Y000948D01*
X005423Y000910D01*
X005408Y000874D01*
X005389Y000840D01*
X005367Y000807D01*
X005342Y000777D01*
X005314Y000750D01*
X005283Y000725D01*
X005250Y000704D01*
X005215Y000686D01*
X005178Y000672D01*
X005141Y000661D01*
X005102Y000654D01*
X005063Y000651D01*
X005024Y000652D01*
X004985Y000657D01*
X004946Y000666D01*
X004909Y000678D01*
X004873Y000694D01*
X004839Y000714D01*
X004807Y000737D01*
X004778Y000763D01*
X004751Y000792D01*
X004727Y000823D01*
X004707Y000857D01*
X004690Y000892D01*
X004677Y000929D01*
X004667Y000967D01*
X004661Y001006D01*
X004659Y001045D01*
X004699Y002423D02*
X004701Y002460D01*
X004707Y002497D01*
X004716Y002532D01*
X004730Y002567D01*
X004746Y002600D01*
X004767Y002631D01*
X004790Y002660D01*
X004816Y002686D01*
X004845Y002709D01*
X004876Y002730D01*
X004909Y002746D01*
X004944Y002760D01*
X004979Y002769D01*
X005016Y002775D01*
X005053Y002777D01*
X005090Y002775D01*
X005127Y002769D01*
X005162Y002760D01*
X005197Y002746D01*
X005230Y002730D01*
X005261Y002709D01*
X005290Y002686D01*
X005316Y002660D01*
X005339Y002631D01*
X005360Y002600D01*
X005376Y002567D01*
X005390Y002532D01*
X005399Y002497D01*
X005405Y002460D01*
X005407Y002423D01*
X005405Y002386D01*
X005399Y002349D01*
X005390Y002314D01*
X005376Y002279D01*
X005360Y002246D01*
X005339Y002215D01*
X005316Y002186D01*
X005290Y002160D01*
X005261Y002137D01*
X005230Y002116D01*
X005197Y002100D01*
X005162Y002086D01*
X005127Y002077D01*
X005090Y002071D01*
X005053Y002069D01*
X005016Y002071D01*
X004979Y002077D01*
X004944Y002086D01*
X004909Y002100D01*
X004876Y002116D01*
X004845Y002137D01*
X004816Y002160D01*
X004790Y002186D01*
X004767Y002215D01*
X004746Y002246D01*
X004730Y002279D01*
X004716Y002314D01*
X004707Y002349D01*
X004701Y002386D01*
X004699Y002423D01*
X005152Y003407D02*
X005154Y003441D01*
X005160Y003475D01*
X005170Y003508D01*
X005183Y003539D01*
X005201Y003569D01*
X005221Y003597D01*
X005245Y003622D01*
X005271Y003644D01*
X005299Y003662D01*
X005330Y003678D01*
X005362Y003690D01*
X005396Y003698D01*
X005430Y003702D01*
X005464Y003702D01*
X005498Y003698D01*
X005532Y003690D01*
X005564Y003678D01*
X005594Y003662D01*
X005623Y003644D01*
X005649Y003622D01*
X005673Y003597D01*
X005693Y003569D01*
X005711Y003539D01*
X005724Y003508D01*
X005734Y003475D01*
X005740Y003441D01*
X005742Y003407D01*
X005740Y003373D01*
X005734Y003339D01*
X005724Y003306D01*
X005711Y003275D01*
X005693Y003245D01*
X005673Y003217D01*
X005649Y003192D01*
X005623Y003170D01*
X005595Y003152D01*
X005564Y003136D01*
X005532Y003124D01*
X005498Y003116D01*
X005464Y003112D01*
X005430Y003112D01*
X005396Y003116D01*
X005362Y003124D01*
X005330Y003136D01*
X005299Y003152D01*
X005271Y003170D01*
X005245Y003192D01*
X005221Y003217D01*
X005201Y003245D01*
X005183Y003275D01*
X005170Y003306D01*
X005160Y003339D01*
X005154Y003373D01*
X005152Y003407D01*
X005152Y007344D02*
X005154Y007378D01*
X005160Y007412D01*
X005170Y007445D01*
X005183Y007476D01*
X005201Y007506D01*
X005221Y007534D01*
X005245Y007559D01*
X005271Y007581D01*
X005299Y007599D01*
X005330Y007615D01*
X005362Y007627D01*
X005396Y007635D01*
X005430Y007639D01*
X005464Y007639D01*
X005498Y007635D01*
X005532Y007627D01*
X005564Y007615D01*
X005594Y007599D01*
X005623Y007581D01*
X005649Y007559D01*
X005673Y007534D01*
X005693Y007506D01*
X005711Y007476D01*
X005724Y007445D01*
X005734Y007412D01*
X005740Y007378D01*
X005742Y007344D01*
X005740Y007310D01*
X005734Y007276D01*
X005724Y007243D01*
X005711Y007212D01*
X005693Y007182D01*
X005673Y007154D01*
X005649Y007129D01*
X005623Y007107D01*
X005595Y007089D01*
X005564Y007073D01*
X005532Y007061D01*
X005498Y007053D01*
X005464Y007049D01*
X005430Y007049D01*
X005396Y007053D01*
X005362Y007061D01*
X005330Y007073D01*
X005299Y007089D01*
X005271Y007107D01*
X005245Y007129D01*
X005221Y007154D01*
X005201Y007182D01*
X005183Y007212D01*
X005170Y007243D01*
X005160Y007276D01*
X005154Y007310D01*
X005152Y007344D01*
X004699Y008328D02*
X004701Y008365D01*
X004707Y008402D01*
X004716Y008437D01*
X004730Y008472D01*
X004746Y008505D01*
X004767Y008536D01*
X004790Y008565D01*
X004816Y008591D01*
X004845Y008614D01*
X004876Y008635D01*
X004909Y008651D01*
X004944Y008665D01*
X004979Y008674D01*
X005016Y008680D01*
X005053Y008682D01*
X005090Y008680D01*
X005127Y008674D01*
X005162Y008665D01*
X005197Y008651D01*
X005230Y008635D01*
X005261Y008614D01*
X005290Y008591D01*
X005316Y008565D01*
X005339Y008536D01*
X005360Y008505D01*
X005376Y008472D01*
X005390Y008437D01*
X005399Y008402D01*
X005405Y008365D01*
X005407Y008328D01*
X005405Y008291D01*
X005399Y008254D01*
X005390Y008219D01*
X005376Y008184D01*
X005360Y008151D01*
X005339Y008120D01*
X005316Y008091D01*
X005290Y008065D01*
X005261Y008042D01*
X005230Y008021D01*
X005197Y008005D01*
X005162Y007991D01*
X005127Y007982D01*
X005090Y007976D01*
X005053Y007974D01*
X005016Y007976D01*
X004979Y007982D01*
X004944Y007991D01*
X004909Y008005D01*
X004876Y008021D01*
X004845Y008042D01*
X004816Y008065D01*
X004790Y008091D01*
X004767Y008120D01*
X004746Y008151D01*
X004730Y008184D01*
X004716Y008219D01*
X004707Y008254D01*
X004701Y008291D01*
X004699Y008328D01*
X004659Y009706D02*
X004661Y009745D01*
X004667Y009784D01*
X004677Y009822D01*
X004690Y009859D01*
X004707Y009894D01*
X004727Y009928D01*
X004751Y009959D01*
X004778Y009988D01*
X004807Y010014D01*
X004839Y010037D01*
X004873Y010057D01*
X004909Y010073D01*
X004946Y010085D01*
X004985Y010094D01*
X005024Y010099D01*
X005063Y010100D01*
X005102Y010097D01*
X005141Y010090D01*
X005178Y010079D01*
X005215Y010065D01*
X005250Y010047D01*
X005283Y010026D01*
X005314Y010001D01*
X005342Y009974D01*
X005367Y009944D01*
X005389Y009911D01*
X005408Y009877D01*
X005423Y009841D01*
X005435Y009803D01*
X005443Y009765D01*
X005447Y009726D01*
X005447Y009686D01*
X005443Y009647D01*
X005435Y009609D01*
X005423Y009571D01*
X005408Y009535D01*
X005389Y009501D01*
X005367Y009468D01*
X005342Y009438D01*
X005314Y009411D01*
X005283Y009386D01*
X005250Y009365D01*
X005215Y009347D01*
X005178Y009333D01*
X005141Y009322D01*
X005102Y009315D01*
X005063Y009312D01*
X005024Y009313D01*
X004985Y009318D01*
X004946Y009327D01*
X004909Y009339D01*
X004873Y009355D01*
X004839Y009375D01*
X004807Y009398D01*
X004778Y009424D01*
X004751Y009453D01*
X004727Y009484D01*
X004707Y009518D01*
X004690Y009553D01*
X004677Y009590D01*
X004667Y009628D01*
X004661Y009667D01*
X004659Y009706D01*
X004659Y011517D02*
X004661Y011556D01*
X004667Y011595D01*
X004677Y011633D01*
X004690Y011670D01*
X004707Y011705D01*
X004727Y011739D01*
X004751Y011770D01*
X004778Y011799D01*
X004807Y011825D01*
X004839Y011848D01*
X004873Y011868D01*
X004909Y011884D01*
X004946Y011896D01*
X004985Y011905D01*
X005024Y011910D01*
X005063Y011911D01*
X005102Y011908D01*
X005141Y011901D01*
X005178Y011890D01*
X005215Y011876D01*
X005250Y011858D01*
X005283Y011837D01*
X005314Y011812D01*
X005342Y011785D01*
X005367Y011755D01*
X005389Y011722D01*
X005408Y011688D01*
X005423Y011652D01*
X005435Y011614D01*
X005443Y011576D01*
X005447Y011537D01*
X005447Y011497D01*
X005443Y011458D01*
X005435Y011420D01*
X005423Y011382D01*
X005408Y011346D01*
X005389Y011312D01*
X005367Y011279D01*
X005342Y011249D01*
X005314Y011222D01*
X005283Y011197D01*
X005250Y011176D01*
X005215Y011158D01*
X005178Y011144D01*
X005141Y011133D01*
X005102Y011126D01*
X005063Y011123D01*
X005024Y011124D01*
X004985Y011129D01*
X004946Y011138D01*
X004909Y011150D01*
X004873Y011166D01*
X004839Y011186D01*
X004807Y011209D01*
X004778Y011235D01*
X004751Y011264D01*
X004727Y011295D01*
X004707Y011329D01*
X004690Y011364D01*
X004677Y011401D01*
X004667Y011439D01*
X004661Y011478D01*
X004659Y011517D01*
X004699Y012895D02*
X004701Y012932D01*
X004707Y012969D01*
X004716Y013004D01*
X004730Y013039D01*
X004746Y013072D01*
X004767Y013103D01*
X004790Y013132D01*
X004816Y013158D01*
X004845Y013181D01*
X004876Y013202D01*
X004909Y013218D01*
X004944Y013232D01*
X004979Y013241D01*
X005016Y013247D01*
X005053Y013249D01*
X005090Y013247D01*
X005127Y013241D01*
X005162Y013232D01*
X005197Y013218D01*
X005230Y013202D01*
X005261Y013181D01*
X005290Y013158D01*
X005316Y013132D01*
X005339Y013103D01*
X005360Y013072D01*
X005376Y013039D01*
X005390Y013004D01*
X005399Y012969D01*
X005405Y012932D01*
X005407Y012895D01*
X005405Y012858D01*
X005399Y012821D01*
X005390Y012786D01*
X005376Y012751D01*
X005360Y012718D01*
X005339Y012687D01*
X005316Y012658D01*
X005290Y012632D01*
X005261Y012609D01*
X005230Y012588D01*
X005197Y012572D01*
X005162Y012558D01*
X005127Y012549D01*
X005090Y012543D01*
X005053Y012541D01*
X005016Y012543D01*
X004979Y012549D01*
X004944Y012558D01*
X004909Y012572D01*
X004876Y012588D01*
X004845Y012609D01*
X004816Y012632D01*
X004790Y012658D01*
X004767Y012687D01*
X004746Y012718D01*
X004730Y012751D01*
X004716Y012786D01*
X004707Y012821D01*
X004701Y012858D01*
X004699Y012895D01*
X005152Y013880D02*
X005154Y013914D01*
X005160Y013948D01*
X005170Y013981D01*
X005183Y014012D01*
X005201Y014042D01*
X005221Y014070D01*
X005245Y014095D01*
X005271Y014117D01*
X005299Y014135D01*
X005330Y014151D01*
X005362Y014163D01*
X005396Y014171D01*
X005430Y014175D01*
X005464Y014175D01*
X005498Y014171D01*
X005532Y014163D01*
X005564Y014151D01*
X005594Y014135D01*
X005623Y014117D01*
X005649Y014095D01*
X005673Y014070D01*
X005693Y014042D01*
X005711Y014012D01*
X005724Y013981D01*
X005734Y013948D01*
X005740Y013914D01*
X005742Y013880D01*
X005740Y013846D01*
X005734Y013812D01*
X005724Y013779D01*
X005711Y013748D01*
X005693Y013718D01*
X005673Y013690D01*
X005649Y013665D01*
X005623Y013643D01*
X005595Y013625D01*
X005564Y013609D01*
X005532Y013597D01*
X005498Y013589D01*
X005464Y013585D01*
X005430Y013585D01*
X005396Y013589D01*
X005362Y013597D01*
X005330Y013609D01*
X005299Y013625D01*
X005271Y013643D01*
X005245Y013665D01*
X005221Y013690D01*
X005201Y013718D01*
X005183Y013748D01*
X005170Y013779D01*
X005160Y013812D01*
X005154Y013846D01*
X005152Y013880D01*
X005152Y017817D02*
X005154Y017851D01*
X005160Y017885D01*
X005170Y017918D01*
X005183Y017949D01*
X005201Y017979D01*
X005221Y018007D01*
X005245Y018032D01*
X005271Y018054D01*
X005299Y018072D01*
X005330Y018088D01*
X005362Y018100D01*
X005396Y018108D01*
X005430Y018112D01*
X005464Y018112D01*
X005498Y018108D01*
X005532Y018100D01*
X005564Y018088D01*
X005594Y018072D01*
X005623Y018054D01*
X005649Y018032D01*
X005673Y018007D01*
X005693Y017979D01*
X005711Y017949D01*
X005724Y017918D01*
X005734Y017885D01*
X005740Y017851D01*
X005742Y017817D01*
X005740Y017783D01*
X005734Y017749D01*
X005724Y017716D01*
X005711Y017685D01*
X005693Y017655D01*
X005673Y017627D01*
X005649Y017602D01*
X005623Y017580D01*
X005595Y017562D01*
X005564Y017546D01*
X005532Y017534D01*
X005498Y017526D01*
X005464Y017522D01*
X005430Y017522D01*
X005396Y017526D01*
X005362Y017534D01*
X005330Y017546D01*
X005299Y017562D01*
X005271Y017580D01*
X005245Y017602D01*
X005221Y017627D01*
X005201Y017655D01*
X005183Y017685D01*
X005170Y017716D01*
X005160Y017749D01*
X005154Y017783D01*
X005152Y017817D01*
X004699Y018801D02*
X004701Y018838D01*
X004707Y018875D01*
X004716Y018910D01*
X004730Y018945D01*
X004746Y018978D01*
X004767Y019009D01*
X004790Y019038D01*
X004816Y019064D01*
X004845Y019087D01*
X004876Y019108D01*
X004909Y019124D01*
X004944Y019138D01*
X004979Y019147D01*
X005016Y019153D01*
X005053Y019155D01*
X005090Y019153D01*
X005127Y019147D01*
X005162Y019138D01*
X005197Y019124D01*
X005230Y019108D01*
X005261Y019087D01*
X005290Y019064D01*
X005316Y019038D01*
X005339Y019009D01*
X005360Y018978D01*
X005376Y018945D01*
X005390Y018910D01*
X005399Y018875D01*
X005405Y018838D01*
X005407Y018801D01*
X005405Y018764D01*
X005399Y018727D01*
X005390Y018692D01*
X005376Y018657D01*
X005360Y018624D01*
X005339Y018593D01*
X005316Y018564D01*
X005290Y018538D01*
X005261Y018515D01*
X005230Y018494D01*
X005197Y018478D01*
X005162Y018464D01*
X005127Y018455D01*
X005090Y018449D01*
X005053Y018447D01*
X005016Y018449D01*
X004979Y018455D01*
X004944Y018464D01*
X004909Y018478D01*
X004876Y018494D01*
X004845Y018515D01*
X004816Y018538D01*
X004790Y018564D01*
X004767Y018593D01*
X004746Y018624D01*
X004730Y018657D01*
X004716Y018692D01*
X004707Y018727D01*
X004701Y018764D01*
X004699Y018801D01*
X004659Y020179D02*
X004661Y020218D01*
X004667Y020257D01*
X004677Y020295D01*
X004690Y020332D01*
X004707Y020367D01*
X004727Y020401D01*
X004751Y020432D01*
X004778Y020461D01*
X004807Y020487D01*
X004839Y020510D01*
X004873Y020530D01*
X004909Y020546D01*
X004946Y020558D01*
X004985Y020567D01*
X005024Y020572D01*
X005063Y020573D01*
X005102Y020570D01*
X005141Y020563D01*
X005178Y020552D01*
X005215Y020538D01*
X005250Y020520D01*
X005283Y020499D01*
X005314Y020474D01*
X005342Y020447D01*
X005367Y020417D01*
X005389Y020384D01*
X005408Y020350D01*
X005423Y020314D01*
X005435Y020276D01*
X005443Y020238D01*
X005447Y020199D01*
X005447Y020159D01*
X005443Y020120D01*
X005435Y020082D01*
X005423Y020044D01*
X005408Y020008D01*
X005389Y019974D01*
X005367Y019941D01*
X005342Y019911D01*
X005314Y019884D01*
X005283Y019859D01*
X005250Y019838D01*
X005215Y019820D01*
X005178Y019806D01*
X005141Y019795D01*
X005102Y019788D01*
X005063Y019785D01*
X005024Y019786D01*
X004985Y019791D01*
X004946Y019800D01*
X004909Y019812D01*
X004873Y019828D01*
X004839Y019848D01*
X004807Y019871D01*
X004778Y019897D01*
X004751Y019926D01*
X004727Y019957D01*
X004707Y019991D01*
X004690Y020026D01*
X004677Y020063D01*
X004667Y020101D01*
X004661Y020140D01*
X004659Y020179D01*
X004659Y021990D02*
X004661Y022029D01*
X004667Y022068D01*
X004677Y022106D01*
X004690Y022143D01*
X004707Y022178D01*
X004727Y022212D01*
X004751Y022243D01*
X004778Y022272D01*
X004807Y022298D01*
X004839Y022321D01*
X004873Y022341D01*
X004909Y022357D01*
X004946Y022369D01*
X004985Y022378D01*
X005024Y022383D01*
X005063Y022384D01*
X005102Y022381D01*
X005141Y022374D01*
X005178Y022363D01*
X005215Y022349D01*
X005250Y022331D01*
X005283Y022310D01*
X005314Y022285D01*
X005342Y022258D01*
X005367Y022228D01*
X005389Y022195D01*
X005408Y022161D01*
X005423Y022125D01*
X005435Y022087D01*
X005443Y022049D01*
X005447Y022010D01*
X005447Y021970D01*
X005443Y021931D01*
X005435Y021893D01*
X005423Y021855D01*
X005408Y021819D01*
X005389Y021785D01*
X005367Y021752D01*
X005342Y021722D01*
X005314Y021695D01*
X005283Y021670D01*
X005250Y021649D01*
X005215Y021631D01*
X005178Y021617D01*
X005141Y021606D01*
X005102Y021599D01*
X005063Y021596D01*
X005024Y021597D01*
X004985Y021602D01*
X004946Y021611D01*
X004909Y021623D01*
X004873Y021639D01*
X004839Y021659D01*
X004807Y021682D01*
X004778Y021708D01*
X004751Y021737D01*
X004727Y021768D01*
X004707Y021802D01*
X004690Y021837D01*
X004677Y021874D01*
X004667Y021912D01*
X004661Y021951D01*
X004659Y021990D01*
X004699Y023368D02*
X004701Y023405D01*
X004707Y023442D01*
X004716Y023477D01*
X004730Y023512D01*
X004746Y023545D01*
X004767Y023576D01*
X004790Y023605D01*
X004816Y023631D01*
X004845Y023654D01*
X004876Y023675D01*
X004909Y023691D01*
X004944Y023705D01*
X004979Y023714D01*
X005016Y023720D01*
X005053Y023722D01*
X005090Y023720D01*
X005127Y023714D01*
X005162Y023705D01*
X005197Y023691D01*
X005230Y023675D01*
X005261Y023654D01*
X005290Y023631D01*
X005316Y023605D01*
X005339Y023576D01*
X005360Y023545D01*
X005376Y023512D01*
X005390Y023477D01*
X005399Y023442D01*
X005405Y023405D01*
X005407Y023368D01*
X005405Y023331D01*
X005399Y023294D01*
X005390Y023259D01*
X005376Y023224D01*
X005360Y023191D01*
X005339Y023160D01*
X005316Y023131D01*
X005290Y023105D01*
X005261Y023082D01*
X005230Y023061D01*
X005197Y023045D01*
X005162Y023031D01*
X005127Y023022D01*
X005090Y023016D01*
X005053Y023014D01*
X005016Y023016D01*
X004979Y023022D01*
X004944Y023031D01*
X004909Y023045D01*
X004876Y023061D01*
X004845Y023082D01*
X004816Y023105D01*
X004790Y023131D01*
X004767Y023160D01*
X004746Y023191D01*
X004730Y023224D01*
X004716Y023259D01*
X004707Y023294D01*
X004701Y023331D01*
X004699Y023368D01*
X005152Y024352D02*
X005154Y024386D01*
X005160Y024420D01*
X005170Y024453D01*
X005183Y024484D01*
X005201Y024514D01*
X005221Y024542D01*
X005245Y024567D01*
X005271Y024589D01*
X005299Y024607D01*
X005330Y024623D01*
X005362Y024635D01*
X005396Y024643D01*
X005430Y024647D01*
X005464Y024647D01*
X005498Y024643D01*
X005532Y024635D01*
X005564Y024623D01*
X005594Y024607D01*
X005623Y024589D01*
X005649Y024567D01*
X005673Y024542D01*
X005693Y024514D01*
X005711Y024484D01*
X005724Y024453D01*
X005734Y024420D01*
X005740Y024386D01*
X005742Y024352D01*
X005740Y024318D01*
X005734Y024284D01*
X005724Y024251D01*
X005711Y024220D01*
X005693Y024190D01*
X005673Y024162D01*
X005649Y024137D01*
X005623Y024115D01*
X005595Y024097D01*
X005564Y024081D01*
X005532Y024069D01*
X005498Y024061D01*
X005464Y024057D01*
X005430Y024057D01*
X005396Y024061D01*
X005362Y024069D01*
X005330Y024081D01*
X005299Y024097D01*
X005271Y024115D01*
X005245Y024137D01*
X005221Y024162D01*
X005201Y024190D01*
X005183Y024220D01*
X005170Y024251D01*
X005160Y024284D01*
X005154Y024318D01*
X005152Y024352D01*
X005152Y028289D02*
X005154Y028323D01*
X005160Y028357D01*
X005170Y028390D01*
X005183Y028421D01*
X005201Y028451D01*
X005221Y028479D01*
X005245Y028504D01*
X005271Y028526D01*
X005299Y028544D01*
X005330Y028560D01*
X005362Y028572D01*
X005396Y028580D01*
X005430Y028584D01*
X005464Y028584D01*
X005498Y028580D01*
X005532Y028572D01*
X005564Y028560D01*
X005594Y028544D01*
X005623Y028526D01*
X005649Y028504D01*
X005673Y028479D01*
X005693Y028451D01*
X005711Y028421D01*
X005724Y028390D01*
X005734Y028357D01*
X005740Y028323D01*
X005742Y028289D01*
X005740Y028255D01*
X005734Y028221D01*
X005724Y028188D01*
X005711Y028157D01*
X005693Y028127D01*
X005673Y028099D01*
X005649Y028074D01*
X005623Y028052D01*
X005595Y028034D01*
X005564Y028018D01*
X005532Y028006D01*
X005498Y027998D01*
X005464Y027994D01*
X005430Y027994D01*
X005396Y027998D01*
X005362Y028006D01*
X005330Y028018D01*
X005299Y028034D01*
X005271Y028052D01*
X005245Y028074D01*
X005221Y028099D01*
X005201Y028127D01*
X005183Y028157D01*
X005170Y028188D01*
X005160Y028221D01*
X005154Y028255D01*
X005152Y028289D01*
X004699Y029273D02*
X004701Y029310D01*
X004707Y029347D01*
X004716Y029382D01*
X004730Y029417D01*
X004746Y029450D01*
X004767Y029481D01*
X004790Y029510D01*
X004816Y029536D01*
X004845Y029559D01*
X004876Y029580D01*
X004909Y029596D01*
X004944Y029610D01*
X004979Y029619D01*
X005016Y029625D01*
X005053Y029627D01*
X005090Y029625D01*
X005127Y029619D01*
X005162Y029610D01*
X005197Y029596D01*
X005230Y029580D01*
X005261Y029559D01*
X005290Y029536D01*
X005316Y029510D01*
X005339Y029481D01*
X005360Y029450D01*
X005376Y029417D01*
X005390Y029382D01*
X005399Y029347D01*
X005405Y029310D01*
X005407Y029273D01*
X005405Y029236D01*
X005399Y029199D01*
X005390Y029164D01*
X005376Y029129D01*
X005360Y029096D01*
X005339Y029065D01*
X005316Y029036D01*
X005290Y029010D01*
X005261Y028987D01*
X005230Y028966D01*
X005197Y028950D01*
X005162Y028936D01*
X005127Y028927D01*
X005090Y028921D01*
X005053Y028919D01*
X005016Y028921D01*
X004979Y028927D01*
X004944Y028936D01*
X004909Y028950D01*
X004876Y028966D01*
X004845Y028987D01*
X004816Y029010D01*
X004790Y029036D01*
X004767Y029065D01*
X004746Y029096D01*
X004730Y029129D01*
X004716Y029164D01*
X004707Y029199D01*
X004701Y029236D01*
X004699Y029273D01*
X004659Y030651D02*
X004661Y030690D01*
X004667Y030729D01*
X004677Y030767D01*
X004690Y030804D01*
X004707Y030839D01*
X004727Y030873D01*
X004751Y030904D01*
X004778Y030933D01*
X004807Y030959D01*
X004839Y030982D01*
X004873Y031002D01*
X004909Y031018D01*
X004946Y031030D01*
X004985Y031039D01*
X005024Y031044D01*
X005063Y031045D01*
X005102Y031042D01*
X005141Y031035D01*
X005178Y031024D01*
X005215Y031010D01*
X005250Y030992D01*
X005283Y030971D01*
X005314Y030946D01*
X005342Y030919D01*
X005367Y030889D01*
X005389Y030856D01*
X005408Y030822D01*
X005423Y030786D01*
X005435Y030748D01*
X005443Y030710D01*
X005447Y030671D01*
X005447Y030631D01*
X005443Y030592D01*
X005435Y030554D01*
X005423Y030516D01*
X005408Y030480D01*
X005389Y030446D01*
X005367Y030413D01*
X005342Y030383D01*
X005314Y030356D01*
X005283Y030331D01*
X005250Y030310D01*
X005215Y030292D01*
X005178Y030278D01*
X005141Y030267D01*
X005102Y030260D01*
X005063Y030257D01*
X005024Y030258D01*
X004985Y030263D01*
X004946Y030272D01*
X004909Y030284D01*
X004873Y030300D01*
X004839Y030320D01*
X004807Y030343D01*
X004778Y030369D01*
X004751Y030398D01*
X004727Y030429D01*
X004707Y030463D01*
X004690Y030498D01*
X004677Y030535D01*
X004667Y030573D01*
X004661Y030612D01*
X004659Y030651D01*
X013853Y022946D02*
X013860Y022946D01*
X014514Y024943D02*
X014516Y024991D01*
X014522Y025039D01*
X014532Y025086D01*
X014545Y025132D01*
X014563Y025177D01*
X014583Y025221D01*
X014608Y025263D01*
X014636Y025302D01*
X014666Y025339D01*
X014700Y025373D01*
X014737Y025405D01*
X014775Y025434D01*
X014816Y025459D01*
X014859Y025481D01*
X014904Y025499D01*
X014950Y025513D01*
X014997Y025524D01*
X015045Y025531D01*
X015093Y025534D01*
X015141Y025533D01*
X015189Y025528D01*
X015237Y025519D01*
X015283Y025507D01*
X015328Y025490D01*
X015372Y025470D01*
X015414Y025447D01*
X015454Y025420D01*
X015492Y025390D01*
X015527Y025357D01*
X015559Y025321D01*
X015589Y025283D01*
X015615Y025242D01*
X015637Y025199D01*
X015657Y025155D01*
X015672Y025110D01*
X015684Y025063D01*
X015692Y025015D01*
X015696Y024967D01*
X015696Y024919D01*
X015692Y024871D01*
X015684Y024823D01*
X015672Y024776D01*
X015657Y024731D01*
X015637Y024687D01*
X015615Y024644D01*
X015589Y024603D01*
X015559Y024565D01*
X015527Y024529D01*
X015492Y024496D01*
X015454Y024466D01*
X015414Y024439D01*
X015372Y024416D01*
X015328Y024396D01*
X015283Y024379D01*
X015237Y024367D01*
X015189Y024358D01*
X015141Y024353D01*
X015093Y024352D01*
X015045Y024355D01*
X014997Y024362D01*
X014950Y024373D01*
X014904Y024387D01*
X014859Y024405D01*
X014816Y024427D01*
X014775Y024452D01*
X014737Y024481D01*
X014700Y024513D01*
X014666Y024547D01*
X014636Y024584D01*
X014608Y024623D01*
X014583Y024665D01*
X014563Y024709D01*
X014545Y024754D01*
X014532Y024800D01*
X014522Y024847D01*
X014516Y024895D01*
X014514Y024943D01*
X017514Y023198D02*
X017516Y023248D01*
X017522Y023298D01*
X017532Y023347D01*
X017546Y023395D01*
X017563Y023442D01*
X017584Y023487D01*
X017609Y023531D01*
X017637Y023572D01*
X017669Y023611D01*
X017703Y023648D01*
X017740Y023682D01*
X017780Y023712D01*
X017822Y023739D01*
X017866Y023763D01*
X017912Y023784D01*
X017959Y023800D01*
X018007Y023813D01*
X018057Y023822D01*
X018106Y023827D01*
X018157Y023828D01*
X018207Y023825D01*
X018256Y023818D01*
X018305Y023807D01*
X018353Y023792D01*
X018399Y023774D01*
X018444Y023752D01*
X018487Y023726D01*
X018528Y023697D01*
X018567Y023665D01*
X018603Y023630D01*
X018635Y023592D01*
X018665Y023552D01*
X018692Y023509D01*
X018715Y023465D01*
X018734Y023419D01*
X018750Y023371D01*
X018762Y023322D01*
X018770Y023273D01*
X018774Y023223D01*
X018774Y023173D01*
X018770Y023123D01*
X018762Y023074D01*
X018750Y023025D01*
X018734Y022977D01*
X018715Y022931D01*
X018692Y022887D01*
X018665Y022844D01*
X018635Y022804D01*
X018603Y022766D01*
X018567Y022731D01*
X018528Y022699D01*
X018487Y022670D01*
X018444Y022644D01*
X018399Y022622D01*
X018353Y022604D01*
X018305Y022589D01*
X018256Y022578D01*
X018207Y022571D01*
X018157Y022568D01*
X018106Y022569D01*
X018057Y022574D01*
X018007Y022583D01*
X017959Y022596D01*
X017912Y022612D01*
X017866Y022633D01*
X017822Y022657D01*
X017780Y022684D01*
X017740Y022714D01*
X017703Y022748D01*
X017669Y022785D01*
X017637Y022824D01*
X017609Y022865D01*
X017584Y022909D01*
X017563Y022954D01*
X017546Y023001D01*
X017532Y023049D01*
X017522Y023098D01*
X017516Y023148D01*
X017514Y023198D01*
X019226Y021990D02*
X019228Y022029D01*
X019234Y022068D01*
X019244Y022106D01*
X019257Y022143D01*
X019274Y022178D01*
X019294Y022212D01*
X019318Y022243D01*
X019345Y022272D01*
X019374Y022298D01*
X019406Y022321D01*
X019440Y022341D01*
X019476Y022357D01*
X019513Y022369D01*
X019552Y022378D01*
X019591Y022383D01*
X019630Y022384D01*
X019669Y022381D01*
X019708Y022374D01*
X019745Y022363D01*
X019782Y022349D01*
X019817Y022331D01*
X019850Y022310D01*
X019881Y022285D01*
X019909Y022258D01*
X019934Y022228D01*
X019956Y022195D01*
X019975Y022161D01*
X019990Y022125D01*
X020002Y022087D01*
X020010Y022049D01*
X020014Y022010D01*
X020014Y021970D01*
X020010Y021931D01*
X020002Y021893D01*
X019990Y021855D01*
X019975Y021819D01*
X019956Y021785D01*
X019934Y021752D01*
X019909Y021722D01*
X019881Y021695D01*
X019850Y021670D01*
X019817Y021649D01*
X019782Y021631D01*
X019745Y021617D01*
X019708Y021606D01*
X019669Y021599D01*
X019630Y021596D01*
X019591Y021597D01*
X019552Y021602D01*
X019513Y021611D01*
X019476Y021623D01*
X019440Y021639D01*
X019406Y021659D01*
X019374Y021682D01*
X019345Y021708D01*
X019318Y021737D01*
X019294Y021768D01*
X019274Y021802D01*
X019257Y021837D01*
X019244Y021874D01*
X019234Y021912D01*
X019228Y021951D01*
X019226Y021990D01*
X019226Y020179D02*
X019228Y020218D01*
X019234Y020257D01*
X019244Y020295D01*
X019257Y020332D01*
X019274Y020367D01*
X019294Y020401D01*
X019318Y020432D01*
X019345Y020461D01*
X019374Y020487D01*
X019406Y020510D01*
X019440Y020530D01*
X019476Y020546D01*
X019513Y020558D01*
X019552Y020567D01*
X019591Y020572D01*
X019630Y020573D01*
X019669Y020570D01*
X019708Y020563D01*
X019745Y020552D01*
X019782Y020538D01*
X019817Y020520D01*
X019850Y020499D01*
X019881Y020474D01*
X019909Y020447D01*
X019934Y020417D01*
X019956Y020384D01*
X019975Y020350D01*
X019990Y020314D01*
X020002Y020276D01*
X020010Y020238D01*
X020014Y020199D01*
X020014Y020159D01*
X020010Y020120D01*
X020002Y020082D01*
X019990Y020044D01*
X019975Y020008D01*
X019956Y019974D01*
X019934Y019941D01*
X019909Y019911D01*
X019881Y019884D01*
X019850Y019859D01*
X019817Y019838D01*
X019782Y019820D01*
X019745Y019806D01*
X019708Y019795D01*
X019669Y019788D01*
X019630Y019785D01*
X019591Y019786D01*
X019552Y019791D01*
X019513Y019800D01*
X019476Y019812D01*
X019440Y019828D01*
X019406Y019848D01*
X019374Y019871D01*
X019345Y019897D01*
X019318Y019926D01*
X019294Y019957D01*
X019274Y019991D01*
X019257Y020026D01*
X019244Y020063D01*
X019234Y020101D01*
X019228Y020140D01*
X019226Y020179D01*
X018061Y018151D02*
X018063Y018195D01*
X018069Y018239D01*
X018079Y018282D01*
X018092Y018324D01*
X018110Y018364D01*
X018131Y018403D01*
X018155Y018440D01*
X018182Y018475D01*
X018213Y018507D01*
X018246Y018536D01*
X018282Y018562D01*
X018320Y018584D01*
X018360Y018603D01*
X018401Y018619D01*
X018444Y018631D01*
X018487Y018639D01*
X018531Y018643D01*
X018575Y018643D01*
X018619Y018639D01*
X018662Y018631D01*
X018705Y018619D01*
X018746Y018603D01*
X018786Y018584D01*
X018824Y018562D01*
X018860Y018536D01*
X018893Y018507D01*
X018924Y018475D01*
X018951Y018440D01*
X018975Y018403D01*
X018996Y018364D01*
X019014Y018324D01*
X019027Y018282D01*
X019037Y018239D01*
X019043Y018195D01*
X019045Y018151D01*
X019043Y018107D01*
X019037Y018063D01*
X019027Y018020D01*
X019014Y017978D01*
X018996Y017938D01*
X018975Y017899D01*
X018951Y017862D01*
X018924Y017827D01*
X018893Y017795D01*
X018860Y017766D01*
X018824Y017740D01*
X018786Y017718D01*
X018746Y017699D01*
X018705Y017683D01*
X018662Y017671D01*
X018619Y017663D01*
X018575Y017659D01*
X018531Y017659D01*
X018487Y017663D01*
X018444Y017671D01*
X018401Y017683D01*
X018360Y017699D01*
X018320Y017718D01*
X018282Y017740D01*
X018246Y017766D01*
X018213Y017795D01*
X018182Y017827D01*
X018155Y017862D01*
X018131Y017899D01*
X018110Y017938D01*
X018092Y017978D01*
X018079Y018020D01*
X018069Y018063D01*
X018063Y018107D01*
X018061Y018151D01*
X021077Y018801D02*
X021079Y018838D01*
X021085Y018875D01*
X021094Y018910D01*
X021108Y018945D01*
X021124Y018978D01*
X021145Y019009D01*
X021168Y019038D01*
X021194Y019064D01*
X021223Y019087D01*
X021254Y019108D01*
X021287Y019124D01*
X021322Y019138D01*
X021357Y019147D01*
X021394Y019153D01*
X021431Y019155D01*
X021468Y019153D01*
X021505Y019147D01*
X021540Y019138D01*
X021575Y019124D01*
X021608Y019108D01*
X021639Y019087D01*
X021668Y019064D01*
X021694Y019038D01*
X021717Y019009D01*
X021738Y018978D01*
X021754Y018945D01*
X021768Y018910D01*
X021777Y018875D01*
X021783Y018838D01*
X021785Y018801D01*
X021783Y018764D01*
X021777Y018727D01*
X021768Y018692D01*
X021754Y018657D01*
X021738Y018624D01*
X021717Y018593D01*
X021694Y018564D01*
X021668Y018538D01*
X021639Y018515D01*
X021608Y018494D01*
X021575Y018478D01*
X021540Y018464D01*
X021505Y018455D01*
X021468Y018449D01*
X021431Y018447D01*
X021394Y018449D01*
X021357Y018455D01*
X021322Y018464D01*
X021287Y018478D01*
X021254Y018494D01*
X021223Y018515D01*
X021194Y018538D01*
X021168Y018564D01*
X021145Y018593D01*
X021124Y018624D01*
X021108Y018657D01*
X021094Y018692D01*
X021085Y018727D01*
X021079Y018764D01*
X021077Y018801D01*
X021530Y017817D02*
X021532Y017851D01*
X021538Y017885D01*
X021548Y017918D01*
X021561Y017949D01*
X021579Y017979D01*
X021599Y018007D01*
X021623Y018032D01*
X021649Y018054D01*
X021677Y018072D01*
X021708Y018088D01*
X021740Y018100D01*
X021774Y018108D01*
X021808Y018112D01*
X021842Y018112D01*
X021876Y018108D01*
X021910Y018100D01*
X021942Y018088D01*
X021972Y018072D01*
X022001Y018054D01*
X022027Y018032D01*
X022051Y018007D01*
X022071Y017979D01*
X022089Y017949D01*
X022102Y017918D01*
X022112Y017885D01*
X022118Y017851D01*
X022120Y017817D01*
X022118Y017783D01*
X022112Y017749D01*
X022102Y017716D01*
X022089Y017685D01*
X022071Y017655D01*
X022051Y017627D01*
X022027Y017602D01*
X022001Y017580D01*
X021973Y017562D01*
X021942Y017546D01*
X021910Y017534D01*
X021876Y017526D01*
X021842Y017522D01*
X021808Y017522D01*
X021774Y017526D01*
X021740Y017534D01*
X021708Y017546D01*
X021677Y017562D01*
X021649Y017580D01*
X021623Y017602D01*
X021599Y017627D01*
X021579Y017655D01*
X021561Y017685D01*
X021548Y017716D01*
X021538Y017749D01*
X021532Y017783D01*
X021530Y017817D01*
X021037Y020179D02*
X021039Y020218D01*
X021045Y020257D01*
X021055Y020295D01*
X021068Y020332D01*
X021085Y020367D01*
X021105Y020401D01*
X021129Y020432D01*
X021156Y020461D01*
X021185Y020487D01*
X021217Y020510D01*
X021251Y020530D01*
X021287Y020546D01*
X021324Y020558D01*
X021363Y020567D01*
X021402Y020572D01*
X021441Y020573D01*
X021480Y020570D01*
X021519Y020563D01*
X021556Y020552D01*
X021593Y020538D01*
X021628Y020520D01*
X021661Y020499D01*
X021692Y020474D01*
X021720Y020447D01*
X021745Y020417D01*
X021767Y020384D01*
X021786Y020350D01*
X021801Y020314D01*
X021813Y020276D01*
X021821Y020238D01*
X021825Y020199D01*
X021825Y020159D01*
X021821Y020120D01*
X021813Y020082D01*
X021801Y020044D01*
X021786Y020008D01*
X021767Y019974D01*
X021745Y019941D01*
X021720Y019911D01*
X021692Y019884D01*
X021661Y019859D01*
X021628Y019838D01*
X021593Y019820D01*
X021556Y019806D01*
X021519Y019795D01*
X021480Y019788D01*
X021441Y019785D01*
X021402Y019786D01*
X021363Y019791D01*
X021324Y019800D01*
X021287Y019812D01*
X021251Y019828D01*
X021217Y019848D01*
X021185Y019871D01*
X021156Y019897D01*
X021129Y019926D01*
X021105Y019957D01*
X021085Y019991D01*
X021068Y020026D01*
X021055Y020063D01*
X021045Y020101D01*
X021039Y020140D01*
X021037Y020179D01*
X021037Y021990D02*
X021039Y022029D01*
X021045Y022068D01*
X021055Y022106D01*
X021068Y022143D01*
X021085Y022178D01*
X021105Y022212D01*
X021129Y022243D01*
X021156Y022272D01*
X021185Y022298D01*
X021217Y022321D01*
X021251Y022341D01*
X021287Y022357D01*
X021324Y022369D01*
X021363Y022378D01*
X021402Y022383D01*
X021441Y022384D01*
X021480Y022381D01*
X021519Y022374D01*
X021556Y022363D01*
X021593Y022349D01*
X021628Y022331D01*
X021661Y022310D01*
X021692Y022285D01*
X021720Y022258D01*
X021745Y022228D01*
X021767Y022195D01*
X021786Y022161D01*
X021801Y022125D01*
X021813Y022087D01*
X021821Y022049D01*
X021825Y022010D01*
X021825Y021970D01*
X021821Y021931D01*
X021813Y021893D01*
X021801Y021855D01*
X021786Y021819D01*
X021767Y021785D01*
X021745Y021752D01*
X021720Y021722D01*
X021692Y021695D01*
X021661Y021670D01*
X021628Y021649D01*
X021593Y021631D01*
X021556Y021617D01*
X021519Y021606D01*
X021480Y021599D01*
X021441Y021596D01*
X021402Y021597D01*
X021363Y021602D01*
X021324Y021611D01*
X021287Y021623D01*
X021251Y021639D01*
X021217Y021659D01*
X021185Y021682D01*
X021156Y021708D01*
X021129Y021737D01*
X021105Y021768D01*
X021085Y021802D01*
X021068Y021837D01*
X021055Y021874D01*
X021045Y021912D01*
X021039Y021951D01*
X021037Y021990D01*
X021077Y023368D02*
X021079Y023405D01*
X021085Y023442D01*
X021094Y023477D01*
X021108Y023512D01*
X021124Y023545D01*
X021145Y023576D01*
X021168Y023605D01*
X021194Y023631D01*
X021223Y023654D01*
X021254Y023675D01*
X021287Y023691D01*
X021322Y023705D01*
X021357Y023714D01*
X021394Y023720D01*
X021431Y023722D01*
X021468Y023720D01*
X021505Y023714D01*
X021540Y023705D01*
X021575Y023691D01*
X021608Y023675D01*
X021639Y023654D01*
X021668Y023631D01*
X021694Y023605D01*
X021717Y023576D01*
X021738Y023545D01*
X021754Y023512D01*
X021768Y023477D01*
X021777Y023442D01*
X021783Y023405D01*
X021785Y023368D01*
X021783Y023331D01*
X021777Y023294D01*
X021768Y023259D01*
X021754Y023224D01*
X021738Y023191D01*
X021717Y023160D01*
X021694Y023131D01*
X021668Y023105D01*
X021639Y023082D01*
X021608Y023061D01*
X021575Y023045D01*
X021540Y023031D01*
X021505Y023022D01*
X021468Y023016D01*
X021431Y023014D01*
X021394Y023016D01*
X021357Y023022D01*
X021322Y023031D01*
X021287Y023045D01*
X021254Y023061D01*
X021223Y023082D01*
X021194Y023105D01*
X021168Y023131D01*
X021145Y023160D01*
X021124Y023191D01*
X021108Y023224D01*
X021094Y023259D01*
X021085Y023294D01*
X021079Y023331D01*
X021077Y023368D01*
X021530Y024352D02*
X021532Y024386D01*
X021538Y024420D01*
X021548Y024453D01*
X021561Y024484D01*
X021579Y024514D01*
X021599Y024542D01*
X021623Y024567D01*
X021649Y024589D01*
X021677Y024607D01*
X021708Y024623D01*
X021740Y024635D01*
X021774Y024643D01*
X021808Y024647D01*
X021842Y024647D01*
X021876Y024643D01*
X021910Y024635D01*
X021942Y024623D01*
X021972Y024607D01*
X022001Y024589D01*
X022027Y024567D01*
X022051Y024542D01*
X022071Y024514D01*
X022089Y024484D01*
X022102Y024453D01*
X022112Y024420D01*
X022118Y024386D01*
X022120Y024352D01*
X022118Y024318D01*
X022112Y024284D01*
X022102Y024251D01*
X022089Y024220D01*
X022071Y024190D01*
X022051Y024162D01*
X022027Y024137D01*
X022001Y024115D01*
X021973Y024097D01*
X021942Y024081D01*
X021910Y024069D01*
X021876Y024061D01*
X021842Y024057D01*
X021808Y024057D01*
X021774Y024061D01*
X021740Y024069D01*
X021708Y024081D01*
X021677Y024097D01*
X021649Y024115D01*
X021623Y024137D01*
X021599Y024162D01*
X021579Y024190D01*
X021561Y024220D01*
X021548Y024251D01*
X021538Y024284D01*
X021532Y024318D01*
X021530Y024352D01*
X021530Y028289D02*
X021532Y028323D01*
X021538Y028357D01*
X021548Y028390D01*
X021561Y028421D01*
X021579Y028451D01*
X021599Y028479D01*
X021623Y028504D01*
X021649Y028526D01*
X021677Y028544D01*
X021708Y028560D01*
X021740Y028572D01*
X021774Y028580D01*
X021808Y028584D01*
X021842Y028584D01*
X021876Y028580D01*
X021910Y028572D01*
X021942Y028560D01*
X021972Y028544D01*
X022001Y028526D01*
X022027Y028504D01*
X022051Y028479D01*
X022071Y028451D01*
X022089Y028421D01*
X022102Y028390D01*
X022112Y028357D01*
X022118Y028323D01*
X022120Y028289D01*
X022118Y028255D01*
X022112Y028221D01*
X022102Y028188D01*
X022089Y028157D01*
X022071Y028127D01*
X022051Y028099D01*
X022027Y028074D01*
X022001Y028052D01*
X021973Y028034D01*
X021942Y028018D01*
X021910Y028006D01*
X021876Y027998D01*
X021842Y027994D01*
X021808Y027994D01*
X021774Y027998D01*
X021740Y028006D01*
X021708Y028018D01*
X021677Y028034D01*
X021649Y028052D01*
X021623Y028074D01*
X021599Y028099D01*
X021579Y028127D01*
X021561Y028157D01*
X021548Y028188D01*
X021538Y028221D01*
X021532Y028255D01*
X021530Y028289D01*
X021077Y029273D02*
X021079Y029310D01*
X021085Y029347D01*
X021094Y029382D01*
X021108Y029417D01*
X021124Y029450D01*
X021145Y029481D01*
X021168Y029510D01*
X021194Y029536D01*
X021223Y029559D01*
X021254Y029580D01*
X021287Y029596D01*
X021322Y029610D01*
X021357Y029619D01*
X021394Y029625D01*
X021431Y029627D01*
X021468Y029625D01*
X021505Y029619D01*
X021540Y029610D01*
X021575Y029596D01*
X021608Y029580D01*
X021639Y029559D01*
X021668Y029536D01*
X021694Y029510D01*
X021717Y029481D01*
X021738Y029450D01*
X021754Y029417D01*
X021768Y029382D01*
X021777Y029347D01*
X021783Y029310D01*
X021785Y029273D01*
X021783Y029236D01*
X021777Y029199D01*
X021768Y029164D01*
X021754Y029129D01*
X021738Y029096D01*
X021717Y029065D01*
X021694Y029036D01*
X021668Y029010D01*
X021639Y028987D01*
X021608Y028966D01*
X021575Y028950D01*
X021540Y028936D01*
X021505Y028927D01*
X021468Y028921D01*
X021431Y028919D01*
X021394Y028921D01*
X021357Y028927D01*
X021322Y028936D01*
X021287Y028950D01*
X021254Y028966D01*
X021223Y028987D01*
X021194Y029010D01*
X021168Y029036D01*
X021145Y029065D01*
X021124Y029096D01*
X021108Y029129D01*
X021094Y029164D01*
X021085Y029199D01*
X021079Y029236D01*
X021077Y029273D01*
X021037Y030651D02*
X021039Y030690D01*
X021045Y030729D01*
X021055Y030767D01*
X021068Y030804D01*
X021085Y030839D01*
X021105Y030873D01*
X021129Y030904D01*
X021156Y030933D01*
X021185Y030959D01*
X021217Y030982D01*
X021251Y031002D01*
X021287Y031018D01*
X021324Y031030D01*
X021363Y031039D01*
X021402Y031044D01*
X021441Y031045D01*
X021480Y031042D01*
X021519Y031035D01*
X021556Y031024D01*
X021593Y031010D01*
X021628Y030992D01*
X021661Y030971D01*
X021692Y030946D01*
X021720Y030919D01*
X021745Y030889D01*
X021767Y030856D01*
X021786Y030822D01*
X021801Y030786D01*
X021813Y030748D01*
X021821Y030710D01*
X021825Y030671D01*
X021825Y030631D01*
X021821Y030592D01*
X021813Y030554D01*
X021801Y030516D01*
X021786Y030480D01*
X021767Y030446D01*
X021745Y030413D01*
X021720Y030383D01*
X021692Y030356D01*
X021661Y030331D01*
X021628Y030310D01*
X021593Y030292D01*
X021556Y030278D01*
X021519Y030267D01*
X021480Y030260D01*
X021441Y030257D01*
X021402Y030258D01*
X021363Y030263D01*
X021324Y030272D01*
X021287Y030284D01*
X021251Y030300D01*
X021217Y030320D01*
X021185Y030343D01*
X021156Y030369D01*
X021129Y030398D01*
X021105Y030429D01*
X021085Y030463D01*
X021068Y030498D01*
X021055Y030535D01*
X021045Y030573D01*
X021039Y030612D01*
X021037Y030651D01*
X019226Y030651D02*
X019228Y030690D01*
X019234Y030729D01*
X019244Y030767D01*
X019257Y030804D01*
X019274Y030839D01*
X019294Y030873D01*
X019318Y030904D01*
X019345Y030933D01*
X019374Y030959D01*
X019406Y030982D01*
X019440Y031002D01*
X019476Y031018D01*
X019513Y031030D01*
X019552Y031039D01*
X019591Y031044D01*
X019630Y031045D01*
X019669Y031042D01*
X019708Y031035D01*
X019745Y031024D01*
X019782Y031010D01*
X019817Y030992D01*
X019850Y030971D01*
X019881Y030946D01*
X019909Y030919D01*
X019934Y030889D01*
X019956Y030856D01*
X019975Y030822D01*
X019990Y030786D01*
X020002Y030748D01*
X020010Y030710D01*
X020014Y030671D01*
X020014Y030631D01*
X020010Y030592D01*
X020002Y030554D01*
X019990Y030516D01*
X019975Y030480D01*
X019956Y030446D01*
X019934Y030413D01*
X019909Y030383D01*
X019881Y030356D01*
X019850Y030331D01*
X019817Y030310D01*
X019782Y030292D01*
X019745Y030278D01*
X019708Y030267D01*
X019669Y030260D01*
X019630Y030257D01*
X019591Y030258D01*
X019552Y030263D01*
X019513Y030272D01*
X019476Y030284D01*
X019440Y030300D01*
X019406Y030320D01*
X019374Y030343D01*
X019345Y030369D01*
X019318Y030398D01*
X019294Y030429D01*
X019274Y030463D01*
X019257Y030498D01*
X019244Y030535D01*
X019234Y030573D01*
X019228Y030612D01*
X019226Y030651D01*
X018061Y028624D02*
X018063Y028668D01*
X018069Y028712D01*
X018079Y028755D01*
X018092Y028797D01*
X018110Y028837D01*
X018131Y028876D01*
X018155Y028913D01*
X018182Y028948D01*
X018213Y028980D01*
X018246Y029009D01*
X018282Y029035D01*
X018320Y029057D01*
X018360Y029076D01*
X018401Y029092D01*
X018444Y029104D01*
X018487Y029112D01*
X018531Y029116D01*
X018575Y029116D01*
X018619Y029112D01*
X018662Y029104D01*
X018705Y029092D01*
X018746Y029076D01*
X018786Y029057D01*
X018824Y029035D01*
X018860Y029009D01*
X018893Y028980D01*
X018924Y028948D01*
X018951Y028913D01*
X018975Y028876D01*
X018996Y028837D01*
X019014Y028797D01*
X019027Y028755D01*
X019037Y028712D01*
X019043Y028668D01*
X019045Y028624D01*
X019043Y028580D01*
X019037Y028536D01*
X019027Y028493D01*
X019014Y028451D01*
X018996Y028411D01*
X018975Y028372D01*
X018951Y028335D01*
X018924Y028300D01*
X018893Y028268D01*
X018860Y028239D01*
X018824Y028213D01*
X018786Y028191D01*
X018746Y028172D01*
X018705Y028156D01*
X018662Y028144D01*
X018619Y028136D01*
X018575Y028132D01*
X018531Y028132D01*
X018487Y028136D01*
X018444Y028144D01*
X018401Y028156D01*
X018360Y028172D01*
X018320Y028191D01*
X018282Y028213D01*
X018246Y028239D01*
X018213Y028268D01*
X018182Y028300D01*
X018155Y028335D01*
X018131Y028372D01*
X018110Y028411D01*
X018092Y028451D01*
X018079Y028493D01*
X018069Y028536D01*
X018063Y028580D01*
X018061Y028624D01*
X030231Y022946D02*
X030238Y022946D01*
X030892Y024943D02*
X030894Y024991D01*
X030900Y025039D01*
X030910Y025086D01*
X030923Y025132D01*
X030941Y025177D01*
X030961Y025221D01*
X030986Y025263D01*
X031014Y025302D01*
X031044Y025339D01*
X031078Y025373D01*
X031115Y025405D01*
X031153Y025434D01*
X031194Y025459D01*
X031237Y025481D01*
X031282Y025499D01*
X031328Y025513D01*
X031375Y025524D01*
X031423Y025531D01*
X031471Y025534D01*
X031519Y025533D01*
X031567Y025528D01*
X031615Y025519D01*
X031661Y025507D01*
X031706Y025490D01*
X031750Y025470D01*
X031792Y025447D01*
X031832Y025420D01*
X031870Y025390D01*
X031905Y025357D01*
X031937Y025321D01*
X031967Y025283D01*
X031993Y025242D01*
X032015Y025199D01*
X032035Y025155D01*
X032050Y025110D01*
X032062Y025063D01*
X032070Y025015D01*
X032074Y024967D01*
X032074Y024919D01*
X032070Y024871D01*
X032062Y024823D01*
X032050Y024776D01*
X032035Y024731D01*
X032015Y024687D01*
X031993Y024644D01*
X031967Y024603D01*
X031937Y024565D01*
X031905Y024529D01*
X031870Y024496D01*
X031832Y024466D01*
X031792Y024439D01*
X031750Y024416D01*
X031706Y024396D01*
X031661Y024379D01*
X031615Y024367D01*
X031567Y024358D01*
X031519Y024353D01*
X031471Y024352D01*
X031423Y024355D01*
X031375Y024362D01*
X031328Y024373D01*
X031282Y024387D01*
X031237Y024405D01*
X031194Y024427D01*
X031153Y024452D01*
X031115Y024481D01*
X031078Y024513D01*
X031044Y024547D01*
X031014Y024584D01*
X030986Y024623D01*
X030961Y024665D01*
X030941Y024709D01*
X030923Y024754D01*
X030910Y024800D01*
X030900Y024847D01*
X030894Y024895D01*
X030892Y024943D01*
X033892Y023198D02*
X033894Y023248D01*
X033900Y023298D01*
X033910Y023347D01*
X033924Y023395D01*
X033941Y023442D01*
X033962Y023487D01*
X033987Y023531D01*
X034015Y023572D01*
X034047Y023611D01*
X034081Y023648D01*
X034118Y023682D01*
X034158Y023712D01*
X034200Y023739D01*
X034244Y023763D01*
X034290Y023784D01*
X034337Y023800D01*
X034385Y023813D01*
X034435Y023822D01*
X034484Y023827D01*
X034535Y023828D01*
X034585Y023825D01*
X034634Y023818D01*
X034683Y023807D01*
X034731Y023792D01*
X034777Y023774D01*
X034822Y023752D01*
X034865Y023726D01*
X034906Y023697D01*
X034945Y023665D01*
X034981Y023630D01*
X035013Y023592D01*
X035043Y023552D01*
X035070Y023509D01*
X035093Y023465D01*
X035112Y023419D01*
X035128Y023371D01*
X035140Y023322D01*
X035148Y023273D01*
X035152Y023223D01*
X035152Y023173D01*
X035148Y023123D01*
X035140Y023074D01*
X035128Y023025D01*
X035112Y022977D01*
X035093Y022931D01*
X035070Y022887D01*
X035043Y022844D01*
X035013Y022804D01*
X034981Y022766D01*
X034945Y022731D01*
X034906Y022699D01*
X034865Y022670D01*
X034822Y022644D01*
X034777Y022622D01*
X034731Y022604D01*
X034683Y022589D01*
X034634Y022578D01*
X034585Y022571D01*
X034535Y022568D01*
X034484Y022569D01*
X034435Y022574D01*
X034385Y022583D01*
X034337Y022596D01*
X034290Y022612D01*
X034244Y022633D01*
X034200Y022657D01*
X034158Y022684D01*
X034118Y022714D01*
X034081Y022748D01*
X034047Y022785D01*
X034015Y022824D01*
X033987Y022865D01*
X033962Y022909D01*
X033941Y022954D01*
X033924Y023001D01*
X033910Y023049D01*
X033900Y023098D01*
X033894Y023148D01*
X033892Y023198D01*
X035604Y021990D02*
X035606Y022029D01*
X035612Y022068D01*
X035622Y022106D01*
X035635Y022143D01*
X035652Y022178D01*
X035672Y022212D01*
X035696Y022243D01*
X035723Y022272D01*
X035752Y022298D01*
X035784Y022321D01*
X035818Y022341D01*
X035854Y022357D01*
X035891Y022369D01*
X035930Y022378D01*
X035969Y022383D01*
X036008Y022384D01*
X036047Y022381D01*
X036086Y022374D01*
X036123Y022363D01*
X036160Y022349D01*
X036195Y022331D01*
X036228Y022310D01*
X036259Y022285D01*
X036287Y022258D01*
X036312Y022228D01*
X036334Y022195D01*
X036353Y022161D01*
X036368Y022125D01*
X036380Y022087D01*
X036388Y022049D01*
X036392Y022010D01*
X036392Y021970D01*
X036388Y021931D01*
X036380Y021893D01*
X036368Y021855D01*
X036353Y021819D01*
X036334Y021785D01*
X036312Y021752D01*
X036287Y021722D01*
X036259Y021695D01*
X036228Y021670D01*
X036195Y021649D01*
X036160Y021631D01*
X036123Y021617D01*
X036086Y021606D01*
X036047Y021599D01*
X036008Y021596D01*
X035969Y021597D01*
X035930Y021602D01*
X035891Y021611D01*
X035854Y021623D01*
X035818Y021639D01*
X035784Y021659D01*
X035752Y021682D01*
X035723Y021708D01*
X035696Y021737D01*
X035672Y021768D01*
X035652Y021802D01*
X035635Y021837D01*
X035622Y021874D01*
X035612Y021912D01*
X035606Y021951D01*
X035604Y021990D01*
X035604Y020179D02*
X035606Y020218D01*
X035612Y020257D01*
X035622Y020295D01*
X035635Y020332D01*
X035652Y020367D01*
X035672Y020401D01*
X035696Y020432D01*
X035723Y020461D01*
X035752Y020487D01*
X035784Y020510D01*
X035818Y020530D01*
X035854Y020546D01*
X035891Y020558D01*
X035930Y020567D01*
X035969Y020572D01*
X036008Y020573D01*
X036047Y020570D01*
X036086Y020563D01*
X036123Y020552D01*
X036160Y020538D01*
X036195Y020520D01*
X036228Y020499D01*
X036259Y020474D01*
X036287Y020447D01*
X036312Y020417D01*
X036334Y020384D01*
X036353Y020350D01*
X036368Y020314D01*
X036380Y020276D01*
X036388Y020238D01*
X036392Y020199D01*
X036392Y020159D01*
X036388Y020120D01*
X036380Y020082D01*
X036368Y020044D01*
X036353Y020008D01*
X036334Y019974D01*
X036312Y019941D01*
X036287Y019911D01*
X036259Y019884D01*
X036228Y019859D01*
X036195Y019838D01*
X036160Y019820D01*
X036123Y019806D01*
X036086Y019795D01*
X036047Y019788D01*
X036008Y019785D01*
X035969Y019786D01*
X035930Y019791D01*
X035891Y019800D01*
X035854Y019812D01*
X035818Y019828D01*
X035784Y019848D01*
X035752Y019871D01*
X035723Y019897D01*
X035696Y019926D01*
X035672Y019957D01*
X035652Y019991D01*
X035635Y020026D01*
X035622Y020063D01*
X035612Y020101D01*
X035606Y020140D01*
X035604Y020179D01*
X034439Y018151D02*
X034441Y018195D01*
X034447Y018239D01*
X034457Y018282D01*
X034470Y018324D01*
X034488Y018364D01*
X034509Y018403D01*
X034533Y018440D01*
X034560Y018475D01*
X034591Y018507D01*
X034624Y018536D01*
X034660Y018562D01*
X034698Y018584D01*
X034738Y018603D01*
X034779Y018619D01*
X034822Y018631D01*
X034865Y018639D01*
X034909Y018643D01*
X034953Y018643D01*
X034997Y018639D01*
X035040Y018631D01*
X035083Y018619D01*
X035124Y018603D01*
X035164Y018584D01*
X035202Y018562D01*
X035238Y018536D01*
X035271Y018507D01*
X035302Y018475D01*
X035329Y018440D01*
X035353Y018403D01*
X035374Y018364D01*
X035392Y018324D01*
X035405Y018282D01*
X035415Y018239D01*
X035421Y018195D01*
X035423Y018151D01*
X035421Y018107D01*
X035415Y018063D01*
X035405Y018020D01*
X035392Y017978D01*
X035374Y017938D01*
X035353Y017899D01*
X035329Y017862D01*
X035302Y017827D01*
X035271Y017795D01*
X035238Y017766D01*
X035202Y017740D01*
X035164Y017718D01*
X035124Y017699D01*
X035083Y017683D01*
X035040Y017671D01*
X034997Y017663D01*
X034953Y017659D01*
X034909Y017659D01*
X034865Y017663D01*
X034822Y017671D01*
X034779Y017683D01*
X034738Y017699D01*
X034698Y017718D01*
X034660Y017740D01*
X034624Y017766D01*
X034591Y017795D01*
X034560Y017827D01*
X034533Y017862D01*
X034509Y017899D01*
X034488Y017938D01*
X034470Y017978D01*
X034457Y018020D01*
X034447Y018063D01*
X034441Y018107D01*
X034439Y018151D01*
X030892Y014470D02*
X030894Y014518D01*
X030900Y014566D01*
X030910Y014613D01*
X030923Y014659D01*
X030941Y014704D01*
X030961Y014748D01*
X030986Y014790D01*
X031014Y014829D01*
X031044Y014866D01*
X031078Y014900D01*
X031115Y014932D01*
X031153Y014961D01*
X031194Y014986D01*
X031237Y015008D01*
X031282Y015026D01*
X031328Y015040D01*
X031375Y015051D01*
X031423Y015058D01*
X031471Y015061D01*
X031519Y015060D01*
X031567Y015055D01*
X031615Y015046D01*
X031661Y015034D01*
X031706Y015017D01*
X031750Y014997D01*
X031792Y014974D01*
X031832Y014947D01*
X031870Y014917D01*
X031905Y014884D01*
X031937Y014848D01*
X031967Y014810D01*
X031993Y014769D01*
X032015Y014726D01*
X032035Y014682D01*
X032050Y014637D01*
X032062Y014590D01*
X032070Y014542D01*
X032074Y014494D01*
X032074Y014446D01*
X032070Y014398D01*
X032062Y014350D01*
X032050Y014303D01*
X032035Y014258D01*
X032015Y014214D01*
X031993Y014171D01*
X031967Y014130D01*
X031937Y014092D01*
X031905Y014056D01*
X031870Y014023D01*
X031832Y013993D01*
X031792Y013966D01*
X031750Y013943D01*
X031706Y013923D01*
X031661Y013906D01*
X031615Y013894D01*
X031567Y013885D01*
X031519Y013880D01*
X031471Y013879D01*
X031423Y013882D01*
X031375Y013889D01*
X031328Y013900D01*
X031282Y013914D01*
X031237Y013932D01*
X031194Y013954D01*
X031153Y013979D01*
X031115Y014008D01*
X031078Y014040D01*
X031044Y014074D01*
X031014Y014111D01*
X030986Y014150D01*
X030961Y014192D01*
X030941Y014236D01*
X030923Y014281D01*
X030910Y014327D01*
X030900Y014374D01*
X030894Y014422D01*
X030892Y014470D01*
X030238Y012474D02*
X030231Y012474D01*
X033892Y012726D02*
X033894Y012776D01*
X033900Y012826D01*
X033910Y012875D01*
X033924Y012923D01*
X033941Y012970D01*
X033962Y013015D01*
X033987Y013059D01*
X034015Y013100D01*
X034047Y013139D01*
X034081Y013176D01*
X034118Y013210D01*
X034158Y013240D01*
X034200Y013267D01*
X034244Y013291D01*
X034290Y013312D01*
X034337Y013328D01*
X034385Y013341D01*
X034435Y013350D01*
X034484Y013355D01*
X034535Y013356D01*
X034585Y013353D01*
X034634Y013346D01*
X034683Y013335D01*
X034731Y013320D01*
X034777Y013302D01*
X034822Y013280D01*
X034865Y013254D01*
X034906Y013225D01*
X034945Y013193D01*
X034981Y013158D01*
X035013Y013120D01*
X035043Y013080D01*
X035070Y013037D01*
X035093Y012993D01*
X035112Y012947D01*
X035128Y012899D01*
X035140Y012850D01*
X035148Y012801D01*
X035152Y012751D01*
X035152Y012701D01*
X035148Y012651D01*
X035140Y012602D01*
X035128Y012553D01*
X035112Y012505D01*
X035093Y012459D01*
X035070Y012415D01*
X035043Y012372D01*
X035013Y012332D01*
X034981Y012294D01*
X034945Y012259D01*
X034906Y012227D01*
X034865Y012198D01*
X034822Y012172D01*
X034777Y012150D01*
X034731Y012132D01*
X034683Y012117D01*
X034634Y012106D01*
X034585Y012099D01*
X034535Y012096D01*
X034484Y012097D01*
X034435Y012102D01*
X034385Y012111D01*
X034337Y012124D01*
X034290Y012140D01*
X034244Y012161D01*
X034200Y012185D01*
X034158Y012212D01*
X034118Y012242D01*
X034081Y012276D01*
X034047Y012313D01*
X034015Y012352D01*
X033987Y012393D01*
X033962Y012437D01*
X033941Y012482D01*
X033924Y012529D01*
X033910Y012577D01*
X033900Y012626D01*
X033894Y012676D01*
X033892Y012726D01*
X035604Y011517D02*
X035606Y011556D01*
X035612Y011595D01*
X035622Y011633D01*
X035635Y011670D01*
X035652Y011705D01*
X035672Y011739D01*
X035696Y011770D01*
X035723Y011799D01*
X035752Y011825D01*
X035784Y011848D01*
X035818Y011868D01*
X035854Y011884D01*
X035891Y011896D01*
X035930Y011905D01*
X035969Y011910D01*
X036008Y011911D01*
X036047Y011908D01*
X036086Y011901D01*
X036123Y011890D01*
X036160Y011876D01*
X036195Y011858D01*
X036228Y011837D01*
X036259Y011812D01*
X036287Y011785D01*
X036312Y011755D01*
X036334Y011722D01*
X036353Y011688D01*
X036368Y011652D01*
X036380Y011614D01*
X036388Y011576D01*
X036392Y011537D01*
X036392Y011497D01*
X036388Y011458D01*
X036380Y011420D01*
X036368Y011382D01*
X036353Y011346D01*
X036334Y011312D01*
X036312Y011279D01*
X036287Y011249D01*
X036259Y011222D01*
X036228Y011197D01*
X036195Y011176D01*
X036160Y011158D01*
X036123Y011144D01*
X036086Y011133D01*
X036047Y011126D01*
X036008Y011123D01*
X035969Y011124D01*
X035930Y011129D01*
X035891Y011138D01*
X035854Y011150D01*
X035818Y011166D01*
X035784Y011186D01*
X035752Y011209D01*
X035723Y011235D01*
X035696Y011264D01*
X035672Y011295D01*
X035652Y011329D01*
X035635Y011364D01*
X035622Y011401D01*
X035612Y011439D01*
X035606Y011478D01*
X035604Y011517D01*
X035604Y009706D02*
X035606Y009745D01*
X035612Y009784D01*
X035622Y009822D01*
X035635Y009859D01*
X035652Y009894D01*
X035672Y009928D01*
X035696Y009959D01*
X035723Y009988D01*
X035752Y010014D01*
X035784Y010037D01*
X035818Y010057D01*
X035854Y010073D01*
X035891Y010085D01*
X035930Y010094D01*
X035969Y010099D01*
X036008Y010100D01*
X036047Y010097D01*
X036086Y010090D01*
X036123Y010079D01*
X036160Y010065D01*
X036195Y010047D01*
X036228Y010026D01*
X036259Y010001D01*
X036287Y009974D01*
X036312Y009944D01*
X036334Y009911D01*
X036353Y009877D01*
X036368Y009841D01*
X036380Y009803D01*
X036388Y009765D01*
X036392Y009726D01*
X036392Y009686D01*
X036388Y009647D01*
X036380Y009609D01*
X036368Y009571D01*
X036353Y009535D01*
X036334Y009501D01*
X036312Y009468D01*
X036287Y009438D01*
X036259Y009411D01*
X036228Y009386D01*
X036195Y009365D01*
X036160Y009347D01*
X036123Y009333D01*
X036086Y009322D01*
X036047Y009315D01*
X036008Y009312D01*
X035969Y009313D01*
X035930Y009318D01*
X035891Y009327D01*
X035854Y009339D01*
X035818Y009355D01*
X035784Y009375D01*
X035752Y009398D01*
X035723Y009424D01*
X035696Y009453D01*
X035672Y009484D01*
X035652Y009518D01*
X035635Y009553D01*
X035622Y009590D01*
X035612Y009628D01*
X035606Y009667D01*
X035604Y009706D01*
X034439Y007679D02*
X034441Y007723D01*
X034447Y007767D01*
X034457Y007810D01*
X034470Y007852D01*
X034488Y007892D01*
X034509Y007931D01*
X034533Y007968D01*
X034560Y008003D01*
X034591Y008035D01*
X034624Y008064D01*
X034660Y008090D01*
X034698Y008112D01*
X034738Y008131D01*
X034779Y008147D01*
X034822Y008159D01*
X034865Y008167D01*
X034909Y008171D01*
X034953Y008171D01*
X034997Y008167D01*
X035040Y008159D01*
X035083Y008147D01*
X035124Y008131D01*
X035164Y008112D01*
X035202Y008090D01*
X035238Y008064D01*
X035271Y008035D01*
X035302Y008003D01*
X035329Y007968D01*
X035353Y007931D01*
X035374Y007892D01*
X035392Y007852D01*
X035405Y007810D01*
X035415Y007767D01*
X035421Y007723D01*
X035423Y007679D01*
X035421Y007635D01*
X035415Y007591D01*
X035405Y007548D01*
X035392Y007506D01*
X035374Y007466D01*
X035353Y007427D01*
X035329Y007390D01*
X035302Y007355D01*
X035271Y007323D01*
X035238Y007294D01*
X035202Y007268D01*
X035164Y007246D01*
X035124Y007227D01*
X035083Y007211D01*
X035040Y007199D01*
X034997Y007191D01*
X034953Y007187D01*
X034909Y007187D01*
X034865Y007191D01*
X034822Y007199D01*
X034779Y007211D01*
X034738Y007227D01*
X034698Y007246D01*
X034660Y007268D01*
X034624Y007294D01*
X034591Y007323D01*
X034560Y007355D01*
X034533Y007390D01*
X034509Y007427D01*
X034488Y007466D01*
X034470Y007506D01*
X034457Y007548D01*
X034447Y007591D01*
X034441Y007635D01*
X034439Y007679D01*
X030892Y003998D02*
X030894Y004046D01*
X030900Y004094D01*
X030910Y004141D01*
X030923Y004187D01*
X030941Y004232D01*
X030961Y004276D01*
X030986Y004318D01*
X031014Y004357D01*
X031044Y004394D01*
X031078Y004428D01*
X031115Y004460D01*
X031153Y004489D01*
X031194Y004514D01*
X031237Y004536D01*
X031282Y004554D01*
X031328Y004568D01*
X031375Y004579D01*
X031423Y004586D01*
X031471Y004589D01*
X031519Y004588D01*
X031567Y004583D01*
X031615Y004574D01*
X031661Y004562D01*
X031706Y004545D01*
X031750Y004525D01*
X031792Y004502D01*
X031832Y004475D01*
X031870Y004445D01*
X031905Y004412D01*
X031937Y004376D01*
X031967Y004338D01*
X031993Y004297D01*
X032015Y004254D01*
X032035Y004210D01*
X032050Y004165D01*
X032062Y004118D01*
X032070Y004070D01*
X032074Y004022D01*
X032074Y003974D01*
X032070Y003926D01*
X032062Y003878D01*
X032050Y003831D01*
X032035Y003786D01*
X032015Y003742D01*
X031993Y003699D01*
X031967Y003658D01*
X031937Y003620D01*
X031905Y003584D01*
X031870Y003551D01*
X031832Y003521D01*
X031792Y003494D01*
X031750Y003471D01*
X031706Y003451D01*
X031661Y003434D01*
X031615Y003422D01*
X031567Y003413D01*
X031519Y003408D01*
X031471Y003407D01*
X031423Y003410D01*
X031375Y003417D01*
X031328Y003428D01*
X031282Y003442D01*
X031237Y003460D01*
X031194Y003482D01*
X031153Y003507D01*
X031115Y003536D01*
X031078Y003568D01*
X031044Y003602D01*
X031014Y003639D01*
X030986Y003678D01*
X030961Y003720D01*
X030941Y003764D01*
X030923Y003809D01*
X030910Y003855D01*
X030900Y003902D01*
X030894Y003950D01*
X030892Y003998D01*
X030238Y002002D02*
X030231Y002002D01*
X033892Y002254D02*
X033894Y002304D01*
X033900Y002354D01*
X033910Y002403D01*
X033924Y002451D01*
X033941Y002498D01*
X033962Y002543D01*
X033987Y002587D01*
X034015Y002628D01*
X034047Y002667D01*
X034081Y002704D01*
X034118Y002738D01*
X034158Y002768D01*
X034200Y002795D01*
X034244Y002819D01*
X034290Y002840D01*
X034337Y002856D01*
X034385Y002869D01*
X034435Y002878D01*
X034484Y002883D01*
X034535Y002884D01*
X034585Y002881D01*
X034634Y002874D01*
X034683Y002863D01*
X034731Y002848D01*
X034777Y002830D01*
X034822Y002808D01*
X034865Y002782D01*
X034906Y002753D01*
X034945Y002721D01*
X034981Y002686D01*
X035013Y002648D01*
X035043Y002608D01*
X035070Y002565D01*
X035093Y002521D01*
X035112Y002475D01*
X035128Y002427D01*
X035140Y002378D01*
X035148Y002329D01*
X035152Y002279D01*
X035152Y002229D01*
X035148Y002179D01*
X035140Y002130D01*
X035128Y002081D01*
X035112Y002033D01*
X035093Y001987D01*
X035070Y001943D01*
X035043Y001900D01*
X035013Y001860D01*
X034981Y001822D01*
X034945Y001787D01*
X034906Y001755D01*
X034865Y001726D01*
X034822Y001700D01*
X034777Y001678D01*
X034731Y001660D01*
X034683Y001645D01*
X034634Y001634D01*
X034585Y001627D01*
X034535Y001624D01*
X034484Y001625D01*
X034435Y001630D01*
X034385Y001639D01*
X034337Y001652D01*
X034290Y001668D01*
X034244Y001689D01*
X034200Y001713D01*
X034158Y001740D01*
X034118Y001770D01*
X034081Y001804D01*
X034047Y001841D01*
X034015Y001880D01*
X033987Y001921D01*
X033962Y001965D01*
X033941Y002010D01*
X033924Y002057D01*
X033910Y002105D01*
X033900Y002154D01*
X033894Y002204D01*
X033892Y002254D01*
X035604Y001045D02*
X035606Y001084D01*
X035612Y001123D01*
X035622Y001161D01*
X035635Y001198D01*
X035652Y001233D01*
X035672Y001267D01*
X035696Y001298D01*
X035723Y001327D01*
X035752Y001353D01*
X035784Y001376D01*
X035818Y001396D01*
X035854Y001412D01*
X035891Y001424D01*
X035930Y001433D01*
X035969Y001438D01*
X036008Y001439D01*
X036047Y001436D01*
X036086Y001429D01*
X036123Y001418D01*
X036160Y001404D01*
X036195Y001386D01*
X036228Y001365D01*
X036259Y001340D01*
X036287Y001313D01*
X036312Y001283D01*
X036334Y001250D01*
X036353Y001216D01*
X036368Y001180D01*
X036380Y001142D01*
X036388Y001104D01*
X036392Y001065D01*
X036392Y001025D01*
X036388Y000986D01*
X036380Y000948D01*
X036368Y000910D01*
X036353Y000874D01*
X036334Y000840D01*
X036312Y000807D01*
X036287Y000777D01*
X036259Y000750D01*
X036228Y000725D01*
X036195Y000704D01*
X036160Y000686D01*
X036123Y000672D01*
X036086Y000661D01*
X036047Y000654D01*
X036008Y000651D01*
X035969Y000652D01*
X035930Y000657D01*
X035891Y000666D01*
X035854Y000678D01*
X035818Y000694D01*
X035784Y000714D01*
X035752Y000737D01*
X035723Y000763D01*
X035696Y000792D01*
X035672Y000823D01*
X035652Y000857D01*
X035635Y000892D01*
X035622Y000929D01*
X035612Y000967D01*
X035606Y001006D01*
X035604Y001045D01*
X021530Y003407D02*
X021532Y003441D01*
X021538Y003475D01*
X021548Y003508D01*
X021561Y003539D01*
X021579Y003569D01*
X021599Y003597D01*
X021623Y003622D01*
X021649Y003644D01*
X021677Y003662D01*
X021708Y003678D01*
X021740Y003690D01*
X021774Y003698D01*
X021808Y003702D01*
X021842Y003702D01*
X021876Y003698D01*
X021910Y003690D01*
X021942Y003678D01*
X021972Y003662D01*
X022001Y003644D01*
X022027Y003622D01*
X022051Y003597D01*
X022071Y003569D01*
X022089Y003539D01*
X022102Y003508D01*
X022112Y003475D01*
X022118Y003441D01*
X022120Y003407D01*
X022118Y003373D01*
X022112Y003339D01*
X022102Y003306D01*
X022089Y003275D01*
X022071Y003245D01*
X022051Y003217D01*
X022027Y003192D01*
X022001Y003170D01*
X021973Y003152D01*
X021942Y003136D01*
X021910Y003124D01*
X021876Y003116D01*
X021842Y003112D01*
X021808Y003112D01*
X021774Y003116D01*
X021740Y003124D01*
X021708Y003136D01*
X021677Y003152D01*
X021649Y003170D01*
X021623Y003192D01*
X021599Y003217D01*
X021579Y003245D01*
X021561Y003275D01*
X021548Y003306D01*
X021538Y003339D01*
X021532Y003373D01*
X021530Y003407D01*
X021077Y002423D02*
X021079Y002460D01*
X021085Y002497D01*
X021094Y002532D01*
X021108Y002567D01*
X021124Y002600D01*
X021145Y002631D01*
X021168Y002660D01*
X021194Y002686D01*
X021223Y002709D01*
X021254Y002730D01*
X021287Y002746D01*
X021322Y002760D01*
X021357Y002769D01*
X021394Y002775D01*
X021431Y002777D01*
X021468Y002775D01*
X021505Y002769D01*
X021540Y002760D01*
X021575Y002746D01*
X021608Y002730D01*
X021639Y002709D01*
X021668Y002686D01*
X021694Y002660D01*
X021717Y002631D01*
X021738Y002600D01*
X021754Y002567D01*
X021768Y002532D01*
X021777Y002497D01*
X021783Y002460D01*
X021785Y002423D01*
X021783Y002386D01*
X021777Y002349D01*
X021768Y002314D01*
X021754Y002279D01*
X021738Y002246D01*
X021717Y002215D01*
X021694Y002186D01*
X021668Y002160D01*
X021639Y002137D01*
X021608Y002116D01*
X021575Y002100D01*
X021540Y002086D01*
X021505Y002077D01*
X021468Y002071D01*
X021431Y002069D01*
X021394Y002071D01*
X021357Y002077D01*
X021322Y002086D01*
X021287Y002100D01*
X021254Y002116D01*
X021223Y002137D01*
X021194Y002160D01*
X021168Y002186D01*
X021145Y002215D01*
X021124Y002246D01*
X021108Y002279D01*
X021094Y002314D01*
X021085Y002349D01*
X021079Y002386D01*
X021077Y002423D01*
X021037Y001045D02*
X021039Y001084D01*
X021045Y001123D01*
X021055Y001161D01*
X021068Y001198D01*
X021085Y001233D01*
X021105Y001267D01*
X021129Y001298D01*
X021156Y001327D01*
X021185Y001353D01*
X021217Y001376D01*
X021251Y001396D01*
X021287Y001412D01*
X021324Y001424D01*
X021363Y001433D01*
X021402Y001438D01*
X021441Y001439D01*
X021480Y001436D01*
X021519Y001429D01*
X021556Y001418D01*
X021593Y001404D01*
X021628Y001386D01*
X021661Y001365D01*
X021692Y001340D01*
X021720Y001313D01*
X021745Y001283D01*
X021767Y001250D01*
X021786Y001216D01*
X021801Y001180D01*
X021813Y001142D01*
X021821Y001104D01*
X021825Y001065D01*
X021825Y001025D01*
X021821Y000986D01*
X021813Y000948D01*
X021801Y000910D01*
X021786Y000874D01*
X021767Y000840D01*
X021745Y000807D01*
X021720Y000777D01*
X021692Y000750D01*
X021661Y000725D01*
X021628Y000704D01*
X021593Y000686D01*
X021556Y000672D01*
X021519Y000661D01*
X021480Y000654D01*
X021441Y000651D01*
X021402Y000652D01*
X021363Y000657D01*
X021324Y000666D01*
X021287Y000678D01*
X021251Y000694D01*
X021217Y000714D01*
X021185Y000737D01*
X021156Y000763D01*
X021129Y000792D01*
X021105Y000823D01*
X021085Y000857D01*
X021068Y000892D01*
X021055Y000929D01*
X021045Y000967D01*
X021039Y001006D01*
X021037Y001045D01*
X019226Y001045D02*
X019228Y001084D01*
X019234Y001123D01*
X019244Y001161D01*
X019257Y001198D01*
X019274Y001233D01*
X019294Y001267D01*
X019318Y001298D01*
X019345Y001327D01*
X019374Y001353D01*
X019406Y001376D01*
X019440Y001396D01*
X019476Y001412D01*
X019513Y001424D01*
X019552Y001433D01*
X019591Y001438D01*
X019630Y001439D01*
X019669Y001436D01*
X019708Y001429D01*
X019745Y001418D01*
X019782Y001404D01*
X019817Y001386D01*
X019850Y001365D01*
X019881Y001340D01*
X019909Y001313D01*
X019934Y001283D01*
X019956Y001250D01*
X019975Y001216D01*
X019990Y001180D01*
X020002Y001142D01*
X020010Y001104D01*
X020014Y001065D01*
X020014Y001025D01*
X020010Y000986D01*
X020002Y000948D01*
X019990Y000910D01*
X019975Y000874D01*
X019956Y000840D01*
X019934Y000807D01*
X019909Y000777D01*
X019881Y000750D01*
X019850Y000725D01*
X019817Y000704D01*
X019782Y000686D01*
X019745Y000672D01*
X019708Y000661D01*
X019669Y000654D01*
X019630Y000651D01*
X019591Y000652D01*
X019552Y000657D01*
X019513Y000666D01*
X019476Y000678D01*
X019440Y000694D01*
X019406Y000714D01*
X019374Y000737D01*
X019345Y000763D01*
X019318Y000792D01*
X019294Y000823D01*
X019274Y000857D01*
X019257Y000892D01*
X019244Y000929D01*
X019234Y000967D01*
X019228Y001006D01*
X019226Y001045D01*
X017514Y002254D02*
X017516Y002304D01*
X017522Y002354D01*
X017532Y002403D01*
X017546Y002451D01*
X017563Y002498D01*
X017584Y002543D01*
X017609Y002587D01*
X017637Y002628D01*
X017669Y002667D01*
X017703Y002704D01*
X017740Y002738D01*
X017780Y002768D01*
X017822Y002795D01*
X017866Y002819D01*
X017912Y002840D01*
X017959Y002856D01*
X018007Y002869D01*
X018057Y002878D01*
X018106Y002883D01*
X018157Y002884D01*
X018207Y002881D01*
X018256Y002874D01*
X018305Y002863D01*
X018353Y002848D01*
X018399Y002830D01*
X018444Y002808D01*
X018487Y002782D01*
X018528Y002753D01*
X018567Y002721D01*
X018603Y002686D01*
X018635Y002648D01*
X018665Y002608D01*
X018692Y002565D01*
X018715Y002521D01*
X018734Y002475D01*
X018750Y002427D01*
X018762Y002378D01*
X018770Y002329D01*
X018774Y002279D01*
X018774Y002229D01*
X018770Y002179D01*
X018762Y002130D01*
X018750Y002081D01*
X018734Y002033D01*
X018715Y001987D01*
X018692Y001943D01*
X018665Y001900D01*
X018635Y001860D01*
X018603Y001822D01*
X018567Y001787D01*
X018528Y001755D01*
X018487Y001726D01*
X018444Y001700D01*
X018399Y001678D01*
X018353Y001660D01*
X018305Y001645D01*
X018256Y001634D01*
X018207Y001627D01*
X018157Y001624D01*
X018106Y001625D01*
X018057Y001630D01*
X018007Y001639D01*
X017959Y001652D01*
X017912Y001668D01*
X017866Y001689D01*
X017822Y001713D01*
X017780Y001740D01*
X017740Y001770D01*
X017703Y001804D01*
X017669Y001841D01*
X017637Y001880D01*
X017609Y001921D01*
X017584Y001965D01*
X017563Y002010D01*
X017546Y002057D01*
X017532Y002105D01*
X017522Y002154D01*
X017516Y002204D01*
X017514Y002254D01*
X014514Y003998D02*
X014516Y004046D01*
X014522Y004094D01*
X014532Y004141D01*
X014545Y004187D01*
X014563Y004232D01*
X014583Y004276D01*
X014608Y004318D01*
X014636Y004357D01*
X014666Y004394D01*
X014700Y004428D01*
X014737Y004460D01*
X014775Y004489D01*
X014816Y004514D01*
X014859Y004536D01*
X014904Y004554D01*
X014950Y004568D01*
X014997Y004579D01*
X015045Y004586D01*
X015093Y004589D01*
X015141Y004588D01*
X015189Y004583D01*
X015237Y004574D01*
X015283Y004562D01*
X015328Y004545D01*
X015372Y004525D01*
X015414Y004502D01*
X015454Y004475D01*
X015492Y004445D01*
X015527Y004412D01*
X015559Y004376D01*
X015589Y004338D01*
X015615Y004297D01*
X015637Y004254D01*
X015657Y004210D01*
X015672Y004165D01*
X015684Y004118D01*
X015692Y004070D01*
X015696Y004022D01*
X015696Y003974D01*
X015692Y003926D01*
X015684Y003878D01*
X015672Y003831D01*
X015657Y003786D01*
X015637Y003742D01*
X015615Y003699D01*
X015589Y003658D01*
X015559Y003620D01*
X015527Y003584D01*
X015492Y003551D01*
X015454Y003521D01*
X015414Y003494D01*
X015372Y003471D01*
X015328Y003451D01*
X015283Y003434D01*
X015237Y003422D01*
X015189Y003413D01*
X015141Y003408D01*
X015093Y003407D01*
X015045Y003410D01*
X014997Y003417D01*
X014950Y003428D01*
X014904Y003442D01*
X014859Y003460D01*
X014816Y003482D01*
X014775Y003507D01*
X014737Y003536D01*
X014700Y003568D01*
X014666Y003602D01*
X014636Y003639D01*
X014608Y003678D01*
X014583Y003720D01*
X014563Y003764D01*
X014545Y003809D01*
X014532Y003855D01*
X014522Y003902D01*
X014516Y003950D01*
X014514Y003998D01*
X013860Y002002D02*
X013853Y002002D01*
X018061Y007679D02*
X018063Y007723D01*
X018069Y007767D01*
X018079Y007810D01*
X018092Y007852D01*
X018110Y007892D01*
X018131Y007931D01*
X018155Y007968D01*
X018182Y008003D01*
X018213Y008035D01*
X018246Y008064D01*
X018282Y008090D01*
X018320Y008112D01*
X018360Y008131D01*
X018401Y008147D01*
X018444Y008159D01*
X018487Y008167D01*
X018531Y008171D01*
X018575Y008171D01*
X018619Y008167D01*
X018662Y008159D01*
X018705Y008147D01*
X018746Y008131D01*
X018786Y008112D01*
X018824Y008090D01*
X018860Y008064D01*
X018893Y008035D01*
X018924Y008003D01*
X018951Y007968D01*
X018975Y007931D01*
X018996Y007892D01*
X019014Y007852D01*
X019027Y007810D01*
X019037Y007767D01*
X019043Y007723D01*
X019045Y007679D01*
X019043Y007635D01*
X019037Y007591D01*
X019027Y007548D01*
X019014Y007506D01*
X018996Y007466D01*
X018975Y007427D01*
X018951Y007390D01*
X018924Y007355D01*
X018893Y007323D01*
X018860Y007294D01*
X018824Y007268D01*
X018786Y007246D01*
X018746Y007227D01*
X018705Y007211D01*
X018662Y007199D01*
X018619Y007191D01*
X018575Y007187D01*
X018531Y007187D01*
X018487Y007191D01*
X018444Y007199D01*
X018401Y007211D01*
X018360Y007227D01*
X018320Y007246D01*
X018282Y007268D01*
X018246Y007294D01*
X018213Y007323D01*
X018182Y007355D01*
X018155Y007390D01*
X018131Y007427D01*
X018110Y007466D01*
X018092Y007506D01*
X018079Y007548D01*
X018069Y007591D01*
X018063Y007635D01*
X018061Y007679D01*
X019226Y009706D02*
X019228Y009745D01*
X019234Y009784D01*
X019244Y009822D01*
X019257Y009859D01*
X019274Y009894D01*
X019294Y009928D01*
X019318Y009959D01*
X019345Y009988D01*
X019374Y010014D01*
X019406Y010037D01*
X019440Y010057D01*
X019476Y010073D01*
X019513Y010085D01*
X019552Y010094D01*
X019591Y010099D01*
X019630Y010100D01*
X019669Y010097D01*
X019708Y010090D01*
X019745Y010079D01*
X019782Y010065D01*
X019817Y010047D01*
X019850Y010026D01*
X019881Y010001D01*
X019909Y009974D01*
X019934Y009944D01*
X019956Y009911D01*
X019975Y009877D01*
X019990Y009841D01*
X020002Y009803D01*
X020010Y009765D01*
X020014Y009726D01*
X020014Y009686D01*
X020010Y009647D01*
X020002Y009609D01*
X019990Y009571D01*
X019975Y009535D01*
X019956Y009501D01*
X019934Y009468D01*
X019909Y009438D01*
X019881Y009411D01*
X019850Y009386D01*
X019817Y009365D01*
X019782Y009347D01*
X019745Y009333D01*
X019708Y009322D01*
X019669Y009315D01*
X019630Y009312D01*
X019591Y009313D01*
X019552Y009318D01*
X019513Y009327D01*
X019476Y009339D01*
X019440Y009355D01*
X019406Y009375D01*
X019374Y009398D01*
X019345Y009424D01*
X019318Y009453D01*
X019294Y009484D01*
X019274Y009518D01*
X019257Y009553D01*
X019244Y009590D01*
X019234Y009628D01*
X019228Y009667D01*
X019226Y009706D01*
X019226Y011517D02*
X019228Y011556D01*
X019234Y011595D01*
X019244Y011633D01*
X019257Y011670D01*
X019274Y011705D01*
X019294Y011739D01*
X019318Y011770D01*
X019345Y011799D01*
X019374Y011825D01*
X019406Y011848D01*
X019440Y011868D01*
X019476Y011884D01*
X019513Y011896D01*
X019552Y011905D01*
X019591Y011910D01*
X019630Y011911D01*
X019669Y011908D01*
X019708Y011901D01*
X019745Y011890D01*
X019782Y011876D01*
X019817Y011858D01*
X019850Y011837D01*
X019881Y011812D01*
X019909Y011785D01*
X019934Y011755D01*
X019956Y011722D01*
X019975Y011688D01*
X019990Y011652D01*
X020002Y011614D01*
X020010Y011576D01*
X020014Y011537D01*
X020014Y011497D01*
X020010Y011458D01*
X020002Y011420D01*
X019990Y011382D01*
X019975Y011346D01*
X019956Y011312D01*
X019934Y011279D01*
X019909Y011249D01*
X019881Y011222D01*
X019850Y011197D01*
X019817Y011176D01*
X019782Y011158D01*
X019745Y011144D01*
X019708Y011133D01*
X019669Y011126D01*
X019630Y011123D01*
X019591Y011124D01*
X019552Y011129D01*
X019513Y011138D01*
X019476Y011150D01*
X019440Y011166D01*
X019406Y011186D01*
X019374Y011209D01*
X019345Y011235D01*
X019318Y011264D01*
X019294Y011295D01*
X019274Y011329D01*
X019257Y011364D01*
X019244Y011401D01*
X019234Y011439D01*
X019228Y011478D01*
X019226Y011517D01*
X017514Y012726D02*
X017516Y012776D01*
X017522Y012826D01*
X017532Y012875D01*
X017546Y012923D01*
X017563Y012970D01*
X017584Y013015D01*
X017609Y013059D01*
X017637Y013100D01*
X017669Y013139D01*
X017703Y013176D01*
X017740Y013210D01*
X017780Y013240D01*
X017822Y013267D01*
X017866Y013291D01*
X017912Y013312D01*
X017959Y013328D01*
X018007Y013341D01*
X018057Y013350D01*
X018106Y013355D01*
X018157Y013356D01*
X018207Y013353D01*
X018256Y013346D01*
X018305Y013335D01*
X018353Y013320D01*
X018399Y013302D01*
X018444Y013280D01*
X018487Y013254D01*
X018528Y013225D01*
X018567Y013193D01*
X018603Y013158D01*
X018635Y013120D01*
X018665Y013080D01*
X018692Y013037D01*
X018715Y012993D01*
X018734Y012947D01*
X018750Y012899D01*
X018762Y012850D01*
X018770Y012801D01*
X018774Y012751D01*
X018774Y012701D01*
X018770Y012651D01*
X018762Y012602D01*
X018750Y012553D01*
X018734Y012505D01*
X018715Y012459D01*
X018692Y012415D01*
X018665Y012372D01*
X018635Y012332D01*
X018603Y012294D01*
X018567Y012259D01*
X018528Y012227D01*
X018487Y012198D01*
X018444Y012172D01*
X018399Y012150D01*
X018353Y012132D01*
X018305Y012117D01*
X018256Y012106D01*
X018207Y012099D01*
X018157Y012096D01*
X018106Y012097D01*
X018057Y012102D01*
X018007Y012111D01*
X017959Y012124D01*
X017912Y012140D01*
X017866Y012161D01*
X017822Y012185D01*
X017780Y012212D01*
X017740Y012242D01*
X017703Y012276D01*
X017669Y012313D01*
X017637Y012352D01*
X017609Y012393D01*
X017584Y012437D01*
X017563Y012482D01*
X017546Y012529D01*
X017532Y012577D01*
X017522Y012626D01*
X017516Y012676D01*
X017514Y012726D01*
X014514Y014470D02*
X014516Y014518D01*
X014522Y014566D01*
X014532Y014613D01*
X014545Y014659D01*
X014563Y014704D01*
X014583Y014748D01*
X014608Y014790D01*
X014636Y014829D01*
X014666Y014866D01*
X014700Y014900D01*
X014737Y014932D01*
X014775Y014961D01*
X014816Y014986D01*
X014859Y015008D01*
X014904Y015026D01*
X014950Y015040D01*
X014997Y015051D01*
X015045Y015058D01*
X015093Y015061D01*
X015141Y015060D01*
X015189Y015055D01*
X015237Y015046D01*
X015283Y015034D01*
X015328Y015017D01*
X015372Y014997D01*
X015414Y014974D01*
X015454Y014947D01*
X015492Y014917D01*
X015527Y014884D01*
X015559Y014848D01*
X015589Y014810D01*
X015615Y014769D01*
X015637Y014726D01*
X015657Y014682D01*
X015672Y014637D01*
X015684Y014590D01*
X015692Y014542D01*
X015696Y014494D01*
X015696Y014446D01*
X015692Y014398D01*
X015684Y014350D01*
X015672Y014303D01*
X015657Y014258D01*
X015637Y014214D01*
X015615Y014171D01*
X015589Y014130D01*
X015559Y014092D01*
X015527Y014056D01*
X015492Y014023D01*
X015454Y013993D01*
X015414Y013966D01*
X015372Y013943D01*
X015328Y013923D01*
X015283Y013906D01*
X015237Y013894D01*
X015189Y013885D01*
X015141Y013880D01*
X015093Y013879D01*
X015045Y013882D01*
X014997Y013889D01*
X014950Y013900D01*
X014904Y013914D01*
X014859Y013932D01*
X014816Y013954D01*
X014775Y013979D01*
X014737Y014008D01*
X014700Y014040D01*
X014666Y014074D01*
X014636Y014111D01*
X014608Y014150D01*
X014583Y014192D01*
X014563Y014236D01*
X014545Y014281D01*
X014532Y014327D01*
X014522Y014374D01*
X014516Y014422D01*
X014514Y014470D01*
X013860Y012474D02*
X013853Y012474D01*
X021077Y012895D02*
X021079Y012932D01*
X021085Y012969D01*
X021094Y013004D01*
X021108Y013039D01*
X021124Y013072D01*
X021145Y013103D01*
X021168Y013132D01*
X021194Y013158D01*
X021223Y013181D01*
X021254Y013202D01*
X021287Y013218D01*
X021322Y013232D01*
X021357Y013241D01*
X021394Y013247D01*
X021431Y013249D01*
X021468Y013247D01*
X021505Y013241D01*
X021540Y013232D01*
X021575Y013218D01*
X021608Y013202D01*
X021639Y013181D01*
X021668Y013158D01*
X021694Y013132D01*
X021717Y013103D01*
X021738Y013072D01*
X021754Y013039D01*
X021768Y013004D01*
X021777Y012969D01*
X021783Y012932D01*
X021785Y012895D01*
X021783Y012858D01*
X021777Y012821D01*
X021768Y012786D01*
X021754Y012751D01*
X021738Y012718D01*
X021717Y012687D01*
X021694Y012658D01*
X021668Y012632D01*
X021639Y012609D01*
X021608Y012588D01*
X021575Y012572D01*
X021540Y012558D01*
X021505Y012549D01*
X021468Y012543D01*
X021431Y012541D01*
X021394Y012543D01*
X021357Y012549D01*
X021322Y012558D01*
X021287Y012572D01*
X021254Y012588D01*
X021223Y012609D01*
X021194Y012632D01*
X021168Y012658D01*
X021145Y012687D01*
X021124Y012718D01*
X021108Y012751D01*
X021094Y012786D01*
X021085Y012821D01*
X021079Y012858D01*
X021077Y012895D01*
X021530Y013880D02*
X021532Y013914D01*
X021538Y013948D01*
X021548Y013981D01*
X021561Y014012D01*
X021579Y014042D01*
X021599Y014070D01*
X021623Y014095D01*
X021649Y014117D01*
X021677Y014135D01*
X021708Y014151D01*
X021740Y014163D01*
X021774Y014171D01*
X021808Y014175D01*
X021842Y014175D01*
X021876Y014171D01*
X021910Y014163D01*
X021942Y014151D01*
X021972Y014135D01*
X022001Y014117D01*
X022027Y014095D01*
X022051Y014070D01*
X022071Y014042D01*
X022089Y014012D01*
X022102Y013981D01*
X022112Y013948D01*
X022118Y013914D01*
X022120Y013880D01*
X022118Y013846D01*
X022112Y013812D01*
X022102Y013779D01*
X022089Y013748D01*
X022071Y013718D01*
X022051Y013690D01*
X022027Y013665D01*
X022001Y013643D01*
X021973Y013625D01*
X021942Y013609D01*
X021910Y013597D01*
X021876Y013589D01*
X021842Y013585D01*
X021808Y013585D01*
X021774Y013589D01*
X021740Y013597D01*
X021708Y013609D01*
X021677Y013625D01*
X021649Y013643D01*
X021623Y013665D01*
X021599Y013690D01*
X021579Y013718D01*
X021561Y013748D01*
X021548Y013779D01*
X021538Y013812D01*
X021532Y013846D01*
X021530Y013880D01*
X021037Y011517D02*
X021039Y011556D01*
X021045Y011595D01*
X021055Y011633D01*
X021068Y011670D01*
X021085Y011705D01*
X021105Y011739D01*
X021129Y011770D01*
X021156Y011799D01*
X021185Y011825D01*
X021217Y011848D01*
X021251Y011868D01*
X021287Y011884D01*
X021324Y011896D01*
X021363Y011905D01*
X021402Y011910D01*
X021441Y011911D01*
X021480Y011908D01*
X021519Y011901D01*
X021556Y011890D01*
X021593Y011876D01*
X021628Y011858D01*
X021661Y011837D01*
X021692Y011812D01*
X021720Y011785D01*
X021745Y011755D01*
X021767Y011722D01*
X021786Y011688D01*
X021801Y011652D01*
X021813Y011614D01*
X021821Y011576D01*
X021825Y011537D01*
X021825Y011497D01*
X021821Y011458D01*
X021813Y011420D01*
X021801Y011382D01*
X021786Y011346D01*
X021767Y011312D01*
X021745Y011279D01*
X021720Y011249D01*
X021692Y011222D01*
X021661Y011197D01*
X021628Y011176D01*
X021593Y011158D01*
X021556Y011144D01*
X021519Y011133D01*
X021480Y011126D01*
X021441Y011123D01*
X021402Y011124D01*
X021363Y011129D01*
X021324Y011138D01*
X021287Y011150D01*
X021251Y011166D01*
X021217Y011186D01*
X021185Y011209D01*
X021156Y011235D01*
X021129Y011264D01*
X021105Y011295D01*
X021085Y011329D01*
X021068Y011364D01*
X021055Y011401D01*
X021045Y011439D01*
X021039Y011478D01*
X021037Y011517D01*
X021037Y009706D02*
X021039Y009745D01*
X021045Y009784D01*
X021055Y009822D01*
X021068Y009859D01*
X021085Y009894D01*
X021105Y009928D01*
X021129Y009959D01*
X021156Y009988D01*
X021185Y010014D01*
X021217Y010037D01*
X021251Y010057D01*
X021287Y010073D01*
X021324Y010085D01*
X021363Y010094D01*
X021402Y010099D01*
X021441Y010100D01*
X021480Y010097D01*
X021519Y010090D01*
X021556Y010079D01*
X021593Y010065D01*
X021628Y010047D01*
X021661Y010026D01*
X021692Y010001D01*
X021720Y009974D01*
X021745Y009944D01*
X021767Y009911D01*
X021786Y009877D01*
X021801Y009841D01*
X021813Y009803D01*
X021821Y009765D01*
X021825Y009726D01*
X021825Y009686D01*
X021821Y009647D01*
X021813Y009609D01*
X021801Y009571D01*
X021786Y009535D01*
X021767Y009501D01*
X021745Y009468D01*
X021720Y009438D01*
X021692Y009411D01*
X021661Y009386D01*
X021628Y009365D01*
X021593Y009347D01*
X021556Y009333D01*
X021519Y009322D01*
X021480Y009315D01*
X021441Y009312D01*
X021402Y009313D01*
X021363Y009318D01*
X021324Y009327D01*
X021287Y009339D01*
X021251Y009355D01*
X021217Y009375D01*
X021185Y009398D01*
X021156Y009424D01*
X021129Y009453D01*
X021105Y009484D01*
X021085Y009518D01*
X021068Y009553D01*
X021055Y009590D01*
X021045Y009628D01*
X021039Y009667D01*
X021037Y009706D01*
X021077Y008328D02*
X021079Y008365D01*
X021085Y008402D01*
X021094Y008437D01*
X021108Y008472D01*
X021124Y008505D01*
X021145Y008536D01*
X021168Y008565D01*
X021194Y008591D01*
X021223Y008614D01*
X021254Y008635D01*
X021287Y008651D01*
X021322Y008665D01*
X021357Y008674D01*
X021394Y008680D01*
X021431Y008682D01*
X021468Y008680D01*
X021505Y008674D01*
X021540Y008665D01*
X021575Y008651D01*
X021608Y008635D01*
X021639Y008614D01*
X021668Y008591D01*
X021694Y008565D01*
X021717Y008536D01*
X021738Y008505D01*
X021754Y008472D01*
X021768Y008437D01*
X021777Y008402D01*
X021783Y008365D01*
X021785Y008328D01*
X021783Y008291D01*
X021777Y008254D01*
X021768Y008219D01*
X021754Y008184D01*
X021738Y008151D01*
X021717Y008120D01*
X021694Y008091D01*
X021668Y008065D01*
X021639Y008042D01*
X021608Y008021D01*
X021575Y008005D01*
X021540Y007991D01*
X021505Y007982D01*
X021468Y007976D01*
X021431Y007974D01*
X021394Y007976D01*
X021357Y007982D01*
X021322Y007991D01*
X021287Y008005D01*
X021254Y008021D01*
X021223Y008042D01*
X021194Y008065D01*
X021168Y008091D01*
X021145Y008120D01*
X021124Y008151D01*
X021108Y008184D01*
X021094Y008219D01*
X021085Y008254D01*
X021079Y008291D01*
X021077Y008328D01*
X021530Y007344D02*
X021532Y007378D01*
X021538Y007412D01*
X021548Y007445D01*
X021561Y007476D01*
X021579Y007506D01*
X021599Y007534D01*
X021623Y007559D01*
X021649Y007581D01*
X021677Y007599D01*
X021708Y007615D01*
X021740Y007627D01*
X021774Y007635D01*
X021808Y007639D01*
X021842Y007639D01*
X021876Y007635D01*
X021910Y007627D01*
X021942Y007615D01*
X021972Y007599D01*
X022001Y007581D01*
X022027Y007559D01*
X022051Y007534D01*
X022071Y007506D01*
X022089Y007476D01*
X022102Y007445D01*
X022112Y007412D01*
X022118Y007378D01*
X022120Y007344D01*
X022118Y007310D01*
X022112Y007276D01*
X022102Y007243D01*
X022089Y007212D01*
X022071Y007182D01*
X022051Y007154D01*
X022027Y007129D01*
X022001Y007107D01*
X021973Y007089D01*
X021942Y007073D01*
X021910Y007061D01*
X021876Y007053D01*
X021842Y007049D01*
X021808Y007049D01*
X021774Y007053D01*
X021740Y007061D01*
X021708Y007073D01*
X021677Y007089D01*
X021649Y007107D01*
X021623Y007129D01*
X021599Y007154D01*
X021579Y007182D01*
X021561Y007212D01*
X021548Y007243D01*
X021538Y007276D01*
X021532Y007310D01*
X021530Y007344D01*
X034439Y028624D02*
X034441Y028668D01*
X034447Y028712D01*
X034457Y028755D01*
X034470Y028797D01*
X034488Y028837D01*
X034509Y028876D01*
X034533Y028913D01*
X034560Y028948D01*
X034591Y028980D01*
X034624Y029009D01*
X034660Y029035D01*
X034698Y029057D01*
X034738Y029076D01*
X034779Y029092D01*
X034822Y029104D01*
X034865Y029112D01*
X034909Y029116D01*
X034953Y029116D01*
X034997Y029112D01*
X035040Y029104D01*
X035083Y029092D01*
X035124Y029076D01*
X035164Y029057D01*
X035202Y029035D01*
X035238Y029009D01*
X035271Y028980D01*
X035302Y028948D01*
X035329Y028913D01*
X035353Y028876D01*
X035374Y028837D01*
X035392Y028797D01*
X035405Y028755D01*
X035415Y028712D01*
X035421Y028668D01*
X035423Y028624D01*
X035421Y028580D01*
X035415Y028536D01*
X035405Y028493D01*
X035392Y028451D01*
X035374Y028411D01*
X035353Y028372D01*
X035329Y028335D01*
X035302Y028300D01*
X035271Y028268D01*
X035238Y028239D01*
X035202Y028213D01*
X035164Y028191D01*
X035124Y028172D01*
X035083Y028156D01*
X035040Y028144D01*
X034997Y028136D01*
X034953Y028132D01*
X034909Y028132D01*
X034865Y028136D01*
X034822Y028144D01*
X034779Y028156D01*
X034738Y028172D01*
X034698Y028191D01*
X034660Y028213D01*
X034624Y028239D01*
X034591Y028268D01*
X034560Y028300D01*
X034533Y028335D01*
X034509Y028372D01*
X034488Y028411D01*
X034470Y028451D01*
X034457Y028493D01*
X034447Y028536D01*
X034441Y028580D01*
X034439Y028624D01*
X035604Y030651D02*
X035606Y030690D01*
X035612Y030729D01*
X035622Y030767D01*
X035635Y030804D01*
X035652Y030839D01*
X035672Y030873D01*
X035696Y030904D01*
X035723Y030933D01*
X035752Y030959D01*
X035784Y030982D01*
X035818Y031002D01*
X035854Y031018D01*
X035891Y031030D01*
X035930Y031039D01*
X035969Y031044D01*
X036008Y031045D01*
X036047Y031042D01*
X036086Y031035D01*
X036123Y031024D01*
X036160Y031010D01*
X036195Y030992D01*
X036228Y030971D01*
X036259Y030946D01*
X036287Y030919D01*
X036312Y030889D01*
X036334Y030856D01*
X036353Y030822D01*
X036368Y030786D01*
X036380Y030748D01*
X036388Y030710D01*
X036392Y030671D01*
X036392Y030631D01*
X036388Y030592D01*
X036380Y030554D01*
X036368Y030516D01*
X036353Y030480D01*
X036334Y030446D01*
X036312Y030413D01*
X036287Y030383D01*
X036259Y030356D01*
X036228Y030331D01*
X036195Y030310D01*
X036160Y030292D01*
X036123Y030278D01*
X036086Y030267D01*
X036047Y030260D01*
X036008Y030257D01*
X035969Y030258D01*
X035930Y030263D01*
X035891Y030272D01*
X035854Y030284D01*
X035818Y030300D01*
X035784Y030320D01*
X035752Y030343D01*
X035723Y030369D01*
X035696Y030398D01*
X035672Y030429D01*
X035652Y030463D01*
X035635Y030498D01*
X035622Y030535D01*
X035612Y030573D01*
X035606Y030612D01*
X035604Y030651D01*
D11*
X035595Y027972D02*
X035595Y027691D01*
X031768Y028640D02*
X031768Y028920D01*
X031768Y029628D02*
X031768Y029909D01*
X031628Y029769D02*
X031908Y029769D01*
X030300Y030222D02*
X029979Y030222D01*
X030139Y030222D02*
X030139Y029741D01*
X029784Y029741D02*
X029784Y030062D01*
X029624Y030222D01*
X029464Y030062D01*
X029464Y029741D01*
X029268Y029821D02*
X029188Y029741D01*
X028948Y029741D01*
X028948Y030222D01*
X029188Y030222D01*
X029268Y030142D01*
X029268Y030062D01*
X029188Y029982D01*
X028948Y029982D01*
X029188Y029982D02*
X029268Y029902D01*
X029268Y029821D01*
X029464Y029982D02*
X029784Y029982D01*
X028305Y027952D02*
X028089Y027952D01*
X028017Y027880D01*
X028017Y027664D01*
X028305Y027664D01*
X028233Y027481D02*
X028089Y027481D01*
X028017Y027409D01*
X028017Y027264D01*
X028089Y027192D01*
X028233Y027192D01*
X028305Y027264D01*
X028305Y027409D01*
X028233Y027481D01*
X028233Y027009D02*
X028161Y026937D01*
X028161Y026793D01*
X028089Y026721D01*
X028017Y026793D01*
X028017Y027009D01*
X028233Y027009D02*
X028305Y026937D01*
X028305Y026721D01*
X028305Y026538D02*
X028089Y026538D01*
X028017Y026466D01*
X028017Y026250D01*
X028305Y026250D01*
X028305Y026080D02*
X028305Y025936D01*
X028305Y026008D02*
X028017Y026008D01*
X028017Y025936D01*
X027873Y026008D02*
X027801Y026008D01*
X028089Y025753D02*
X028017Y025681D01*
X028017Y025464D01*
X027873Y025464D02*
X028305Y025464D01*
X028305Y025681D01*
X028233Y025753D01*
X028089Y025753D01*
X028786Y025872D02*
X029218Y025872D01*
X029242Y025815D02*
X029242Y026103D01*
X029218Y026016D02*
X029218Y025728D01*
X029218Y025545D02*
X028930Y025257D01*
X028858Y025257D01*
X028786Y025329D01*
X028786Y025473D01*
X028858Y025545D01*
X028882Y025632D02*
X029170Y025344D01*
X029242Y025344D01*
X029218Y025257D02*
X029218Y025545D01*
X028882Y025632D02*
X028810Y025632D01*
X028810Y025344D01*
X028882Y025160D02*
X028810Y025088D01*
X028810Y024944D01*
X028882Y024872D01*
X028786Y024930D02*
X028930Y025074D01*
X028954Y025160D02*
X028882Y025160D01*
X028954Y025160D02*
X029242Y024872D01*
X029242Y025160D01*
X029218Y025074D02*
X029218Y024786D01*
X029218Y024930D02*
X028786Y024930D01*
X028305Y024810D02*
X028161Y024666D01*
X028161Y024738D02*
X028161Y024522D01*
X028305Y024522D02*
X027873Y024522D01*
X027873Y024738D01*
X027945Y024810D01*
X028089Y024810D01*
X028161Y024738D01*
X028233Y024993D02*
X028305Y025065D01*
X028305Y025209D01*
X028233Y025281D01*
X028089Y025281D01*
X028017Y025209D01*
X028017Y025065D01*
X028089Y024993D01*
X028233Y024993D01*
X028786Y025872D02*
X028930Y026016D01*
X028810Y025959D02*
X029242Y025959D01*
X029218Y026199D02*
X029218Y026488D01*
X029242Y026430D02*
X028810Y026430D01*
X028954Y026286D01*
X028786Y026343D02*
X029218Y026343D01*
X029242Y026286D02*
X029242Y026574D01*
X029242Y026757D02*
X028954Y027045D01*
X028882Y027045D01*
X028810Y026973D01*
X028810Y026829D01*
X028882Y026757D01*
X028858Y026671D02*
X029146Y026959D01*
X029218Y026959D01*
X029242Y027045D02*
X029242Y026757D01*
X029218Y027142D02*
X029218Y027430D01*
X028930Y027142D01*
X028858Y027142D01*
X028786Y027214D01*
X028786Y027358D01*
X028858Y027430D01*
X028810Y027373D02*
X029242Y027373D01*
X029242Y027229D02*
X029242Y027517D01*
X028954Y027229D02*
X028810Y027373D01*
X028786Y026959D02*
X028786Y026671D01*
X028858Y026671D01*
X028930Y026488D02*
X028786Y026343D01*
X028810Y025959D02*
X028954Y025815D01*
X027246Y025887D02*
X027246Y026123D01*
X026931Y026123D01*
X026931Y026395D02*
X026931Y026552D01*
X027010Y026631D01*
X027246Y026631D01*
X027246Y026395D01*
X027167Y026316D01*
X027088Y026395D01*
X027088Y026631D01*
X027088Y026824D02*
X026931Y026981D01*
X026931Y027060D01*
X026931Y027247D02*
X026931Y027404D01*
X026853Y027325D02*
X027167Y027325D01*
X027246Y027404D01*
X027246Y026824D02*
X026931Y026824D01*
X025880Y026945D02*
X025880Y026625D01*
X025560Y026945D01*
X025480Y026945D01*
X025400Y026865D01*
X025400Y026705D01*
X025480Y026625D01*
X025400Y026269D02*
X025880Y026269D01*
X025880Y026109D02*
X025880Y026429D01*
X025560Y026109D02*
X025400Y026269D01*
X025400Y025914D02*
X025400Y025593D01*
X025880Y025593D01*
X025880Y025398D02*
X025720Y025238D01*
X025720Y025318D02*
X025720Y025078D01*
X025880Y025078D02*
X025400Y025078D01*
X025400Y025318D01*
X025480Y025398D01*
X025640Y025398D01*
X025720Y025318D01*
X025640Y025593D02*
X025640Y025753D01*
X025480Y024882D02*
X025400Y024802D01*
X025400Y024562D01*
X025880Y024562D01*
X025880Y024802D01*
X025800Y024882D01*
X025480Y024882D01*
X026774Y025041D02*
X026853Y024963D01*
X026931Y024963D01*
X027010Y025041D01*
X027010Y025199D01*
X027088Y025277D01*
X027167Y025277D01*
X027246Y025199D01*
X027246Y025041D01*
X027167Y024963D01*
X026774Y025041D02*
X026774Y025199D01*
X026853Y025277D01*
X026931Y025470D02*
X026931Y025628D01*
X026853Y025549D02*
X027167Y025549D01*
X027246Y025628D01*
X027167Y025809D02*
X026931Y025809D01*
X027167Y025809D02*
X027246Y025887D01*
X025880Y027140D02*
X025800Y027140D01*
X025480Y027460D01*
X025400Y027460D01*
X025400Y027140D01*
X025480Y027656D02*
X025560Y027656D01*
X025640Y027736D01*
X025640Y027896D01*
X025720Y027976D01*
X025800Y027976D01*
X025880Y027896D01*
X025880Y027736D01*
X025800Y027656D01*
X025720Y027656D01*
X025640Y027736D01*
X025640Y027896D02*
X025560Y027976D01*
X025480Y027976D01*
X025400Y027896D01*
X025400Y027736D01*
X025480Y027656D01*
X019217Y027691D02*
X019217Y027972D01*
X015530Y029769D02*
X015250Y029769D01*
X015390Y029909D02*
X015390Y029628D01*
X015390Y028920D02*
X015390Y028640D01*
X013762Y029741D02*
X013762Y030222D01*
X013922Y030222D02*
X013601Y030222D01*
X013406Y030062D02*
X013406Y029741D01*
X013406Y029982D02*
X013086Y029982D01*
X013086Y030062D02*
X013086Y029741D01*
X012890Y029821D02*
X012810Y029741D01*
X012570Y029741D01*
X012570Y030222D01*
X012810Y030222D01*
X012890Y030142D01*
X012890Y030062D01*
X012810Y029982D01*
X012570Y029982D01*
X012810Y029982D02*
X012890Y029902D01*
X012890Y029821D01*
X013086Y030062D02*
X013246Y030222D01*
X013406Y030062D01*
X011927Y027952D02*
X011711Y027952D01*
X011639Y027880D01*
X011639Y027664D01*
X011927Y027664D01*
X011855Y027481D02*
X011711Y027481D01*
X011639Y027409D01*
X011639Y027264D01*
X011711Y027192D01*
X011855Y027192D01*
X011927Y027264D01*
X011927Y027409D01*
X011855Y027481D01*
X011855Y027009D02*
X011783Y026937D01*
X011783Y026793D01*
X011711Y026721D01*
X011639Y026793D01*
X011639Y027009D01*
X011855Y027009D02*
X011927Y026937D01*
X011927Y026721D01*
X011927Y026538D02*
X011711Y026538D01*
X011639Y026466D01*
X011639Y026250D01*
X011927Y026250D01*
X011927Y026080D02*
X011927Y025936D01*
X011927Y026008D02*
X011639Y026008D01*
X011639Y025936D01*
X011495Y026008D02*
X011423Y026008D01*
X011711Y025753D02*
X011639Y025681D01*
X011639Y025464D01*
X011495Y025464D02*
X011927Y025464D01*
X011927Y025681D01*
X011855Y025753D01*
X011711Y025753D01*
X011711Y025281D02*
X011639Y025209D01*
X011639Y025065D01*
X011711Y024993D01*
X011855Y024993D01*
X011927Y025065D01*
X011927Y025209D01*
X011855Y025281D01*
X011711Y025281D01*
X011711Y024810D02*
X011783Y024738D01*
X011783Y024522D01*
X011927Y024522D02*
X011495Y024522D01*
X011495Y024738D01*
X011567Y024810D01*
X011711Y024810D01*
X011783Y024666D02*
X011927Y024810D01*
X012408Y024930D02*
X012552Y025074D01*
X012576Y025160D02*
X012504Y025160D01*
X012432Y025088D01*
X012432Y024944D01*
X012504Y024872D01*
X012408Y024930D02*
X012840Y024930D01*
X012864Y024872D02*
X012576Y025160D01*
X012552Y025257D02*
X012840Y025545D01*
X012840Y025257D01*
X012864Y025344D02*
X012792Y025344D01*
X012504Y025632D01*
X012432Y025632D01*
X012432Y025344D01*
X012408Y025329D02*
X012408Y025473D01*
X012480Y025545D01*
X012408Y025329D02*
X012480Y025257D01*
X012552Y025257D01*
X012864Y025160D02*
X012864Y024872D01*
X012840Y024786D02*
X012840Y025074D01*
X012840Y025728D02*
X012840Y026016D01*
X012864Y025959D02*
X012432Y025959D01*
X012576Y025815D01*
X012408Y025872D02*
X012840Y025872D01*
X012864Y025815D02*
X012864Y026103D01*
X012840Y026199D02*
X012840Y026488D01*
X012864Y026430D02*
X012432Y026430D01*
X012576Y026286D01*
X012408Y026343D02*
X012840Y026343D01*
X012864Y026286D02*
X012864Y026574D01*
X012864Y026757D02*
X012576Y027045D01*
X012504Y027045D01*
X012432Y026973D01*
X012432Y026829D01*
X012504Y026757D01*
X012480Y026671D02*
X012768Y026959D01*
X012840Y026959D01*
X012864Y027045D02*
X012864Y026757D01*
X012840Y027142D02*
X012840Y027430D01*
X012552Y027142D01*
X012480Y027142D01*
X012408Y027214D01*
X012408Y027358D01*
X012480Y027430D01*
X012432Y027373D02*
X012864Y027373D01*
X012864Y027229D02*
X012864Y027517D01*
X012576Y027229D02*
X012432Y027373D01*
X012408Y026959D02*
X012408Y026671D01*
X012480Y026671D01*
X012552Y026488D02*
X012408Y026343D01*
X012552Y026016D02*
X012408Y025872D01*
X010868Y025887D02*
X010868Y026123D01*
X010553Y026123D01*
X010553Y026395D02*
X010553Y026552D01*
X010632Y026631D01*
X010868Y026631D01*
X010868Y026395D01*
X010789Y026316D01*
X010711Y026395D01*
X010711Y026631D01*
X010711Y026824D02*
X010553Y026981D01*
X010553Y027060D01*
X010553Y027247D02*
X010553Y027404D01*
X010475Y027325D02*
X010789Y027325D01*
X010868Y027404D01*
X010868Y026824D02*
X010553Y026824D01*
X010868Y025887D02*
X010789Y025809D01*
X010553Y025809D01*
X010553Y025628D02*
X010553Y025470D01*
X010475Y025549D02*
X010789Y025549D01*
X010868Y025628D01*
X010789Y025277D02*
X010868Y025199D01*
X010868Y025041D01*
X010789Y024963D01*
X010632Y025041D02*
X010632Y025199D01*
X010711Y025277D01*
X010789Y025277D01*
X010632Y025041D02*
X010553Y024963D01*
X010475Y024963D01*
X010396Y025041D01*
X010396Y025199D01*
X010475Y025277D01*
X009503Y025398D02*
X009342Y025238D01*
X009342Y025318D02*
X009342Y025078D01*
X009503Y025078D02*
X009022Y025078D01*
X009022Y025318D01*
X009102Y025398D01*
X009262Y025398D01*
X009342Y025318D01*
X009262Y025593D02*
X009262Y025753D01*
X009022Y025593D02*
X009022Y025914D01*
X009182Y026109D02*
X009022Y026269D01*
X009503Y026269D01*
X009503Y026109D02*
X009503Y026429D01*
X009503Y026625D02*
X009182Y026945D01*
X009102Y026945D01*
X009022Y026865D01*
X009022Y026705D01*
X009102Y026625D01*
X009503Y026625D02*
X009503Y026945D01*
X009503Y027140D02*
X009422Y027140D01*
X009102Y027460D01*
X009022Y027460D01*
X009022Y027140D01*
X009102Y027656D02*
X009182Y027656D01*
X009262Y027736D01*
X009262Y027896D01*
X009342Y027976D01*
X009422Y027976D01*
X009503Y027896D01*
X009503Y027736D01*
X009422Y027656D01*
X009342Y027656D01*
X009262Y027736D01*
X009262Y027896D02*
X009182Y027976D01*
X009102Y027976D01*
X009022Y027896D01*
X009022Y027736D01*
X009102Y027656D01*
X009022Y025593D02*
X009503Y025593D01*
X009422Y024882D02*
X009102Y024882D01*
X009022Y024802D01*
X009022Y024562D01*
X009503Y024562D01*
X009503Y024802D01*
X009422Y024882D01*
X012570Y019749D02*
X012810Y019749D01*
X012890Y019669D01*
X012890Y019589D01*
X012810Y019509D01*
X012570Y019509D01*
X012570Y019269D02*
X012810Y019269D01*
X012890Y019349D01*
X012890Y019429D01*
X012810Y019509D01*
X013086Y019509D02*
X013406Y019509D01*
X013406Y019589D02*
X013406Y019269D01*
X013406Y019589D02*
X013246Y019749D01*
X013086Y019589D01*
X013086Y019269D01*
X012570Y019269D02*
X012570Y019749D01*
X013601Y019749D02*
X013922Y019749D01*
X013762Y019749D02*
X013762Y019269D01*
X015250Y019296D02*
X015530Y019296D01*
X015390Y019156D02*
X015390Y019436D01*
X015390Y018448D02*
X015390Y018168D01*
X012864Y017044D02*
X012864Y016756D01*
X012840Y016670D02*
X012840Y016958D01*
X012552Y016670D01*
X012480Y016670D01*
X012408Y016742D01*
X012408Y016886D01*
X012480Y016958D01*
X012432Y016900D02*
X012864Y016900D01*
X012576Y016756D02*
X012432Y016900D01*
X012504Y016573D02*
X012432Y016501D01*
X012432Y016357D01*
X012504Y016285D01*
X012480Y016198D02*
X012768Y016486D01*
X012840Y016486D01*
X012864Y016573D02*
X012864Y016285D01*
X012576Y016573D01*
X012504Y016573D01*
X012408Y016486D02*
X012408Y016198D01*
X012480Y016198D01*
X012552Y016015D02*
X012408Y015871D01*
X012840Y015871D01*
X012864Y015814D02*
X012864Y016102D01*
X012840Y016015D02*
X012840Y015727D01*
X012864Y015630D02*
X012864Y015342D01*
X012840Y015400D02*
X012408Y015400D01*
X012552Y015544D01*
X012432Y015486D02*
X012864Y015486D01*
X012840Y015544D02*
X012840Y015256D01*
X012840Y015073D02*
X012552Y014784D01*
X012480Y014784D01*
X012408Y014856D01*
X012408Y015001D01*
X012480Y015073D01*
X012504Y015159D02*
X012792Y014871D01*
X012864Y014871D01*
X012840Y014784D02*
X012840Y015073D01*
X012504Y015159D02*
X012432Y015159D01*
X012432Y014871D01*
X012504Y014688D02*
X012432Y014616D01*
X012432Y014472D01*
X012504Y014400D01*
X012408Y014457D02*
X012840Y014457D01*
X012864Y014400D02*
X012576Y014688D01*
X012504Y014688D01*
X012552Y014601D02*
X012408Y014457D01*
X012840Y014601D02*
X012840Y014313D01*
X012864Y014400D02*
X012864Y014688D01*
X012576Y015342D02*
X012432Y015486D01*
X012576Y015814D02*
X012432Y015958D01*
X012864Y015958D01*
X011927Y016066D02*
X011711Y016066D01*
X011639Y015994D01*
X011639Y015777D01*
X011927Y015777D01*
X011927Y015607D02*
X011927Y015463D01*
X011927Y015535D02*
X011639Y015535D01*
X011639Y015463D01*
X011495Y015535D02*
X011423Y015535D01*
X011711Y015280D02*
X011639Y015208D01*
X011639Y014992D01*
X011495Y014992D02*
X011927Y014992D01*
X011927Y015208D01*
X011855Y015280D01*
X011711Y015280D01*
X011711Y014809D02*
X011639Y014737D01*
X011639Y014593D01*
X011711Y014521D01*
X011855Y014521D01*
X011927Y014593D01*
X011927Y014737D01*
X011855Y014809D01*
X011711Y014809D01*
X011711Y014338D02*
X011783Y014266D01*
X011783Y014049D01*
X011927Y014049D02*
X011495Y014049D01*
X011495Y014266D01*
X011567Y014338D01*
X011711Y014338D01*
X011783Y014194D02*
X011927Y014338D01*
X010868Y014569D02*
X010789Y014490D01*
X010868Y014569D02*
X010868Y014726D01*
X010789Y014805D01*
X010711Y014805D01*
X010632Y014726D01*
X010632Y014569D01*
X010553Y014490D01*
X010475Y014490D01*
X010396Y014569D01*
X010396Y014726D01*
X010475Y014805D01*
X010553Y014998D02*
X010553Y015155D01*
X010475Y015077D02*
X010789Y015077D01*
X010868Y015155D01*
X010789Y015336D02*
X010553Y015336D01*
X010789Y015336D02*
X010868Y015415D01*
X010868Y015651D01*
X010553Y015651D01*
X010553Y015922D02*
X010553Y016080D01*
X010632Y016158D01*
X010868Y016158D01*
X010868Y015922D01*
X010789Y015844D01*
X010711Y015922D01*
X010711Y016158D01*
X010711Y016351D02*
X010553Y016508D01*
X010553Y016587D01*
X010553Y016774D02*
X010553Y016931D01*
X010475Y016853D02*
X010789Y016853D01*
X010868Y016931D01*
X010868Y016351D02*
X010553Y016351D01*
X009503Y016472D02*
X009503Y016152D01*
X009182Y016472D01*
X009102Y016472D01*
X009022Y016392D01*
X009022Y016232D01*
X009102Y016152D01*
X009022Y015797D02*
X009503Y015797D01*
X009503Y015957D02*
X009503Y015636D01*
X009182Y015636D02*
X009022Y015797D01*
X009022Y015441D02*
X009022Y015121D01*
X009503Y015121D01*
X009503Y014925D02*
X009342Y014765D01*
X009342Y014845D02*
X009342Y014605D01*
X009503Y014605D02*
X009022Y014605D01*
X009022Y014845D01*
X009102Y014925D01*
X009262Y014925D01*
X009342Y014845D01*
X009262Y015121D02*
X009262Y015281D01*
X009102Y014410D02*
X009022Y014330D01*
X009022Y014090D01*
X009503Y014090D01*
X009503Y014330D01*
X009422Y014410D01*
X009102Y014410D01*
X009022Y016668D02*
X009022Y016988D01*
X009102Y016988D01*
X009422Y016668D01*
X009503Y016668D01*
X009422Y017183D02*
X009342Y017183D01*
X009262Y017263D01*
X009262Y017424D01*
X009342Y017504D01*
X009422Y017504D01*
X009503Y017424D01*
X009503Y017263D01*
X009422Y017183D01*
X009262Y017263D02*
X009182Y017183D01*
X009102Y017183D01*
X009022Y017263D01*
X009022Y017424D01*
X009102Y017504D01*
X009182Y017504D01*
X009262Y017424D01*
X011639Y017407D02*
X011639Y017191D01*
X011927Y017191D01*
X011855Y017008D02*
X011711Y017008D01*
X011639Y016936D01*
X011639Y016792D01*
X011711Y016720D01*
X011855Y016720D01*
X011927Y016792D01*
X011927Y016936D01*
X011855Y017008D01*
X011639Y017407D02*
X011711Y017479D01*
X011927Y017479D01*
X011855Y016537D02*
X011783Y016465D01*
X011783Y016321D01*
X011711Y016249D01*
X011639Y016321D01*
X011639Y016537D01*
X011855Y016537D02*
X011927Y016465D01*
X011927Y016249D01*
X019217Y017219D02*
X019217Y017499D01*
X025400Y017424D02*
X025480Y017504D01*
X025560Y017504D01*
X025640Y017424D01*
X025640Y017263D01*
X025560Y017183D01*
X025480Y017183D01*
X025400Y017263D01*
X025400Y017424D01*
X025640Y017424D02*
X025720Y017504D01*
X025800Y017504D01*
X025880Y017424D01*
X025880Y017263D01*
X025800Y017183D01*
X025720Y017183D01*
X025640Y017263D01*
X025480Y016988D02*
X025400Y016988D01*
X025400Y016668D01*
X025480Y016472D02*
X025400Y016392D01*
X025400Y016232D01*
X025480Y016152D01*
X025480Y016472D02*
X025560Y016472D01*
X025880Y016152D01*
X025880Y016472D01*
X025880Y016668D02*
X025800Y016668D01*
X025480Y016988D01*
X025880Y015957D02*
X025880Y015636D01*
X025880Y015797D02*
X025400Y015797D01*
X025560Y015636D01*
X025400Y015441D02*
X025400Y015121D01*
X025880Y015121D01*
X025880Y014925D02*
X025720Y014765D01*
X025720Y014845D02*
X025720Y014605D01*
X025880Y014605D02*
X025400Y014605D01*
X025400Y014845D01*
X025480Y014925D01*
X025640Y014925D01*
X025720Y014845D01*
X025640Y015121D02*
X025640Y015281D01*
X025480Y014410D02*
X025400Y014330D01*
X025400Y014090D01*
X025880Y014090D01*
X025880Y014330D01*
X025800Y014410D01*
X025480Y014410D01*
X026774Y014569D02*
X026853Y014490D01*
X026931Y014490D01*
X027010Y014569D01*
X027010Y014726D01*
X027088Y014805D01*
X027167Y014805D01*
X027246Y014726D01*
X027246Y014569D01*
X027167Y014490D01*
X026774Y014569D02*
X026774Y014726D01*
X026853Y014805D01*
X026931Y014998D02*
X026931Y015155D01*
X026853Y015077D02*
X027167Y015077D01*
X027246Y015155D01*
X027167Y015336D02*
X026931Y015336D01*
X027167Y015336D02*
X027246Y015415D01*
X027246Y015651D01*
X026931Y015651D01*
X026931Y015922D02*
X026931Y016080D01*
X027010Y016158D01*
X027246Y016158D01*
X027246Y015922D01*
X027167Y015844D01*
X027088Y015922D01*
X027088Y016158D01*
X027088Y016351D02*
X026931Y016508D01*
X026931Y016587D01*
X026931Y016774D02*
X026931Y016931D01*
X026853Y016853D02*
X027167Y016853D01*
X027246Y016931D01*
X027246Y016351D02*
X026931Y016351D01*
X028017Y016321D02*
X028017Y016537D01*
X028161Y016465D02*
X028161Y016321D01*
X028089Y016249D01*
X028017Y016321D01*
X028161Y016465D02*
X028233Y016537D01*
X028305Y016465D01*
X028305Y016249D01*
X028305Y016066D02*
X028089Y016066D01*
X028017Y015994D01*
X028017Y015777D01*
X028305Y015777D01*
X028305Y015607D02*
X028305Y015463D01*
X028305Y015535D02*
X028017Y015535D01*
X028017Y015463D01*
X027873Y015535D02*
X027801Y015535D01*
X028089Y015280D02*
X028017Y015208D01*
X028017Y014992D01*
X027873Y014992D02*
X028305Y014992D01*
X028305Y015208D01*
X028233Y015280D01*
X028089Y015280D01*
X028786Y015400D02*
X029218Y015400D01*
X029242Y015342D02*
X029242Y015630D01*
X029218Y015544D02*
X029218Y015256D01*
X029218Y015073D02*
X028930Y014784D01*
X028858Y014784D01*
X028786Y014856D01*
X028786Y015001D01*
X028858Y015073D01*
X028882Y015159D02*
X029170Y014871D01*
X029242Y014871D01*
X029218Y014784D02*
X029218Y015073D01*
X028882Y015159D02*
X028810Y015159D01*
X028810Y014871D01*
X028882Y014688D02*
X028810Y014616D01*
X028810Y014472D01*
X028882Y014400D01*
X028786Y014457D02*
X028930Y014601D01*
X028954Y014688D02*
X028882Y014688D01*
X028954Y014688D02*
X029242Y014400D01*
X029242Y014688D01*
X029218Y014601D02*
X029218Y014313D01*
X029218Y014457D02*
X028786Y014457D01*
X028305Y014338D02*
X028161Y014194D01*
X028161Y014266D02*
X028161Y014049D01*
X028305Y014049D02*
X027873Y014049D01*
X027873Y014266D01*
X027945Y014338D01*
X028089Y014338D01*
X028161Y014266D01*
X028233Y014521D02*
X028305Y014593D01*
X028305Y014737D01*
X028233Y014809D01*
X028089Y014809D01*
X028017Y014737D01*
X028017Y014593D01*
X028089Y014521D01*
X028233Y014521D01*
X028786Y015400D02*
X028930Y015544D01*
X028810Y015486D02*
X029242Y015486D01*
X029218Y015727D02*
X029218Y016015D01*
X029242Y015958D02*
X028810Y015958D01*
X028954Y015814D01*
X028786Y015871D02*
X029218Y015871D01*
X029242Y015814D02*
X029242Y016102D01*
X029242Y016285D02*
X028954Y016573D01*
X028882Y016573D01*
X028810Y016501D01*
X028810Y016357D01*
X028882Y016285D01*
X028858Y016198D02*
X029146Y016486D01*
X029218Y016486D01*
X029242Y016573D02*
X029242Y016285D01*
X029218Y016670D02*
X029218Y016958D01*
X028930Y016670D01*
X028858Y016670D01*
X028786Y016742D01*
X028786Y016886D01*
X028858Y016958D01*
X028810Y016900D02*
X029242Y016900D01*
X029242Y016756D02*
X029242Y017044D01*
X028954Y016756D02*
X028810Y016900D01*
X028786Y016486D02*
X028786Y016198D01*
X028858Y016198D01*
X028930Y016015D02*
X028786Y015871D01*
X028810Y015486D02*
X028954Y015342D01*
X028233Y016720D02*
X028305Y016792D01*
X028305Y016936D01*
X028233Y017008D01*
X028089Y017008D01*
X028017Y016936D01*
X028017Y016792D01*
X028089Y016720D01*
X028233Y016720D01*
X028305Y017191D02*
X028017Y017191D01*
X028017Y017407D01*
X028089Y017479D01*
X028305Y017479D01*
X028948Y019269D02*
X029188Y019269D01*
X029268Y019349D01*
X029268Y019429D01*
X029188Y019509D01*
X028948Y019509D01*
X028948Y019269D02*
X028948Y019749D01*
X029188Y019749D01*
X029268Y019669D01*
X029268Y019589D01*
X029188Y019509D01*
X029464Y019509D02*
X029784Y019509D01*
X029784Y019589D02*
X029784Y019269D01*
X029784Y019589D02*
X029624Y019749D01*
X029464Y019589D01*
X029464Y019269D01*
X030139Y019269D02*
X030139Y019749D01*
X029979Y019749D02*
X030300Y019749D01*
X031628Y019296D02*
X031908Y019296D01*
X031768Y019156D02*
X031768Y019436D01*
X031768Y018448D02*
X031768Y018168D01*
X035595Y017499D02*
X035595Y017219D01*
X030300Y009277D02*
X029979Y009277D01*
X030139Y009277D02*
X030139Y008797D01*
X029784Y008797D02*
X029784Y009117D01*
X029624Y009277D01*
X029464Y009117D01*
X029464Y008797D01*
X029268Y008877D02*
X029188Y008797D01*
X028948Y008797D01*
X028948Y009277D01*
X029188Y009277D01*
X029268Y009197D01*
X029268Y009117D01*
X029188Y009037D01*
X028948Y009037D01*
X029188Y009037D02*
X029268Y008957D01*
X029268Y008877D01*
X029464Y009037D02*
X029784Y009037D01*
X031628Y008824D02*
X031908Y008824D01*
X031768Y008684D02*
X031768Y008964D01*
X031768Y007976D02*
X031768Y007695D01*
X029242Y006572D02*
X029242Y006284D01*
X029218Y006197D02*
X029218Y006485D01*
X028930Y006197D01*
X028858Y006197D01*
X028786Y006269D01*
X028786Y006413D01*
X028858Y006485D01*
X028810Y006428D02*
X029242Y006428D01*
X028954Y006284D02*
X028810Y006428D01*
X028882Y006101D02*
X028810Y006029D01*
X028810Y005885D01*
X028882Y005812D01*
X028858Y005726D02*
X029146Y006014D01*
X029218Y006014D01*
X029242Y006101D02*
X029242Y005812D01*
X028954Y006101D01*
X028882Y006101D01*
X028786Y006014D02*
X028786Y005726D01*
X028858Y005726D01*
X028930Y005543D02*
X028786Y005399D01*
X029218Y005399D01*
X029242Y005341D02*
X029242Y005629D01*
X029218Y005543D02*
X029218Y005255D01*
X029242Y005158D02*
X029242Y004870D01*
X029218Y004927D02*
X028786Y004927D01*
X028930Y005071D01*
X028810Y005014D02*
X029242Y005014D01*
X029218Y005071D02*
X029218Y004783D01*
X029218Y004600D02*
X028930Y004312D01*
X028858Y004312D01*
X028786Y004384D01*
X028786Y004528D01*
X028858Y004600D01*
X028882Y004687D02*
X029170Y004399D01*
X029242Y004399D01*
X029218Y004312D02*
X029218Y004600D01*
X028882Y004687D02*
X028810Y004687D01*
X028810Y004399D01*
X028882Y004216D02*
X028810Y004143D01*
X028810Y003999D01*
X028882Y003927D01*
X028786Y003985D02*
X028930Y004129D01*
X028954Y004216D02*
X028882Y004216D01*
X028954Y004216D02*
X029242Y003927D01*
X029242Y004216D01*
X029218Y004129D02*
X029218Y003841D01*
X029218Y003985D02*
X028786Y003985D01*
X028305Y003865D02*
X028161Y003721D01*
X028161Y003793D02*
X028161Y003577D01*
X028305Y003577D02*
X027873Y003577D01*
X027873Y003793D01*
X027945Y003865D01*
X028089Y003865D01*
X028161Y003793D01*
X028233Y004048D02*
X028305Y004120D01*
X028305Y004264D01*
X028233Y004336D01*
X028089Y004336D01*
X028017Y004264D01*
X028017Y004120D01*
X028089Y004048D01*
X028233Y004048D01*
X028305Y004520D02*
X027873Y004520D01*
X028017Y004520D02*
X028017Y004736D01*
X028089Y004808D01*
X028233Y004808D01*
X028305Y004736D01*
X028305Y004520D01*
X028305Y004991D02*
X028305Y005135D01*
X028305Y005063D02*
X028017Y005063D01*
X028017Y004991D01*
X027873Y005063D02*
X027801Y005063D01*
X028017Y005305D02*
X028017Y005521D01*
X028089Y005593D01*
X028305Y005593D01*
X028305Y005776D02*
X028305Y005992D01*
X028233Y006064D01*
X028161Y005992D01*
X028161Y005848D01*
X028089Y005776D01*
X028017Y005848D01*
X028017Y006064D01*
X028089Y006248D02*
X028017Y006320D01*
X028017Y006464D01*
X028089Y006536D01*
X028233Y006536D01*
X028305Y006464D01*
X028305Y006320D01*
X028233Y006248D01*
X028089Y006248D01*
X028017Y006719D02*
X028017Y006935D01*
X028089Y007007D01*
X028305Y007007D01*
X028305Y006719D02*
X028017Y006719D01*
X027246Y006459D02*
X027167Y006380D01*
X026853Y006380D01*
X026931Y006302D02*
X026931Y006459D01*
X026931Y006115D02*
X026931Y006036D01*
X027088Y005879D01*
X026931Y005879D02*
X027246Y005879D01*
X027246Y005686D02*
X027246Y005450D01*
X027167Y005371D01*
X027088Y005450D01*
X027088Y005686D01*
X027010Y005686D02*
X027246Y005686D01*
X027010Y005686D02*
X026931Y005607D01*
X026931Y005450D01*
X026931Y005178D02*
X027246Y005178D01*
X027246Y004942D01*
X027167Y004864D01*
X026931Y004864D01*
X026931Y004683D02*
X026931Y004525D01*
X026853Y004604D02*
X027167Y004604D01*
X027246Y004683D01*
X027167Y004332D02*
X027246Y004254D01*
X027246Y004097D01*
X027167Y004018D01*
X027010Y004097D02*
X027010Y004254D01*
X027088Y004332D01*
X027167Y004332D01*
X027010Y004097D02*
X026931Y004018D01*
X026853Y004018D01*
X026774Y004097D01*
X026774Y004254D01*
X026853Y004332D01*
X025880Y004453D02*
X025720Y004293D01*
X025720Y004373D02*
X025720Y004133D01*
X025880Y004133D02*
X025400Y004133D01*
X025400Y004373D01*
X025480Y004453D01*
X025640Y004453D01*
X025720Y004373D01*
X025640Y004648D02*
X025640Y004809D01*
X025400Y004969D02*
X025400Y004648D01*
X025880Y004648D01*
X025880Y005164D02*
X025880Y005484D01*
X025880Y005324D02*
X025400Y005324D01*
X025560Y005164D01*
X025480Y005680D02*
X025400Y005760D01*
X025400Y005920D01*
X025480Y006000D01*
X025560Y006000D01*
X025880Y005680D01*
X025880Y006000D01*
X025880Y006195D02*
X025800Y006195D01*
X025480Y006516D01*
X025400Y006516D01*
X025400Y006195D01*
X025480Y006711D02*
X025560Y006711D01*
X025640Y006791D01*
X025640Y006951D01*
X025720Y007031D01*
X025800Y007031D01*
X025880Y006951D01*
X025880Y006791D01*
X025800Y006711D01*
X025720Y006711D01*
X025640Y006791D01*
X025640Y006951D02*
X025560Y007031D01*
X025480Y007031D01*
X025400Y006951D01*
X025400Y006791D01*
X025480Y006711D01*
X028017Y005305D02*
X028305Y005305D01*
X028810Y005485D02*
X028954Y005341D01*
X028810Y005485D02*
X029242Y005485D01*
X028810Y005014D02*
X028954Y004870D01*
X025880Y003857D02*
X025880Y003617D01*
X025400Y003617D01*
X025400Y003857D01*
X025480Y003937D01*
X025800Y003937D01*
X025880Y003857D01*
X019217Y006747D02*
X019217Y007027D01*
X015530Y008824D02*
X015250Y008824D01*
X015390Y008684D02*
X015390Y008964D01*
X015390Y007976D02*
X015390Y007695D01*
X013762Y008797D02*
X013762Y009277D01*
X013922Y009277D02*
X013601Y009277D01*
X013406Y009117D02*
X013406Y008797D01*
X013406Y009037D02*
X013086Y009037D01*
X013086Y009117D02*
X013086Y008797D01*
X012890Y008877D02*
X012810Y008797D01*
X012570Y008797D01*
X012570Y009277D01*
X012810Y009277D01*
X012890Y009197D01*
X012890Y009117D01*
X012810Y009037D01*
X012570Y009037D01*
X012810Y009037D02*
X012890Y008957D01*
X012890Y008877D01*
X013086Y009117D02*
X013246Y009277D01*
X013406Y009117D01*
X011927Y007007D02*
X011711Y007007D01*
X011639Y006935D01*
X011639Y006719D01*
X011927Y006719D01*
X011855Y006536D02*
X011711Y006536D01*
X011639Y006464D01*
X011639Y006320D01*
X011711Y006248D01*
X011855Y006248D01*
X011927Y006320D01*
X011927Y006464D01*
X011855Y006536D01*
X012408Y006413D02*
X012480Y006485D01*
X012432Y006428D02*
X012864Y006428D01*
X012840Y006485D02*
X012552Y006197D01*
X012480Y006197D01*
X012408Y006269D01*
X012408Y006413D01*
X012432Y006428D02*
X012576Y006284D01*
X012576Y006101D02*
X012504Y006101D01*
X012432Y006029D01*
X012432Y005885D01*
X012504Y005812D01*
X012480Y005726D02*
X012768Y006014D01*
X012840Y006014D01*
X012864Y006101D02*
X012864Y005812D01*
X012576Y006101D01*
X012408Y006014D02*
X012408Y005726D01*
X012480Y005726D01*
X012552Y005543D02*
X012408Y005399D01*
X012840Y005399D01*
X012864Y005341D02*
X012864Y005629D01*
X012840Y005543D02*
X012840Y005255D01*
X012864Y005158D02*
X012864Y004870D01*
X012840Y004927D02*
X012408Y004927D01*
X012552Y005071D01*
X012432Y005014D02*
X012864Y005014D01*
X012840Y005071D02*
X012840Y004783D01*
X012840Y004600D02*
X012552Y004312D01*
X012480Y004312D01*
X012408Y004384D01*
X012408Y004528D01*
X012480Y004600D01*
X012504Y004687D02*
X012792Y004399D01*
X012864Y004399D01*
X012840Y004312D02*
X012840Y004600D01*
X012504Y004687D02*
X012432Y004687D01*
X012432Y004399D01*
X012504Y004216D02*
X012432Y004143D01*
X012432Y003999D01*
X012504Y003927D01*
X012408Y003985D02*
X012840Y003985D01*
X012864Y003927D02*
X012576Y004216D01*
X012504Y004216D01*
X012552Y004129D02*
X012408Y003985D01*
X012840Y004129D02*
X012840Y003841D01*
X012864Y003927D02*
X012864Y004216D01*
X012576Y004870D02*
X012432Y005014D01*
X012576Y005341D02*
X012432Y005485D01*
X012864Y005485D01*
X012840Y006197D02*
X012840Y006485D01*
X012864Y006572D02*
X012864Y006284D01*
X011927Y005992D02*
X011855Y006064D01*
X011783Y005992D01*
X011783Y005848D01*
X011711Y005776D01*
X011639Y005848D01*
X011639Y006064D01*
X011927Y005992D02*
X011927Y005776D01*
X011927Y005593D02*
X011711Y005593D01*
X011639Y005521D01*
X011639Y005305D01*
X011927Y005305D01*
X011927Y005135D02*
X011927Y004991D01*
X011927Y005063D02*
X011639Y005063D01*
X011639Y004991D01*
X011495Y005063D02*
X011423Y005063D01*
X011711Y004808D02*
X011639Y004736D01*
X011639Y004520D01*
X011495Y004520D02*
X011927Y004520D01*
X011927Y004736D01*
X011855Y004808D01*
X011711Y004808D01*
X011711Y004336D02*
X011639Y004264D01*
X011639Y004120D01*
X011711Y004048D01*
X011855Y004048D01*
X011927Y004120D01*
X011927Y004264D01*
X011855Y004336D01*
X011711Y004336D01*
X011711Y003865D02*
X011783Y003793D01*
X011783Y003577D01*
X011927Y003577D02*
X011495Y003577D01*
X011495Y003793D01*
X011567Y003865D01*
X011711Y003865D01*
X011783Y003721D02*
X011927Y003865D01*
X010868Y004097D02*
X010789Y004018D01*
X010868Y004097D02*
X010868Y004254D01*
X010789Y004332D01*
X010711Y004332D01*
X010632Y004254D01*
X010632Y004097D01*
X010553Y004018D01*
X010475Y004018D01*
X010396Y004097D01*
X010396Y004254D01*
X010475Y004332D01*
X010553Y004525D02*
X010553Y004683D01*
X010475Y004604D02*
X010789Y004604D01*
X010868Y004683D01*
X010789Y004864D02*
X010553Y004864D01*
X010789Y004864D02*
X010868Y004942D01*
X010868Y005178D01*
X010553Y005178D01*
X010553Y005450D02*
X010553Y005607D01*
X010632Y005686D01*
X010868Y005686D01*
X010868Y005450D01*
X010789Y005371D01*
X010711Y005450D01*
X010711Y005686D01*
X010711Y005879D02*
X010553Y006036D01*
X010553Y006115D01*
X010553Y006302D02*
X010553Y006459D01*
X010475Y006380D02*
X010789Y006380D01*
X010868Y006459D01*
X010868Y005879D02*
X010553Y005879D01*
X009503Y006000D02*
X009503Y005680D01*
X009182Y006000D01*
X009102Y006000D01*
X009022Y005920D01*
X009022Y005760D01*
X009102Y005680D01*
X009022Y005324D02*
X009503Y005324D01*
X009503Y005164D02*
X009503Y005484D01*
X009182Y005164D02*
X009022Y005324D01*
X009022Y004969D02*
X009022Y004648D01*
X009503Y004648D01*
X009503Y004453D02*
X009342Y004293D01*
X009342Y004373D02*
X009342Y004133D01*
X009503Y004133D02*
X009022Y004133D01*
X009022Y004373D01*
X009102Y004453D01*
X009262Y004453D01*
X009342Y004373D01*
X009262Y004648D02*
X009262Y004809D01*
X009102Y003937D02*
X009022Y003857D01*
X009022Y003617D01*
X009503Y003617D01*
X009503Y003857D01*
X009422Y003937D01*
X009102Y003937D01*
X009022Y006195D02*
X009022Y006516D01*
X009102Y006516D01*
X009422Y006195D01*
X009503Y006195D01*
X009422Y006711D02*
X009342Y006711D01*
X009262Y006791D01*
X009262Y006951D01*
X009342Y007031D01*
X009422Y007031D01*
X009503Y006951D01*
X009503Y006791D01*
X009422Y006711D01*
X009262Y006791D02*
X009182Y006711D01*
X009102Y006711D01*
X009022Y006791D01*
X009022Y006951D01*
X009102Y007031D01*
X009182Y007031D01*
X009262Y006951D01*
X035595Y006747D02*
X035595Y007027D01*
D12*
X035212Y006883D02*
X035212Y006703D01*
X035212Y006838D02*
X035032Y006838D01*
X035032Y006883D02*
X035122Y006973D01*
X035212Y006883D01*
X035032Y006883D02*
X035032Y006703D01*
X034917Y006748D02*
X034917Y006838D01*
X034827Y006838D01*
X034737Y006928D02*
X034737Y006748D01*
X034782Y006703D01*
X034872Y006703D01*
X034917Y006748D01*
X034917Y006928D02*
X034872Y006973D01*
X034782Y006973D01*
X034737Y006928D01*
X034623Y006973D02*
X034442Y006973D01*
X034442Y006703D01*
X034623Y006703D01*
X034533Y006838D02*
X034442Y006838D01*
X034328Y006838D02*
X034283Y006793D01*
X034148Y006793D01*
X034238Y006793D02*
X034328Y006703D01*
X034328Y006838D02*
X034328Y006928D01*
X034283Y006973D01*
X034148Y006973D01*
X034148Y006703D01*
X033221Y007501D02*
X033221Y007591D01*
X033176Y007636D01*
X033221Y007750D02*
X033221Y007931D01*
X033221Y007840D02*
X032951Y007840D01*
X033041Y007750D01*
X032996Y007636D02*
X032951Y007591D01*
X032951Y007501D01*
X032996Y007456D01*
X033176Y007456D01*
X033221Y007501D01*
X033660Y008558D02*
X033660Y008693D01*
X033705Y008738D01*
X033885Y008738D01*
X033930Y008693D01*
X033930Y008558D01*
X033660Y008558D01*
X033750Y008853D02*
X033660Y008943D01*
X033930Y008943D01*
X033930Y008853D02*
X033930Y009033D01*
X034440Y009534D02*
X034440Y009624D01*
X034485Y009669D01*
X034530Y009669D01*
X034575Y009624D01*
X034621Y009669D01*
X034666Y009669D01*
X034711Y009624D01*
X034711Y009534D01*
X034666Y009489D01*
X034575Y009579D02*
X034575Y009624D01*
X034485Y009489D02*
X034440Y009534D01*
X034440Y009784D02*
X034621Y009784D01*
X034711Y009874D01*
X034621Y009964D01*
X034440Y009964D01*
X034485Y010078D02*
X034440Y010123D01*
X034440Y010213D01*
X034485Y010259D01*
X034530Y010259D01*
X034575Y010213D01*
X034621Y010259D01*
X034666Y010259D01*
X034711Y010213D01*
X034711Y010123D01*
X034666Y010078D01*
X034575Y010168D02*
X034575Y010213D01*
X034587Y011126D02*
X034542Y011216D01*
X034542Y011261D01*
X034587Y011306D01*
X034677Y011306D01*
X034722Y011261D01*
X034722Y011171D01*
X034677Y011126D01*
X034587Y011126D02*
X034452Y011126D01*
X034452Y011306D01*
X034452Y011421D02*
X034632Y011421D01*
X034722Y011511D01*
X034632Y011601D01*
X034452Y011601D01*
X032955Y013179D02*
X031301Y013179D01*
X031301Y013494D01*
X031301Y013809D01*
X032955Y013809D01*
X032955Y013494D01*
X032955Y013179D01*
X032326Y013372D02*
X032146Y013372D01*
X032236Y013372D02*
X032236Y013642D01*
X032146Y013552D01*
X032031Y013507D02*
X031986Y013462D01*
X031851Y013462D01*
X031851Y013372D02*
X031851Y013642D01*
X031986Y013642D01*
X032031Y013597D01*
X032031Y013507D01*
X031941Y013462D02*
X032031Y013372D01*
X032426Y014414D02*
X032471Y014414D01*
X032516Y014459D01*
X032516Y014549D01*
X032561Y014594D01*
X032606Y014594D01*
X032652Y014549D01*
X032652Y014459D01*
X032606Y014414D01*
X032426Y014414D02*
X032381Y014459D01*
X032381Y014549D01*
X032426Y014594D01*
X032381Y014709D02*
X032652Y014709D01*
X032561Y014799D01*
X032652Y014889D01*
X032381Y014889D01*
X032471Y015004D02*
X032381Y015094D01*
X032652Y015094D01*
X032652Y015004D02*
X032652Y015184D01*
X031799Y016514D02*
X031618Y016514D01*
X031799Y016694D01*
X031799Y016739D01*
X031753Y016784D01*
X031663Y016784D01*
X031618Y016739D01*
X031504Y016739D02*
X031459Y016784D01*
X031369Y016784D01*
X031324Y016739D01*
X031324Y016559D01*
X031369Y016514D01*
X031459Y016514D01*
X031504Y016559D01*
X031089Y017116D02*
X031089Y015462D01*
X030774Y015462D01*
X030459Y015462D01*
X030459Y017116D01*
X030774Y017116D01*
X031089Y017116D01*
X030935Y016503D02*
X030935Y016322D01*
X030755Y016503D01*
X030710Y016503D01*
X030665Y016458D01*
X030665Y016368D01*
X030710Y016322D01*
X030710Y016208D02*
X030800Y016208D01*
X030845Y016163D01*
X030845Y016028D01*
X030845Y016118D02*
X030935Y016208D01*
X030935Y016028D02*
X030665Y016028D01*
X030665Y016163D01*
X030710Y016208D01*
X030585Y017828D02*
X030585Y019742D01*
X031530Y019742D01*
X031530Y017828D01*
X030585Y017828D01*
X032951Y017973D02*
X032996Y017928D01*
X033176Y017928D01*
X033221Y017973D01*
X033221Y018063D01*
X033176Y018108D01*
X033221Y018223D02*
X033221Y018403D01*
X033221Y018313D02*
X032951Y018313D01*
X033041Y018223D01*
X032996Y018108D02*
X032951Y018063D01*
X032951Y017973D01*
X033660Y019031D02*
X033660Y019166D01*
X033705Y019211D01*
X033885Y019211D01*
X033930Y019166D01*
X033930Y019031D01*
X033660Y019031D01*
X033750Y019325D02*
X033660Y019415D01*
X033930Y019415D01*
X033930Y019325D02*
X033930Y019505D01*
X034440Y020007D02*
X034440Y020097D01*
X034485Y020142D01*
X034530Y020142D01*
X034575Y020097D01*
X034621Y020142D01*
X034666Y020142D01*
X034711Y020097D01*
X034711Y020007D01*
X034666Y019962D01*
X034575Y020052D02*
X034575Y020097D01*
X034485Y019962D02*
X034440Y020007D01*
X034440Y020256D02*
X034621Y020256D01*
X034711Y020346D01*
X034621Y020436D01*
X034440Y020436D01*
X034485Y020551D02*
X034440Y020596D01*
X034440Y020686D01*
X034485Y020731D01*
X034530Y020731D01*
X034575Y020686D01*
X034621Y020731D01*
X034666Y020731D01*
X034711Y020686D01*
X034711Y020596D01*
X034666Y020551D01*
X034575Y020641D02*
X034575Y020686D01*
X034587Y021599D02*
X034542Y021689D01*
X034542Y021734D01*
X034587Y021779D01*
X034677Y021779D01*
X034722Y021734D01*
X034722Y021644D01*
X034677Y021599D01*
X034587Y021599D02*
X034452Y021599D01*
X034452Y021779D01*
X034452Y021893D02*
X034632Y021893D01*
X034722Y021983D01*
X034632Y022073D01*
X034452Y022073D01*
X032955Y023651D02*
X031301Y023651D01*
X031301Y023966D01*
X031301Y024281D01*
X032955Y024281D01*
X032955Y023966D01*
X032955Y023651D01*
X032326Y023844D02*
X032146Y023844D01*
X032236Y023844D02*
X032236Y024115D01*
X032146Y024025D01*
X032031Y024070D02*
X032031Y023979D01*
X031986Y023934D01*
X031851Y023934D01*
X031851Y023844D02*
X031851Y024115D01*
X031986Y024115D01*
X032031Y024070D01*
X031941Y023934D02*
X032031Y023844D01*
X032426Y024887D02*
X032471Y024887D01*
X032516Y024932D01*
X032516Y025022D01*
X032561Y025067D01*
X032606Y025067D01*
X032652Y025022D01*
X032652Y024932D01*
X032606Y024887D01*
X032426Y024887D02*
X032381Y024932D01*
X032381Y025022D01*
X032426Y025067D01*
X032381Y025181D02*
X032652Y025181D01*
X032561Y025271D01*
X032652Y025362D01*
X032381Y025362D01*
X032471Y025476D02*
X032381Y025566D01*
X032652Y025566D01*
X032652Y025476D02*
X032652Y025656D01*
X031799Y026986D02*
X031618Y026986D01*
X031799Y027166D01*
X031799Y027211D01*
X031753Y027256D01*
X031663Y027256D01*
X031618Y027211D01*
X031504Y027211D02*
X031459Y027256D01*
X031369Y027256D01*
X031324Y027211D01*
X031324Y027031D01*
X031369Y026986D01*
X031459Y026986D01*
X031504Y027031D01*
X031089Y027588D02*
X031089Y025935D01*
X030774Y025935D01*
X030459Y025935D01*
X030459Y027588D01*
X030774Y027588D01*
X031089Y027588D01*
X030935Y026975D02*
X030935Y026795D01*
X030755Y026975D01*
X030710Y026975D01*
X030665Y026930D01*
X030665Y026840D01*
X030710Y026795D01*
X030710Y026680D02*
X030800Y026680D01*
X030845Y026635D01*
X030845Y026500D01*
X030935Y026500D02*
X030665Y026500D01*
X030665Y026635D01*
X030710Y026680D01*
X030845Y026590D02*
X030935Y026680D01*
X030585Y028301D02*
X030585Y030214D01*
X031530Y030214D01*
X031530Y028301D01*
X030585Y028301D01*
X032951Y028446D02*
X032996Y028401D01*
X033176Y028401D01*
X033221Y028446D01*
X033221Y028536D01*
X033176Y028581D01*
X033221Y028695D02*
X033221Y028875D01*
X033221Y028785D02*
X032951Y028785D01*
X033041Y028695D01*
X032996Y028581D02*
X032951Y028536D01*
X032951Y028446D01*
X033660Y029503D02*
X033660Y029638D01*
X033705Y029683D01*
X033885Y029683D01*
X033930Y029638D01*
X033930Y029503D01*
X033660Y029503D01*
X033750Y029798D02*
X033660Y029888D01*
X033930Y029888D01*
X033930Y029798D02*
X033930Y029978D01*
X034440Y030479D02*
X034440Y030569D01*
X034485Y030614D01*
X034530Y030614D01*
X034575Y030569D01*
X034621Y030614D01*
X034666Y030614D01*
X034711Y030569D01*
X034711Y030479D01*
X034666Y030434D01*
X034575Y030524D02*
X034575Y030569D01*
X034485Y030434D02*
X034440Y030479D01*
X034440Y030729D02*
X034621Y030729D01*
X034711Y030819D01*
X034621Y030909D01*
X034440Y030909D01*
X034485Y031023D02*
X034440Y031068D01*
X034440Y031158D01*
X034485Y031203D01*
X034530Y031203D01*
X034575Y031158D01*
X034621Y031203D01*
X034666Y031203D01*
X034711Y031158D01*
X034711Y031068D01*
X034666Y031023D01*
X034575Y031113D02*
X034575Y031158D01*
X034623Y027918D02*
X034442Y027918D01*
X034442Y027648D01*
X034623Y027648D01*
X034737Y027693D02*
X034782Y027648D01*
X034872Y027648D01*
X034917Y027693D01*
X034917Y027783D01*
X034827Y027783D01*
X034737Y027873D02*
X034737Y027693D01*
X034737Y027873D02*
X034782Y027918D01*
X034872Y027918D01*
X034917Y027873D01*
X035032Y027828D02*
X035122Y027918D01*
X035212Y027828D01*
X035212Y027648D01*
X035212Y027783D02*
X035032Y027783D01*
X035032Y027828D02*
X035032Y027648D01*
X034533Y027783D02*
X034442Y027783D01*
X034328Y027783D02*
X034283Y027738D01*
X034148Y027738D01*
X034238Y027738D02*
X034328Y027648D01*
X034328Y027783D02*
X034328Y027873D01*
X034283Y027918D01*
X034148Y027918D01*
X034148Y027648D01*
X032485Y022525D02*
X032305Y022525D01*
X032395Y022525D02*
X032395Y022255D01*
X032190Y022300D02*
X032145Y022255D01*
X032055Y022255D01*
X032010Y022300D01*
X032010Y022480D01*
X032055Y022525D01*
X032145Y022525D01*
X032190Y022480D01*
X032190Y022300D01*
X031896Y022300D02*
X031851Y022255D01*
X031761Y022255D01*
X031716Y022300D01*
X031716Y022480D01*
X031761Y022525D01*
X031851Y022525D01*
X031896Y022480D01*
X031896Y022300D01*
X031601Y022300D02*
X031556Y022255D01*
X031421Y022255D01*
X031421Y022525D01*
X031556Y022525D01*
X031601Y022480D01*
X031601Y022435D01*
X031556Y022390D01*
X031421Y022390D01*
X031556Y022390D02*
X031601Y022345D01*
X031601Y022300D01*
X026333Y022215D02*
X026333Y021418D01*
X025458Y021418D01*
X025458Y022215D01*
X026333Y022215D01*
X025458Y022215D02*
X022537Y022215D01*
X022537Y021418D01*
X025458Y021418D01*
X025269Y020973D02*
X025269Y019723D01*
X023144Y019723D01*
X023144Y020973D01*
X025269Y020973D01*
X025293Y019792D02*
X025429Y019792D01*
X025474Y019747D01*
X025474Y019657D01*
X025429Y019612D01*
X025293Y019612D01*
X025293Y019522D02*
X025293Y019792D01*
X025588Y019702D02*
X025588Y019522D01*
X025588Y019657D02*
X025768Y019657D01*
X025768Y019702D02*
X025768Y019522D01*
X025883Y019522D02*
X025883Y019792D01*
X026018Y019792D01*
X026063Y019747D01*
X026063Y019567D01*
X026018Y019522D01*
X025883Y019522D01*
X025768Y019702D02*
X025678Y019792D01*
X025588Y019702D01*
X026177Y019657D02*
X026268Y019702D01*
X026313Y019702D01*
X026358Y019657D01*
X026358Y019567D01*
X026313Y019522D01*
X026222Y019522D01*
X026177Y019567D01*
X026177Y019657D02*
X026177Y019792D01*
X026358Y019792D01*
X024070Y019493D02*
X024070Y019313D01*
X024070Y019448D02*
X023890Y019448D01*
X023890Y019493D02*
X023980Y019583D01*
X024070Y019493D01*
X023890Y019493D02*
X023890Y019313D01*
X023776Y019313D02*
X023776Y019583D01*
X023595Y019583D02*
X023595Y019313D01*
X023481Y019358D02*
X023481Y019538D01*
X023436Y019583D01*
X023346Y019583D01*
X023301Y019538D01*
X023301Y019358D01*
X023346Y019313D01*
X023436Y019313D01*
X023481Y019358D01*
X023595Y019583D02*
X023776Y019313D01*
X023186Y019358D02*
X023141Y019313D01*
X023051Y019313D01*
X023006Y019358D01*
X023006Y019538D01*
X023051Y019583D01*
X023141Y019583D01*
X023186Y019538D01*
X023144Y019723D02*
X022019Y019723D01*
X022019Y020973D01*
X023144Y020973D01*
X018834Y017355D02*
X018834Y017175D01*
X018834Y017310D02*
X018654Y017310D01*
X018654Y017355D02*
X018744Y017445D01*
X018834Y017355D01*
X018654Y017355D02*
X018654Y017175D01*
X018539Y017220D02*
X018494Y017175D01*
X018404Y017175D01*
X018359Y017220D01*
X018359Y017400D01*
X018404Y017445D01*
X018494Y017445D01*
X018539Y017400D01*
X018539Y017310D02*
X018449Y017310D01*
X018539Y017310D02*
X018539Y017220D01*
X018245Y017175D02*
X018065Y017175D01*
X018065Y017445D01*
X018245Y017445D01*
X018155Y017310D02*
X018065Y017310D01*
X017950Y017310D02*
X017905Y017265D01*
X017770Y017265D01*
X017770Y017175D02*
X017770Y017445D01*
X017905Y017445D01*
X017950Y017400D01*
X017950Y017310D01*
X017860Y017265D02*
X017950Y017175D01*
X016843Y017973D02*
X016843Y018063D01*
X016798Y018108D01*
X016843Y018223D02*
X016843Y018403D01*
X016843Y018313D02*
X016573Y018313D01*
X016663Y018223D01*
X016618Y018108D02*
X016573Y018063D01*
X016573Y017973D01*
X016618Y017928D01*
X016798Y017928D01*
X016843Y017973D01*
X017282Y019031D02*
X017282Y019166D01*
X017327Y019211D01*
X017507Y019211D01*
X017552Y019166D01*
X017552Y019031D01*
X017282Y019031D01*
X017372Y019325D02*
X017282Y019415D01*
X017552Y019415D01*
X017552Y019325D02*
X017552Y019505D01*
X018062Y020007D02*
X018062Y020097D01*
X018107Y020142D01*
X018152Y020142D01*
X018198Y020097D01*
X018243Y020142D01*
X018288Y020142D01*
X018333Y020097D01*
X018333Y020007D01*
X018288Y019962D01*
X018198Y020052D02*
X018198Y020097D01*
X018107Y019962D02*
X018062Y020007D01*
X018062Y020256D02*
X018243Y020256D01*
X018333Y020346D01*
X018243Y020436D01*
X018062Y020436D01*
X018107Y020551D02*
X018062Y020596D01*
X018062Y020686D01*
X018107Y020731D01*
X018152Y020731D01*
X018198Y020686D01*
X018243Y020731D01*
X018288Y020731D01*
X018333Y020686D01*
X018333Y020596D01*
X018288Y020551D01*
X018198Y020641D02*
X018198Y020686D01*
X018209Y021599D02*
X018074Y021599D01*
X018074Y021779D01*
X018164Y021734D02*
X018209Y021779D01*
X018299Y021779D01*
X018344Y021734D01*
X018344Y021644D01*
X018299Y021599D01*
X018209Y021599D02*
X018164Y021689D01*
X018164Y021734D01*
X018074Y021893D02*
X018254Y021893D01*
X018344Y021983D01*
X018254Y022073D01*
X018074Y022073D01*
X016107Y022525D02*
X015927Y022525D01*
X016017Y022525D02*
X016017Y022255D01*
X015812Y022300D02*
X015812Y022480D01*
X015767Y022525D01*
X015677Y022525D01*
X015632Y022480D01*
X015632Y022300D01*
X015677Y022255D01*
X015767Y022255D01*
X015812Y022300D01*
X015518Y022300D02*
X015518Y022480D01*
X015473Y022525D01*
X015383Y022525D01*
X015338Y022480D01*
X015338Y022300D01*
X015383Y022255D01*
X015473Y022255D01*
X015518Y022300D01*
X015223Y022300D02*
X015178Y022255D01*
X015043Y022255D01*
X015043Y022525D01*
X015178Y022525D01*
X015223Y022480D01*
X015223Y022435D01*
X015178Y022390D01*
X015043Y022390D01*
X015178Y022390D02*
X015223Y022345D01*
X015223Y022300D01*
X014923Y023651D02*
X014923Y023966D01*
X014923Y024281D01*
X016577Y024281D01*
X016577Y023966D01*
X016577Y023651D01*
X014923Y023651D01*
X015473Y023844D02*
X015473Y024115D01*
X015608Y024115D01*
X015653Y024070D01*
X015653Y023979D01*
X015608Y023934D01*
X015473Y023934D01*
X015563Y023934D02*
X015653Y023844D01*
X015768Y023844D02*
X015948Y023844D01*
X015858Y023844D02*
X015858Y024115D01*
X015768Y024025D01*
X016048Y024887D02*
X016093Y024887D01*
X016138Y024932D01*
X016138Y025022D01*
X016184Y025067D01*
X016229Y025067D01*
X016274Y025022D01*
X016274Y024932D01*
X016229Y024887D01*
X016048Y024887D02*
X016003Y024932D01*
X016003Y025022D01*
X016048Y025067D01*
X016003Y025181D02*
X016274Y025181D01*
X016184Y025271D01*
X016274Y025362D01*
X016003Y025362D01*
X016093Y025476D02*
X016003Y025566D01*
X016274Y025566D01*
X016274Y025476D02*
X016274Y025656D01*
X015421Y026986D02*
X015240Y026986D01*
X015421Y027166D01*
X015421Y027211D01*
X015376Y027256D01*
X015285Y027256D01*
X015240Y027211D01*
X015126Y027211D02*
X015081Y027256D01*
X014991Y027256D01*
X014946Y027211D01*
X014946Y027031D01*
X014991Y026986D01*
X015081Y026986D01*
X015126Y027031D01*
X014557Y026975D02*
X014557Y026795D01*
X014377Y026975D01*
X014332Y026975D01*
X014287Y026930D01*
X014287Y026840D01*
X014332Y026795D01*
X014332Y026680D02*
X014422Y026680D01*
X014467Y026635D01*
X014467Y026500D01*
X014557Y026500D02*
X014287Y026500D01*
X014287Y026635D01*
X014332Y026680D01*
X014467Y026590D02*
X014557Y026680D01*
X014711Y025935D02*
X014711Y027588D01*
X014396Y027588D01*
X014081Y027588D01*
X014081Y025935D01*
X014396Y025935D01*
X014711Y025935D01*
X015152Y028301D02*
X014207Y028301D01*
X014207Y030214D01*
X015152Y030214D01*
X015152Y028301D01*
X016573Y028446D02*
X016618Y028401D01*
X016798Y028401D01*
X016843Y028446D01*
X016843Y028536D01*
X016798Y028581D01*
X016843Y028695D02*
X016843Y028875D01*
X016843Y028785D02*
X016573Y028785D01*
X016663Y028695D01*
X016618Y028581D02*
X016573Y028536D01*
X016573Y028446D01*
X017282Y029503D02*
X017282Y029638D01*
X017327Y029683D01*
X017507Y029683D01*
X017552Y029638D01*
X017552Y029503D01*
X017282Y029503D01*
X017372Y029798D02*
X017282Y029888D01*
X017552Y029888D01*
X017552Y029798D02*
X017552Y029978D01*
X018062Y030479D02*
X018062Y030569D01*
X018107Y030614D01*
X018152Y030614D01*
X018198Y030569D01*
X018243Y030614D01*
X018288Y030614D01*
X018333Y030569D01*
X018333Y030479D01*
X018288Y030434D01*
X018198Y030524D02*
X018198Y030569D01*
X018107Y030434D02*
X018062Y030479D01*
X018062Y030729D02*
X018243Y030729D01*
X018333Y030819D01*
X018243Y030909D01*
X018062Y030909D01*
X018107Y031023D02*
X018062Y031068D01*
X018062Y031158D01*
X018107Y031203D01*
X018152Y031203D01*
X018198Y031158D01*
X018243Y031203D01*
X018288Y031203D01*
X018333Y031158D01*
X018333Y031068D01*
X018288Y031023D01*
X018198Y031113D02*
X018198Y031158D01*
X018245Y027918D02*
X018065Y027918D01*
X018065Y027648D01*
X018245Y027648D01*
X018359Y027693D02*
X018404Y027648D01*
X018494Y027648D01*
X018539Y027693D01*
X018539Y027783D01*
X018449Y027783D01*
X018359Y027873D02*
X018359Y027693D01*
X018359Y027873D02*
X018404Y027918D01*
X018494Y027918D01*
X018539Y027873D01*
X018654Y027828D02*
X018744Y027918D01*
X018834Y027828D01*
X018834Y027648D01*
X018834Y027783D02*
X018654Y027783D01*
X018654Y027828D02*
X018654Y027648D01*
X018155Y027783D02*
X018065Y027783D01*
X017950Y027783D02*
X017905Y027738D01*
X017770Y027738D01*
X017860Y027738D02*
X017950Y027648D01*
X017950Y027783D02*
X017950Y027873D01*
X017905Y027918D01*
X017770Y027918D01*
X017770Y027648D01*
X022019Y030195D02*
X022019Y031445D01*
X023144Y031445D01*
X023144Y030195D01*
X022019Y030195D01*
X023006Y030011D02*
X023006Y029830D01*
X023051Y029785D01*
X023141Y029785D01*
X023186Y029830D01*
X023301Y029830D02*
X023346Y029785D01*
X023436Y029785D01*
X023481Y029830D01*
X023481Y030011D01*
X023436Y030056D01*
X023346Y030056D01*
X023301Y030011D01*
X023301Y029830D01*
X023186Y030011D02*
X023141Y030056D01*
X023051Y030056D01*
X023006Y030011D01*
X023144Y030195D02*
X025269Y030195D01*
X025269Y031445D01*
X023144Y031445D01*
X023595Y030056D02*
X023776Y029785D01*
X023776Y030056D01*
X023890Y029965D02*
X023980Y030056D01*
X024070Y029965D01*
X024070Y029785D01*
X024070Y029920D02*
X023890Y029920D01*
X023890Y029965D02*
X023890Y029785D01*
X023595Y029785D02*
X023595Y030056D01*
X025293Y030084D02*
X025429Y030084D01*
X025474Y030129D01*
X025474Y030219D01*
X025429Y030264D01*
X025293Y030264D01*
X025293Y029994D01*
X025588Y029994D02*
X025588Y030174D01*
X025678Y030264D01*
X025768Y030174D01*
X025768Y029994D01*
X025883Y029994D02*
X025883Y030264D01*
X026018Y030264D01*
X026063Y030219D01*
X026063Y030039D01*
X026018Y029994D01*
X025883Y029994D01*
X025768Y030129D02*
X025588Y030129D01*
X026177Y030129D02*
X026268Y030174D01*
X026313Y030174D01*
X026358Y030129D01*
X026358Y030039D01*
X026313Y029994D01*
X026222Y029994D01*
X026177Y030039D01*
X026177Y030129D02*
X026177Y030264D01*
X026358Y030264D01*
X015152Y019742D02*
X015152Y017828D01*
X014207Y017828D01*
X014207Y019742D01*
X015152Y019742D01*
X014711Y017116D02*
X014396Y017116D01*
X014081Y017116D01*
X014081Y015462D01*
X014396Y015462D01*
X014711Y015462D01*
X014711Y017116D01*
X014991Y016784D02*
X014946Y016739D01*
X014946Y016559D01*
X014991Y016514D01*
X015081Y016514D01*
X015126Y016559D01*
X015240Y016514D02*
X015421Y016694D01*
X015421Y016739D01*
X015376Y016784D01*
X015285Y016784D01*
X015240Y016739D01*
X015126Y016739D02*
X015081Y016784D01*
X014991Y016784D01*
X015240Y016514D02*
X015421Y016514D01*
X014557Y016503D02*
X014557Y016322D01*
X014377Y016503D01*
X014332Y016503D01*
X014287Y016458D01*
X014287Y016368D01*
X014332Y016322D01*
X014332Y016208D02*
X014422Y016208D01*
X014467Y016163D01*
X014467Y016028D01*
X014467Y016118D02*
X014557Y016208D01*
X014557Y016028D02*
X014287Y016028D01*
X014287Y016163D01*
X014332Y016208D01*
X016003Y015094D02*
X016274Y015094D01*
X016274Y015004D02*
X016274Y015184D01*
X016093Y015004D02*
X016003Y015094D01*
X016003Y014889D02*
X016274Y014889D01*
X016184Y014799D01*
X016274Y014709D01*
X016003Y014709D01*
X016048Y014594D02*
X016003Y014549D01*
X016003Y014459D01*
X016048Y014414D01*
X016093Y014414D01*
X016138Y014459D01*
X016138Y014549D01*
X016184Y014594D01*
X016229Y014594D01*
X016274Y014549D01*
X016274Y014459D01*
X016229Y014414D01*
X016577Y013809D02*
X016577Y013494D01*
X016577Y013179D01*
X014923Y013179D01*
X014923Y013494D01*
X014923Y013809D01*
X016577Y013809D01*
X015948Y013372D02*
X015768Y013372D01*
X015858Y013372D02*
X015858Y013642D01*
X015768Y013552D01*
X015653Y013507D02*
X015608Y013462D01*
X015473Y013462D01*
X015473Y013372D02*
X015473Y013642D01*
X015608Y013642D01*
X015653Y013597D01*
X015653Y013507D01*
X015563Y013462D02*
X015653Y013372D01*
X015677Y012053D02*
X015632Y012008D01*
X015632Y011828D01*
X015677Y011782D01*
X015767Y011782D01*
X015812Y011828D01*
X015812Y012008D01*
X015767Y012053D01*
X015677Y012053D01*
X015518Y012008D02*
X015473Y012053D01*
X015383Y012053D01*
X015338Y012008D01*
X015338Y011828D01*
X015383Y011782D01*
X015473Y011782D01*
X015518Y011828D01*
X015518Y012008D01*
X015223Y012008D02*
X015223Y011963D01*
X015178Y011918D01*
X015043Y011918D01*
X015043Y012053D02*
X015178Y012053D01*
X015223Y012008D01*
X015178Y011918D02*
X015223Y011873D01*
X015223Y011828D01*
X015178Y011782D01*
X015043Y011782D01*
X015043Y012053D01*
X015927Y012053D02*
X016107Y012053D01*
X016017Y012053D02*
X016017Y011782D01*
X018074Y011601D02*
X018254Y011601D01*
X018344Y011511D01*
X018254Y011421D01*
X018074Y011421D01*
X018074Y011306D02*
X018074Y011126D01*
X018209Y011126D01*
X018164Y011216D01*
X018164Y011261D01*
X018209Y011306D01*
X018299Y011306D01*
X018344Y011261D01*
X018344Y011171D01*
X018299Y011126D01*
X018288Y010259D02*
X018333Y010213D01*
X018333Y010123D01*
X018288Y010078D01*
X018243Y009964D02*
X018062Y009964D01*
X018107Y010078D02*
X018062Y010123D01*
X018062Y010213D01*
X018107Y010259D01*
X018152Y010259D01*
X018198Y010213D01*
X018243Y010259D01*
X018288Y010259D01*
X018198Y010213D02*
X018198Y010168D01*
X018243Y009964D02*
X018333Y009874D01*
X018243Y009784D01*
X018062Y009784D01*
X018107Y009669D02*
X018062Y009624D01*
X018062Y009534D01*
X018107Y009489D01*
X018198Y009579D02*
X018198Y009624D01*
X018243Y009669D01*
X018288Y009669D01*
X018333Y009624D01*
X018333Y009534D01*
X018288Y009489D01*
X018198Y009624D02*
X018152Y009669D01*
X018107Y009669D01*
X017552Y009033D02*
X017552Y008853D01*
X017552Y008943D02*
X017282Y008943D01*
X017372Y008853D01*
X017327Y008738D02*
X017282Y008693D01*
X017282Y008558D01*
X017552Y008558D01*
X017552Y008693D01*
X017507Y008738D01*
X017327Y008738D01*
X016843Y007931D02*
X016843Y007750D01*
X016843Y007840D02*
X016573Y007840D01*
X016663Y007750D01*
X016618Y007636D02*
X016573Y007591D01*
X016573Y007501D01*
X016618Y007456D01*
X016798Y007456D01*
X016843Y007501D01*
X016843Y007591D01*
X016798Y007636D01*
X017770Y006973D02*
X017770Y006703D01*
X017770Y006793D02*
X017905Y006793D01*
X017950Y006838D01*
X017950Y006928D01*
X017905Y006973D01*
X017770Y006973D01*
X017860Y006793D02*
X017950Y006703D01*
X018065Y006703D02*
X018245Y006703D01*
X018359Y006748D02*
X018404Y006703D01*
X018494Y006703D01*
X018539Y006748D01*
X018539Y006838D01*
X018449Y006838D01*
X018359Y006928D02*
X018359Y006748D01*
X018359Y006928D02*
X018404Y006973D01*
X018494Y006973D01*
X018539Y006928D01*
X018654Y006883D02*
X018744Y006973D01*
X018834Y006883D01*
X018834Y006703D01*
X018834Y006838D02*
X018654Y006838D01*
X018654Y006883D02*
X018654Y006703D01*
X018245Y006973D02*
X018065Y006973D01*
X018065Y006703D01*
X018065Y006838D02*
X018155Y006838D01*
X016274Y004711D02*
X016274Y004531D01*
X016274Y004621D02*
X016003Y004621D01*
X016093Y004531D01*
X016003Y004417D02*
X016274Y004417D01*
X016184Y004327D01*
X016274Y004236D01*
X016003Y004236D01*
X016048Y004122D02*
X016003Y004077D01*
X016003Y003987D01*
X016048Y003942D01*
X016093Y003942D01*
X016138Y003987D01*
X016138Y004077D01*
X016184Y004122D01*
X016229Y004122D01*
X016274Y004077D01*
X016274Y003987D01*
X016229Y003942D01*
X016577Y003336D02*
X016577Y003021D01*
X016577Y002706D01*
X014923Y002706D01*
X014923Y003021D01*
X014923Y003336D01*
X016577Y003336D01*
X015948Y002899D02*
X015768Y002899D01*
X015858Y002899D02*
X015858Y003170D01*
X015768Y003080D01*
X015653Y003125D02*
X015653Y003035D01*
X015608Y002990D01*
X015473Y002990D01*
X015563Y002990D02*
X015653Y002899D01*
X015473Y002899D02*
X015473Y003170D01*
X015608Y003170D01*
X015653Y003125D01*
X015677Y001580D02*
X015632Y001535D01*
X015632Y001355D01*
X015677Y001310D01*
X015767Y001310D01*
X015812Y001355D01*
X015812Y001535D01*
X015767Y001580D01*
X015677Y001580D01*
X015518Y001535D02*
X015473Y001580D01*
X015383Y001580D01*
X015338Y001535D01*
X015338Y001355D01*
X015383Y001310D01*
X015473Y001310D01*
X015518Y001355D01*
X015518Y001535D01*
X015223Y001535D02*
X015223Y001490D01*
X015178Y001445D01*
X015043Y001445D01*
X015043Y001310D02*
X015043Y001580D01*
X015178Y001580D01*
X015223Y001535D01*
X015178Y001445D02*
X015223Y001400D01*
X015223Y001355D01*
X015178Y001310D01*
X015043Y001310D01*
X015927Y001580D02*
X016107Y001580D01*
X016017Y001580D02*
X016017Y001310D01*
X018074Y001129D02*
X018254Y001129D01*
X018344Y001039D01*
X018254Y000948D01*
X018074Y000948D01*
X018074Y000834D02*
X018074Y000654D01*
X018209Y000654D01*
X018164Y000744D01*
X018164Y000789D01*
X018209Y000834D01*
X018299Y000834D01*
X018344Y000789D01*
X018344Y000699D01*
X018299Y000654D01*
X022537Y000474D02*
X025458Y000474D01*
X025458Y001270D01*
X026333Y001270D01*
X026333Y000474D01*
X025458Y000474D01*
X025458Y001270D02*
X022537Y001270D01*
X022537Y000474D01*
X015421Y006041D02*
X015240Y006041D01*
X015421Y006221D01*
X015421Y006266D01*
X015376Y006311D01*
X015285Y006311D01*
X015240Y006266D01*
X015126Y006266D02*
X015081Y006311D01*
X014991Y006311D01*
X014946Y006266D01*
X014946Y006086D01*
X014991Y006041D01*
X015081Y006041D01*
X015126Y006086D01*
X014557Y006030D02*
X014557Y005850D01*
X014377Y006030D01*
X014332Y006030D01*
X014287Y005985D01*
X014287Y005895D01*
X014332Y005850D01*
X014332Y005736D02*
X014422Y005736D01*
X014467Y005690D01*
X014467Y005555D01*
X014557Y005555D02*
X014287Y005555D01*
X014287Y005690D01*
X014332Y005736D01*
X014467Y005645D02*
X014557Y005736D01*
X014711Y004990D02*
X014396Y004990D01*
X014081Y004990D01*
X014081Y006643D01*
X014396Y006643D01*
X014711Y006643D01*
X014711Y004990D01*
X015152Y007356D02*
X014207Y007356D01*
X014207Y009269D01*
X015152Y009269D01*
X015152Y007356D01*
X009980Y009094D02*
X009935Y009049D01*
X009845Y009049D01*
X009799Y009094D01*
X009799Y009184D02*
X009890Y009229D01*
X009935Y009229D01*
X009980Y009184D01*
X009980Y009094D01*
X009799Y009184D02*
X009799Y009319D01*
X009980Y009319D01*
X009685Y009274D02*
X009685Y009094D01*
X009640Y009049D01*
X009505Y009049D01*
X009505Y009319D01*
X009640Y009319D01*
X009685Y009274D01*
X009390Y009229D02*
X009390Y009049D01*
X009390Y009184D02*
X009210Y009184D01*
X009210Y009229D02*
X009300Y009319D01*
X009390Y009229D01*
X009210Y009229D02*
X009210Y009049D01*
X009096Y009184D02*
X009051Y009139D01*
X008916Y009139D01*
X008916Y009049D02*
X008916Y009319D01*
X009051Y009319D01*
X009096Y009274D01*
X009096Y009184D01*
X008891Y009251D02*
X006766Y009251D01*
X006766Y010501D01*
X008891Y010501D01*
X008891Y009251D01*
X007692Y009021D02*
X007692Y008840D01*
X007692Y008976D02*
X007512Y008976D01*
X007512Y009021D02*
X007602Y009111D01*
X007692Y009021D01*
X007512Y009021D02*
X007512Y008840D01*
X007398Y008840D02*
X007398Y009111D01*
X007217Y009111D02*
X007398Y008840D01*
X007217Y008840D02*
X007217Y009111D01*
X007103Y009066D02*
X007058Y009111D01*
X006968Y009111D01*
X006923Y009066D01*
X006923Y008885D01*
X006968Y008840D01*
X007058Y008840D01*
X007103Y008885D01*
X007103Y009066D01*
X006808Y009066D02*
X006763Y009111D01*
X006673Y009111D01*
X006628Y009066D01*
X006628Y008885D01*
X006673Y008840D01*
X006763Y008840D01*
X006808Y008885D01*
X006766Y009251D02*
X005641Y009251D01*
X005641Y010501D01*
X006766Y010501D01*
X006159Y010946D02*
X009080Y010946D01*
X009080Y011742D01*
X009955Y011742D01*
X009955Y010946D01*
X009080Y010946D01*
X009080Y011742D02*
X006159Y011742D01*
X006159Y010946D01*
X006673Y019313D02*
X006628Y019358D01*
X006628Y019538D01*
X006673Y019583D01*
X006763Y019583D01*
X006808Y019538D01*
X006923Y019538D02*
X006923Y019358D01*
X006968Y019313D01*
X007058Y019313D01*
X007103Y019358D01*
X007103Y019538D01*
X007058Y019583D01*
X006968Y019583D01*
X006923Y019538D01*
X006808Y019358D02*
X006763Y019313D01*
X006673Y019313D01*
X006766Y019723D02*
X006766Y020973D01*
X008891Y020973D01*
X008891Y019723D01*
X006766Y019723D01*
X005641Y019723D01*
X005641Y020973D01*
X006766Y020973D01*
X006159Y021418D02*
X009080Y021418D01*
X009080Y022215D01*
X009955Y022215D01*
X009955Y021418D01*
X009080Y021418D01*
X009080Y022215D02*
X006159Y022215D01*
X006159Y021418D01*
X007217Y019583D02*
X007398Y019313D01*
X007398Y019583D01*
X007512Y019493D02*
X007602Y019583D01*
X007692Y019493D01*
X007692Y019313D01*
X007692Y019448D02*
X007512Y019448D01*
X007512Y019493D02*
X007512Y019313D01*
X007217Y019313D02*
X007217Y019583D01*
X008916Y019612D02*
X009051Y019612D01*
X009096Y019657D01*
X009096Y019747D01*
X009051Y019792D01*
X008916Y019792D01*
X008916Y019522D01*
X009210Y019522D02*
X009210Y019702D01*
X009300Y019792D01*
X009390Y019702D01*
X009390Y019522D01*
X009505Y019522D02*
X009640Y019522D01*
X009685Y019567D01*
X009685Y019747D01*
X009640Y019792D01*
X009505Y019792D01*
X009505Y019522D01*
X009390Y019657D02*
X009210Y019657D01*
X009799Y019657D02*
X009890Y019702D01*
X009935Y019702D01*
X009980Y019657D01*
X009980Y019567D01*
X009935Y019522D01*
X009845Y019522D01*
X009799Y019567D01*
X009799Y019657D02*
X009799Y019792D01*
X009980Y019792D01*
X009935Y029994D02*
X009845Y029994D01*
X009799Y030039D01*
X009799Y030129D02*
X009890Y030174D01*
X009935Y030174D01*
X009980Y030129D01*
X009980Y030039D01*
X009935Y029994D01*
X009799Y030129D02*
X009799Y030264D01*
X009980Y030264D01*
X009685Y030219D02*
X009685Y030039D01*
X009640Y029994D01*
X009505Y029994D01*
X009505Y030264D01*
X009640Y030264D01*
X009685Y030219D01*
X009390Y030174D02*
X009390Y029994D01*
X009390Y030129D02*
X009210Y030129D01*
X009210Y030174D02*
X009300Y030264D01*
X009390Y030174D01*
X009210Y030174D02*
X009210Y029994D01*
X009096Y030129D02*
X009051Y030084D01*
X008916Y030084D01*
X008916Y029994D02*
X008916Y030264D01*
X009051Y030264D01*
X009096Y030219D01*
X009096Y030129D01*
X008891Y030195D02*
X006766Y030195D01*
X006766Y031445D01*
X008891Y031445D01*
X008891Y030195D01*
X007692Y029965D02*
X007692Y029785D01*
X007692Y029920D02*
X007512Y029920D01*
X007512Y029965D02*
X007602Y030056D01*
X007692Y029965D01*
X007512Y029965D02*
X007512Y029785D01*
X007398Y029785D02*
X007398Y030056D01*
X007217Y030056D02*
X007217Y029785D01*
X007103Y029830D02*
X007103Y030011D01*
X007058Y030056D01*
X006968Y030056D01*
X006923Y030011D01*
X006923Y029830D01*
X006968Y029785D01*
X007058Y029785D01*
X007103Y029830D01*
X007217Y030056D02*
X007398Y029785D01*
X006808Y029830D02*
X006763Y029785D01*
X006673Y029785D01*
X006628Y029830D01*
X006628Y030011D01*
X006673Y030056D01*
X006763Y030056D01*
X006808Y030011D01*
X006766Y030195D02*
X005641Y030195D01*
X005641Y031445D01*
X006766Y031445D01*
X022537Y011742D02*
X022537Y010946D01*
X025458Y010946D01*
X025458Y011742D01*
X026333Y011742D01*
X026333Y010946D01*
X025458Y010946D01*
X025269Y010501D02*
X025269Y009251D01*
X023144Y009251D01*
X023144Y010501D01*
X025269Y010501D01*
X025458Y011742D02*
X022537Y011742D01*
X022019Y010501D02*
X022019Y009251D01*
X023144Y009251D01*
X023141Y009111D02*
X023051Y009111D01*
X023006Y009066D01*
X023006Y008885D01*
X023051Y008840D01*
X023141Y008840D01*
X023186Y008885D01*
X023301Y008885D02*
X023346Y008840D01*
X023436Y008840D01*
X023481Y008885D01*
X023481Y009066D01*
X023436Y009111D01*
X023346Y009111D01*
X023301Y009066D01*
X023301Y008885D01*
X023186Y009066D02*
X023141Y009111D01*
X023595Y009111D02*
X023776Y008840D01*
X023776Y009111D01*
X023890Y009021D02*
X023980Y009111D01*
X024070Y009021D01*
X024070Y008840D01*
X024070Y008976D02*
X023890Y008976D01*
X023890Y009021D02*
X023890Y008840D01*
X023595Y008840D02*
X023595Y009111D01*
X023144Y010501D02*
X022019Y010501D01*
X025293Y009319D02*
X025293Y009049D01*
X025293Y009139D02*
X025429Y009139D01*
X025474Y009184D01*
X025474Y009274D01*
X025429Y009319D01*
X025293Y009319D01*
X025588Y009229D02*
X025588Y009049D01*
X025588Y009184D02*
X025768Y009184D01*
X025768Y009229D02*
X025768Y009049D01*
X025883Y009049D02*
X025883Y009319D01*
X026018Y009319D01*
X026063Y009274D01*
X026063Y009094D01*
X026018Y009049D01*
X025883Y009049D01*
X025768Y009229D02*
X025678Y009319D01*
X025588Y009229D01*
X026177Y009184D02*
X026268Y009229D01*
X026313Y009229D01*
X026358Y009184D01*
X026358Y009094D01*
X026313Y009049D01*
X026222Y009049D01*
X026177Y009094D01*
X026177Y009184D02*
X026177Y009319D01*
X026358Y009319D01*
X030585Y009269D02*
X030585Y007356D01*
X031530Y007356D01*
X031530Y009269D01*
X030585Y009269D01*
X031421Y011782D02*
X031556Y011782D01*
X031601Y011828D01*
X031601Y011873D01*
X031556Y011918D01*
X031421Y011918D01*
X031421Y012053D02*
X031556Y012053D01*
X031601Y012008D01*
X031601Y011963D01*
X031556Y011918D01*
X031716Y012008D02*
X031716Y011828D01*
X031761Y011782D01*
X031851Y011782D01*
X031896Y011828D01*
X031896Y012008D01*
X031851Y012053D01*
X031761Y012053D01*
X031716Y012008D01*
X032010Y012008D02*
X032010Y011828D01*
X032055Y011782D01*
X032145Y011782D01*
X032190Y011828D01*
X032190Y012008D01*
X032145Y012053D01*
X032055Y012053D01*
X032010Y012008D01*
X032305Y012053D02*
X032485Y012053D01*
X032395Y012053D02*
X032395Y011782D01*
X031421Y011782D02*
X031421Y012053D01*
X034148Y017175D02*
X034148Y017445D01*
X034283Y017445D01*
X034328Y017400D01*
X034328Y017310D01*
X034283Y017265D01*
X034148Y017265D01*
X034238Y017265D02*
X034328Y017175D01*
X034442Y017175D02*
X034442Y017445D01*
X034623Y017445D01*
X034737Y017400D02*
X034737Y017220D01*
X034782Y017175D01*
X034872Y017175D01*
X034917Y017220D01*
X034917Y017310D01*
X034827Y017310D01*
X034737Y017400D02*
X034782Y017445D01*
X034872Y017445D01*
X034917Y017400D01*
X035032Y017355D02*
X035122Y017445D01*
X035212Y017355D01*
X035212Y017175D01*
X035212Y017310D02*
X035032Y017310D01*
X035032Y017355D02*
X035032Y017175D01*
X034623Y017175D02*
X034442Y017175D01*
X034442Y017310D02*
X034533Y017310D01*
X031089Y006643D02*
X030774Y006643D01*
X030459Y006643D01*
X030459Y004990D01*
X030774Y004990D01*
X031089Y004990D01*
X031089Y006643D01*
X031369Y006311D02*
X031324Y006266D01*
X031324Y006086D01*
X031369Y006041D01*
X031459Y006041D01*
X031504Y006086D01*
X031618Y006041D02*
X031799Y006221D01*
X031799Y006266D01*
X031753Y006311D01*
X031663Y006311D01*
X031618Y006266D01*
X031504Y006266D02*
X031459Y006311D01*
X031369Y006311D01*
X031618Y006041D02*
X031799Y006041D01*
X030935Y006030D02*
X030935Y005850D01*
X030755Y006030D01*
X030710Y006030D01*
X030665Y005985D01*
X030665Y005895D01*
X030710Y005850D01*
X030710Y005736D02*
X030800Y005736D01*
X030845Y005690D01*
X030845Y005555D01*
X030935Y005555D02*
X030665Y005555D01*
X030665Y005690D01*
X030710Y005736D01*
X030845Y005645D02*
X030935Y005736D01*
X032381Y004621D02*
X032652Y004621D01*
X032652Y004531D02*
X032652Y004711D01*
X032471Y004531D02*
X032381Y004621D01*
X032381Y004417D02*
X032652Y004417D01*
X032561Y004327D01*
X032652Y004236D01*
X032381Y004236D01*
X032426Y004122D02*
X032381Y004077D01*
X032381Y003987D01*
X032426Y003942D01*
X032471Y003942D01*
X032516Y003987D01*
X032516Y004077D01*
X032561Y004122D01*
X032606Y004122D01*
X032652Y004077D01*
X032652Y003987D01*
X032606Y003942D01*
X032955Y003336D02*
X032955Y003021D01*
X032955Y002706D01*
X031301Y002706D01*
X031301Y003021D01*
X031301Y003336D01*
X032955Y003336D01*
X032236Y003170D02*
X032236Y002899D01*
X032146Y002899D02*
X032326Y002899D01*
X032146Y003080D02*
X032236Y003170D01*
X032031Y003125D02*
X032031Y003035D01*
X031986Y002990D01*
X031851Y002990D01*
X031941Y002990D02*
X032031Y002899D01*
X031851Y002899D02*
X031851Y003170D01*
X031986Y003170D01*
X032031Y003125D01*
X032055Y001580D02*
X032010Y001535D01*
X032010Y001355D01*
X032055Y001310D01*
X032145Y001310D01*
X032190Y001355D01*
X032190Y001535D01*
X032145Y001580D01*
X032055Y001580D01*
X031896Y001535D02*
X031851Y001580D01*
X031761Y001580D01*
X031716Y001535D01*
X031716Y001355D01*
X031761Y001310D01*
X031851Y001310D01*
X031896Y001355D01*
X031896Y001535D01*
X031601Y001535D02*
X031601Y001490D01*
X031556Y001445D01*
X031421Y001445D01*
X031421Y001310D02*
X031421Y001580D01*
X031556Y001580D01*
X031601Y001535D01*
X031556Y001445D02*
X031601Y001400D01*
X031601Y001355D01*
X031556Y001310D01*
X031421Y001310D01*
X032305Y001580D02*
X032485Y001580D01*
X032395Y001580D02*
X032395Y001310D01*
X034452Y001129D02*
X034632Y001129D01*
X034722Y001039D01*
X034632Y000948D01*
X034452Y000948D01*
X034452Y000834D02*
X034452Y000654D01*
X034587Y000654D01*
X034542Y000744D01*
X034542Y000789D01*
X034587Y000834D01*
X034677Y000834D01*
X034722Y000789D01*
X034722Y000699D01*
X034677Y000654D01*
X009955Y000474D02*
X009080Y000474D01*
X009080Y001270D01*
X009955Y001270D01*
X009955Y000474D01*
X009080Y000474D02*
X006159Y000474D01*
X006159Y001270D01*
X009080Y001270D01*
D13*
X016798Y005726D02*
X016798Y005844D01*
X016837Y005883D01*
X016915Y005883D01*
X016955Y005844D01*
X016955Y005726D01*
X017033Y005726D02*
X016798Y005726D01*
X016955Y005805D02*
X017033Y005883D01*
X017033Y005980D02*
X017033Y006137D01*
X016994Y006234D02*
X017033Y006273D01*
X017033Y006352D01*
X016994Y006391D01*
X016915Y006391D01*
X016915Y006312D01*
X016837Y006234D02*
X016994Y006234D01*
X016837Y006234D02*
X016798Y006273D01*
X016798Y006352D01*
X016837Y006391D01*
X016798Y006488D02*
X016798Y006605D01*
X016837Y006645D01*
X016876Y006645D01*
X016915Y006605D01*
X016915Y006488D01*
X016798Y006488D02*
X017033Y006488D01*
X017033Y006605D01*
X016994Y006645D01*
X016955Y006645D01*
X016915Y006605D01*
X016798Y006137D02*
X016798Y005980D01*
X017033Y005980D01*
X016915Y005980D02*
X016915Y006059D01*
X019442Y007254D02*
X019560Y007254D01*
X019599Y007293D01*
X019599Y007332D01*
X019560Y007372D01*
X019442Y007372D01*
X019442Y007254D02*
X019442Y007490D01*
X019560Y007490D01*
X019599Y007450D01*
X019599Y007411D01*
X019560Y007372D01*
X019696Y007372D02*
X019853Y007372D01*
X019853Y007411D02*
X019853Y007254D01*
X019853Y007411D02*
X019774Y007490D01*
X019696Y007411D01*
X019696Y007254D01*
X020028Y007254D02*
X020028Y007490D01*
X019950Y007490D02*
X020107Y007490D01*
X017033Y016199D02*
X016798Y016199D01*
X016798Y016317D01*
X016837Y016356D01*
X016915Y016356D01*
X016955Y016317D01*
X016955Y016199D01*
X016955Y016277D02*
X017033Y016356D01*
X017033Y016453D02*
X017033Y016610D01*
X016994Y016706D02*
X017033Y016746D01*
X017033Y016824D01*
X016994Y016863D01*
X016915Y016863D01*
X016915Y016785D01*
X016837Y016863D02*
X016798Y016824D01*
X016798Y016746D01*
X016837Y016706D01*
X016994Y016706D01*
X016915Y016531D02*
X016915Y016453D01*
X016798Y016453D02*
X017033Y016453D01*
X016798Y016453D02*
X016798Y016610D01*
X016798Y016960D02*
X016798Y017078D01*
X016837Y017117D01*
X016876Y017117D01*
X016915Y017078D01*
X016915Y016960D01*
X016798Y016960D02*
X017033Y016960D01*
X017033Y017078D01*
X016994Y017117D01*
X016955Y017117D01*
X016915Y017078D01*
X019442Y017726D02*
X019560Y017726D01*
X019599Y017766D01*
X019599Y017805D01*
X019560Y017844D01*
X019442Y017844D01*
X019442Y017726D02*
X019442Y017962D01*
X019560Y017962D01*
X019599Y017923D01*
X019599Y017883D01*
X019560Y017844D01*
X019696Y017844D02*
X019853Y017844D01*
X019853Y017883D02*
X019853Y017726D01*
X019696Y017726D02*
X019696Y017883D01*
X019774Y017962D01*
X019853Y017883D01*
X019950Y017962D02*
X020107Y017962D01*
X020028Y017962D02*
X020028Y017726D01*
X017033Y026671D02*
X016798Y026671D01*
X016798Y026789D01*
X016837Y026828D01*
X016915Y026828D01*
X016955Y026789D01*
X016955Y026671D01*
X016955Y026750D02*
X017033Y026828D01*
X017033Y026925D02*
X017033Y027082D01*
X016994Y027179D02*
X017033Y027218D01*
X017033Y027297D01*
X016994Y027336D01*
X016915Y027336D01*
X016915Y027257D01*
X016837Y027179D02*
X016994Y027179D01*
X016837Y027179D02*
X016798Y027218D01*
X016798Y027297D01*
X016837Y027336D01*
X016798Y027432D02*
X016798Y027550D01*
X016837Y027590D01*
X016876Y027590D01*
X016915Y027550D01*
X016915Y027432D01*
X016798Y027432D02*
X017033Y027432D01*
X017033Y027550D01*
X016994Y027590D01*
X016955Y027590D01*
X016915Y027550D01*
X016798Y027082D02*
X016798Y026925D01*
X017033Y026925D01*
X016915Y026925D02*
X016915Y027004D01*
X019442Y028199D02*
X019560Y028199D01*
X019599Y028238D01*
X019599Y028277D01*
X019560Y028317D01*
X019442Y028317D01*
X019442Y028199D02*
X019442Y028435D01*
X019560Y028435D01*
X019599Y028395D01*
X019599Y028356D01*
X019560Y028317D01*
X019696Y028317D02*
X019853Y028317D01*
X019853Y028356D02*
X019853Y028199D01*
X019853Y028356D02*
X019774Y028435D01*
X019696Y028356D01*
X019696Y028199D01*
X020028Y028199D02*
X020028Y028435D01*
X019950Y028435D02*
X020107Y028435D01*
X033176Y027550D02*
X033215Y027590D01*
X033254Y027590D01*
X033293Y027550D01*
X033293Y027432D01*
X033293Y027336D02*
X033293Y027257D01*
X033293Y027336D02*
X033372Y027336D01*
X033411Y027297D01*
X033411Y027218D01*
X033372Y027179D01*
X033215Y027179D01*
X033176Y027218D01*
X033176Y027297D01*
X033215Y027336D01*
X033176Y027432D02*
X033176Y027550D01*
X033293Y027550D02*
X033333Y027590D01*
X033372Y027590D01*
X033411Y027550D01*
X033411Y027432D01*
X033176Y027432D01*
X033176Y027082D02*
X033176Y026925D01*
X033411Y026925D01*
X033411Y027082D01*
X033293Y027004D02*
X033293Y026925D01*
X033293Y026828D02*
X033333Y026789D01*
X033333Y026671D01*
X033411Y026671D02*
X033176Y026671D01*
X033176Y026789D01*
X033215Y026828D01*
X033293Y026828D01*
X033333Y026750D02*
X033411Y026828D01*
X035820Y028199D02*
X035938Y028199D01*
X035977Y028238D01*
X035977Y028277D01*
X035938Y028317D01*
X035820Y028317D01*
X035820Y028199D02*
X035820Y028435D01*
X035938Y028435D01*
X035977Y028395D01*
X035977Y028356D01*
X035938Y028317D01*
X036074Y028317D02*
X036231Y028317D01*
X036231Y028356D02*
X036231Y028199D01*
X036231Y028356D02*
X036152Y028435D01*
X036074Y028356D01*
X036074Y028199D01*
X036406Y028199D02*
X036406Y028435D01*
X036328Y028435D02*
X036485Y028435D01*
X036485Y017962D02*
X036328Y017962D01*
X036406Y017962D02*
X036406Y017726D01*
X036231Y017726D02*
X036231Y017883D01*
X036152Y017962D01*
X036074Y017883D01*
X036074Y017726D01*
X035977Y017766D02*
X035938Y017726D01*
X035820Y017726D01*
X035820Y017962D01*
X035938Y017962D01*
X035977Y017923D01*
X035977Y017883D01*
X035938Y017844D01*
X035820Y017844D01*
X035938Y017844D02*
X035977Y017805D01*
X035977Y017766D01*
X036074Y017844D02*
X036231Y017844D01*
X033411Y017078D02*
X033411Y016960D01*
X033176Y016960D01*
X033176Y017078D01*
X033215Y017117D01*
X033254Y017117D01*
X033293Y017078D01*
X033293Y016960D01*
X033293Y016863D02*
X033293Y016785D01*
X033293Y016863D02*
X033372Y016863D01*
X033411Y016824D01*
X033411Y016746D01*
X033372Y016706D01*
X033215Y016706D01*
X033176Y016746D01*
X033176Y016824D01*
X033215Y016863D01*
X033293Y017078D02*
X033333Y017117D01*
X033372Y017117D01*
X033411Y017078D01*
X033411Y016610D02*
X033411Y016453D01*
X033176Y016453D01*
X033176Y016610D01*
X033293Y016531D02*
X033293Y016453D01*
X033293Y016356D02*
X033333Y016317D01*
X033333Y016199D01*
X033333Y016277D02*
X033411Y016356D01*
X033293Y016356D02*
X033215Y016356D01*
X033176Y016317D01*
X033176Y016199D01*
X033411Y016199D01*
X035820Y007490D02*
X035938Y007490D01*
X035977Y007450D01*
X035977Y007411D01*
X035938Y007372D01*
X035820Y007372D01*
X035820Y007254D02*
X035820Y007490D01*
X035938Y007372D02*
X035977Y007332D01*
X035977Y007293D01*
X035938Y007254D01*
X035820Y007254D01*
X036074Y007254D02*
X036074Y007411D01*
X036152Y007490D01*
X036231Y007411D01*
X036231Y007254D01*
X036231Y007372D02*
X036074Y007372D01*
X036328Y007490D02*
X036485Y007490D01*
X036406Y007490D02*
X036406Y007254D01*
X033411Y006605D02*
X033411Y006488D01*
X033176Y006488D01*
X033176Y006605D01*
X033215Y006645D01*
X033254Y006645D01*
X033293Y006605D01*
X033293Y006488D01*
X033293Y006391D02*
X033293Y006312D01*
X033293Y006391D02*
X033372Y006391D01*
X033411Y006352D01*
X033411Y006273D01*
X033372Y006234D01*
X033215Y006234D01*
X033176Y006273D01*
X033176Y006352D01*
X033215Y006391D01*
X033293Y006605D02*
X033333Y006645D01*
X033372Y006645D01*
X033411Y006605D01*
X033411Y006137D02*
X033411Y005980D01*
X033176Y005980D01*
X033176Y006137D01*
X033293Y006059D02*
X033293Y005980D01*
X033293Y005883D02*
X033333Y005844D01*
X033333Y005726D01*
X033411Y005726D02*
X033176Y005726D01*
X033176Y005844D01*
X033215Y005883D01*
X033293Y005883D01*
X033333Y005805D02*
X033411Y005883D01*
D14*
X033313Y005609D02*
X033289Y005569D01*
X033262Y005531D01*
X033232Y005495D01*
X033199Y005462D01*
X033164Y005432D01*
X033126Y005405D01*
X033087Y005380D01*
X033045Y005360D01*
X033002Y005342D01*
X032958Y005328D01*
X032912Y005318D01*
X032866Y005311D01*
X032820Y005308D01*
X032773Y005309D01*
X032727Y005314D01*
X032681Y005322D01*
X032636Y005334D01*
X032592Y005349D01*
X032550Y005369D01*
X032509Y005391D01*
X032470Y005417D01*
X032434Y005445D01*
X032400Y005477D01*
X032368Y005511D01*
X032368Y006862D01*
X032372Y006862D01*
X032368Y006862D02*
X032400Y006895D01*
X032435Y006926D01*
X032472Y006953D01*
X032511Y006978D01*
X032552Y006999D01*
X032594Y007017D01*
X032638Y007032D01*
X032683Y007043D01*
X032729Y007050D01*
X032775Y007054D01*
X032821Y007053D01*
X032867Y007050D01*
X032913Y007042D01*
X032958Y007031D01*
X033001Y007016D01*
X033044Y006998D01*
X033085Y006976D01*
X033123Y006951D01*
X033160Y006923D01*
X033195Y006892D01*
X033226Y006859D01*
X033255Y006823D01*
X033281Y006785D01*
X033304Y006744D01*
X034226Y007718D02*
X034226Y007945D01*
X034339Y007832D02*
X034112Y007832D01*
X035467Y007895D02*
X035693Y007895D01*
X035580Y008008D02*
X035580Y007781D01*
X031709Y004930D02*
X031482Y004930D01*
X031596Y004817D02*
X031596Y005044D01*
X035619Y002189D02*
X035619Y001962D01*
X035676Y001906D01*
X035789Y001906D01*
X035846Y001962D01*
X035846Y002076D01*
X035732Y002076D01*
X035619Y002189D02*
X035676Y002246D01*
X035789Y002246D01*
X035846Y002189D01*
X035987Y002246D02*
X036157Y002246D01*
X036214Y002189D01*
X036214Y002076D01*
X036157Y002019D01*
X035987Y002019D01*
X035987Y001906D02*
X035987Y002246D01*
X036355Y002189D02*
X036355Y002132D01*
X036412Y002076D01*
X036526Y002076D01*
X036582Y002019D01*
X036582Y001962D01*
X036526Y001906D01*
X036412Y001906D01*
X036355Y001962D01*
X036355Y002189D02*
X036412Y002246D01*
X036526Y002246D01*
X036582Y002189D01*
X036526Y012378D02*
X036412Y012378D01*
X036355Y012435D01*
X036412Y012548D02*
X036526Y012548D01*
X036582Y012491D01*
X036582Y012435D01*
X036526Y012378D01*
X036412Y012548D02*
X036355Y012605D01*
X036355Y012662D01*
X036412Y012718D01*
X036526Y012718D01*
X036582Y012662D01*
X036214Y012662D02*
X036214Y012548D01*
X036157Y012491D01*
X035987Y012491D01*
X035987Y012378D02*
X035987Y012718D01*
X036157Y012718D01*
X036214Y012662D01*
X035846Y012662D02*
X035789Y012718D01*
X035676Y012718D01*
X035619Y012662D01*
X035619Y012435D01*
X035676Y012378D01*
X035789Y012378D01*
X035846Y012435D01*
X035846Y012548D01*
X035732Y012548D01*
X032368Y015984D02*
X032368Y017334D01*
X032372Y017334D01*
X032368Y017334D02*
X032400Y017367D01*
X032435Y017398D01*
X032472Y017425D01*
X032511Y017450D01*
X032552Y017471D01*
X032594Y017489D01*
X032638Y017504D01*
X032683Y017515D01*
X032729Y017522D01*
X032775Y017526D01*
X032821Y017525D01*
X032867Y017522D01*
X032913Y017514D01*
X032958Y017503D01*
X033001Y017488D01*
X033044Y017470D01*
X033085Y017448D01*
X033123Y017423D01*
X033160Y017395D01*
X033195Y017364D01*
X033226Y017331D01*
X033255Y017295D01*
X033281Y017257D01*
X033304Y017216D01*
X033313Y016082D02*
X033289Y016042D01*
X033262Y016004D01*
X033232Y015968D01*
X033199Y015935D01*
X033164Y015905D01*
X033126Y015878D01*
X033087Y015853D01*
X033045Y015833D01*
X033002Y015815D01*
X032958Y015801D01*
X032912Y015791D01*
X032866Y015784D01*
X032820Y015781D01*
X032773Y015782D01*
X032727Y015787D01*
X032681Y015795D01*
X032636Y015807D01*
X032592Y015822D01*
X032550Y015842D01*
X032509Y015864D01*
X032470Y015890D01*
X032434Y015918D01*
X032400Y015950D01*
X032368Y015984D01*
X031709Y015403D02*
X031482Y015403D01*
X031596Y015516D02*
X031596Y015289D01*
X034226Y018191D02*
X034226Y018418D01*
X034339Y018304D02*
X034112Y018304D01*
X035467Y018367D02*
X035693Y018367D01*
X035580Y018254D02*
X035580Y018481D01*
X035676Y022850D02*
X035789Y022850D01*
X035846Y022907D01*
X035846Y023021D01*
X035732Y023021D01*
X035619Y023134D02*
X035619Y022907D01*
X035676Y022850D01*
X035619Y023134D02*
X035676Y023191D01*
X035789Y023191D01*
X035846Y023134D01*
X035987Y023191D02*
X036157Y023191D01*
X036214Y023134D01*
X036214Y023021D01*
X036157Y022964D01*
X035987Y022964D01*
X035987Y022850D02*
X035987Y023191D01*
X036355Y023134D02*
X036355Y023077D01*
X036412Y023021D01*
X036526Y023021D01*
X036582Y022964D01*
X036582Y022907D01*
X036526Y022850D01*
X036412Y022850D01*
X036355Y022907D01*
X036355Y023134D02*
X036412Y023191D01*
X036526Y023191D01*
X036582Y023134D01*
X033313Y026554D02*
X033289Y026514D01*
X033262Y026476D01*
X033232Y026440D01*
X033199Y026407D01*
X033164Y026377D01*
X033126Y026350D01*
X033087Y026325D01*
X033045Y026305D01*
X033002Y026287D01*
X032958Y026273D01*
X032912Y026263D01*
X032866Y026256D01*
X032820Y026253D01*
X032773Y026254D01*
X032727Y026259D01*
X032681Y026267D01*
X032636Y026279D01*
X032592Y026294D01*
X032550Y026314D01*
X032509Y026336D01*
X032470Y026362D01*
X032434Y026390D01*
X032400Y026422D01*
X032368Y026456D01*
X032368Y027807D01*
X032372Y027807D01*
X032368Y027806D02*
X032400Y027839D01*
X032435Y027870D01*
X032472Y027897D01*
X032511Y027922D01*
X032552Y027943D01*
X032594Y027961D01*
X032638Y027976D01*
X032683Y027987D01*
X032729Y027994D01*
X032775Y027998D01*
X032821Y027997D01*
X032867Y027994D01*
X032913Y027986D01*
X032958Y027975D01*
X033001Y027960D01*
X033044Y027942D01*
X033085Y027920D01*
X033123Y027895D01*
X033160Y027867D01*
X033195Y027836D01*
X033226Y027803D01*
X033255Y027767D01*
X033281Y027729D01*
X033304Y027688D01*
X034226Y028663D02*
X034226Y028890D01*
X034339Y028777D02*
X034112Y028777D01*
X035467Y028840D02*
X035693Y028840D01*
X035580Y028953D02*
X035580Y028726D01*
X031709Y025875D02*
X031482Y025875D01*
X031596Y025762D02*
X031596Y025989D01*
X025151Y022584D02*
X025094Y022641D01*
X024980Y022641D01*
X024924Y022584D01*
X024924Y022358D01*
X024980Y022301D01*
X025094Y022301D01*
X025151Y022358D01*
X025151Y022471D01*
X025037Y022471D01*
X024782Y022358D02*
X024782Y022584D01*
X024726Y022641D01*
X024612Y022641D01*
X024555Y022584D01*
X024555Y022358D01*
X024612Y022301D01*
X024726Y022301D01*
X024782Y022358D01*
X024414Y022301D02*
X024301Y022414D01*
X024357Y022414D02*
X024187Y022414D01*
X024187Y022301D02*
X024187Y022641D01*
X024357Y022641D01*
X024414Y022584D01*
X024414Y022471D01*
X024357Y022414D01*
X024046Y022471D02*
X023989Y022414D01*
X023819Y022414D01*
X023819Y022301D02*
X023819Y022641D01*
X023989Y022641D01*
X024046Y022584D01*
X024046Y022471D01*
X023287Y022844D02*
X023060Y022844D01*
X023174Y022844D02*
X023174Y022504D01*
X022919Y022504D02*
X022919Y022844D01*
X022692Y022844D02*
X022692Y022504D01*
X022550Y022504D02*
X022550Y022731D01*
X022437Y022844D01*
X022324Y022731D01*
X022324Y022504D01*
X022324Y022674D02*
X022550Y022674D01*
X022692Y022844D02*
X022919Y022504D01*
X020204Y022907D02*
X020148Y022850D01*
X020034Y022850D01*
X019977Y022907D01*
X020034Y023021D02*
X020148Y023021D01*
X020204Y022964D01*
X020204Y022907D01*
X020034Y023021D02*
X019977Y023077D01*
X019977Y023134D01*
X020034Y023191D01*
X020148Y023191D01*
X020204Y023134D01*
X019836Y023134D02*
X019836Y023021D01*
X019779Y022964D01*
X019609Y022964D01*
X019609Y022850D02*
X019609Y023191D01*
X019779Y023191D01*
X019836Y023134D01*
X019468Y023134D02*
X019411Y023191D01*
X019298Y023191D01*
X019241Y023134D01*
X019241Y022907D01*
X019298Y022850D01*
X019411Y022850D01*
X019468Y022907D01*
X019468Y023021D01*
X019354Y023021D01*
X022695Y025495D02*
X022808Y025609D01*
X023035Y025609D01*
X022865Y025609D02*
X022865Y025382D01*
X022808Y025382D02*
X022695Y025495D01*
X022808Y025382D02*
X023035Y025382D01*
X022988Y026984D02*
X022648Y026984D01*
X022648Y027154D01*
X022704Y027211D01*
X022761Y027211D01*
X022818Y027154D01*
X022818Y026984D01*
X022988Y026984D02*
X022988Y027154D01*
X022931Y027211D01*
X022875Y027211D01*
X022818Y027154D01*
X022712Y029524D02*
X022939Y029524D01*
X022996Y029580D01*
X022996Y029694D01*
X022939Y029751D01*
X022712Y029751D02*
X022656Y029694D01*
X022656Y029580D01*
X022712Y029524D01*
X019315Y028840D02*
X019089Y028840D01*
X019202Y028953D02*
X019202Y028726D01*
X017961Y028777D02*
X017734Y028777D01*
X017848Y028890D02*
X017848Y028663D01*
X016926Y027688D02*
X016903Y027729D01*
X016877Y027767D01*
X016848Y027803D01*
X016817Y027836D01*
X016782Y027867D01*
X016745Y027895D01*
X016707Y027920D01*
X016666Y027942D01*
X016623Y027960D01*
X016580Y027975D01*
X016535Y027986D01*
X016489Y027994D01*
X016443Y027997D01*
X016397Y027998D01*
X016351Y027994D01*
X016305Y027987D01*
X016260Y027976D01*
X016216Y027961D01*
X016174Y027943D01*
X016133Y027922D01*
X016094Y027897D01*
X016057Y027870D01*
X016022Y027839D01*
X015990Y027806D01*
X015990Y027807D02*
X015990Y026456D01*
X016022Y026422D01*
X016056Y026390D01*
X016092Y026362D01*
X016131Y026336D01*
X016172Y026314D01*
X016214Y026294D01*
X016258Y026279D01*
X016303Y026267D01*
X016349Y026259D01*
X016395Y026254D01*
X016442Y026253D01*
X016488Y026256D01*
X016534Y026263D01*
X016580Y026273D01*
X016624Y026287D01*
X016667Y026305D01*
X016709Y026325D01*
X016748Y026350D01*
X016786Y026377D01*
X016821Y026407D01*
X016854Y026440D01*
X016884Y026476D01*
X016911Y026514D01*
X016935Y026554D01*
X015994Y027807D02*
X015990Y027807D01*
X015218Y025989D02*
X015218Y025762D01*
X015331Y025875D02*
X015104Y025875D01*
X008773Y022584D02*
X008716Y022641D01*
X008602Y022641D01*
X008546Y022584D01*
X008546Y022358D01*
X008602Y022301D01*
X008716Y022301D01*
X008773Y022358D01*
X008773Y022471D01*
X008659Y022471D01*
X008404Y022358D02*
X008404Y022584D01*
X008348Y022641D01*
X008234Y022641D01*
X008177Y022584D01*
X008177Y022358D01*
X008234Y022301D01*
X008348Y022301D01*
X008404Y022358D01*
X008036Y022301D02*
X007923Y022414D01*
X007979Y022414D02*
X007809Y022414D01*
X007809Y022301D02*
X007809Y022641D01*
X007979Y022641D01*
X008036Y022584D01*
X008036Y022471D01*
X007979Y022414D01*
X007668Y022471D02*
X007611Y022414D01*
X007441Y022414D01*
X007441Y022301D02*
X007441Y022641D01*
X007611Y022641D01*
X007668Y022584D01*
X007668Y022471D01*
X006909Y022844D02*
X006682Y022844D01*
X006796Y022844D02*
X006796Y022504D01*
X006541Y022504D02*
X006541Y022844D01*
X006314Y022844D02*
X006541Y022504D01*
X006314Y022504D02*
X006314Y022844D01*
X006172Y022731D02*
X006172Y022504D01*
X006172Y022674D02*
X005946Y022674D01*
X005946Y022731D02*
X006059Y022844D01*
X006172Y022731D01*
X005946Y022731D02*
X005946Y022504D01*
X006430Y025382D02*
X006317Y025495D01*
X006430Y025609D01*
X006657Y025609D01*
X006487Y025609D02*
X006487Y025382D01*
X006430Y025382D02*
X006657Y025382D01*
X006610Y026984D02*
X006270Y026984D01*
X006270Y027154D01*
X006326Y027211D01*
X006383Y027211D01*
X006440Y027154D01*
X006440Y026984D01*
X006610Y026984D02*
X006610Y027154D01*
X006553Y027211D01*
X006497Y027211D01*
X006440Y027154D01*
X006334Y029524D02*
X006278Y029580D01*
X006278Y029694D01*
X006334Y029751D01*
X006561Y029751D02*
X006618Y029694D01*
X006618Y029580D01*
X006561Y029524D01*
X006334Y029524D01*
X006334Y019278D02*
X006278Y019221D01*
X006278Y019108D01*
X006334Y019051D01*
X006561Y019051D01*
X006618Y019108D01*
X006618Y019221D01*
X006561Y019278D01*
X006553Y016739D02*
X006610Y016682D01*
X006610Y016512D01*
X006270Y016512D01*
X006270Y016682D01*
X006326Y016739D01*
X006383Y016739D01*
X006440Y016682D01*
X006440Y016512D01*
X006440Y016682D02*
X006497Y016739D01*
X006553Y016739D01*
X006487Y015136D02*
X006487Y014910D01*
X006430Y014910D02*
X006317Y015023D01*
X006430Y015136D01*
X006657Y015136D01*
X006657Y014910D02*
X006430Y014910D01*
X006541Y012372D02*
X006541Y012032D01*
X006314Y012372D01*
X006314Y012032D01*
X006172Y012032D02*
X006172Y012258D01*
X006059Y012372D01*
X005946Y012258D01*
X005946Y012032D01*
X005946Y012202D02*
X006172Y012202D01*
X006682Y012372D02*
X006909Y012372D01*
X006796Y012372D02*
X006796Y012032D01*
X007441Y011942D02*
X007611Y011942D01*
X007668Y011999D01*
X007668Y012112D01*
X007611Y012169D01*
X007441Y012169D01*
X007441Y011828D01*
X007809Y011828D02*
X007809Y012169D01*
X007979Y012169D01*
X008036Y012112D01*
X008036Y011999D01*
X007979Y011942D01*
X007809Y011942D01*
X007923Y011942D02*
X008036Y011828D01*
X008177Y011885D02*
X008234Y011828D01*
X008348Y011828D01*
X008404Y011885D01*
X008404Y012112D01*
X008348Y012169D01*
X008234Y012169D01*
X008177Y012112D01*
X008177Y011885D01*
X008546Y011885D02*
X008602Y011828D01*
X008716Y011828D01*
X008773Y011885D01*
X008773Y011999D01*
X008659Y011999D01*
X008546Y012112D02*
X008546Y011885D01*
X008546Y012112D02*
X008602Y012169D01*
X008716Y012169D01*
X008773Y012112D01*
X006561Y008806D02*
X006618Y008749D01*
X006618Y008636D01*
X006561Y008579D01*
X006334Y008579D01*
X006278Y008636D01*
X006278Y008749D01*
X006334Y008806D01*
X006326Y006266D02*
X006270Y006210D01*
X006270Y006039D01*
X006610Y006039D01*
X006610Y006210D01*
X006553Y006266D01*
X006497Y006266D01*
X006440Y006210D01*
X006440Y006039D01*
X006440Y006210D02*
X006383Y006266D01*
X006326Y006266D01*
X006430Y004664D02*
X006657Y004664D01*
X006487Y004664D02*
X006487Y004437D01*
X006430Y004437D02*
X006317Y004551D01*
X006430Y004664D01*
X006430Y004437D02*
X006657Y004437D01*
X006682Y001899D02*
X006909Y001899D01*
X006796Y001899D02*
X006796Y001559D01*
X006541Y001559D02*
X006541Y001899D01*
X006314Y001899D02*
X006541Y001559D01*
X006314Y001559D02*
X006314Y001899D01*
X006172Y001786D02*
X006172Y001559D01*
X006172Y001729D02*
X005946Y001729D01*
X005946Y001786D02*
X006059Y001899D01*
X006172Y001786D01*
X005946Y001786D02*
X005946Y001559D01*
X007441Y001469D02*
X007611Y001469D01*
X007668Y001526D01*
X007668Y001640D01*
X007611Y001696D01*
X007441Y001696D01*
X007441Y001356D01*
X007809Y001356D02*
X007809Y001696D01*
X007979Y001696D01*
X008036Y001640D01*
X008036Y001526D01*
X007979Y001469D01*
X007809Y001469D01*
X007923Y001469D02*
X008036Y001356D01*
X008177Y001413D02*
X008234Y001356D01*
X008348Y001356D01*
X008404Y001413D01*
X008404Y001640D01*
X008348Y001696D01*
X008234Y001696D01*
X008177Y001640D01*
X008177Y001413D01*
X008546Y001413D02*
X008602Y001356D01*
X008716Y001356D01*
X008773Y001413D01*
X008773Y001526D01*
X008659Y001526D01*
X008546Y001413D02*
X008546Y001640D01*
X008602Y001696D01*
X008716Y001696D01*
X008773Y001640D01*
X015104Y004930D02*
X015331Y004930D01*
X015218Y004817D02*
X015218Y005044D01*
X015990Y005511D02*
X015990Y006862D01*
X015994Y006862D01*
X015990Y006862D02*
X016022Y006895D01*
X016057Y006926D01*
X016094Y006953D01*
X016133Y006978D01*
X016174Y006999D01*
X016216Y007017D01*
X016260Y007032D01*
X016305Y007043D01*
X016351Y007050D01*
X016397Y007054D01*
X016443Y007053D01*
X016489Y007050D01*
X016535Y007042D01*
X016580Y007031D01*
X016623Y007016D01*
X016666Y006998D01*
X016707Y006976D01*
X016745Y006951D01*
X016782Y006923D01*
X016817Y006892D01*
X016848Y006859D01*
X016877Y006823D01*
X016903Y006785D01*
X016926Y006744D01*
X016935Y005609D02*
X016911Y005569D01*
X016884Y005531D01*
X016854Y005495D01*
X016821Y005462D01*
X016786Y005432D01*
X016748Y005405D01*
X016709Y005380D01*
X016667Y005360D01*
X016624Y005342D01*
X016580Y005328D01*
X016534Y005318D01*
X016488Y005311D01*
X016442Y005308D01*
X016395Y005309D01*
X016349Y005314D01*
X016303Y005322D01*
X016258Y005334D01*
X016214Y005349D01*
X016172Y005369D01*
X016131Y005391D01*
X016092Y005417D01*
X016056Y005445D01*
X016022Y005477D01*
X015990Y005511D01*
X017848Y007718D02*
X017848Y007945D01*
X017961Y007832D02*
X017734Y007832D01*
X019089Y007895D02*
X019315Y007895D01*
X019202Y008008D02*
X019202Y007781D01*
X022656Y008636D02*
X022712Y008579D01*
X022939Y008579D01*
X022996Y008636D01*
X022996Y008749D01*
X022939Y008806D01*
X022712Y008806D02*
X022656Y008749D01*
X022656Y008636D01*
X022704Y006266D02*
X022761Y006266D01*
X022818Y006210D01*
X022818Y006039D01*
X022988Y006039D02*
X022648Y006039D01*
X022648Y006210D01*
X022704Y006266D01*
X022818Y006210D02*
X022875Y006266D01*
X022931Y006266D01*
X022988Y006210D01*
X022988Y006039D01*
X023035Y004664D02*
X022808Y004664D01*
X022695Y004551D01*
X022808Y004437D01*
X023035Y004437D01*
X022865Y004437D02*
X022865Y004664D01*
X020204Y002189D02*
X020148Y002246D01*
X020034Y002246D01*
X019977Y002189D01*
X019977Y002132D01*
X020034Y002076D01*
X020148Y002076D01*
X020204Y002019D01*
X020204Y001962D01*
X020148Y001906D01*
X020034Y001906D01*
X019977Y001962D01*
X019836Y002076D02*
X019779Y002019D01*
X019609Y002019D01*
X019609Y001906D02*
X019609Y002246D01*
X019779Y002246D01*
X019836Y002189D01*
X019836Y002076D01*
X019468Y002076D02*
X019468Y001962D01*
X019411Y001906D01*
X019298Y001906D01*
X019241Y001962D01*
X019241Y002189D01*
X019298Y002246D01*
X019411Y002246D01*
X019468Y002189D01*
X019468Y002076D02*
X019354Y002076D01*
X022324Y001786D02*
X022324Y001559D01*
X022324Y001729D02*
X022550Y001729D01*
X022550Y001786D02*
X022550Y001559D01*
X022692Y001559D02*
X022692Y001899D01*
X022919Y001559D01*
X022919Y001899D01*
X023060Y001899D02*
X023287Y001899D01*
X023174Y001899D02*
X023174Y001559D01*
X022550Y001786D02*
X022437Y001899D01*
X022324Y001786D01*
X023819Y001696D02*
X023819Y001356D01*
X023819Y001469D02*
X023989Y001469D01*
X024046Y001526D01*
X024046Y001640D01*
X023989Y001696D01*
X023819Y001696D01*
X024187Y001696D02*
X024187Y001356D01*
X024187Y001469D02*
X024357Y001469D01*
X024414Y001526D01*
X024414Y001640D01*
X024357Y001696D01*
X024187Y001696D01*
X024301Y001469D02*
X024414Y001356D01*
X024555Y001413D02*
X024612Y001356D01*
X024726Y001356D01*
X024782Y001413D01*
X024782Y001640D01*
X024726Y001696D01*
X024612Y001696D01*
X024555Y001640D01*
X024555Y001413D01*
X024924Y001413D02*
X024980Y001356D01*
X025094Y001356D01*
X025151Y001413D01*
X025151Y001526D01*
X025037Y001526D01*
X024924Y001413D02*
X024924Y001640D01*
X024980Y001696D01*
X025094Y001696D01*
X025151Y001640D01*
X025094Y011828D02*
X025151Y011885D01*
X025151Y011999D01*
X025037Y011999D01*
X024924Y012112D02*
X024924Y011885D01*
X024980Y011828D01*
X025094Y011828D01*
X025151Y012112D02*
X025094Y012169D01*
X024980Y012169D01*
X024924Y012112D01*
X024782Y012112D02*
X024726Y012169D01*
X024612Y012169D01*
X024555Y012112D01*
X024555Y011885D01*
X024612Y011828D01*
X024726Y011828D01*
X024782Y011885D01*
X024782Y012112D01*
X024414Y012112D02*
X024414Y011999D01*
X024357Y011942D01*
X024187Y011942D01*
X024301Y011942D02*
X024414Y011828D01*
X024187Y011828D02*
X024187Y012169D01*
X024357Y012169D01*
X024414Y012112D01*
X024046Y012112D02*
X024046Y011999D01*
X023989Y011942D01*
X023819Y011942D01*
X023819Y011828D02*
X023819Y012169D01*
X023989Y012169D01*
X024046Y012112D01*
X023287Y012372D02*
X023060Y012372D01*
X023174Y012372D02*
X023174Y012032D01*
X022919Y012032D02*
X022919Y012372D01*
X022692Y012372D02*
X022692Y012032D01*
X022550Y012032D02*
X022550Y012258D01*
X022437Y012372D01*
X022324Y012258D01*
X022324Y012032D01*
X022324Y012202D02*
X022550Y012202D01*
X022692Y012372D02*
X022919Y012032D01*
X020204Y012435D02*
X020148Y012378D01*
X020034Y012378D01*
X019977Y012435D01*
X020034Y012548D02*
X020148Y012548D01*
X020204Y012491D01*
X020204Y012435D01*
X020034Y012548D02*
X019977Y012605D01*
X019977Y012662D01*
X020034Y012718D01*
X020148Y012718D01*
X020204Y012662D01*
X019836Y012662D02*
X019836Y012548D01*
X019779Y012491D01*
X019609Y012491D01*
X019609Y012378D02*
X019609Y012718D01*
X019779Y012718D01*
X019836Y012662D01*
X019468Y012662D02*
X019411Y012718D01*
X019298Y012718D01*
X019241Y012662D01*
X019241Y012435D01*
X019298Y012378D01*
X019411Y012378D01*
X019468Y012435D01*
X019468Y012548D01*
X019354Y012548D01*
X022695Y015023D02*
X022808Y015136D01*
X023035Y015136D01*
X022865Y015136D02*
X022865Y014910D01*
X022808Y014910D02*
X022695Y015023D01*
X022808Y014910D02*
X023035Y014910D01*
X022988Y016512D02*
X022648Y016512D01*
X022648Y016682D01*
X022704Y016739D01*
X022761Y016739D01*
X022818Y016682D01*
X022818Y016512D01*
X022988Y016512D02*
X022988Y016682D01*
X022931Y016739D01*
X022875Y016739D01*
X022818Y016682D01*
X022712Y019051D02*
X022939Y019051D01*
X022996Y019108D01*
X022996Y019221D01*
X022939Y019278D01*
X022712Y019278D02*
X022656Y019221D01*
X022656Y019108D01*
X022712Y019051D01*
X019315Y018367D02*
X019089Y018367D01*
X019202Y018254D02*
X019202Y018481D01*
X017961Y018304D02*
X017734Y018304D01*
X017848Y018191D02*
X017848Y018418D01*
X016926Y017216D02*
X016903Y017257D01*
X016877Y017295D01*
X016848Y017331D01*
X016817Y017364D01*
X016782Y017395D01*
X016745Y017423D01*
X016707Y017448D01*
X016666Y017470D01*
X016623Y017488D01*
X016580Y017503D01*
X016535Y017514D01*
X016489Y017522D01*
X016443Y017525D01*
X016397Y017526D01*
X016351Y017522D01*
X016305Y017515D01*
X016260Y017504D01*
X016216Y017489D01*
X016174Y017471D01*
X016133Y017450D01*
X016094Y017425D01*
X016057Y017398D01*
X016022Y017367D01*
X015990Y017334D01*
X015990Y015984D01*
X016022Y015950D01*
X016056Y015918D01*
X016092Y015890D01*
X016131Y015864D01*
X016172Y015842D01*
X016214Y015822D01*
X016258Y015807D01*
X016303Y015795D01*
X016349Y015787D01*
X016395Y015782D01*
X016442Y015781D01*
X016488Y015784D01*
X016534Y015791D01*
X016580Y015801D01*
X016624Y015815D01*
X016667Y015833D01*
X016709Y015853D01*
X016748Y015878D01*
X016786Y015905D01*
X016821Y015935D01*
X016854Y015968D01*
X016884Y016004D01*
X016911Y016042D01*
X016935Y016082D01*
X015994Y017334D02*
X015990Y017334D01*
X015218Y015516D02*
X015218Y015289D01*
X015331Y015403D02*
X015104Y015403D01*
D15*
X017908Y013687D02*
X018668Y013687D01*
X018530Y013824D01*
X018668Y013687D02*
X018671Y013687D01*
X018534Y013549D01*
X019451Y013750D02*
X020242Y013750D01*
X020242Y012946D01*
X019443Y012946D01*
X019443Y016750D01*
X020242Y016750D01*
X020242Y013750D01*
X020242Y006277D02*
X019443Y006277D01*
X019443Y002474D01*
X020242Y002474D01*
X020242Y003277D01*
X019451Y003277D01*
X018671Y003214D02*
X018534Y003076D01*
X018668Y003214D02*
X018530Y003352D01*
X018668Y003214D02*
X018671Y003214D01*
X018668Y003214D02*
X017908Y003214D01*
X020242Y003277D02*
X020242Y006277D01*
X034286Y003214D02*
X035046Y003214D01*
X034908Y003352D01*
X035046Y003214D02*
X035049Y003214D01*
X034912Y003076D01*
X035829Y003277D02*
X036620Y003277D01*
X036620Y002474D01*
X035821Y002474D01*
X035821Y006277D01*
X036620Y006277D01*
X036620Y003277D01*
X036620Y012946D02*
X035821Y012946D01*
X035821Y016750D01*
X036620Y016750D01*
X036620Y013750D01*
X035829Y013750D01*
X036620Y013750D02*
X036620Y012946D01*
X035049Y013687D02*
X034912Y013549D01*
X035046Y013687D02*
X034908Y013824D01*
X035046Y013687D02*
X035049Y013687D01*
X035046Y013687D02*
X034286Y013687D01*
X035821Y023419D02*
X036620Y023419D01*
X036620Y024222D01*
X035829Y024222D01*
X036620Y024222D02*
X036620Y027222D01*
X035821Y027222D01*
X035821Y023419D01*
X035049Y024159D02*
X034912Y024021D01*
X035046Y024159D02*
X034908Y024297D01*
X035046Y024159D02*
X035049Y024159D01*
X035046Y024159D02*
X034286Y024159D01*
X020242Y024222D02*
X020242Y023419D01*
X019443Y023419D01*
X019443Y027222D01*
X020242Y027222D01*
X020242Y024222D01*
X019451Y024222D01*
X018671Y024159D02*
X018534Y024021D01*
X018668Y024159D02*
X018530Y024297D01*
X018668Y024159D02*
X018671Y024159D01*
X018668Y024159D02*
X017908Y024159D01*
D16*
X016280Y029226D02*
X016282Y029237D01*
X016287Y029246D01*
X016295Y029254D01*
X016305Y029258D01*
X016316Y029259D01*
X016326Y029256D01*
X016335Y029250D01*
X016342Y029242D01*
X016346Y029231D01*
X016346Y029221D01*
X016342Y029210D01*
X016335Y029202D01*
X016326Y029196D01*
X016316Y029193D01*
X016305Y029194D01*
X016295Y029198D01*
X016287Y029206D01*
X016282Y029215D01*
X016280Y029226D01*
X016280Y018754D02*
X016282Y018765D01*
X016287Y018774D01*
X016295Y018782D01*
X016305Y018786D01*
X016316Y018787D01*
X016326Y018784D01*
X016335Y018778D01*
X016342Y018770D01*
X016346Y018759D01*
X016346Y018749D01*
X016342Y018738D01*
X016335Y018730D01*
X016326Y018724D01*
X016316Y018721D01*
X016305Y018722D01*
X016295Y018726D01*
X016287Y018734D01*
X016282Y018743D01*
X016280Y018754D01*
X016280Y008281D02*
X016282Y008292D01*
X016287Y008301D01*
X016295Y008309D01*
X016305Y008313D01*
X016316Y008314D01*
X016326Y008311D01*
X016335Y008305D01*
X016342Y008297D01*
X016346Y008286D01*
X016346Y008276D01*
X016342Y008265D01*
X016335Y008257D01*
X016326Y008251D01*
X016316Y008248D01*
X016305Y008249D01*
X016295Y008253D01*
X016287Y008261D01*
X016282Y008270D01*
X016280Y008281D01*
X032658Y008281D02*
X032660Y008292D01*
X032665Y008301D01*
X032673Y008309D01*
X032683Y008313D01*
X032694Y008314D01*
X032704Y008311D01*
X032713Y008305D01*
X032720Y008297D01*
X032724Y008286D01*
X032724Y008276D01*
X032720Y008265D01*
X032713Y008257D01*
X032704Y008251D01*
X032694Y008248D01*
X032683Y008249D01*
X032673Y008253D01*
X032665Y008261D01*
X032660Y008270D01*
X032658Y008281D01*
X032658Y018754D02*
X032660Y018765D01*
X032665Y018774D01*
X032673Y018782D01*
X032683Y018786D01*
X032694Y018787D01*
X032704Y018784D01*
X032713Y018778D01*
X032720Y018770D01*
X032724Y018759D01*
X032724Y018749D01*
X032720Y018738D01*
X032713Y018730D01*
X032704Y018724D01*
X032694Y018721D01*
X032683Y018722D01*
X032673Y018726D01*
X032665Y018734D01*
X032660Y018743D01*
X032658Y018754D01*
X032658Y029226D02*
X032660Y029237D01*
X032665Y029246D01*
X032673Y029254D01*
X032683Y029258D01*
X032694Y029259D01*
X032704Y029256D01*
X032713Y029250D01*
X032720Y029242D01*
X032724Y029231D01*
X032724Y029221D01*
X032720Y029210D01*
X032713Y029202D01*
X032704Y029196D01*
X032694Y029193D01*
X032683Y029194D01*
X032673Y029198D01*
X032665Y029206D01*
X032660Y029215D01*
X032658Y029226D01*
M02*
