%
M48
M72
T01C0.0118
T02C0.0130
T03C0.0157
T04C0.0197
T05C0.0236
T06C0.0276
T07C0.0315
T08C0.0354
T09C0.0394
T10C0.0433
T11C0.0472
T12C0.0591
T13C0.0709
T14C0.0787
T15C0.0984
T16C0.1181
T17C0.1260
%
T01
X8258Y8907
X8392Y5380
X7148Y6415
X7171Y4364
X5801Y1261
X5565Y8903
X6459Y2340
X6455Y7832
X8258Y19380
X8392Y15852
X7148Y16887
X7171Y14836
X5801Y11734
X5565Y19376
X6459Y12813
X6455Y18305
X8258Y29852
X8392Y26324
X7148Y27360
X7171Y25309
X5801Y22206
X5565Y29848
X6459Y23285
X6455Y28777
X24636Y29852
X24770Y26324
X23526Y27360
X23549Y25309
X22179Y22206
X21943Y29848
X22837Y23285
X22833Y28777
X24636Y19380
X24770Y15852
X23526Y16887
X23549Y14836
X22179Y11734
X21943Y19376
X22837Y12813
X22833Y18305
X24636Y8907
X24770Y5380
X23526Y6415
X23549Y4364
X22179Y1261
X21943Y8903
X22837Y2340
X22833Y7832
T02
X17652Y3643
X18675Y4864
X18912Y6832
X12691Y1517
X12927Y9234
X12888Y6320
X16431Y3801
X15723Y9313
X15486Y8486
X10998Y6596
X8754Y1675
X10605Y7423
X15841Y4588
X15171Y9313
X9148Y1360
X9502Y5887
X15880Y8250
X12612Y8643
X17297Y5179
X17376Y8289
X12140Y7620
X14384Y5218
X8794Y2974
X11786Y2777
X13557Y1950
X11943Y4155
X12927Y7108
X12573Y1990
X16707Y8210
X19109Y5572
X17770Y7187
X17967Y5651
X9857Y5887
X11510Y6635
X17652Y14116
X18675Y15336
X18912Y17305
X12691Y11990
X12927Y19706
X12888Y16793
X16431Y14273
X15723Y19785
X15486Y18958
X10998Y17069
X8754Y12147
X10605Y17895
X15841Y15061
X15171Y19785
X9148Y11832
X9502Y16360
X15880Y18722
X12612Y19116
X17297Y15651
X17376Y18761
X12140Y18092
X14384Y15691
X8794Y13446
X11786Y13250
X13557Y12423
X11943Y14628
X12927Y17580
X12573Y12462
X16707Y18683
X19109Y16045
X17770Y17659
X17967Y16124
X9857Y16360
X11510Y17108
X17652Y24588
X18675Y25809
X18912Y27777
X12691Y22462
X12927Y30179
X12888Y27265
X16431Y24746
X15723Y30257
X15486Y29431
X10998Y27541
X8754Y22620
X10605Y28368
X15841Y25533
X15171Y30257
X9148Y22305
X9502Y26832
X15880Y29194
X12612Y29588
X17297Y26124
X17376Y29234
X12140Y28565
X14384Y26163
X8794Y23919
X11786Y23722
X13557Y22895
X11943Y25100
X12927Y28053
X12573Y22935
X16707Y29155
X19109Y26517
X17770Y28131
X17967Y26596
X9857Y26832
X11510Y27580
X34030Y24588
X35053Y25809
X35290Y27777
X29069Y22462
X29305Y30179
X29266Y27265
X32809Y24746
X32101Y30257
X31864Y29431
X27376Y27541
X25132Y22620
X26983Y28368
X32219Y25533
X31549Y30257
X25526Y22305
X25880Y26832
X32258Y29194
X28990Y29588
X33675Y26124
X33754Y29234
X28518Y28565
X30762Y26163
X25171Y23919
X28164Y23722
X29935Y22895
X28321Y25100
X29305Y28053
X28951Y22935
X33085Y29155
X35486Y26517
X34148Y28131
X34345Y26596
X26234Y26832
X27888Y27580
X34030Y14116
X35053Y15336
X35290Y17305
X29069Y11990
X29305Y19706
X29266Y16793
X32809Y14273
X32101Y19785
X31864Y18958
X27376Y17069
X25132Y12147
X26983Y17895
X32219Y15061
X31549Y19785
X25526Y11832
X25880Y16360
X32258Y18722
X28990Y19116
X33675Y15651
X33754Y18761
X28518Y18092
X30762Y15691
X25171Y13446
X28164Y13250
X29935Y12423
X28321Y14628
X29305Y17580
X28951Y12462
X33085Y18683
X35486Y16045
X34148Y17659
X34345Y16124
X26234Y16360
X27888Y17108
X34030Y3643
X35053Y4864
X35290Y6832
X29069Y1517
X29305Y9234
X29266Y6320
X32809Y3801
X32101Y9313
X31864Y8486
X27376Y6596
X25132Y1675
X26983Y7423
X32219Y4588
X31549Y9313
X25526Y1360
X25880Y5887
X32258Y8250
X28990Y8643
X33675Y5179
X33754Y8289
X28518Y7620
X30762Y5218
X25171Y2974
X28164Y2777
X29935Y1950
X28321Y4155
X29305Y7108
X28951Y1990
X33085Y8210
X35486Y5572
X34148Y7187
X34345Y5651
X26234Y5887
X27888Y6635
T03
X6455Y8336
X6455Y18809
X6455Y29281
X22833Y29281
X22833Y18809
X22833Y8336
T04
X6451Y4990
X6451Y5746
X5908Y5376
X6451Y15462
X6451Y16218
X5908Y15848
X6451Y25935
X6451Y26691
X5908Y26320
X22829Y25935
X22829Y26691
X22286Y26320
X22829Y15462
X22829Y16218
X22286Y15848
X22829Y4990
X22829Y5746
X22286Y5376
T05
X4557Y7320
X4561Y3415
X4557Y6832
X4561Y3911
X4557Y17793
X4561Y13887
X4557Y17305
X4561Y14383
X4557Y28265
X4561Y24360
X4557Y27777
X4561Y24856
X20935Y28265
X20939Y24360
X20935Y27777
X20939Y24856
X20935Y17793
X20939Y13887
X20935Y17305
X20939Y14383
X20935Y7320
X20939Y3415
X20935Y6832
X20939Y3911
X7471Y1647
X7471Y12120
X7471Y22592
X23849Y22592
X23849Y12120
X23849Y1647
T06
X14396Y4635
X14396Y6998
X14569Y3021
X16931Y3021
X18388Y4309
X16734Y4309
X16486Y6679
X16486Y6179
X16486Y5679
X14396Y15108
X14396Y17470
X14569Y13494
X16931Y13494
X18388Y14781
X16734Y14781
X16486Y17151
X16486Y16651
X16486Y16151
X14396Y25580
X14396Y27943
X14569Y23966
X16931Y23966
X18388Y25254
X16734Y25254
X16486Y27624
X16486Y27124
X16486Y26624
X30774Y25580
X30774Y27943
X30947Y23966
X33309Y23966
X34766Y25254
X33112Y25254
X32864Y27624
X32864Y27124
X32864Y26624
X30774Y15108
X30774Y17470
X30947Y13494
X33309Y13494
X34766Y14781
X33112Y14781
X32864Y17151
X32864Y16651
X32864Y16151
X30774Y4635
X30774Y6998
X30947Y3021
X33309Y3021
X34766Y4309
X33112Y4309
X32864Y6679
X32864Y6179
X32864Y5679
T07
X17561Y4309
X15927Y8781
X18927Y8781
X18368Y8777
X16479Y8777
X17561Y14781
X15927Y19254
X18927Y19254
X18368Y19250
X16479Y19250
X17561Y25254
X15927Y29726
X18927Y29726
X18368Y29722
X16479Y29722
X33939Y25254
X32305Y29726
X35305Y29726
X34746Y29722
X32857Y29722
X33939Y14781
X32305Y19254
X35305Y19254
X34746Y19250
X32857Y19250
X33939Y4309
X32305Y8781
X35305Y8781
X34746Y8777
X32857Y8777
T08
X19845Y6876
X19845Y5876
X19845Y4876
X19845Y3876
X19845Y2876
X19845Y7876
X6557Y872
X7557Y872
X8557Y872
X9557Y872
X15164Y1943
X16164Y1943
X8266Y9876
X7266Y9876
X6266Y9876
X19845Y17348
X19845Y16348
X19845Y15348
X19845Y14348
X19845Y13348
X19845Y18348
X6557Y11344
X7557Y11344
X8557Y11344
X9557Y11344
X15164Y12415
X16164Y12415
X8266Y20348
X7266Y20348
X6266Y20348
X19845Y27820
X19845Y26820
X19845Y25820
X19845Y24820
X19845Y23820
X19845Y28820
X6557Y21817
X7557Y21817
X8557Y21817
X9557Y21817
X15164Y22887
X16164Y22887
X8266Y30820
X7266Y30820
X6266Y30820
X36223Y27820
X36223Y26820
X36223Y25820
X36223Y24820
X36223Y23820
X36223Y28820
X22935Y21817
X23935Y21817
X24935Y21817
X25935Y21817
X31542Y22887
X32542Y22887
X24644Y30820
X23644Y30820
X22644Y30820
X36223Y17348
X36223Y16348
X36223Y15348
X36223Y14348
X36223Y13348
X36223Y18348
X22935Y11344
X23935Y11344
X24935Y11344
X25935Y11344
X31542Y12415
X32542Y12415
X24644Y20348
X23644Y20348
X22644Y20348
X36223Y6876
X36223Y5876
X36223Y4876
X36223Y3876
X36223Y2876
X36223Y7876
X22935Y872
X23935Y872
X24935Y872
X25935Y872
X31542Y1943
X32542Y1943
X24644Y9876
X23644Y9876
X22644Y9876
T09
X17561Y9876
X17561Y876
X16561Y9876
X16561Y876
X15561Y9876
X14561Y9876
X13561Y9876
X12561Y9876
X11561Y9876
X10561Y9876
X15561Y876
X14561Y876
X13561Y876
X12561Y876
X11561Y876
X10561Y876
X9518Y9876
X17561Y20348
X17561Y11348
X16561Y20348
X16561Y11348
X15561Y20348
X14561Y20348
X13561Y20348
X12561Y20348
X11561Y20348
X10561Y20348
X15561Y11348
X14561Y11348
X13561Y11348
X12561Y11348
X11561Y11348
X10561Y11348
X9518Y20348
X17561Y30820
X17561Y21820
X16561Y30820
X16561Y21820
X15561Y30820
X14561Y30820
X13561Y30820
X12561Y30820
X11561Y30820
X10561Y30820
X15561Y21820
X14561Y21820
X13561Y21820
X12561Y21820
X11561Y21820
X10561Y21820
X9518Y30820
X33939Y30820
X33939Y21820
X32939Y30820
X32939Y21820
X31939Y30820
X30939Y30820
X29939Y30820
X28939Y30820
X27939Y30820
X26939Y30820
X31939Y21820
X30939Y21820
X29939Y21820
X28939Y21820
X27939Y21820
X26939Y21820
X25896Y30820
X33939Y20348
X33939Y11348
X32939Y20348
X32939Y11348
X31939Y20348
X30939Y20348
X29939Y20348
X28939Y20348
X27939Y20348
X26939Y20348
X31939Y11348
X30939Y11348
X29939Y11348
X28939Y11348
X27939Y11348
X26939Y11348
X25896Y20348
X33939Y9876
X33939Y876
X32939Y9876
X32939Y876
X31939Y9876
X30939Y9876
X29939Y9876
X28939Y9876
X27939Y9876
X26939Y9876
X31939Y876
X30939Y876
X29939Y876
X28939Y876
X27939Y876
X26939Y876
X25896Y9876
T10
X4707Y5376
X5711Y4372
X5711Y6379
X16971Y1946
X14372Y1946
X4707Y15848
X5711Y14844
X5711Y16852
X16971Y12419
X14372Y12419
X4707Y26320
X5711Y25317
X5711Y27324
X16971Y22891
X14372Y22891
X21085Y26320
X22089Y25317
X22089Y27324
X33349Y22891
X30750Y22891
X21085Y15848
X22089Y14844
X22089Y16852
X33349Y12419
X30750Y12419
X21085Y5376
X22089Y4372
X22089Y6379
X33349Y1946
X30750Y1946
T11
X14679Y8813
X14679Y7813
X14679Y19285
X14679Y18285
X14679Y29757
X14679Y28757
X31057Y29757
X31057Y28757
X31057Y19285
X31057Y18285
X31057Y8813
X31057Y7813
T12
X5447Y3407
X5447Y7344
X5447Y13880
X5447Y17817
X5447Y24352
X5447Y28289
X21825Y24352
X21825Y28289
X21825Y13880
X21825Y17817
X21825Y3407
X21825Y7344
T13
X5053Y2423
X5053Y8328
X5053Y12895
X5053Y18801
X5053Y23368
X5053Y29273
X21431Y23368
X21431Y29273
X21431Y12895
X21431Y18801
X21431Y2423
X21431Y8328
T14
X19620Y1045
X19620Y9706
X5053Y1045
X5053Y9706
X19620Y11517
X19620Y20179
X5053Y11517
X5053Y20179
X19620Y21990
X19620Y30651
X5053Y21990
X5053Y30651
X35998Y21990
X35998Y30651
X21431Y21990
X21431Y30651
X35998Y11517
X35998Y20179
X21431Y11517
X21431Y20179
X35998Y1045
X35998Y9706
X21431Y1045
X21431Y9706
T15
X18553Y7679
X18553Y18151
X18553Y28624
X34931Y28624
X34931Y18151
X34931Y7679
T16
X15105Y3998
X15105Y14470
X15105Y24943
X31483Y24943
X31483Y14470
X31483Y3998
T17
X18144Y2254
X18144Y12726
X18144Y23198
X34522Y23198
X34522Y12726
X34522Y2254
M30
